<?xml version="1.0" encoding="UTF-8" standalone="no"?>
<!-- Created with Inkscape (http://www.inkscape.org/) -->

<svg
   xmlns:dc="http://purl.org/dc/elements/1.1/"
   xmlns:cc="http://creativecommons.org/ns#"
   xmlns:rdf="http://www.w3.org/1999/02/22-rdf-syntax-ns#"
   xmlns:svg="http://www.w3.org/2000/svg"
   xmlns="http://www.w3.org/2000/svg"
   xmlns:sodipodi="http://sodipodi.sourceforge.net/DTD/sodipodi-0.dtd"
   xmlns:inkscape="http://www.inkscape.org/namespaces/inkscape"
   width="210mm"
   height="297mm"
   viewBox="0 0 210 297"
   version="1.1"
   id="svg8"
   inkscape:version="0.92.4 (5da689c313, 2019-01-14)"
   sodipodi:docname="alpha_i.svg">
  <defs
     id="defs2">
    <marker
       inkscape:isstock="true"
       style="overflow:visible;"
       id="marker1654"
       refX="0.0"
       refY="0.0"
       orient="auto"
       inkscape:stockid="Arrow1Mend">
      <path
         transform="scale(0.4) rotate(180) translate(10,0)"
         style="fill-rule:evenodd;stroke:#000000;stroke-width:1pt;stroke-opacity:1;fill:#000000;fill-opacity:1"
         d="M 0.0,0.0 L 5.0,-5.0 L -12.5,0.0 L 5.0,5.0 L 0.0,0.0 z "
         id="path1652" />
    </marker>
    <marker
       inkscape:stockid="Arrow1Mend"
       orient="auto"
       refY="0.0"
       refX="0.0"
       id="marker1375"
       style="overflow:visible;"
       inkscape:isstock="true"
       inkscape:collect="always">
      <path
         id="path1373"
         d="M 0.0,0.0 L 5.0,-5.0 L -12.5,0.0 L 5.0,5.0 L 0.0,0.0 z "
         style="fill-rule:evenodd;stroke:#000000;stroke-width:1pt;stroke-opacity:1;fill:#000000;fill-opacity:1"
         transform="scale(0.4) rotate(180) translate(10,0)" />
    </marker>
    <marker
       inkscape:stockid="Arrow1Mend"
       orient="auto"
       refY="0.0"
       refX="0.0"
       id="marker1235"
       style="overflow:visible;"
       inkscape:isstock="true">
      <path
         id="path1233"
         d="M 0.0,0.0 L 5.0,-5.0 L -12.5,0.0 L 5.0,5.0 L 0.0,0.0 z "
         style="fill-rule:evenodd;stroke:#000000;stroke-width:1pt;stroke-opacity:1;fill:#000000;fill-opacity:1"
         transform="scale(0.4) rotate(180) translate(10,0)" />
    </marker>
    <marker
       inkscape:isstock="true"
       style="overflow:visible;"
       id="marker1195"
       refX="0.0"
       refY="0.0"
       orient="auto"
       inkscape:stockid="Arrow1Mend"
       inkscape:collect="always">
      <path
         transform="scale(0.4) rotate(180) translate(10,0)"
         style="fill-rule:evenodd;stroke:#000000;stroke-width:1pt;stroke-opacity:1;fill:#000000;fill-opacity:1"
         d="M 0.0,0.0 L 5.0,-5.0 L -12.5,0.0 L 5.0,5.0 L 0.0,0.0 z "
         id="path1193" />
    </marker>
    <marker
       inkscape:stockid="Arrow1Mend"
       orient="auto"
       refY="0.0"
       refX="0.0"
       id="Arrow1Mend"
       style="overflow:visible;"
       inkscape:isstock="true"
       inkscape:collect="always">
      <path
         id="path910"
         d="M 0.0,0.0 L 5.0,-5.0 L -12.5,0.0 L 5.0,5.0 L 0.0,0.0 z "
         style="fill-rule:evenodd;stroke:#000000;stroke-width:1pt;stroke-opacity:1;fill:#000000;fill-opacity:1"
         transform="scale(0.4) rotate(180) translate(10,0)" />
    </marker>
  </defs>
  <sodipodi:namedview
     id="base"
     pagecolor="#ffffff"
     bordercolor="#666666"
     borderopacity="1.0"
     inkscape:pageopacity="0.0"
     inkscape:pageshadow="2"
     inkscape:zoom="6.6171876"
     inkscape:cx="399.43197"
     inkscape:cy="976.71818"
     inkscape:document-units="mm"
     inkscape:current-layer="layer1"
     showgrid="false"
     showguides="true"
     inkscape:guide-bbox="true"
     inkscape:window-width="1024"
     inkscape:window-height="703"
     inkscape:window-x="0"
     inkscape:window-y="0"
     inkscape:window-maximized="1" />
  <metadata
     id="metadata5">
    <rdf:RDF>
      <cc:Work
         rdf:about="">
        <dc:format>image/svg+xml</dc:format>
        <dc:type
           rdf:resource="http://purl.org/dc/dcmitype/StillImage" />
        <dc:title></dc:title>
      </cc:Work>
    </rdf:RDF>
  </metadata>
  <g
     inkscape:label="Ebene 1"
     inkscape:groupmode="layer"
     id="layer1">
    <circle
       style="fill:none;fill-opacity:1;stroke:#000000;stroke-width:0.265;stroke-miterlimit:4;stroke-dasharray:none;stroke-dashoffset:0;stroke-opacity:1"
       id="path815"
       cx="62.271576"
       cy="45.740326"
       r="21.450148" />
    <circle
       style="fill:none;fill-opacity:1;stroke:#000000;stroke-width:0.15;stroke-miterlimit:4;stroke-dasharray:none;stroke-dashoffset:0;stroke-opacity:1"
       id="path815-8"
       cx="62.399479"
       cy="45.645832"
       r="16.589474" />
    <circle
       style="fill:none;fill-opacity:1;stroke:#000000;stroke-width:0.15;stroke-miterlimit:4;stroke-dasharray:none;stroke-dashoffset:0;stroke-opacity:1"
       id="path815-8-5"
       cx="62.407433"
       cy="45.599598"
       r="11.462462" />
    <circle
       style="fill:none;fill-opacity:1;stroke:#000000;stroke-width:0.15;stroke-miterlimit:4;stroke-dasharray:none;stroke-dashoffset:0;stroke-opacity:1"
       id="path815-8-5-2"
       cx="62.354454"
       cy="45.626583"
       r="6.6350808" />
    <circle
       style="fill:#000000;fill-opacity:1;stroke:#000000;stroke-width:0.01135289;stroke-miterlimit:4;stroke-dasharray:none;stroke-dashoffset:0;stroke-opacity:1"
       id="path815-8-5-2-0"
       cx="62.336121"
       cy="45.665997"
       r="1.6234754" />
    <path
       style="fill:#999999;fill-opacity:1;stroke:#999999;stroke-width:0.03579281;stroke-miterlimit:4;stroke-dasharray:none;stroke-dashoffset:0;stroke-opacity:1"
       d="m 233.99647,197.3591 c -7.43347,-0.59302 -13.95891,-4.15675 -18.34709,-10.01988 -2.42115,-3.23494 -4.06265,-7.18552 -4.66435,-11.22562 -0.40421,-2.71406 -0.3222,-5.91463 0.2202,-8.59294 2.44646,-12.08048 13.32931,-20.5679 25.6363,-19.99348 7.45971,0.34818 14.3419,4.00229 18.82017,9.99262 1.99229,2.66498 3.45014,5.75981 4.25711,9.0373 0.73803,2.99753 0.89448,6.41792 0.4363,9.53872 -1.53458,10.45255 -9.59978,18.87201 -19.98091,20.85856 -1.5298,0.29275 -2.52458,0.38674 -4.32585,0.40872 -0.95491,0.0117 -1.87826,0.01 -2.05188,-0.004 z m 3.12516,-18.77128 c 2.08064,-0.5415 3.73351,-2.10607 4.37524,-4.14151 0.30422,-0.96492 0.36592,-1.87551 0.19479,-2.87467 -0.61674,-3.60076 -4.14812,-5.87265 -7.6931,-4.9493 -1.73409,0.45168 -3.22618,1.7169 -4.01839,3.40742 -0.39699,0.84716 -0.52481,1.478 -0.52442,2.58826 2.5e-4,0.77505 0.0254,1.0395 0.13813,1.45632 0.33154,1.22535 0.86131,2.1349 1.72827,2.96719 0.91542,0.87882 1.93719,1.40837 3.1694,1.6426 0.66701,0.12679 1.95395,0.0797 2.63008,-0.0963 z"
       id="path883"
       inkscape:connector-curvature="0"
       transform="scale(0.26458333)" />
    <path
       style="fill:#b3b3b3;fill-opacity:1;stroke:#b3b3b3;stroke-width:0.05061867;stroke-miterlimit:4;stroke-dasharray:none;stroke-dashoffset:0;stroke-opacity:1"
       d="m 233.00182,215.38094 c -0.17188,-0.0166 -0.77456,-0.0729 -1.33929,-0.12519 -9.78678,-0.90637 -19.25718,-5.38918 -26.29464,-12.44654 -7.17418,-7.19447 -11.44699,-16.34262 -12.4707,-26.69996 -0.16839,-1.7037 -0.1423,-6.25964 0.0458,-7.99107 0.78155,-7.19528 3.05177,-13.5892 6.91098,-19.46428 2.7498,-4.18618 6.28642,-7.93063 10.33538,-10.94275 12.9839,-9.65906 30.4249,-11.1938 44.90094,-3.9511 1.67134,0.83621 2.46061,1.28011 3.93834,2.21498 4.15269,2.62716 8.10932,6.26675 11.14907,10.25572 4.33132,5.68388 7.27643,12.6129 8.31564,19.56439 0.58249,3.89646 0.64377,8.13943 0.17153,11.87661 -2.22081,17.5749 -14.9101,32.00807 -32.02403,36.42509 -3.71467,0.95874 -6.95582,1.35146 -10.96042,1.32803 -1.30134,-0.008 -2.5067,-0.0274 -2.67857,-0.0439 z m 4.51828,-17.80002 c 8.14071,-0.64219 15.31191,-4.99881 19.61093,-11.91395 2.31697,-3.72693 3.56737,-7.93762 3.70121,-12.46364 0.14086,-4.76377 -0.96296,-9.23149 -3.27824,-13.2687 -3.29921,-5.75291 -8.79481,-10.02236 -15.16469,-11.78121 -6.93125,-1.91386 -14.43348,-0.75616 -20.45892,3.15709 -2.46688,1.60213 -5.00387,4.02235 -6.71495,6.40589 -2.36103,3.28891 -3.83016,6.92577 -4.50845,11.16071 -0.22275,1.39074 -0.22663,5.6326 -0.006,7.07578 0.87558,5.73976 3.36176,10.60551 7.4492,14.57898 5.17451,5.03024 12.26285,7.60975 19.37039,7.04905 z"
       id="path885"
       inkscape:connector-curvature="0"
       transform="scale(0.26458333)" />
    <path
       style="fill:#cccccc;fill-opacity:1;stroke:#cccccc;stroke-width:0.07181102;stroke-miterlimit:4;stroke-dasharray:none;stroke-dashoffset:0;stroke-opacity:1"
       d="m 230.31741,234.69143 c -7.80797,-0.71313 -15.02766,-2.75447 -22.09709,-6.24788 -6.42875,-3.17681 -11.30817,-6.68316 -16.41987,-11.79933 -5.344,-5.34865 -9.044,-10.52536 -12.18893,-17.05365 -3.20625,-6.65558 -5.12477,-13.55745 -5.9493,-21.4026 -0.2506,-2.38433 -0.21232,-9.52221 0.0642,-11.97497 1.30111,-11.54032 5.30848,-21.84462 12.0145,-30.89338 3.50218,-4.72567 8.12475,-9.34932 12.88293,-12.88596 8.97003,-6.6672 19.41271,-10.74914 30.68339,-11.99381 2.55401,-0.28206 8.04279,-0.38155 10.73627,-0.19461 11.06826,0.76818 21.5751,4.39301 30.81082,10.62964 12.70727,8.58087 21.85892,21.69402 25.55398,36.61562 1.27476,5.1478 1.80581,9.56347 1.80581,15.01536 0,4.21406 -0.27376,7.33752 -0.98495,11.23795 -3.22059,17.66293 -13.87137,33.01139 -29.39214,42.35597 -8.05959,4.85243 -17.39733,7.82653 -27.16558,8.6523 -2.05468,0.1737 -8.18116,0.13781 -10.35406,-0.0607 z m 10.16466,-19.06781 c 8.38696,-0.93533 15.56384,-3.85818 22.34962,-9.10212 1.79939,-1.39054 5.52083,-5.07551 6.99953,-6.93093 5.14603,-6.45707 8.28178,-14.00147 9.31563,-22.41276 0.24995,-2.0336 0.20947,-8.24838 -0.0665,-10.21398 -1.41341,-10.06565 -5.55628,-18.51353 -12.4544,-25.39621 -7.12892,-7.11296 -15.73343,-11.23449 -26.14384,-12.5228 -1.74295,-0.21569 -7.47469,-0.21569 -9.21764,0 -2.19213,0.27128 -4.25941,0.64621 -6.06092,1.09922 -12.10173,3.04314 -22.44591,11.2848 -28.0501,22.34872 -2.38757,4.7136 -3.63813,8.66558 -4.41503,13.95218 -0.33163,2.25668 -0.45602,7.01582 -0.24789,9.48433 0.62774,7.44544 3.09331,14.50265 7.20779,20.63085 2.76762,4.12215 6.86634,8.34434 10.92115,11.25016 6.01713,4.31207 13.41595,7.08937 20.96067,7.86803 1.78113,0.18382 7.05371,0.15143 8.90197,-0.0547 z"
       id="path887"
       inkscape:connector-curvature="0"
       transform="scale(0.26458333)" />
    <path
       style="fill:#e6e6e6;fill-opacity:1;stroke:#e6e6e6;stroke-width:0.10123734;stroke-miterlimit:4;stroke-dasharray:none;stroke-dashoffset:0;stroke-opacity:1"
       d="m 229.75457,253.39918 c -6.81553,-0.51357 -14.09206,-1.99921 -20.45918,-4.17712 -22.48894,-7.69247 -40.356,-24.78816 -49.06834,-46.94994 -8.31738,-21.15708 -7.2378,-45.06162 2.9549,-65.42856 1.7832,-3.56317 2.58093,-4.92994 5.06541,-8.67858 6.00612,-9.06219 13.28933,-16.34385 22.40007,-22.3953 3.74167,-2.48526 5.10542,-3.28199 8.67858,-5.07018 8.26356,-4.135526 17.29859,-6.837107 26.67856,-7.977212 5.3996,-0.656303 12.9886,-0.656587 18.66823,-6.98e-4 14.07977,1.625944 27.71858,7.074924 39.09963,15.62109 18.70263,14.04403 30.28537,35.26426 32.06826,58.75087 0.40651,5.35503 0.0583,13.18291 -0.83281,18.72256 -2.36807,14.72115 -9.08746,28.97545 -18.95287,40.20601 -2.29498,2.61255 -6.39019,6.63789 -8.80044,8.6503 -12.99963,10.85388 -28.93048,17.3499 -45.78486,18.66942 -2.10415,0.16474 -9.79062,0.20235 -11.71514,0.0573 z m 13.92857,-18.35376 c 7.53644,-1.04317 13.35338,-2.79281 19.91072,-5.98883 17.34018,-8.45153 30.1226,-24.91698 33.92685,-43.70227 0.93525,-4.61824 1.21151,-7.43929 1.22868,-12.54648 0.0162,-4.82552 -0.12903,-6.79723 -0.79584,-10.80357 -3.77545,-22.68381 -20.01003,-41.74187 -41.85969,-49.13982 -4.41418,-1.49456 -9.02235,-2.50065 -13.75,-3.00197 -2.91005,-0.30859 -9.25987,-0.35096 -12.23214,-0.0816 -18.95867,1.71795 -36.09994,11.94468 -46.76614,27.90138 -3.37526,5.04941 -6.26091,11.2334 -7.93302,17.0006 -3.40827,11.75531 -3.41095,23.88801 -0.008,35.625 3.09638,10.67924 9.52573,21.04024 17.65347,28.44882 10.49091,9.56266 23.25576,15.23519 37.23215,16.54548 2.56214,0.2402 10.96671,0.0791 13.39285,-0.25672 z"
       id="path889"
       inkscape:connector-curvature="0"
       transform="scale(0.26458333)" />
    <path
       style="fill:none;stroke:#000000;stroke-width:0.265;stroke-linecap:butt;stroke-linejoin:miter;stroke-opacity:1;stroke-miterlimit:4;stroke-dasharray:none"
       d="M 62.347297,71.062489 V 67.255114"
       id="path895"
       inkscape:connector-curvature="0" />
    <path
       style="fill:none;stroke:#000000;stroke-width:0.26458332px;stroke-linecap:butt;stroke-linejoin:miter;stroke-opacity:1;marker-end:url(#Arrow1Mend)"
       d="M 62.347297,24.271493 V 17.629845"
       id="path899"
       inkscape:connector-curvature="0" />
    <path
       style="fill:none;stroke:#000000;stroke-width:0.1;stroke-linecap:butt;stroke-linejoin:miter;stroke-opacity:1;stroke-miterlimit:4;stroke-dasharray:none"
       d="M 62.347297,67.255114 V 24.271493"
       id="path1183"
       inkscape:connector-curvature="0" />
    <path
       style="fill:none;stroke:#000000;stroke-width:0.26458332px;stroke-linecap:butt;stroke-linejoin:miter;stroke-opacity:1;marker-end:url(#marker1195)"
       d="m 83.815723,45.646371 h 7.436774"
       id="path1185"
       inkscape:connector-curvature="0" />
    <path
       style="fill:none;stroke:#000000;stroke-width:0.265;stroke-linecap:butt;stroke-linejoin:miter;stroke-opacity:1;stroke-miterlimit:4;stroke-dasharray:none"
       d="m 35.856139,45.646371 h 4.882418"
       id="path1221"
       inkscape:connector-curvature="0" />
    <path
       style="fill:none;stroke:#000000;stroke-width:0.1;stroke-linecap:butt;stroke-linejoin:miter;stroke-opacity:1;stroke-miterlimit:4;stroke-dasharray:none"
       d="M 40.738557,45.646371 H 83.815721"
       id="path1223"
       inkscape:connector-curvature="0" />
    <path
       style="fill:none;stroke:#000000;stroke-width:0.26499999;stroke-linecap:butt;stroke-linejoin:miter;stroke-miterlimit:4;stroke-dasharray:none;stroke-opacity:1;marker-end:url(#marker1235)"
       d="M 106.17639,59.584478 V 26.189152"
       id="path1225"
       inkscape:connector-curvature="0" />
    <path
       style="fill:none;stroke:#000000;stroke-width:0.26499999;stroke-linecap:butt;stroke-linejoin:miter;stroke-miterlimit:4;stroke-dasharray:none;stroke-opacity:1;marker-end:url(#marker1375)"
       d="m 102.29376,55.374984 h 67.30029"
       id="path1371"
       inkscape:connector-curvature="0" />
    <rect
       style="fill:none;fill-opacity:1;stroke:#000000;stroke-width:0.26499999;stroke-miterlimit:4;stroke-dasharray:none;stroke-dashoffset:0;stroke-opacity:1"
       id="rect1569"
       width="58.371662"
       height="21.14102"
       x="106.28565"
       y="34.140423" />
    <circle
       style="fill:#000000;fill-opacity:1;stroke:#000000;stroke-width:0.01135289;stroke-miterlimit:4;stroke-dasharray:none;stroke-dashoffset:0;stroke-opacity:1"
       id="path815-8-5-2-0-4"
       cx="123.03017"
       cy="45.599602"
       r="1.6234754" />
    <rect
       style="fill:none;fill-opacity:1;stroke:#000000;stroke-width:0.15000001;stroke-miterlimit:4;stroke-dasharray:none;stroke-dashoffset:0;stroke-opacity:1"
       id="rect1612"
       width="14.085833"
       height="17.169882"
       x="119.17648"
       y="36.118584"
       ry="2.121944" />
    <rect
       style="fill:none;fill-opacity:1;stroke:#000000;stroke-width:0.15000001;stroke-miterlimit:4;stroke-dasharray:none;stroke-dashoffset:0;stroke-opacity:1"
       id="rect1616"
       width="28.33597"
       height="18.423288"
       x="115.05348"
       y="35.451004"
       ry="2.1234679" />
    <rect
       style="fill:none;fill-opacity:1;stroke:#000000;stroke-width:0.15000001;stroke-miterlimit:4;stroke-dasharray:none;stroke-dashoffset:0;stroke-opacity:1"
       id="rect1618"
       width="42.74976"
       height="19.641399"
       x="110.80789"
       y="34.798141"
       ry="2.1310561" />
    <path
       style="fill:#999999;fill-opacity:1;stroke:#999999;stroke-width:0.00883883;stroke-miterlimit:4;stroke-dasharray:none;stroke-dashoffset:0;stroke-opacity:1"
       d="m 120.7568,53.16833 c -0.72781,-0.196133 -1.33254,-0.844889 -1.49135,-1.59992 -0.0731,-0.347713 -0.0737,-13.371398 -5.2e-4,-13.723027 0.11919,-0.573331 0.56782,-1.183844 1.05111,-1.430398 0.50256,-0.256389 0.26114,-0.247018 6.01035,-0.233291 l 5.30502,0.01267 0.25724,0.104905 c 0.51898,0.211637 0.9697,0.66235 1.18133,1.18133 l 0.10491,0.257246 0.0125,6.875508 c 0.0123,6.800196 0.0114,6.878949 -0.0827,7.189689 -0.17503,0.577483 -0.63623,1.059471 -1.25158,1.307981 l -0.26843,0.108408 -5.28525,0.0091 c -4.54295,0.0078 -5.32139,-5.3e-4 -5.54251,-0.06021 z m 2.69127,-5.984047 c 0.57655,-0.148286 1.02054,-0.601091 1.17633,-1.199692 0.14114,-0.542309 -0.0181,-1.125652 -0.41757,-1.530001 -0.94561,-0.957069 -2.53641,-0.466331 -2.79527,0.862303 -0.10479,0.537875 0.0832,1.086787 0.50859,1.484649 0.24462,0.228812 0.34711,0.285017 0.70754,0.38799 0.28443,0.08126 0.48911,0.07995 0.82038,-0.0052 z"
       id="path1636"
       inkscape:connector-curvature="0" />
    <path
       style="fill:#b3b3b3;fill-opacity:1;stroke:#b3b3b3;stroke-width:0.00883883;stroke-miterlimit:4;stroke-dasharray:none;stroke-dashoffset:0;stroke-opacity:1"
       d="m 116.50217,53.708974 c -0.70619,-0.254431 -1.21812,-0.846013 -1.3559,-1.566862 -0.0389,-0.203571 -0.0496,-2.272144 -0.0394,-7.645691 l 0.0139,-7.366617 0.10841,-0.268435 c 0.24674,-0.61095 0.72732,-1.072994 1.30004,-1.249889 0.30721,-0.09489 0.36407,-0.09531 12.69336,-0.09531 12.32929,0 12.38615,5.29e-4 12.69336,0.09531 0.57272,0.176895 1.0533,0.638939 1.30004,1.249889 l 0.10841,0.268435 0.0125,7.390003 c 0.008,5.024959 -0.003,7.465819 -0.0366,7.626903 -0.13149,0.634542 -0.56291,1.189445 -1.14648,1.474621 l -0.32612,0.159366 -12.53494,0.01019 c -12.36464,0.01005 -12.53841,0.0089 -12.79055,-0.08191 z m 15.1485,-0.444704 c 0.64381,-0.151754 1.15165,-0.56552 1.443,-1.175707 l 0.17469,-0.365843 V 44.706897 37.69107 l -0.17376,-0.363903 c -0.29222,-0.611973 -0.77313,-1.010036 -1.42553,-1.179967 -0.41125,-0.107117 -10.52535,-0.104508 -10.93752,0.0028 -0.76606,0.199483 -1.41824,0.907661 -1.56506,1.699443 -0.0297,0.160289 -0.0465,2.661427 -0.046,6.87551 7.9e-4,7.182937 -0.008,6.919542 0.2537,7.436453 0.26026,0.51359 0.80217,0.943491 1.38789,1.101008 0.38615,0.103851 10.44862,0.105547 10.88861,0.0019 z"
       id="path1638"
       inkscape:connector-curvature="0" />
    <path
       style="fill:#cccccc;fill-opacity:1;stroke:#cccccc;stroke-width:0.00883883;stroke-miterlimit:4;stroke-dasharray:none;stroke-dashoffset:0;stroke-opacity:1"
       d="m 112.60475,54.361077 c -0.58358,-0.08537 -1.20591,-0.527691 -1.4983,-1.064911 -0.27374,-0.502947 -0.26365,-0.172405 -0.26453,-8.662532 -5.3e-4,-5.380861 0.0148,-7.876514 0.0497,-8.068199 0.11828,-0.649674 0.57768,-1.236086 1.19886,-1.530319 l 0.31747,-0.150375 h 19.76124 19.76124 l 0.25725,0.104904 c 0.51898,0.211638 0.96969,0.66235 1.18133,1.18133 l 0.10491,0.257247 0.0122,8.089508 c 0.011,7.298468 0.005,8.114863 -0.0626,8.348832 -0.2327,0.806598 -0.88984,1.376079 -1.72696,1.496576 -0.40632,0.05849 -38.69175,0.05647 -39.09185,-0.0021 z m 28.86915,-0.462751 c 0.95217,-0.109466 1.68344,-0.742911 1.89532,-1.641777 0.0615,-0.260868 0.0708,-1.249164 0.0714,-7.582432 5.3e-4,-5.13843 -0.0145,-7.355432 -0.051,-7.530316 -0.13995,-0.67109 -0.58029,-1.228995 -1.2058,-1.52771 l -0.35615,-0.170085 h -12.6051 -12.6051 l -0.36584,0.174686 c -0.41565,0.198464 -0.77391,0.531067 -0.97762,0.90759 -0.2807,0.518819 -0.26874,0.158284 -0.26949,8.122608 -7.9e-4,8.090532 -0.0171,7.658216 0.30922,8.201691 0.20315,0.338371 0.34884,0.493377 0.64892,0.690436 0.29808,0.195752 0.60547,0.310906 0.9465,0.354586 0.41683,0.05339 24.10056,0.05409 24.56474,7.94e-4 z"
       id="path1640"
       inkscape:connector-curvature="0" />
    <path
       style="fill:#e6e6e6;fill-opacity:1;stroke:#e6e6e6;stroke-width:0.00883883;stroke-miterlimit:4;stroke-dasharray:none;stroke-dashoffset:0;stroke-opacity:1"
       d="M 106.44452,44.706897 V 34.300088 h 29.02213 29.02213 v 10.406809 10.406805 h -29.02213 -29.02213 z m 45.26691,9.751438 c 0.85475,-0.11099 1.60128,-0.759166 1.80818,-1.569982 0.0644,-0.25245 0.0712,-1.193199 0.0602,-8.395605 l -0.0123,-8.111299 -0.17376,-0.363903 c -0.23104,-0.483857 -0.56873,-0.821542 -1.05259,-1.052586 l -0.3639,-0.173763 -19.69005,-0.01191 c -17.91538,-0.01085 -19.7132,-0.0052 -19.94692,0.06276 -0.38501,0.111926 -0.60096,0.237463 -0.90134,0.523983 -0.32938,0.314169 -0.56663,0.762106 -0.64139,1.21094 -0.0386,0.231563 -0.0495,2.491557 -0.0399,8.246859 l 0.0133,7.927882 0.11255,0.280633 c 0.15023,0.374584 0.29788,0.601961 0.55001,0.847008 0.2664,0.25891 0.79921,0.522465 1.16156,0.574561 0.39324,0.05654 38.68168,0.06087 39.11637,0.0044 z"
       id="path1642"
       inkscape:connector-curvature="0" />
    <path
       style="fill:none;stroke:#000000;stroke-width:0.26458332px;stroke-linecap:butt;stroke-linejoin:miter;stroke-opacity:1;marker-end:url(#marker1654)"
       d="M 88.675634,41.047437 H 101.24334"
       id="path1644"
       inkscape:connector-curvature="0" />
    <text
       xml:space="preserve"
       style="font-style:normal;font-weight:normal;font-size:1.76388884px;line-height:1.25;font-family:sans-serif;letter-spacing:0px;word-spacing:0px;fill:#000000;fill-opacity:1;stroke:none;stroke-width:0.26458332"
       x="91.850624"
       y="39.195354"
       id="text1700"><tspan
         sodipodi:role="line"
         id="tspan1698"
         x="91.850624"
         y="39.195354"
         style="stroke-width:0.26458332">$\alpha_i$</tspan></text>
    <path
       style="fill:none;stroke:#000000;stroke-width:0.26458332px;stroke-linecap:butt;stroke-linejoin:miter;stroke-opacity:1"
       d="M 123.07677,56.146723 V 55.374984"
       id="path1704"
       inkscape:connector-curvature="0" />
    <path
       style="fill:none;stroke:#000000;stroke-width:0.26458332px;stroke-linecap:butt;stroke-linejoin:miter;stroke-opacity:1"
       d="m 164.65724,56.053181 v -0.77174"
       id="path1704-4"
       inkscape:connector-curvature="0" />
    <text
       xml:space="preserve"
       style="font-style:normal;font-weight:normal;font-size:1.76388884px;line-height:1.25;font-family:sans-serif;letter-spacing:0px;word-spacing:0px;fill:#000000;fill-opacity:1;stroke:none;stroke-width:0.26458332"
       x="121.59267"
       y="59.586071"
       id="text1723"><tspan
         sodipodi:role="line"
         id="tspan1721"
         x="121.59267"
         y="59.586071"
         style="stroke-width:0.26458332">$\widetilde{a}_i$</tspan></text>
    <text
       xml:space="preserve"
       style="font-style:normal;font-weight:normal;font-size:1.76388884px;line-height:1.25;font-family:sans-serif;letter-spacing:0px;word-spacing:0px;fill:#000000;fill-opacity:1;stroke:none;stroke-width:0.26458332"
       x="163.722"
       y="59.128677"
       id="text1727"><tspan
         sodipodi:role="line"
         id="tspan1725"
         x="163.722"
         y="59.128677"
         style="stroke-width:0.26458332">$a$</tspan></text>
    <text
       xml:space="preserve"
       style="font-style:normal;font-weight:normal;font-size:1.76388884px;line-height:1.25;font-family:sans-serif;letter-spacing:0px;word-spacing:0px;fill:#000000;fill-opacity:1;stroke:none;stroke-width:0.26458332"
       x="151.70157"
       y="32.71423"
       id="text1731"><tspan
         sodipodi:role="line"
         id="tspan1729"
         x="151.70157"
         y="32.71423"
         style="stroke-width:0.26458332">$R(a)$</tspan></text>
    <path
       style="fill:none;stroke:#000000;stroke-width:0.19558702px;stroke-linecap:butt;stroke-linejoin:miter;stroke-opacity:1"
       d="m 106.28557,34.140423 h -0.96485"
       id="path1733"
       inkscape:connector-curvature="0" />
    <text
       xml:space="preserve"
       style="font-style:normal;font-weight:normal;font-size:1.76388884px;line-height:1.25;font-family:sans-serif;letter-spacing:0px;word-spacing:0px;fill:#000000;fill-opacity:1;stroke:none;stroke-width:0.26458332"
       x="102.7796"
       y="34.734879"
       id="text1737"><tspan
         sodipodi:role="line"
         id="tspan1735"
         x="102.7796"
         y="34.734879"
         style="stroke-width:0.26458332">$1$</tspan></text>
    <text
       xml:space="preserve"
       style="font-style:normal;font-weight:normal;font-size:1.76388884px;line-height:1.25;font-family:sans-serif;letter-spacing:0px;word-spacing:0px;fill:#000000;fill-opacity:1;stroke:none;stroke-width:0.26458332"
       x="75.706001"
       y="27.055229"
       id="text1741"><tspan
         sodipodi:role="line"
         id="tspan1739"
         x="75.706001"
         y="27.055229"
         style="stroke-width:0.26458332">$D(a)$</tspan></text>
    <path
       style="fill:none;stroke:#000000;stroke-width:0.1;stroke-linecap:butt;stroke-linejoin:miter;stroke-miterlimit:4;stroke-dasharray:none;stroke-opacity:1"
       d="M 123.07677,55.374984 V 34.169529"
       id="path925"
       inkscape:connector-curvature="0" />
  </g>
</svg>
