<?xml version="1.0" encoding="UTF-8" standalone="no"?>
<!-- Created with Inkscape (http://www.inkscape.org/) -->

<svg
   xmlns:dc="http://purl.org/dc/elements/1.1/"
   xmlns:cc="http://creativecommons.org/ns#"
   xmlns:rdf="http://www.w3.org/1999/02/22-rdf-syntax-ns#"
   xmlns:svg="http://www.w3.org/2000/svg"
   xmlns="http://www.w3.org/2000/svg"
   xmlns:sodipodi="http://sodipodi.sourceforge.net/DTD/sodipodi-0.dtd"
   xmlns:inkscape="http://www.inkscape.org/namespaces/inkscape"
   width="210mm"
   height="297mm"
   viewBox="0 0 210 297"
   version="1.1"
   id="svg8"
   inkscape:version="0.92.4 (5da689c313, 2019-01-14)"
   sodipodi:docname="approach0.svg">
  <defs
     id="defs2" />
  <sodipodi:namedview
     id="base"
     pagecolor="#ffffff"
     bordercolor="#666666"
     borderopacity="1.0"
     inkscape:pageopacity="0.0"
     inkscape:pageshadow="2"
     inkscape:zoom="2.8"
     inkscape:cx="343.39145"
     inkscape:cy="850.70986"
     inkscape:document-units="mm"
     inkscape:current-layer="layer1"
     showgrid="false"
     inkscape:window-width="1018"
     inkscape:window-height="703"
     inkscape:window-x="6"
     inkscape:window-y="0"
     inkscape:window-maximized="0" />
  <metadata
     id="metadata5">
    <rdf:RDF>
      <cc:Work
         rdf:about="">
        <dc:format>image/svg+xml</dc:format>
        <dc:type
           rdf:resource="http://purl.org/dc/dcmitype/StillImage" />
        <dc:title></dc:title>
      </cc:Work>
    </rdf:RDF>
  </metadata>
  <g
     inkscape:label="Ebene 1"
     inkscape:groupmode="layer"
     id="layer1">
    <path
       style="fill:none;stroke:#ff0000;stroke-width:0.4;stroke-linecap:butt;stroke-linejoin:miter;stroke-opacity:1;stroke-miterlimit:4;stroke-dasharray:none"
       d="m 47.039437,48.061948 4.744453,-20.729146 33.475088,5.070364 47.824082,15.658782 v 6.501075 L 90.337099,79.709874 68.190175,88.527624 55.592061,70.221805 47.039437,54.563023 Z"
       id="path897"
       inkscape:connector-curvature="0" />
    <path
       style="fill:none;stroke:#000000;stroke-width:0.26458332px;stroke-linecap:butt;stroke-linejoin:miter;stroke-opacity:1"
       d="M 32.740518,56.991964 H 123.07762"
       id="path815"
       inkscape:connector-curvature="0" />
    <path
       style="fill:none;stroke:#000000;stroke-width:0.26458332px;stroke-linecap:butt;stroke-linejoin:miter;stroke-opacity:1"
       d="M 77.641796,19.173326 V 95.077871"
       id="path817"
       inkscape:connector-curvature="0" />
    <circle
       style="fill:none;fill-opacity:1;stroke:#000000;stroke-width:0.265;stroke-miterlimit:4;stroke-dasharray:none;stroke-dashoffset:0;stroke-opacity:1"
       id="path819"
       cx="77.842239"
       cy="57.160187"
       r="25.651278" />
    <path
       style="fill:none;stroke:#000000;stroke-width:0.265;stroke-linecap:butt;stroke-linejoin:miter;stroke-opacity:1;stroke-miterlimit:4;stroke-dasharray:none"
       d="M 51.800383,27.226742 113.04308,43.636695"
       id="path831"
       inkscape:connector-curvature="0" />
    <path
       style="fill:none;stroke:#000000;stroke-width:0.265;stroke-linecap:butt;stroke-linejoin:miter;stroke-opacity:1;stroke-miterlimit:4;stroke-dasharray:none"
       d="M 68.190177,88.527625 112.94482,43.616679"
       id="path831-5"
       inkscape:connector-curvature="0"
       inkscape:transform-center-x="22.409248"
       inkscape:transform-center-y="22.360531" />
    <path
       style="fill:none;stroke:#000000;stroke-width:0.265;stroke-linecap:butt;stroke-linejoin:miter;stroke-opacity:1;stroke-miterlimit:4;stroke-dasharray:none"
       d="m 51.783889,27.332802 16.404976,61.24425"
       id="path831-8"
       inkscape:connector-curvature="0"
       inkscape:transform-center-x="-8.2861068"
       inkscape:transform-center-y="30.689455" />
    <path
       style="fill:none;stroke:#000000;stroke-width:0.265;stroke-linecap:butt;stroke-linejoin:miter;stroke-opacity:1;stroke-miterlimit:4;stroke-dasharray:none"
       d="m 47.039437,48.061948 h 86.043623 v 6.501075 H 47.039437 Z"
       id="path862"
       inkscape:connector-curvature="0" />
    <path
       style="fill:#00ff00;fill-opacity:0.99958987;stroke:#00ff00;stroke-width:0.76357985;stroke-miterlimit:4;stroke-dasharray:none;stroke-dashoffset:0;stroke-opacity:1"
       d="m 243.24063,297.59076 c -6.49455,-4.16105 -11.91622,-8.50323 -17.01368,-13.62613 -15.83253,-15.91153 -25.43108,-36.17179 -27.75694,-58.58836 -0.27382,-2.63903 -0.50179,-5.76419 -0.5066,-6.9448 l -0.009,-2.14658 h 13.60302 c 12.51487,0 13.62479,0.0707 13.87517,0.88389 1.31957,4.2857 22.00206,82.25278 21.90032,82.55791 -0.0735,0.22032 -1.91511,-0.74085 -4.09254,-2.13593 z"
       id="path853"
       inkscape:connector-curvature="0"
       transform="scale(0.26458333)" />
    <path
       style="fill:#00ff00;fill-opacity:0.99958987;stroke:#00ff00;stroke-width:0.76357985;stroke-miterlimit:4;stroke-dasharray:none;stroke-dashoffset:0;stroke-opacity:1"
       d="m 197.96022,212.87563 c 0.003,-1.04172 0.14708,-2.75033 0.32005,-3.7969 l 0.3145,-1.90286 12.12924,0.13509 12.12923,0.1351 0.91749,3.28299 c 0.50461,1.80565 0.92547,3.45346 0.93522,3.66181 0.01,0.20834 -6.00529,0.3788 -13.36677,0.3788 h -13.38452 z"
       id="path855"
       inkscape:connector-curvature="0"
       transform="scale(0.26458333)" />
    <path
       style="fill:#00ff00;fill-opacity:0.99958987;stroke:#00ff00;stroke-width:0.76357985;stroke-miterlimit:4;stroke-dasharray:none;stroke-dashoffset:0;stroke-opacity:1"
       d="m 198.78458,203.78426 c 0.64378,-4.66569 2.36171,-12.53265 3.63001,-16.62297 l 1.38415,-4.46397 6.12515,-0.14146 6.12515,-0.14146 0.52011,1.65669 c 0.70221,2.23675 5.62917,20.85843 5.62917,21.27574 0,0.18231 -5.32689,0.33146 -11.83754,0.33146 h -11.83754 z"
       id="path857"
       inkscape:connector-curvature="0"
       transform="scale(0.26458333)" />
    <path
       style="fill:#00ff00;fill-opacity:0.99958987;stroke:#00ff00;stroke-width:0.76357985;stroke-miterlimit:4;stroke-dasharray:none;stroke-dashoffset:0;stroke-opacity:1"
       d="m 205.35121,179.03552 c 0.42846,-1.04172 2.05348,-4.35852 3.61116,-7.37067 l 2.83214,-5.47663 1.89739,6.99186 c 1.04357,3.84552 1.90707,7.16232 1.91891,7.37067 0.0118,0.20834 -2.46701,0.3788 -5.50855,0.3788 h -5.53007 z"
       id="path859"
       inkscape:connector-curvature="0"
       transform="scale(0.26458333)" />
    <path
       style="fill:#00ff00;fill-opacity:0.99958987;stroke:#00ff00;stroke-width:0.76357985;stroke-miterlimit:4;stroke-dasharray:none;stroke-dashoffset:0;stroke-opacity:1"
       d="m 215.134,172.87357 c -1.18498,-4.43079 -2.03976,-8.35499 -1.89951,-8.72046 0.73672,-1.91987 8.52383,-11.56136 12.84754,-15.907 10.46651,-10.51956 24.05813,-18.99173 37.56437,-23.41528 l 4.9628,-1.62541 12.14946,3.22945 12.14946,3.22944 4.4e-4,25.63262 4.4e-4,25.63262 H 255.09875 217.2885 Z"
       id="path861"
       inkscape:connector-curvature="0"
       transform="scale(0.26458333)" />
    <path
       style="fill:#00ff00;fill-opacity:0.99958987;stroke:#00ff00;stroke-width:0.76357985;stroke-miterlimit:4;stroke-dasharray:none;stroke-dashoffset:0;stroke-opacity:1"
       d="m 294.42422,155.51305 v -25.4165 l 34.21306,9.17243 34.21306,9.17243 3.7036,4.24851 c 6.09814,6.99536 14.06309,19.78537 16.72123,26.85067 l 0.52255,1.38896 h -44.68675 -44.68675 z"
       id="path863"
       inkscape:connector-curvature="0"
       transform="scale(0.26458333)" />
    <path
       style="fill:#00ff00;fill-opacity:0.99958987;stroke:#00ff00;stroke-width:0.76357985;stroke-miterlimit:4;stroke-dasharray:none;stroke-dashoffset:0;stroke-opacity:1"
       d="m 327.00164,137.32725 -32.32488,-8.69144 -0.14593,-4.41024 -0.14593,-4.41024 h 1.96092 c 4.55799,0 22.20598,3.07597 27.67325,4.82333 10.37885,3.31713 23.05135,10.26129 31.31448,17.15942 4.53999,3.79002 5.06401,4.28724 4.48001,4.25091 -0.26787,-0.0167 -15.03323,-3.94145 -32.81192,-8.72174 z"
       id="path865"
       inkscape:connector-curvature="0"
       transform="scale(0.26458333)" />
    <path
       style="fill:#00ff00;fill-opacity:0.99958987;stroke:#00ff00;stroke-width:0.76357985;stroke-miterlimit:4;stroke-dasharray:none;stroke-dashoffset:0;stroke-opacity:1"
       d="m 281.67391,125.2054 c -7.11709,-1.94853 -9.19897,-2.69124 -8.38634,-2.99185 1.67136,-0.61828 9.76542,-1.80043 14.94947,-2.18339 l 4.67196,-0.34513 v 4.10576 c 0,3.59242 -0.11052,4.09956 -0.88389,4.05617 -0.48613,-0.0273 -5.14417,-1.21597 -10.3512,-2.64156 z"
       id="path867"
       inkscape:connector-curvature="0"
       transform="scale(0.26458333)" />
    <path
       style="fill:#00ff00;fill-opacity:0.99958987;stroke:#00ff00;stroke-width:0.76357985;stroke-miterlimit:4;stroke-dasharray:none;stroke-dashoffset:0;stroke-opacity:1"
       d="m 220.97833,194.73936 c -1.60246,-6.01642 -3.03061,-11.24395 -3.17367,-11.61676 -0.21616,-0.56331 6.10587,-0.67782 37.42212,-0.67782 H 292.909 v 11.61676 11.61675 H 258.40045 223.8919 Z"
       id="path869"
       inkscape:connector-curvature="0"
       transform="scale(0.26458333)" />
    <path
       style="fill:#00ff00;fill-opacity:0.99958987;stroke:#00ff00;stroke-width:0.76357985;stroke-miterlimit:4;stroke-dasharray:none;stroke-dashoffset:0;stroke-opacity:1"
       d="m 226.23893,214.51073 c 0,-0.14241 -0.44009,-1.84704 -0.97798,-3.78807 l -0.97797,-3.52914 h 34.31301 34.31301 v 3.78807 3.78807 h -33.33504 c -18.33427,0 -33.33503,-0.11651 -33.33503,-0.25893 z"
       id="path871"
       inkscape:connector-curvature="0"
       transform="scale(0.26458333)" />
    <path
       style="fill:#00ff00;fill-opacity:0.99958987;stroke:#00ff00;stroke-width:0.76357985;stroke-miterlimit:4;stroke-dasharray:none;stroke-dashoffset:0;stroke-opacity:1"
       d="m 294.42422,194.05882 v -11.61947 l 45.03129,0.12899 45.03128,0.12898 1.17342,3.47867 c 0.64538,1.91326 1.76021,6.09497 2.4774,9.29268 l 1.30398,5.81402 -2.15698,2.1978 -2.15698,2.1978 h -45.3517 -45.35171 z"
       id="path873"
       inkscape:connector-curvature="0"
       transform="scale(0.26458333)" />
    <path
       style="fill:#00ff00;fill-opacity:0.99958987;stroke:#00ff00;stroke-width:0.76357985;stroke-miterlimit:4;stroke-dasharray:none;stroke-dashoffset:0;stroke-opacity:1"
       d="m 294.42422,210.98159 v -3.78807 h 44.56034 44.56034 l -3.76279,3.78807 -3.76278,3.78807 h -40.79756 -40.79755 z"
       id="path875"
       inkscape:connector-curvature="0"
       transform="scale(0.26458333)" />
    <path
       style="fill:#00ff00;fill-opacity:0.99958987;stroke:#00ff00;stroke-width:0.76357985;stroke-miterlimit:4;stroke-dasharray:none;stroke-dashoffset:0;stroke-opacity:1"
       d="m 274.36813,310.19051 c -9.78461,-2.05526 -24.45008,-7.83217 -25.08178,-9.88001 -0.15957,-0.51731 -5.18759,-19.23695 -11.17336,-41.5992 -5.98577,-22.36225 -11.00783,-41.05639 -11.16014,-41.54252 -0.2618,-0.83563 1.53128,-0.88389 32.83961,-0.88389 H 292.909 v 41.04474 41.04473 l -6.44675,6.43244 c -3.54571,3.53783 -6.67087,6.41629 -6.9448,6.39657 -0.27393,-0.0197 -2.59112,-0.47551 -5.14932,-1.01286 z"
       id="path877"
       inkscape:connector-curvature="0"
       transform="scale(0.26458333)" />
    <path
       style="fill:#00ff00;fill-opacity:0.99958987;stroke:#00ff00;stroke-width:0.76357985;stroke-miterlimit:4;stroke-dasharray:none;stroke-dashoffset:0;stroke-opacity:1"
       d="m 294.42422,256.43846 v -40.15357 h 39.94254 39.94253 l -39.80606,40.15357 c -21.89334,22.08446 -39.86748,40.15356 -39.94254,40.15356 -0.0751,0 -0.13647,-18.0691 -0.13647,-40.15356 z"
       id="path879"
       inkscape:connector-curvature="0"
       transform="scale(0.26458333)" />
    <path
       style="fill:#00ff00;fill-opacity:0.99958987;stroke:#00ff00;stroke-width:0.76357985;stroke-miterlimit:4;stroke-dasharray:none;stroke-dashoffset:0;stroke-opacity:1"
       d="m 294.53624,305.49781 0.14052,-6.75156 41.00317,-41.23068 41.00317,-41.23068 h 6.85281 6.85281 v 2.21933 c 0,4.31578 -1.07203,12.75323 -2.34912,18.4888 -5.72049,25.69149 -21.83186,47.92144 -44.68712,61.65785 -5.71853,3.43694 -23.18975,10.26429 -29.48282,11.52122 -5.54256,1.10702 -13.56098,2.07729 -17.16694,2.07729 h -2.307 z"
       id="path881"
       inkscape:connector-curvature="0"
       transform="scale(0.26458333)" />
    <path
       style="fill:#00ff00;fill-opacity:0.99958987;stroke:#00ff00;stroke-width:0.76357985;stroke-miterlimit:4;stroke-dasharray:none;stroke-dashoffset:0;stroke-opacity:1"
       d="m 284.95404,311.87702 c -1.4584,-0.10203 -2.65165,-0.34815 -2.65165,-0.54694 0,-0.19879 2.38649,-2.7398 5.3033,-5.64669 l 5.30331,-5.28525 v 5.92562 5.92562 l -2.65166,-0.0934 c -1.4584,-0.0514 -3.84489,-0.1769 -5.3033,-0.27893 z"
       id="path883"
       inkscape:connector-curvature="0"
       transform="scale(0.26458333)" />
    <path
       style="fill:#b3ff80;fill-opacity:0.99958987;stroke:#b3ff80;stroke-width:0.76357985;stroke-miterlimit:4;stroke-dasharray:none;stroke-dashoffset:0;stroke-opacity:1"
       d="m 381.80242,210.98159 c 3.4777,-3.50106 3.9216,-3.78807 5.85887,-3.78807 1.94355,0 2.11905,0.11486 2.41175,1.57836 0.17362,0.8681 0.31568,2.57274 0.31568,3.78808 v 2.2097 h -6.17455 -6.17454 z"
       id="path885"
       inkscape:connector-curvature="0"
       transform="scale(0.26458333)" />
    <path
       style="fill:#b3ff80;fill-opacity:0.99958987;stroke:#b3ff80;stroke-width:0.76357985;stroke-miterlimit:4;stroke-dasharray:none;stroke-dashoffset:0;stroke-opacity:1"
       d="m 204.76325,134.2742 c -4.16142,-15.52764 -7.64626,-28.57644 -7.74409,-28.99734 -0.29509,-1.26947 2.42208,-0.64248 34.52307,7.96623 16.66752,4.46983 31.21371,8.36946 32.32488,8.66585 l 2.0203,0.53888 -4.55299,1.62573 c -17.75554,6.33992 -34.16573,18.44366 -45.25099,33.37595 l -3.75398,5.05677 z"
       id="path887"
       inkscape:connector-curvature="0"
       transform="scale(0.26458333)" />
    <path
       style="fill:#b3ff80;fill-opacity:0.99958987;stroke:#b3ff80;stroke-width:0.76357985;stroke-miterlimit:4;stroke-dasharray:none;stroke-dashoffset:0;stroke-opacity:1"
       d="m 384.71771,179.28806 c -2.1993,-6.35933 -9.3389,-18.30203 -15.17275,-25.38009 -1.83169,-2.22233 -3.13758,-4.11008 -2.90198,-4.19499 0.35654,-0.12849 55.80723,14.51961 58.06297,15.33818 0.49365,0.17914 -1.79147,2.78986 -7.06496,8.07159 l -7.79462,7.8068 H 397.56589 385.2854 Z"
       id="path889"
       inkscape:connector-curvature="0"
       transform="scale(0.26458333)" />
    <path
       style="fill:#b3ff80;fill-opacity:0.99958987;stroke:#b3ff80;stroke-width:0.76357985;stroke-miterlimit:4;stroke-dasharray:none;stroke-dashoffset:0;stroke-opacity:1"
       d="m 389.71077,195.72319 c -0.49805,-2.41959 -1.54801,-6.39706 -2.33324,-8.83883 l -1.42768,-4.43958 h 11.17912 11.17913 l -8.82801,8.83884 c -4.85541,4.86136 -8.83606,8.83883 -8.8459,8.83883 -0.01,0 -0.42538,-1.97966 -0.92342,-4.39926 z"
       id="path891"
       inkscape:connector-curvature="0"
       transform="scale(0.26458333)" />
    <path
       style="fill:#b3ff80;fill-opacity:0.99958987;stroke:#b3ff80;stroke-width:0.76357985;stroke-miterlimit:4;stroke-dasharray:none;stroke-dashoffset:0;stroke-opacity:1"
       d="m 257.85365,332.42555 c -0.13732,-0.4019 -1.86547,-6.82716 -3.84035,-14.27836 -1.97488,-7.4512 -3.70986,-13.85819 -3.85552,-14.23776 -0.159,-0.41435 1.72739,0.18664 4.72048,1.50389 5.84797,2.57369 13.65283,5.07266 19.60971,6.27866 l 4.23969,0.85835 -10.31218,10.30297 c -6.83287,6.82678 -10.39641,10.05643 -10.56183,9.57225 z"
       id="path893"
       inkscape:connector-curvature="0"
       transform="scale(0.26458333)" />
    <path
       style="fill:#00ff00;fill-opacity:0.99958987;stroke:#00ff00;stroke-width:0.38178992;stroke-miterlimit:4;stroke-dasharray:none;stroke-dashoffset:0;stroke-opacity:1"
       d="m 380.70359,211.706 c 4.15654,-4.19707 5.0065,-4.76989 7.07772,-4.76989 1.19378,0 1.65132,0.10874 1.97842,0.47018 0.53955,0.59619 0.91213,2.84941 0.91401,5.5276 l 10e-4,2.08344 h -6.62548 -6.62549 z"
       id="path895"
       inkscape:connector-curvature="0"
       transform="scale(0.26458333)" />
    <path
       style="fill:#00ff00;fill-opacity:0.99958987;stroke:#00ff00;stroke-width:0.09544748;stroke-miterlimit:4;stroke-dasharray:none;stroke-dashoffset:0;stroke-opacity:1"
       d="m 388.27696,204.32092 c 0.76334,-0.76392 1.40476,-1.38896 1.42538,-1.38896 0.0206,0 0.10105,0.5327 0.17873,1.18378 0.0777,0.65107 0.15655,1.2761 0.17526,1.38896 l 0.034,0.20518 h -1.60064 -1.60063 z"
       id="path898"
       inkscape:connector-curvature="0"
       transform="scale(0.26458333)" />
    <path
       style="fill:#44aa00;fill-opacity:0.99958987;stroke:#44aa00;stroke-width:0.76357985;stroke-miterlimit:4;stroke-dasharray:none;stroke-dashoffset:0;stroke-opacity:1"
       d="m 178.89757,193.89083 v -11.61676 h 11.8392 11.8392 l -1.21645,3.57652 c -1.26115,3.70794 -3.43882,13.07478 -4.01224,17.25788 l -0.32886,2.39911 h -9.06043 -9.06042 z"
       id="path900"
       inkscape:connector-curvature="0"
       transform="scale(0.26458333)" />
    <path
       style="fill:#44aa00;fill-opacity:0.99958987;stroke:#44aa00;stroke-width:0.76357985;stroke-miterlimit:4;stroke-dasharray:none;stroke-dashoffset:0;stroke-opacity:1"
       d="m 391.36632,205.17086 c -0.1852,-0.18519 -0.33672,-1.03969 -0.33672,-1.89889 0,-1.35572 1.28555,-2.84646 9.72746,-11.28004 l 9.72745,-9.71786 h 45.83094 45.83093 v 11.61676 11.61675 h -55.22167 c -30.37192,0 -55.3732,-0.15152 -55.55839,-0.33672 z"
       id="path902"
       inkscape:connector-curvature="0"
       transform="scale(0.26458333)" />
    <path
       style="fill:#b3ff80;fill-opacity:0.99958987;stroke:#b3ff80;stroke-width:0.76357985;stroke-miterlimit:4;stroke-dasharray:none;stroke-dashoffset:0;stroke-opacity:1"
       d="m 216.94855,180.34533 c -0.66394,-1.82104 -3.77872,-14.71953 -3.77872,-15.6479 0,-1.3303 5.60701,-8.75947 10.94037,-14.49576 10.39509,-11.18042 24.70656,-20.44476 39.33087,-25.46032 l 5.06692,-1.73775 12.10568,3.2207 c 6.65812,1.77139 12.1625,3.22383 12.23194,3.22765 0.0694,0.004 0.12627,11.59845 0.12627,25.76584 v 25.75889 h -37.89657 c -29.85777,0 -37.9454,-0.13393 -38.12676,-0.63135 z"
       id="path904"
       inkscape:connector-curvature="0"
       transform="scale(0.26458333)" />
    <path
       style="fill:#b3ff80;fill-opacity:0.99958987;stroke:#b3ff80;stroke-width:0.76357985;stroke-miterlimit:4;stroke-dasharray:none;stroke-dashoffset:0;stroke-opacity:1"
       d="m 294.48711,155.43629 c 0,-24.08794 0.0503,-25.52539 0.88388,-25.27663 0.48614,0.14506 15.88465,4.27878 34.21892,9.18604 31.82213,8.51736 33.39851,8.99404 34.73358,10.50316 3.20767,3.62584 8.00738,9.95492 10.77459,14.20776 2.80458,4.3103 8.78753,15.52883 8.78753,16.47735 0,0.25022 -19.435,0.44271 -44.69925,0.44271 h -44.69925 z"
       id="path906"
       inkscape:connector-curvature="0"
       transform="scale(0.26458333)" />
    <path
       style="fill:#b3ff80;fill-opacity:0.99958987;stroke:#b3ff80;stroke-width:0.76357985;stroke-miterlimit:4;stroke-dasharray:none;stroke-dashoffset:0;stroke-opacity:1"
       d="m 227.28493,214.4646 c -1.11189,-0.17314 -1.40786,-0.64421 -2.14657,-3.41649 -0.47127,-1.76861 -0.85685,-3.34881 -0.85685,-3.51156 0,-0.16275 15.45533,-0.2959 34.34519,-0.2959 h 34.34518 v 3.78807 3.78807 l -32.19861,-0.0757 c -17.70924,-0.0416 -32.77899,-0.16605 -33.48834,-0.27651 z"
       id="path908"
       inkscape:connector-curvature="0"
       transform="scale(0.26458333)" />
    <path
       style="fill:#b3ff80;fill-opacity:0.99958987;stroke:#b3ff80;stroke-width:0.76357985;stroke-miterlimit:4;stroke-dasharray:none;stroke-dashoffset:0;stroke-opacity:1"
       d="m 294.48711,211.02872 v -3.78807 h 44.56034 44.56034 l -3.76279,3.78807 -3.76279,3.78807 h -40.79755 -40.79755 z"
       id="path910"
       inkscape:connector-curvature="0"
       transform="scale(0.26458333)" />
    <path
       style="fill:#b3ff80;fill-opacity:0.99958987;stroke:#b3ff80;stroke-width:0.76357985;stroke-miterlimit:4;stroke-dasharray:none;stroke-dashoffset:0;stroke-opacity:1"
       d="m 273.86683,310.25198 c -8.17466,-1.84518 -22.18809,-7.1941 -24.16015,-9.22192 -0.76164,-0.78318 -23.01147,-83.60365 -22.62725,-84.22534 0.17658,-0.2857 13.26774,-0.4727 33.0923,-0.4727 h 32.80015 v 41.0624 41.0624 l -6.48312,6.41477 c -3.98602,3.94398 -6.85549,6.39837 -7.44988,6.37218 -0.53171,-0.0234 -2.85913,-0.46972 -5.17205,-0.99179 z"
       id="path912"
       inkscape:connector-curvature="0"
       transform="scale(0.26458333)" />
    <path
       style="fill:#b3ff80;fill-opacity:0.99958987;stroke:#b3ff80;stroke-width:0.76357985;stroke-miterlimit:4;stroke-dasharray:none;stroke-dashoffset:0;stroke-opacity:1"
       d="m 294.82014,292.76615 c -0.17922,-1.89783 -0.32746,-19.8719 -0.32944,-39.94237 l -0.004,-36.49176 h 39.96311 39.9631 l -33.86647,34.21892 c -18.62656,18.8204 -36.46171,36.79447 -39.63367,39.94237 l -5.7672,5.72346 z"
       id="path914"
       inkscape:connector-curvature="0"
       transform="scale(0.26458333)" />
    <path
       style="fill:#338000;fill-opacity:0.99958987;stroke:#338000;stroke-width:0.76357985;stroke-miterlimit:4;stroke-dasharray:none;stroke-dashoffset:0;stroke-opacity:1"
       d="m 389.71532,196.56133 c -0.47924,-2.04345 -1.5689,-6.04641 -2.42146,-8.89548 -0.85257,-2.84906 -1.43344,-5.29681 -1.29082,-5.43943 0.14263,-0.14262 5.29564,-0.19805 11.45115,-0.12318 l 11.19183,0.13613 -9.02968,9.01866 -9.02968,9.01866 z"
       id="path916"
       inkscape:connector-curvature="0"
       transform="scale(0.26458333)" />
    <path
       style="fill:#338000;fill-opacity:0.99958987;stroke:#338000;stroke-width:0.76357985;stroke-miterlimit:4;stroke-dasharray:none;stroke-dashoffset:0;stroke-opacity:1"
       d="m 393.60833,205.35305 c -2.5495,-0.17835 -2.65165,-0.24218 -2.65165,-1.65676 0,-1.84981 1.09703,-3.15814 11.32132,-13.50197 l 8.11263,-8.20749 h 46.09395 46.09395 v 11.86929 11.8693 l -53.15927,-0.0934 c -29.23761,-0.0514 -54.35252,-0.17691 -55.81093,-0.27894 z"
       id="path918"
       inkscape:connector-curvature="0"
       transform="scale(0.26458333)" />
    <path
       style="fill:#338000;fill-opacity:0.99958987;stroke:#338000;stroke-width:0.76357985;stroke-miterlimit:4;stroke-dasharray:none;stroke-dashoffset:0;stroke-opacity:1"
       d="m 294.48711,194.10866 v -11.61675 h 45.12621 45.1262 l 1.29429,4.41942 c 0.71186,2.43067 1.81503,6.63755 2.45151,9.34861 l 1.15722,4.92919 -2.22601,2.26815 -2.22601,2.26814 h -45.35171 -45.3517 z"
       id="path920"
       inkscape:connector-curvature="0"
       transform="scale(0.26458333)" />
    <path
       style="fill:#338000;fill-opacity:0.99958987;stroke:#338000;stroke-width:0.76357985;stroke-miterlimit:4;stroke-dasharray:none;stroke-dashoffset:0;stroke-opacity:1"
       d="m 223.53727,205.09407 c -1.25057,-3.80575 -5.75107,-21.80284 -5.53828,-22.14713 0.16276,-0.26335 16.0128,-0.45503 37.62706,-0.45503 h 37.34583 v 11.61675 11.61676 h -34.61357 c -27.2435,0 -34.65775,-0.13443 -34.82104,-0.63135 z"
       id="path922"
       inkscape:connector-curvature="0"
       transform="scale(0.26458333)" />
    <path
       style="fill:#338000;fill-opacity:0.99958987;stroke:#338000;stroke-width:0.76357985;stroke-miterlimit:4;stroke-dasharray:none;stroke-dashoffset:0;stroke-opacity:1"
       d="m 198.74801,202.9899 c 0.44933,-3.59638 2.38612,-12.15136 3.81492,-16.85088 l 1.11777,-3.67649 6.36032,0.14096 6.36032,0.14096 2.96866,11.03086 c 1.63276,6.06697 2.8191,11.18087 2.6363,11.36421 -0.18279,0.18335 -5.5691,0.40225 -11.96956,0.48646 l -11.63722,0.1531 z"
       id="path924"
       inkscape:connector-curvature="0"
       transform="scale(0.26458333)" />
    <path
       style="fill:#338000;fill-opacity:0.99958987;stroke:#338000;stroke-width:0.76357985;stroke-miterlimit:4;stroke-dasharray:none;stroke-dashoffset:0;stroke-opacity:1"
       d="m 178.82465,193.86752 v -11.88069 h 12.1396 c 11.71456,0 12.12185,0.0332 11.63262,0.94729 -0.77007,1.43889 -3.96185,13.92732 -4.72774,18.49815 l -0.67704,4.04061 -9.18372,0.13766 -9.18372,0.13766 z"
       id="path926"
       inkscape:connector-curvature="0"
       transform="scale(0.26458333)" />
    <path
       style="fill:#338000;fill-opacity:0.99958987;stroke:#338000;stroke-width:0.09544748;stroke-miterlimit:4;stroke-dasharray:none;stroke-dashoffset:0;stroke-opacity:1"
       d="m 388.24078,204.32746 c 1.1728,-1.14512 1.46065,-1.39645 1.49658,-1.30669 0.0359,0.0897 0.36648,2.5136 0.36602,2.68387 -8e-5,0.026 -0.74591,0.0458 -1.65741,0.044 l -1.65729,-0.003 1.4521,-1.41782 z"
       id="path928"
       inkscape:connector-curvature="0"
       transform="scale(0.26458333)" />
    <text
       xml:space="preserve"
       style="font-style:normal;font-weight:normal;font-size:7.05555534px;line-height:1.25;font-family:sans-serif;letter-spacing:0px;word-spacing:0px;fill:#000000;fill-opacity:1;stroke:none;stroke-width:0.26458332"
       x="62.974827"
       y="66.140976"
       id="text825-7"><tspan
         sodipodi:role="line"
         id="tspan823-5"
         x="62.974827"
         y="66.140976"
         style="font-size:1.76388884px;stroke-width:0.26458332">$q_3$</tspan></text>
    <text
       xml:space="preserve"
       style="font-style:normal;font-weight:normal;font-size:7.05555534px;line-height:1.25;font-family:sans-serif;letter-spacing:0px;word-spacing:0px;fill:#000000;fill-opacity:1;stroke:none;stroke-width:0.26458332"
       x="96.286476"
       y="70.070335"
       id="text825"><tspan
         sodipodi:role="line"
         id="tspan823"
         x="96.286476"
         y="70.070335"
         style="font-size:1.76388884px;stroke-width:0.26458332">$q_1$</tspan></text>
    <text
       xml:space="preserve"
       style="font-style:normal;font-weight:normal;font-size:7.05555534px;line-height:1.25;font-family:sans-serif;letter-spacing:0px;word-spacing:0px;fill:#000000;fill-opacity:1;stroke:none;stroke-width:0.26458332"
       x="115.82838"
       y="46.821594"
       id="text825-3"><tspan
         sodipodi:role="line"
         id="tspan823-6"
         x="115.82838"
         y="46.821594"
         style="font-size:1.76388884px;stroke-width:0.26458332">$q_2$</tspan></text>
    <text
       xml:space="preserve"
       style="font-style:normal;font-weight:normal;font-size:7.05555534px;line-height:1.25;font-family:sans-serif;letter-spacing:0px;word-spacing:0px;fill:#000000;fill-opacity:1;stroke:none;stroke-width:0.26458332"
       x="100.22607"
       y="34.541325"
       id="text932"><tspan
         sodipodi:role="line"
         id="tspan930"
         x="100.22607"
         y="34.541325"
         style="font-size:1.76388884px;stroke-width:0.26458332">$\conv\{q_1,q_2,q_3\}$</tspan></text>
  </g>
</svg>
