<?xml version="1.0" encoding="UTF-8" standalone="no"?>
<!-- Created with Inkscape (http://www.inkscape.org/) -->

<svg
   xmlns:dc="http://purl.org/dc/elements/1.1/"
   xmlns:cc="http://creativecommons.org/ns#"
   xmlns:rdf="http://www.w3.org/1999/02/22-rdf-syntax-ns#"
   xmlns:svg="http://www.w3.org/2000/svg"
   xmlns="http://www.w3.org/2000/svg"
   xmlns:sodipodi="http://sodipodi.sourceforge.net/DTD/sodipodi-0.dtd"
   xmlns:inkscape="http://www.inkscape.org/namespaces/inkscape"
   width="210mm"
   height="297mm"
   viewBox="0 0 210 297"
   version="1.1"
   id="svg8"
   inkscape:version="0.92.4 (5da689c313, 2019-01-14)"
   sodipodi:docname="Counterexamplenew_grey.svg">
  <defs
     id="defs2">
    <marker
       inkscape:stockid="Arrow1Lstart"
       orient="auto"
       refY="0.0"
       refX="0.0"
       id="marker1155"
       style="overflow:visible"
       inkscape:isstock="true">
      <path
         id="path1153"
         d="M 0.0,0.0 L 5.0,-5.0 L -12.5,0.0 L 5.0,5.0 L 0.0,0.0 z "
         style="fill-rule:evenodd;stroke:#000000;stroke-width:1pt;stroke-opacity:1;fill:#000000;fill-opacity:1"
         transform="scale(0.8) translate(12.5,0)" />
    </marker>
    <marker
       inkscape:stockid="Arrow1Lstart"
       orient="auto"
       refY="0.0"
       refX="0.0"
       id="Arrow1Lstart"
       style="overflow:visible"
       inkscape:isstock="true">
      <path
         id="path877"
         d="M 0.0,0.0 L 5.0,-5.0 L -12.5,0.0 L 5.0,5.0 L 0.0,0.0 z "
         style="fill-rule:evenodd;stroke:#000000;stroke-width:1pt;stroke-opacity:1;fill:#000000;fill-opacity:1"
         transform="scale(0.8) translate(12.5,0)" />
    </marker>
  </defs>
  <sodipodi:namedview
     id="base"
     pagecolor="#ffffff"
     bordercolor="#666666"
     borderopacity="1.0"
     inkscape:pageopacity="0.0"
     inkscape:pageshadow="2"
     inkscape:zoom="0.89332035"
     inkscape:cx="316.33635"
     inkscape:cy="862.24514"
     inkscape:document-units="mm"
     inkscape:current-layer="layer1"
     showgrid="false"
     inkscape:window-width="1024"
     inkscape:window-height="703"
     inkscape:window-x="0"
     inkscape:window-y="0"
     inkscape:window-maximized="1" />
  <metadata
     id="metadata5">
    <rdf:RDF>
      <cc:Work
         rdf:about="">
        <dc:format>image/svg+xml</dc:format>
        <dc:type
           rdf:resource="http://purl.org/dc/dcmitype/StillImage" />
        <dc:title></dc:title>
      </cc:Work>
    </rdf:RDF>
  </metadata>
  <g
     inkscape:label="Ebene 1"
     inkscape:groupmode="layer"
     id="layer1">
    <path
       style="fill:#e6e6e6;fill-opacity:1;stroke:#e6e6e6;stroke-width:0.23041473;stroke-miterlimit:4;stroke-dasharray:none;stroke-dashoffset:0;stroke-opacity:1"
       d="m 285.09747,362.12804 c -3.99194,-6.92256 -7.64306,-13.27276 -8.1136,-14.11157 l -0.85552,-1.5251 8.92004,-15.45289 8.92004,-15.4529 35.13825,-38.62108 c 34.01404,-37.38544 35.15057,-38.6064 35.5233,-38.16255 0.21178,0.25219 0.43212,0.58674 0.48964,0.74346 0.0828,0.22557 0.16818,0.22493 0.40987,-0.003 0.47533,-0.44843 0.58291,-0.37141 1.32979,0.95197 0.38489,0.682 0.95381,1.4398 1.26426,1.684 l 0.56446,0.444 -37.97319,65.85337 c -20.88525,36.21936 -38.06006,65.9401 -38.16623,66.0461 -0.10618,0.106 -3.45918,-5.47118 -7.45111,-12.39373 z"
       id="path1090"
       inkscape:connector-curvature="0"
       transform="scale(0.26458333)" />
    <path
       style="fill:#e6e6e6;fill-opacity:1;stroke:#e6e6e6;stroke-width:0.23041473;stroke-miterlimit:4;stroke-dasharray:none;stroke-dashoffset:0;stroke-opacity:1"
       d="m 303.10165,303.39142 c 0.12876,-0.40742 55.36188,-74.95339 55.5402,-74.96041 0.0865,-0.003 0.22307,0.2011 0.30349,0.45446 0.11678,0.36795 0.23278,0.41432 0.57641,0.23042 0.23662,-0.12664 0.48442,-0.23025 0.55068,-0.23025 0.0663,0 0.74246,1.10655 1.50267,2.459 1.26511,2.25069 1.3489,2.48408 0.98915,2.75513 -0.36347,0.27385 -0.33637,0.40028 0.36007,1.67988 l 0.75312,1.38374 -29.29221,32.20905 c -28.74518,31.60756 -31.4516,34.55063 -31.28358,34.01898 z"
       id="path1088"
       inkscape:connector-curvature="0"
       transform="scale(0.26458333)" />
    <path
       style="fill:#e6e6e6;fill-opacity:1;stroke:#e6e6e6;stroke-width:0.23041473;stroke-miterlimit:4;stroke-dasharray:none;stroke-dashoffset:0;stroke-opacity:1"
       d="m 272.21671,309.28058 c -11.3298,-2.90025 -20.61829,-5.30058 -20.64108,-5.33406 -0.0228,-0.0335 -1.60468,-2.78265 -3.51529,-6.10926 l -3.47384,-6.04839 h 1.13106 c 1.56445,0 1.42737,-0.42203 -0.16467,-0.50694 l -1.29572,-0.0691 -21.71297,-37.67281 c -11.94213,-20.72004 -21.64996,-37.74216 -21.57294,-37.82692 0.21761,-0.2395 92.42889,-50.19151 92.65338,-50.19151 0.10941,0 7.43774,1.92355 16.28518,4.27456 8.84745,2.35102 16.45833,4.37239 16.91307,4.49194 0.65119,0.1712 0.95609,0.45011 1.43541,1.313 0.98446,1.77228 0.96202,1.75036 1.49831,1.46335 0.4425,-0.23682 0.58161,-0.0712 1.86739,2.22275 1.17904,2.10355 1.33776,2.51735 1.04888,2.73445 -0.18722,0.1407 -0.34039,0.34974 -0.34039,0.46452 0,0.18334 2.63045,4.86711 2.86531,5.10197 0.0498,0.0498 0.29615,-0.0194 0.54736,-0.15384 0.38784,-0.20756 0.54903,-0.12346 1.06833,0.55737 0.46919,0.61514 0.52838,0.80182 0.25423,0.80182 -0.19654,0 -0.35735,0.15553 -0.35735,0.34562 0,0.2296 0.22961,0.34562 0.68401,0.34562 0.47363,0 0.64794,0.094 0.56671,0.30569 -0.0645,0.16812 0.14396,0.76432 0.46328,1.32488 0.56422,0.99049 0.56837,1.02894 0.14712,1.36482 -0.41563,0.33141 -0.37353,0.44835 1.02353,2.84287 0.80134,1.37348 1.50921,2.54946 1.57303,2.61328 0.0638,0.0638 0.30126,0.0124 0.52764,-0.11429 0.35705,-0.19981 0.59973,0.095 1.8316,2.22543 1.33049,2.30093 1.39486,2.4782 1.02102,2.81172 -0.37381,0.3335 -0.30743,0.51498 1.05185,2.87551 0.79797,1.38576 1.56433,2.55738 1.70303,2.60361 0.13869,0.0462 0.3837,-0.0251 0.54447,-0.15853 0.22281,-0.18491 0.63003,0.27557 1.71273,1.93674 l 1.42042,2.17933 h -1.14444 c -0.86366,0 -1.14443,0.0848 -1.14443,0.34562 0,0.2623 0.29164,0.34759 1.20967,0.35379 1.07676,0.007 1.15411,0.0391 0.70394,0.28933 -0.5009,0.27848 -0.49157,0.30541 0.97469,2.81442 1.26197,2.15945 1.56588,2.53325 2.05954,2.53325 0.49519,0 0.7768,0.35064 1.94301,2.41935 1.08404,1.92295 1.29709,2.45716 1.03836,2.60362 -0.4727,0.26756 -0.41575,0.50591 0.49026,2.05178 0.70573,1.20415 0.77567,1.45079 0.51843,1.82829 -0.16354,0.24 -14.60611,19.75508 -32.09459,43.36685 -30.80176,41.58646 -31.79945,42.90282 -31.86808,42.04689 -0.1084,-1.35184 -0.50519,-1.05049 -0.50519,0.38368 0,0.697 -0.0778,1.25689 -0.17281,1.2442 -0.095,-0.0127 -9.44265,-2.39602 -20.77246,-5.29627 z m 21.4061,-1.59309 c 0,-0.92166 -0.0987,-1.61291 -0.23041,-1.61291 -0.13167,0 -0.23042,0.69125 -0.23042,1.61291 0,0.92166 0.0987,1.6129 0.23042,1.6129 0.13166,0 0.23041,-0.69124 0.23041,-1.6129 z m 0,-5.99079 c 0,-0.92166 -0.0987,-1.6129 -0.23041,-1.6129 -0.13167,0 -0.23042,0.69124 -0.23042,1.6129 0,0.92166 0.0987,1.61291 0.23042,1.61291 0.13166,0 0.23041,-0.69125 0.23041,-1.61291 z m 0,-5.99078 c 0,-0.92166 -0.0987,-1.6129 -0.23041,-1.6129 -0.13167,0 -0.23042,0.69124 -0.23042,1.6129 0,0.92166 0.0987,1.6129 0.23042,1.6129 0.13166,0 0.23041,-0.69124 0.23041,-1.6129 z m -4.43464,-3.85945 c 0.0701,-0.21226 -0.33411,-0.28801 -1.53694,-0.28801 -1.31859,0 -1.6321,0.0684 -1.6321,0.35614 0,0.29247 0.2748,0.34397 1.53693,0.28802 0.97308,-0.0431 1.57185,-0.17379 1.63211,-0.35615 z m 4.38713,-1.38249 c 0.0426,-1.05004 -0.0216,-1.6705 -0.17281,-1.6705 -0.14034,0 -0.24051,0.57575 -0.24051,1.38249 0,1.32104 -0.0256,1.38249 -0.57603,1.38249 -0.3688,0 -0.57604,0.12959 -0.57604,0.36022 0,0.2676 0.19254,0.34165 0.74885,0.28801 l 0.74884,-0.0722 z m -34.74511,1.20968 c 0,-0.2743 -0.33282,-0.34562 -1.61291,-0.34562 -1.48521,0 -1.85915,0.13777 -1.45929,0.53763 0.0845,0.0845 0.81029,0.15361 1.6129,0.15361 1.14354,0 1.4593,-0.0748 1.4593,-0.34562 z m 6.22119,0 c 0,-0.2743 -0.33282,-0.34562 -1.6129,-0.34562 -1.28008,0 -1.6129,0.0713 -1.6129,0.34562 0,0.27431 0.33282,0.34562 1.6129,0.34562 1.28008,0 1.6129,-0.0713 1.6129,-0.34562 z m 5.93402,0.0576 c -0.0603,-0.18236 -0.65902,-0.31302 -1.6321,-0.35615 -1.26214,-0.0559 -1.53694,-0.004 -1.53694,0.28801 0,0.28774 0.31351,0.35615 1.6321,0.35615 1.20284,0 1.60708,-0.0757 1.53694,-0.28801 z m 6.04755,0.0576 c 0,-0.13167 -0.69124,-0.23041 -1.6129,-0.23041 -0.92166,0 -1.61291,0.0987 -1.61291,0.23041 0,0.13167 0.69125,0.23041 1.61291,0.23041 0.92166,0 1.6129,-0.0987 1.6129,-0.23041 z m 5.99078,0 c 0,-0.13167 -0.69124,-0.23041 -1.6129,-0.23041 -0.92166,0 -1.6129,0.0987 -1.6129,0.23041 0,0.13167 0.69124,0.23041 1.6129,0.23041 0.92166,0 1.6129,-0.0987 1.6129,-0.23041 z m -30.18433,-0.23041 c 0,-0.13167 -0.69124,-0.23042 -1.6129,-0.23042 -0.92166,0 -1.6129,0.0987 -1.6129,0.23042 0,0.13166 0.69124,0.23041 1.6129,0.23041 0.92166,0 1.6129,-0.0987 1.6129,-0.23041 z m 40.78341,-7.14286 c 0,-0.92166 -0.0987,-1.61291 -0.23041,-1.61291 -0.13167,0 -0.23042,0.69125 -0.23042,1.61291 0,0.92166 0.0987,1.6129 0.23042,1.6129 0.13166,0 0.23041,-0.69124 0.23041,-1.6129 z m 0,-6.2212 c 0,-0.92166 -0.0987,-1.6129 -0.23041,-1.6129 -0.13167,0 -0.23042,0.69124 -0.23042,1.6129 0,0.92166 0.0987,1.6129 0.23042,1.6129 0.13166,0 0.23041,-0.69124 0.23041,-1.6129 z m 0,-5.99078 c 0,-0.92166 -0.0987,-1.61291 -0.23041,-1.61291 -0.13167,0 -0.23042,0.69125 -0.23042,1.61291 0,0.92166 0.0987,1.6129 0.23042,1.6129 0.13166,0 0.23041,-0.69124 0.23041,-1.6129 z m -22.63709,-3.85945 c 0.0699,-0.21224 -0.33459,-0.28802 -1.53726,-0.28802 -1.83147,0 -2.22682,0.38659 -0.53763,0.52573 1.58165,0.13028 1.96828,0.086 2.07489,-0.23771 z m 6.04723,0.0576 c 0,-0.2743 -0.33282,-0.34562 -1.6129,-0.34562 -1.28009,0 -1.61291,0.0713 -1.61291,0.34562 0,0.27431 0.33282,0.34563 1.61291,0.34563 1.28008,0 1.6129,-0.0713 1.6129,-0.34563 z m 5.99078,0 c 0,-0.2743 -0.33282,-0.34562 -1.6129,-0.34562 -1.28008,0 -1.6129,0.0713 -1.6129,0.34562 0,0.27431 0.33282,0.34563 1.6129,0.34563 1.28008,0 1.6129,-0.0713 1.6129,-0.34563 z m 6.16444,0.0576 c -0.0603,-0.18236 -0.65903,-0.31302 -1.63211,-0.35615 -1.26213,-0.0559 -1.53693,-0.004 -1.53693,0.28802 0,0.28773 0.31351,0.35615 1.6321,0.35615 1.20283,0 1.60707,-0.0758 1.53694,-0.28802 z m 4.43464,0.0576 c 0,-0.12673 -0.3629,-0.23041 -0.80645,-0.23041 -0.44355,0 -0.80645,0.10368 -0.80645,0.23041 0,0.12673 0.3629,0.23042 0.80645,0.23042 0.44355,0 0.80645,-0.10369 0.80645,-0.23042 z m -52.82174,-0.40323 c 0.0701,-0.21226 -0.33411,-0.28801 -1.53694,-0.28801 -1.31859,0 -1.6321,0.0684 -1.6321,0.35615 0,0.29247 0.2748,0.34396 1.53693,0.28801 0.97309,-0.0431 1.57185,-0.17379 1.63211,-0.35615 z m 6.04755,0.0576 c 0,-0.27431 -0.33282,-0.34562 -1.6129,-0.34562 -1.28009,0 -1.61291,0.0713 -1.61291,0.34562 0,0.2743 0.33282,0.34562 1.61291,0.34562 1.28008,0 1.6129,-0.0713 1.6129,-0.34562 z m 5.99078,0 c 0,-0.27431 -0.33282,-0.34562 -1.6129,-0.34562 -1.28008,0 -1.6129,0.0713 -1.6129,0.34562 0,0.2743 0.33282,0.34562 1.6129,0.34562 1.28008,0 1.6129,-0.0713 1.6129,-0.34562 z m 5.99079,0.11521 c 0,-0.13167 -0.69125,-0.23042 -1.61291,-0.23042 -0.92166,0 -1.6129,0.0987 -1.6129,0.23042 0,0.13166 0.69124,0.23041 1.6129,0.23041 0.92166,0 1.61291,-0.0987 1.61291,-0.23041 z m 6.22119,0 c 0,-0.13167 -0.69124,-0.23042 -1.6129,-0.23042 -0.92166,0 -1.6129,0.0987 -1.6129,0.23042 0,0.13166 0.69124,0.23041 1.6129,0.23041 0.92166,0 1.6129,-0.0987 1.6129,-0.23041 z m -30.41474,-0.23042 c 0,-0.13167 -0.69125,-0.23041 -1.61291,-0.23041 -0.92166,0 -1.6129,0.0987 -1.6129,0.23041 0,0.13167 0.69124,0.23042 1.6129,0.23042 0.92166,0 1.61291,-0.0987 1.61291,-0.23042 z M 339.93618,212.6414 c 0,-0.2743 -0.33282,-0.34562 -1.61291,-0.34562 -1.28008,0 -1.6129,0.0713 -1.6129,0.34562 0,0.27431 0.33282,0.34563 1.6129,0.34563 1.28009,0 1.61291,-0.0713 1.61291,-0.34563 z m 5.99078,0 c 0,-0.2743 -0.33282,-0.34562 -1.6129,-0.34562 -1.28009,0 -1.61291,0.0713 -1.61291,0.34562 0,0.27431 0.33282,0.34563 1.61291,0.34563 1.28008,0 1.6129,-0.0713 1.6129,-0.34563 z m -42.39631,-0.23041 c 0,-0.2743 -0.33282,-0.34562 -1.61291,-0.34562 -1.75539,0 -2.21619,0.37999 -0.63364,0.52253 2.0931,0.18852 2.24655,0.17644 2.24655,-0.17691 z m 6.22119,0 c 0,-0.2743 -0.33282,-0.34562 -1.6129,-0.34562 -1.28008,0 -1.6129,0.0713 -1.6129,0.34562 0,0.2743 0.33282,0.34562 1.6129,0.34562 1.28008,0 1.6129,-0.0713 1.6129,-0.34562 z m 5.99079,0 c 0,-0.2743 -0.33282,-0.34562 -1.61291,-0.34562 -1.28008,0 -1.6129,0.0713 -1.6129,0.34562 0,0.2743 0.33282,0.34562 1.6129,0.34562 1.28009,0 1.61291,-0.0713 1.61291,-0.34562 z m 5.99078,0.14208 c 0,-0.28726 -0.85162,-0.48088 -2.13134,-0.48456 -0.82065,-0.002 -1.09447,0.0833 -1.09447,0.34248 0,0.2743 0.33282,0.34562 1.61291,0.34562 0.88709,0 1.6129,-0.0916 1.6129,-0.20354 z m 5.99078,-0.0269 c 0,-0.13167 -0.69124,-0.23042 -1.6129,-0.23042 -0.92166,0 -1.6129,0.0987 -1.6129,0.23042 0,0.13166 0.69124,0.23041 1.6129,0.23041 0.92166,0 1.6129,-0.0987 1.6129,-0.23041 z m 6.2212,0 c 0,-0.13167 -0.69124,-0.23042 -1.6129,-0.23042 -0.92166,0 -1.6129,0.0987 -1.6129,0.23042 0,0.13166 0.69124,0.23041 1.6129,0.23041 0.92166,0 1.6129,-0.0987 1.6129,-0.23041 z m -60.59908,-0.34563 c 0,-0.2743 -0.33282,-0.34562 -1.6129,-0.34562 -1.48521,0 -1.85916,0.13777 -1.45929,0.53764 0.0845,0.0845 0.81029,0.15361 1.6129,0.15361 1.14354,0 1.45929,-0.0748 1.45929,-0.34563 z m 5.99079,0 c 0,-0.2743 -0.33282,-0.34562 -1.61291,-0.34562 -1.28008,0 -1.6129,0.0713 -1.6129,0.34562 0,0.27431 0.33282,0.34563 1.6129,0.34563 1.28009,0 1.61291,-0.0713 1.61291,-0.34563 z m 6.16443,0.0576 c -0.0602,-0.18235 -0.65902,-0.31302 -1.63211,-0.35615 -1.26213,-0.0559 -1.53693,-0.004 -1.53693,0.28802 0,0.28773 0.31351,0.35615 1.6321,0.35615 1.20283,0 1.60708,-0.0758 1.53694,-0.28802 z m 6.04755,0.0576 c 0,-0.13166 -0.69124,-0.23041 -1.6129,-0.23041 -0.92166,0 -1.61291,0.0987 -1.61291,0.23041 0,0.13167 0.69125,0.23042 1.61291,0.23042 0.92166,0 1.6129,-0.0987 1.6129,-0.23042 z m 5.99078,0 c 0,-0.13166 -0.69124,-0.23041 -1.6129,-0.23041 -0.92166,0 -1.6129,0.0987 -1.6129,0.23041 0,0.13167 0.69124,0.23042 1.6129,0.23042 0.92166,0 1.6129,-0.0987 1.6129,-0.23042 z m -60.42511,-0.40322 c 0.0699,-0.21224 -0.33459,-0.28802 -1.53725,-0.28802 -1.83148,0 -2.22683,0.38659 -0.53764,0.52573 1.58165,0.13028 1.96829,0.086 2.07489,-0.23771 z m 6.04723,0.0576 c 0,-0.2743 -0.33282,-0.34562 -1.6129,-0.34562 -1.28008,0 -1.6129,0.0713 -1.6129,0.34562 0,0.2743 0.33282,0.34562 1.6129,0.34562 1.28008,0 1.6129,-0.0713 1.6129,-0.34562 z m 5.99079,0 c 0,-0.2743 -0.33282,-0.34562 -1.61291,-0.34562 -1.28008,0 -1.6129,0.0713 -1.6129,0.34562 0,0.2743 0.33282,0.34562 1.6129,0.34562 1.28009,0 1.61291,-0.0713 1.61291,-0.34562 z m 5.93318,0.0576 c -0.0633,-0.18999 -0.59268,-0.28801 -1.5553,-0.28801 -0.96263,0 -1.49197,0.098 -1.5553,0.28801 -0.0708,0.21256 0.33666,0.28802 1.5553,0.28802 1.21863,0 1.62615,-0.0755 1.5553,-0.28802 z m 6.2788,0.0576 c 0,-0.13167 -0.69125,-0.23042 -1.61291,-0.23042 -0.92165,0 -1.6129,0.0987 -1.6129,0.23042 0,0.13166 0.69125,0.23041 1.6129,0.23041 0.92166,0 1.61291,-0.0987 1.61291,-0.23041 z m 5.99078,0 c 0,-0.13167 -0.69124,-0.23042 -1.6129,-0.23042 -0.92166,0 -1.61291,0.0987 -1.61291,0.23042 0,0.13166 0.69125,0.23041 1.61291,0.23041 0.92166,0 1.6129,-0.0987 1.6129,-0.23041 z m -54.37788,-0.34562 c 0,-0.27431 -0.33282,-0.34563 -1.6129,-0.34563 -1.28008,0 -1.61291,0.0713 -1.61291,0.34563 0,0.2743 0.33283,0.34562 1.61291,0.34562 1.28008,0 1.6129,-0.0713 1.6129,-0.34562 z m 5.99078,0 c 0,-0.27431 -0.33282,-0.34563 -1.6129,-0.34563 -1.28008,0 -1.6129,0.0713 -1.6129,0.34563 0,0.2743 0.33282,0.34562 1.6129,0.34562 1.28008,0 1.6129,-0.0713 1.6129,-0.34562 z m 5.99079,0.1152 c 0,-0.13166 -0.69125,-0.23041 -1.61291,-0.23041 -0.92165,0 -1.6129,0.0988 -1.6129,0.23041 0,0.13167 0.69125,0.23042 1.6129,0.23042 0.92166,0 1.61291,-0.0987 1.61291,-0.23042 z m 5.99078,0 c 0,-0.13166 -0.69124,-0.23041 -1.6129,-0.23041 -0.92166,0 -1.61291,0.0988 -1.61291,0.23041 0,0.13167 0.69125,0.23042 1.61291,0.23042 0.92166,0 1.6129,-0.0987 1.6129,-0.23042 z m 90.78341,-22.69585 c 0,-0.2743 -0.33282,-0.34562 -1.6129,-0.34562 -2.50363,0 -2.04289,0.58643 0.51843,0.65986 0.8332,0.0239 1.09447,-0.0511 1.09447,-0.31424 z m 5.99078,0 c 0,-0.2743 -0.33282,-0.34562 -1.6129,-0.34562 -1.28008,0 -1.6129,0.0713 -1.6129,0.34562 0,0.2743 0.33282,0.34562 1.6129,0.34562 1.28008,0 1.6129,-0.0713 1.6129,-0.34562 z m 6.2212,0 c 0,-0.2743 -0.33282,-0.34562 -1.6129,-0.34562 -1.28008,0 -1.6129,0.0713 -1.6129,0.34562 0,0.2743 0.33282,0.34562 1.6129,0.34562 1.28008,0 1.6129,-0.0713 1.6129,-0.34562 z m -42.39631,-0.23041 c 0,-0.27431 -0.33282,-0.34563 -1.6129,-0.34563 -1.28009,0 -1.61291,0.0713 -1.61291,0.34563 0,0.2743 0.33282,0.34562 1.61291,0.34562 1.28008,0 1.6129,-0.0713 1.6129,-0.34562 z m 5.99078,0 c 0,-0.27431 -0.33282,-0.34563 -1.6129,-0.34563 -1.28008,0 -1.6129,0.0713 -1.6129,0.34563 0,0.2743 0.33282,0.34562 1.6129,0.34562 1.28008,0 1.6129,-0.0713 1.6129,-0.34562 z m 5.99079,-0.0105 c 0,-0.29247 -0.27481,-0.34397 -1.53694,-0.28802 -0.97308,0.0431 -1.57185,0.17379 -1.63211,0.35615 -0.0701,0.21226 0.33411,0.28802 1.53694,0.28802 1.31859,0 1.63211,-0.0684 1.63211,-0.35615 z m 6.22119,0.12573 c 0,-0.13166 -0.69124,-0.23041 -1.6129,-0.23041 -0.92166,0 -1.6129,0.0988 -1.6129,0.23041 0,0.13167 0.69124,0.23042 1.6129,0.23042 0.92166,0 1.6129,-0.0987 1.6129,-0.23042 z m 5.99079,0 c 0,-0.13166 -0.69125,-0.23041 -1.61291,-0.23041 -0.92165,0 -1.6129,0.0988 -1.6129,0.23041 0,0.13167 0.69125,0.23042 1.6129,0.23042 0.92166,0 1.61291,-0.0987 1.61291,-0.23042 z m -60.59908,-0.34562 c 0,-0.2743 -0.33282,-0.34562 -1.6129,-0.34562 -1.64102,0 -2.22656,0.35548 -0.86406,0.52456 1.78492,0.22151 2.47696,0.17151 2.47696,-0.17894 z m 6.2212,0 c 0,-0.2743 -0.33282,-0.34562 -1.61291,-0.34562 -1.28008,0 -1.6129,0.0713 -1.6129,0.34562 0,0.2743 0.33282,0.34562 1.6129,0.34562 1.28009,0 1.61291,-0.0713 1.61291,-0.34562 z m 5.99078,0 c 0,-0.2743 -0.33282,-0.34562 -1.6129,-0.34562 -1.28009,0 -1.61291,0.0713 -1.61291,0.34562 0,0.2743 0.33282,0.34562 1.61291,0.34562 1.28008,0 1.6129,-0.0713 1.6129,-0.34562 z m 5.99078,0.13179 c 0,-0.25763 -2.38219,-0.58518 -2.87645,-0.39552 -0.84477,0.32417 -0.25341,0.60935 1.26355,0.60935 0.8871,0 1.6129,-0.0962 1.6129,-0.21383 z m 5.99079,-0.0166 c 0,-0.13167 -0.69125,-0.23042 -1.61291,-0.23042 -0.92165,0 -1.6129,0.0987 -1.6129,0.23042 0,0.13166 0.69125,0.23041 1.6129,0.23041 0.92166,0 1.61291,-0.0987 1.61291,-0.23041 z m 6.2212,0 c 0,-0.13167 -0.69125,-0.23042 -1.61291,-0.23042 -0.92166,0 -1.6129,0.0987 -1.6129,0.23042 0,0.13166 0.69124,0.23041 1.6129,0.23041 0.92166,0 1.61291,-0.0987 1.61291,-0.23041 z"
       id="path1086"
       inkscape:connector-curvature="0"
       transform="scale(0.26458333)" />
    <path
       style="fill:#f2f2f2;fill-opacity:1;stroke:#f2f2f2;stroke-width:0.43103445;stroke-miterlimit:4;stroke-dasharray:3.44827566, 3.44827566000000019;stroke-dashoffset:0;stroke-opacity:1"
       d="m 152.48757,395.69052 c -25.6492,-44.53328 -46.63491,-81.1184 -46.63491,-81.30027 0,-0.18186 0.38773,-0.22926 0.86164,-0.10534 0.4739,0.12393 0.97026,0.0496 1.10302,-0.16524 0.13276,-0.21482 -0.27587,-0.39057 -0.90807,-0.39057 -1.10419,0 -1.0531,-0.10407 1.2973,-2.64278 1.74497,-1.88477 2.31385,-2.77569 1.98339,-3.10615 -0.33046,-0.33045 -1.08074,0.14474 -2.61584,1.65676 l -2.15248,2.12011 v -10.43639 -10.43638 h 1.31854 c 0.76927,0 1.20757,-0.17956 1.05215,-0.43103 -0.14651,-0.23707 -0.73986,-0.43104 -1.31854,-0.43104 h -1.05215 v -10.95647 -10.95648 l 15.97247,4.05993 c 8.78486,2.23295 16.08863,4.05992 16.2306,4.05992 0.14197,0 -0.0971,0.39251 -0.53125,0.87225 -0.60263,0.6659 -0.67009,0.99154 -0.28516,1.37647 0.38493,0.38493 0.78531,0.24362 1.6924,-0.59732 l 1.18818,-1.10155 27.58343,7.04432 c 15.17088,3.87438 27.64933,7.24204 27.72988,7.4837 0.0806,0.24165 0.83914,0.43937 1.68573,0.43937 0.8466,0 21.92419,5.18858 46.83908,11.53017 36.7248,9.34758 45.01424,11.58526 43.79119,11.82118 -1.32663,0.25591 -1.24864,0.28637 0.64656,0.25253 3.50698,-0.0626 4.16947,0.0536 4.01867,0.70505 -0.19496,0.84221 -92.32616,160.59254 -92.62083,160.59933 -0.13206,0.003 -21.22581,-36.43079 -46.875,-80.96408 z m 121.46854,-52.69043 c 0,-0.8465 -3.68072,-6.84818 -4.20259,-6.85262 -0.92154,-0.008 -0.60749,0.97368 1.41953,4.43644 1.69983,2.90382 2.78306,3.84425 2.78306,2.41618 z m -7.92501,-13.99665 c -0.757,-1.97272 -3.83733,-6.65365 -4.37849,-6.65365 -0.92813,0 -0.81306,0.34765 1.32265,3.99608 1.12959,1.92969 2.23721,3.3315 2.63232,3.3315 0.44158,0 0.59093,-0.23766 0.42352,-0.67393 z m -7.84301,-13.3808 c 0.8107,-0.3111 0.90988,-1.02953 0.14302,-1.03605 -0.29634,-0.003 -1.36323,-1.45114 -2.37088,-3.21916 -1.32563,-2.32598 -2.01332,-3.14503 -2.48775,-2.96298 -0.54056,0.20743 -0.38907,0.72836 0.86281,2.96693 0.83517,1.49343 1.40701,3.00583 1.27076,3.36089 -0.21913,0.57106 0.19861,0.8566 1.61221,1.102 0.15842,0.0275 0.59484,-0.0677 0.96983,-0.21163 z m -23.45612,-0.60044 c 0,-0.23707 -0.78731,-0.43103 -1.74958,-0.43103 -1.05662,0 -1.64406,0.17072 -1.48318,0.43103 0.14652,0.23707 0.93383,0.43104 1.74958,0.43104 0.81575,0 1.48318,-0.19397 1.48318,-0.43104 z m 6.03448,0 c 0,-0.23707 -0.78731,-0.43103 -1.74958,-0.43103 -1.05662,0 -1.64406,0.17072 -1.48318,0.43103 0.14652,0.23707 0.93383,0.43104 1.74958,0.43104 0.81575,0 1.48318,-0.19397 1.48318,-0.43104 z m 6.03448,0 c 0,-0.23707 -0.77586,-0.43103 -1.72414,-0.43103 -0.94827,0 -1.72413,0.19396 -1.72413,0.43103 0,0.23707 0.77586,0.43104 1.72413,0.43104 0.94828,0 1.72414,-0.19397 1.72414,-0.43104 z m 6.03449,0 c 0,-0.23707 -0.77587,-0.43103 -1.72414,-0.43103 -0.94828,0 -1.72414,0.19396 -1.72414,0.43103 0,0.23707 0.77586,0.43104 1.72414,0.43104 0.94827,0 1.72414,-0.19397 1.72414,-0.43104 z m 12.06896,0 c 0,-0.23707 -0.77586,-0.43103 -1.72414,-0.43103 -0.94827,0 -1.72413,0.19396 -1.72413,0.43103 0,0.23707 0.77586,0.43104 1.72413,0.43104 0.94828,0 1.72414,-0.19397 1.72414,-0.43104 z m 6.03448,0 c 0,-0.23707 -0.66743,-0.43103 -1.48318,-0.43103 -0.81575,0 -1.60306,0.19396 -1.74957,0.43103 -0.16089,0.26032 0.42656,0.43104 1.48318,0.43104 0.96226,0 1.74957,-0.19397 1.74957,-0.43104 z m 6.03449,0 c 0,-0.23707 -0.66743,-0.43103 -1.48318,-0.43103 -0.81575,0 -1.60306,0.19396 -1.74958,0.43103 -0.16089,0.26032 0.42656,0.43104 1.48318,0.43104 0.96227,0 1.74958,-0.19397 1.74958,-0.43104 z m 4.74138,-0.0154 c -0.88284,-0.20963 -1.67848,-0.19133 -1.91811,0.0441 -0.25451,0.25008 0.31641,0.38565 1.50862,0.35823 l 1.91811,-0.0441 z m -107.32759,-0.4156 c 0,-0.23707 -0.77586,-0.43104 -1.72414,-0.43104 -0.94827,0 -1.72414,0.19397 -1.72414,0.43104 0,0.23707 0.77587,0.43103 1.72414,0.43103 0.94828,0 1.72414,-0.19396 1.72414,-0.43103 z m 6.03448,0 c 0,-0.23707 -0.77586,-0.43104 -1.72414,-0.43104 -0.94827,0 -1.72413,0.19397 -1.72413,0.43104 0,0.23707 0.77586,0.43103 1.72413,0.43103 0.94828,0 1.72414,-0.19396 1.72414,-0.43103 z m 6.03449,0 c 0,-0.23707 -0.77587,-0.43104 -1.72414,-0.43104 -0.94828,0 -1.72414,0.19397 -1.72414,0.43104 0,0.23707 0.77586,0.43103 1.72414,0.43103 0.94827,0 1.72414,-0.19396 1.72414,-0.43103 z m 6.03448,0 c 0,-0.23707 -0.77586,-0.43104 -1.72414,-0.43104 -0.94828,0 -1.72414,0.19397 -1.72414,0.43104 0,0.23707 0.77586,0.43103 1.72414,0.43103 0.94828,0 1.72414,-0.19396 1.72414,-0.43103 z m 6.03448,0 c 0,-0.23707 -0.77586,-0.43104 -1.72414,-0.43104 -0.94827,0 -1.72414,0.19397 -1.72414,0.43104 0,0.23707 0.77587,0.43103 1.72414,0.43103 0.94828,0 1.72414,-0.19396 1.72414,-0.43103 z m 6.03448,0 c 0,-0.23707 -0.77586,-0.43104 -1.72413,-0.43104 -0.94828,0 -1.72414,0.19397 -1.72414,0.43104 0,0.23707 0.77586,0.43103 1.72414,0.43103 0.94827,0 1.72413,-0.19396 1.72413,-0.43103 z m 6.03449,0 c 0,-0.23707 -0.77587,-0.43104 -1.72414,-0.43104 -0.94828,0 -1.72414,0.19397 -1.72414,0.43104 0,0.23707 0.77586,0.43103 1.72414,0.43103 0.94827,0 1.72414,-0.19396 1.72414,-0.43103 z m 6.03448,0 c 0,-0.23707 -0.77586,-0.43104 -1.72414,-0.43104 -0.94827,0 -1.72414,0.19397 -1.72414,0.43104 0,0.23707 0.77587,0.43103 1.72414,0.43103 0.94828,0 1.72414,-0.19396 1.72414,-0.43103 z m 5.28017,0.12684 c -0.5334,-0.10274 -1.40625,-0.10274 -1.93965,0 -0.53341,0.10274 -0.097,0.1868 0.96982,0.1868 1.06681,0 1.50324,-0.0841 0.96983,-0.1868 z m 6.03448,0 c -0.5334,-0.10274 -1.40625,-0.10274 -1.93965,0 -0.53341,0.10274 -0.097,0.1868 0.96983,0.1868 1.06681,0 1.50323,-0.0841 0.96982,-0.1868 z m -114.11638,-0.55788 c 0.16089,-0.26031 -0.42655,-0.43103 -1.48318,-0.43103 -0.96226,0 -1.74957,0.19396 -1.74957,0.43103 0,0.23707 0.66743,0.43104 1.48318,0.43104 0.81575,0 1.60306,-0.19397 1.74957,-0.43104 z m 6.25,0 c 0,-0.23707 -0.77586,-0.43103 -1.72413,-0.43103 -0.94828,0 -1.72414,0.19396 -1.72414,0.43103 0,0.23707 0.77586,0.43104 1.72414,0.43104 0.94827,0 1.72413,-0.19397 1.72413,-0.43104 z m 6.03449,0 c 0,-0.23707 -0.77586,-0.43103 -1.72414,-0.43103 -0.94828,0 -1.72414,0.19396 -1.72414,0.43103 0,0.23707 0.77586,0.43104 1.72414,0.43104 0.94828,0 1.72414,-0.19397 1.72414,-0.43104 z m 6.03448,0 c 0,-0.23707 -0.77586,-0.43103 -1.72414,-0.43103 -0.94827,0 -1.72414,0.19396 -1.72414,0.43103 0,0.23707 0.77587,0.43104 1.72414,0.43104 0.94828,0 1.72414,-0.19397 1.72414,-0.43104 z m 6.03448,0 c 0,-0.23707 -0.77586,-0.43103 -1.72413,-0.43103 -0.94828,0 -1.72414,0.19396 -1.72414,0.43103 0,0.23707 0.77586,0.43104 1.72414,0.43104 0.94827,0 1.72413,-0.19397 1.72413,-0.43104 z m 6.03449,0 c 0,-0.23707 -0.77587,-0.43103 -1.72414,-0.43103 -0.94828,0 -1.72414,0.19396 -1.72414,0.43103 0,0.23707 0.77586,0.43104 1.72414,0.43104 0.94827,0 1.72414,-0.19397 1.72414,-0.43104 z m 6.03448,0 c 0,-0.23707 -0.77586,-0.43103 -1.72414,-0.43103 -0.94828,0 -1.72414,0.19396 -1.72414,0.43103 0,0.23707 0.77586,0.43104 1.72414,0.43104 0.94828,0 1.72414,-0.19397 1.72414,-0.43104 z m 5.81896,0 c -0.14651,-0.23707 -0.93382,-0.43103 -1.74957,-0.43103 -0.81575,0 -1.48318,0.19396 -1.48318,0.43103 0,0.23707 0.78731,0.43104 1.74957,0.43104 1.05662,0 1.64407,-0.17072 1.48318,-0.43104 z m 5.49569,0.12684 c -0.5334,-0.10274 -1.40625,-0.10274 -1.93965,0 -0.53341,0.10274 -0.097,0.1868 0.96983,0.1868 1.06681,0 1.50323,-0.0841 0.96982,-0.1868 z m 6.03449,0 c -0.53341,-0.10274 -1.40625,-0.10274 -1.93966,0 -0.5334,0.10274 -0.097,0.1868 0.96983,0.1868 1.06681,0 1.50323,-0.0841 0.96983,-0.1868 z M 118.7127,299.55091 c 2.07517,-2.33493 2.52063,-3.07098 2.07993,-3.43673 -0.43005,-0.35691 -1.18799,0.23509 -3.25074,2.53901 -2.36928,2.64628 -2.94217,3.86901 -1.81276,3.86901 0.18857,0 1.53117,-1.33708 2.98357,-2.97129 z m 73.77789,-8.2356 c 0,-0.23707 -0.78731,-0.43104 -1.74958,-0.43104 -1.05662,0 -1.64406,0.17072 -1.48318,0.43104 0.14652,0.23706 0.93383,0.43103 1.74958,0.43103 0.81575,0 1.48318,-0.19397 1.48318,-0.43103 z m -63.75531,-2.80138 c 3.02593,-3.19948 3.54392,-3.96183 2.94386,-4.33268 -0.52571,-0.32492 -3.77181,2.67769 -5.2627,4.86794 -0.75668,1.11164 -1.26087,1.40497 -2.46033,1.4314 -1.25598,0.0277 -1.36426,0.098 -0.64656,0.41984 1.61744,0.72534 3.09898,0.0737 5.42573,-2.3865 z m 3.19496,2.37034 c 0.16089,-0.26031 -0.42656,-0.43103 -1.48318,-0.43103 -0.96227,0 -1.74958,0.19396 -1.74958,0.43103 0,0.23707 0.66744,0.43104 1.48319,0.43104 0.81575,0 1.60306,-0.19397 1.74957,-0.43104 z m 6.25,0 c 0,-0.23707 -0.77586,-0.43103 -1.72413,-0.43103 -0.94828,0 -1.72414,0.19396 -1.72414,0.43103 0,0.23707 0.77586,0.43104 1.72414,0.43104 0.94827,0 1.72413,-0.19397 1.72413,-0.43104 z m 6.03449,0 c 0,-0.23707 -0.77587,-0.43103 -1.72414,-0.43103 -0.94828,0 -1.72414,0.19396 -1.72414,0.43103 0,0.23707 0.77586,0.43104 1.72414,0.43104 0.94827,0 1.72414,-0.19397 1.72414,-0.43104 z m 6.03448,0 c 0,-0.23707 -0.77586,-0.43103 -1.72414,-0.43103 -0.94828,0 -1.72414,0.19396 -1.72414,0.43103 0,0.23707 0.77586,0.43104 1.72414,0.43104 0.94828,0 1.72414,-0.19397 1.72414,-0.43104 z m 6.03448,0 c 0,-0.23707 -0.77586,-0.43103 -1.72414,-0.43103 -0.94827,0 -1.72413,0.19396 -1.72413,0.43103 0,0.23707 0.77586,0.43104 1.72413,0.43104 0.94828,0 1.72414,-0.19397 1.72414,-0.43104 z m 6.03448,0 c 0,-0.23707 -0.77586,-0.43103 -1.72413,-0.43103 -0.94828,0 -1.72414,0.19396 -1.72414,0.43103 0,0.23707 0.77586,0.43104 1.72414,0.43104 0.94827,0 1.72413,-0.19397 1.72413,-0.43104 z m 6.03449,0 c 0,-0.23707 -0.77587,-0.43103 -1.72414,-0.43103 -0.94828,0 -1.72414,0.19396 -1.72414,0.43103 0,0.23707 0.77586,0.43104 1.72414,0.43104 0.94827,0 1.72414,-0.19397 1.72414,-0.43104 z m 5.81896,0 c -0.14651,-0.23707 -0.93383,-0.43103 -1.74958,-0.43103 -0.81575,0 -1.48318,0.19396 -1.48318,0.43103 0,0.23707 0.78731,0.43104 1.74958,0.43104 1.05662,0 1.64407,-0.17072 1.48318,-0.43104 z m 5.49569,0.12684 c -0.5334,-0.10274 -1.40625,-0.10274 -1.93965,0 -0.53341,0.10274 -0.097,0.1868 0.96982,0.1868 1.06681,0 1.50324,-0.0841 0.96983,-0.1868 z m 6.03448,0 c -0.5334,-0.10274 -1.40625,-0.10274 -1.93965,0 -0.53341,0.10274 -0.097,0.1868 0.96983,0.1868 1.06681,0 1.50323,-0.0841 0.96982,-0.1868 z m -72.52155,-0.55787 c -1.55118,-0.49678 -2.5862,-0.49678 -2.5862,0 0,0.23707 0.82435,0.4117 1.83189,0.38807 1.55622,-0.0365 1.66973,-0.0949 0.75431,-0.38807 z m 6.14224,0.12684 c -0.5334,-0.10274 -1.40625,-0.10274 -1.93965,0 -0.53341,0.10273 -0.097,0.18679 0.96983,0.18679 1.06681,0 1.50323,-0.0841 0.96982,-0.18679 z"
       id="path1036"
       inkscape:connector-curvature="0"
       transform="scale(0.26458333)" />
    <path
       style="fill:#f2f2f2;fill-opacity:1;stroke:#f2f2f2;stroke-width:0.23041473;stroke-miterlimit:4;stroke-dasharray:1.84331786, 1.84331785999999997;stroke-dashoffset:0;stroke-opacity:1"
       d="m 377.39977,258.5248 c -4.39733,-7.64523 -8.02636,-14.01416 -8.06451,-14.15319 -0.0382,-0.13903 3.87073,-7.10862 8.6864,-15.48797 l 8.75576,-15.23519 44.32495,-48.7285 c 24.37872,-26.80067 44.36795,-48.68549 44.42051,-48.63293 0.11387,0.11387 -89.83079,156.14899 -90.00661,156.1426 -0.0667,-0.002 -3.71916,-6.25959 -8.1165,-13.90482 z"
       id="path1078"
       inkscape:connector-curvature="0"
       transform="scale(0.26458333)" />
    <path
       style="fill:#f2f2f2;fill-opacity:1;stroke:#f2f2f2;stroke-width:0.23041473;stroke-miterlimit:4;stroke-dasharray:1.84331786, 1.84331785999999997;stroke-dashoffset:0;stroke-opacity:1"
       d="m 387.12304,200.57478 v -10.76513 l 7.41416,-10.01269 c 4.07778,-5.50699 24.72628,-33.39403 45.88554,-61.97122 21.15927,-28.577193 38.50838,-52.001732 38.55359,-52.054535 0.0452,-0.0528 0.0822,4.69086 0.0822,10.541474 0,10.483871 -0.007,10.637481 -0.46083,10.637481 -0.25601,0 -0.46083,0.15361 -0.46083,0.345622 0,0.192012 0.20482,0.345622 0.46083,0.345622 0.45463,0 0.46083,0.15361 0.46083,11.40553 0,11.129996 -0.0108,11.405526 -0.44651,11.405526 -0.28757,0 -0.43541,0.14731 -0.41533,0.41385 0.019,0.25276 -17.22077,19.37817 -44.29157,49.13594 -24.37752,26.79716 -44.8761,49.3106 -45.55241,50.02988 l -1.22966,1.30778 z m 70.04608,-90.00711 c 0,-0.2743 -0.33282,-0.34562 -1.6129,-0.34562 -0.8871,0 -1.6129,0.0951 -1.6129,0.21121 0,0.32892 0.46603,0.44214 1.90092,0.46184 1.03215,0.0142 1.32488,-0.0582 1.32488,-0.32743 z m 5.99078,0 c 0,-0.2743 -0.33282,-0.34562 -1.6129,-0.34562 -1.28008,0 -1.6129,0.0713 -1.6129,0.34562 0,0.27431 0.33282,0.34562 1.6129,0.34562 1.28008,0 1.6129,-0.0713 1.6129,-0.34562 z m 6.16444,0.0576 c -0.0603,-0.18236 -0.65902,-0.31302 -1.63211,-0.35615 -1.26213,-0.056 -1.53693,-0.004 -1.53693,0.28801 0,0.28774 0.31351,0.35615 1.6321,0.35615 1.20283,0 1.60707,-0.0757 1.53694,-0.28801 z m 6.04755,0.0576 c 0,-0.12673 -0.33699,-0.23156 -0.74885,-0.23295 -0.41187,-0.001 -1.13767,-0.0668 -1.6129,-0.14536 -0.70364,-0.1163 -0.86406,-0.073 -0.86406,0.23295 0,0.31163 0.27531,0.37577 1.6129,0.37577 0.92166,0 1.61291,-0.0988 1.61291,-0.23041 z m -24.19355,-0.23042 c 0,-0.13166 -0.69125,-0.23041 -1.61291,-0.23041 -0.92165,0 -1.6129,0.0988 -1.6129,0.23041 0,0.13167 0.69125,0.23042 1.6129,0.23042 0.92166,0 1.61291,-0.0987 1.61291,-0.23042 z m 24.19355,-23.156678 c 0,-0.274303 -0.33282,-0.345622 -1.61291,-0.345622 -1.28008,0 -1.6129,0.07132 -1.6129,0.345622 0,0.274303 0.33282,0.345622 1.6129,0.345622 1.28009,0 1.61291,-0.07132 1.61291,-0.345622 z m -5.99079,-0.115207 c 0,-0.131666 -0.69124,-0.230415 -1.6129,-0.230415 -0.92166,0 -1.6129,0.09875 -1.6129,0.230415 0,0.131666 0.69124,0.230415 1.6129,0.230415 0.92166,0 1.6129,-0.09875 1.6129,-0.230415 z"
       id="path1080"
       inkscape:connector-curvature="0"
       transform="scale(0.26458333)" />
    <path
       style="fill:#f2f2f2;fill-opacity:1;stroke:#f2f2f2;stroke-width:0.23041473;stroke-miterlimit:4;stroke-dasharray:1.84331786, 1.84331785999999997;stroke-dashoffset:0;stroke-opacity:1"
       d="m 303.89125,130.89255 -12.1075,-21.01612 0.93889,-0.073 c 0.51639,-0.0401 1.04895,-0.20468 1.18347,-0.36566 0.13452,-0.16098 21.08559,-5.30487 46.55794,-11.430876 44.01676,-10.585863 46.40763,-11.135389 48.21429,-11.081748 1.55839,0.04627 1.90092,-0.0056 1.90092,-0.28801 0,-0.189448 -0.1743,-0.378016 -0.38732,-0.419042 -0.21303,-0.04103 18.67352,-4.66438 41.97011,-10.274121 23.29659,-5.609742 42.3878,-10.169169 42.42491,-10.132061 0.0561,0.05606 -28.60825,15.670131 -36.75428,20.020853 -2.50875,1.339898 -121.41313,65.815805 -121.68323,65.982745 -0.0829,0.0512 -5.59908,-9.36412 -12.2582,-20.92298 z m 86.68801,-20.78571 c 0,-0.2743 -0.33282,-0.34562 -1.6129,-0.34562 -2.50363,0 -2.0429,0.58643 0.51843,0.65987 0.8332,0.0239 1.09447,-0.0511 1.09447,-0.31425 z m -30.18433,-0.23041 c 0,-0.27431 -0.33282,-0.34562 -1.61291,-0.34562 -1.4852,0 -1.85915,0.13776 -1.45929,0.53763 0.0845,0.0845 0.81029,0.15361 1.61291,0.15361 1.14353,0 1.45929,-0.0748 1.45929,-0.34562 z m 5.99078,0 c 0,-0.27431 -0.33282,-0.34562 -1.6129,-0.34562 -1.28008,0 -1.61291,0.0713 -1.61291,0.34562 0,0.2743 0.33283,0.34562 1.61291,0.34562 1.28008,0 1.6129,-0.0713 1.6129,-0.34562 z m 6.16443,0.0576 c -0.0602,-0.18235 -0.65902,-0.31301 -1.6321,-0.35615 -1.26213,-0.0559 -1.53694,-0.004 -1.53694,0.28802 0,0.28774 0.31352,0.35615 1.63211,0.35615 1.20283,0 1.60707,-0.0757 1.53693,-0.28802 z m 6.04755,0.0576 c 0,-0.13166 -0.69124,-0.23041 -1.6129,-0.23041 -0.92166,0 -1.6129,0.0988 -1.6129,0.23041 0,0.13167 0.69124,0.23042 1.6129,0.23042 0.92166,0 1.6129,-0.0987 1.6129,-0.23042 z m 5.99079,0 c 0,-0.13166 -0.69125,-0.23041 -1.61291,-0.23041 -0.92166,0 -1.6129,0.0988 -1.6129,0.23041 0,0.13167 0.69124,0.23042 1.6129,0.23042 0.92166,0 1.61291,-0.0987 1.61291,-0.23042 z m -60.42498,-0.40322 c 0.0698,-0.21222 -0.3348,-0.28802 -1.53739,-0.28802 -0.89766,0 -1.6321,0.0968 -1.6321,0.21511 0,0.47967 3.01294,0.54898 3.16949,0.0729 z m 6.0471,0.0576 c 0,-0.2743 -0.33282,-0.34562 -1.61291,-0.34562 -1.28008,0 -1.6129,0.0713 -1.6129,0.34562 0,0.27431 0.33282,0.34562 1.6129,0.34562 1.28009,0 1.61291,-0.0713 1.61291,-0.34562 z m 5.99078,0 c 0,-0.2743 -0.33282,-0.34562 -1.6129,-0.34562 -1.28009,0 -1.61291,0.0713 -1.61291,0.34562 0,0.27431 0.33282,0.34562 1.61291,0.34562 1.28008,0 1.6129,-0.0713 1.6129,-0.34562 z m 5.99078,0.13179 c 0,-0.25763 -2.38219,-0.58518 -2.87645,-0.39552 -0.84477,0.32417 -0.25341,0.60935 1.26355,0.60935 0.8871,0 1.6129,-0.0962 1.6129,-0.21383 z m 6.2212,-0.0166 c 0,-0.13167 -0.69124,-0.23041 -1.6129,-0.23041 -0.92166,0 -1.61291,0.0987 -1.61291,0.23041 0,0.13167 0.69125,0.23041 1.61291,0.23041 0.92166,0 1.6129,-0.0987 1.6129,-0.23041 z m 5.99078,0 c 0,-0.13167 -0.69124,-0.23041 -1.6129,-0.23041 -0.92166,0 -1.6129,0.0987 -1.6129,0.23041 0,0.13167 0.69124,0.23041 1.6129,0.23041 0.92166,0 1.6129,-0.0987 1.6129,-0.23041 z m -54.37788,-0.34562 c 0,-0.27431 -0.33282,-0.34562 -1.6129,-0.34562 -1.28008,0 -1.6129,0.0713 -1.6129,0.34562 0,0.2743 0.33282,0.34562 1.6129,0.34562 1.28008,0 1.6129,-0.0713 1.6129,-0.34562 z m 5.99079,0 c 0,-0.27431 -0.33282,-0.34562 -1.61291,-0.34562 -1.28008,0 -1.6129,0.0713 -1.6129,0.34562 0,0.2743 0.33282,0.34562 1.6129,0.34562 1.28009,0 1.61291,-0.0713 1.61291,-0.34562 z m 5.99078,0.11521 c 0,-0.13167 -0.69124,-0.23042 -1.6129,-0.23042 -0.92166,0 -1.61291,0.0988 -1.61291,0.23042 0,0.13166 0.69125,0.23041 1.61291,0.23041 0.92166,0 1.6129,-0.0987 1.6129,-0.23041 z m 5.99078,0 c 0,-0.13167 -0.69124,-0.23042 -1.6129,-0.23042 -0.92166,0 -1.6129,0.0988 -1.6129,0.23042 0,0.13166 0.69124,0.23041 1.6129,0.23041 0.92166,0 1.6129,-0.0987 1.6129,-0.23041 z m 90.78341,-22.695857 c 0,-0.274303 -0.33282,-0.345622 -1.6129,-0.345622 -1.48521,0 -1.85916,0.13777 -1.45929,0.537634 0.0845,0.08449 0.81029,0.15361 1.6129,0.15361 1.14354,0 1.45929,-0.07478 1.45929,-0.345622 z m 5.99079,0 c 0,-0.274303 -0.33282,-0.345622 -1.61291,-0.345622 -1.28008,0 -1.6129,0.07132 -1.6129,0.345622 0,0.274303 0.33282,0.345622 1.6129,0.345622 1.28009,0 1.61291,-0.07132 1.61291,-0.345622 z m 6.16443,0.0576 c -0.0602,-0.182353 -0.65902,-0.313013 -1.6321,-0.356149 -1.26214,-0.05595 -1.53694,-0.0045 -1.53694,0.288018 0,0.287737 0.31351,0.35615 1.6321,0.35615 1.20284,0 1.60708,-0.07576 1.53694,-0.288019 z m 6.04755,0.0576 c 0,-0.126728 -0.49251,-0.231831 -1.09447,-0.233561 -0.60196,-0.0017 -1.32777,-0.06567 -1.6129,-0.142081 -0.38114,-0.102141 -0.51844,-0.04029 -0.51844,0.233561 0,0.307576 0.28111,0.372496 1.61291,0.372496 0.92166,0 1.6129,-0.09875 1.6129,-0.230415 z m 5.99078,0 c 0,-0.131666 -0.69124,-0.230415 -1.6129,-0.230415 -0.92166,0 -1.6129,0.09875 -1.6129,0.230415 0,0.131666 0.69124,0.230415 1.6129,0.230415 0.92166,0 1.6129,-0.09875 1.6129,-0.230415 z m -36.17511,-0.230415 c 0,-0.131665 -0.69125,-0.230414 -1.61291,-0.230414 -0.92165,0 -1.6129,0.09875 -1.6129,0.230414 0,0.131666 0.69125,0.230415 1.6129,0.230415 0.92166,0 1.61291,-0.09875 1.61291,-0.230415 z m 5.99078,0 c 0,-0.131665 -0.69124,-0.230414 -1.6129,-0.230414 -0.92166,0 -1.61291,0.09875 -1.61291,0.230414 0,0.131666 0.69125,0.230415 1.61291,0.230415 0.92166,0 1.6129,-0.09875 1.6129,-0.230415 z"
       id="path1084"
       inkscape:connector-curvature="0"
       transform="scale(0.26458333)" />
    <path
       style="fill:#f2f2f2;fill-opacity:1;stroke:#f2f2f2;stroke-width:0.23041473;stroke-miterlimit:4;stroke-dasharray:1.84331786, 1.84331785999999997;stroke-dashoffset:0;stroke-opacity:1"
       d="m 357.13412,181.11682 -28.72163,-7.64592 -5.89207,-10.24037 c -3.24064,-5.6322 -5.8689,-10.26338 -5.84058,-10.29152 0.0283,-0.0281 17.66407,-9.59911 39.19054,-21.26885 33.36061,-18.08514 39.27523,-21.2177 40.06144,-21.2177 0.79302,0 0.90632,-0.0615 0.80781,-0.43813 -0.0979,-0.37456 2.86539,-2.05461 20.42244,-11.578343 13.91494,-7.548094 20.74132,-11.132294 21.17065,-11.11567 0.43718,0.01693 0.63471,-0.09023 0.63711,-0.345622 0.002,-0.252477 6.0568,-3.649413 19.04393,-10.68491 10.47225,-5.673113 19.07216,-10.283038 19.11093,-10.244275 0.0388,0.03876 -3.38303,4.732244 -7.60398,10.42996 l -7.67445,10.359483 -0.95608,0.07085 c -1.11177,0.08239 -1.27902,0.442756 -0.25442,0.54819 0.69537,0.07155 0.62663,0.173905 -7.66129,11.40628 l -8.36295,11.334077 -1.32489,0.0139 c -0.72868,0.008 -1.32488,0.11754 -1.32488,0.24426 0,0.12673 0.47523,0.23042 1.05607,0.23042 0.58083,0 1.0215,0.0856 0.97926,0.1902 -0.0422,0.10461 -12.88211,17.47785 -28.53303,38.60721 -25.24572,34.08272 -28.46436,38.3376 -28.52842,37.71303 -0.0436,-0.42485 -0.20346,-0.70399 -0.40323,-0.70399 -0.24361,0 -0.33102,0.3042 -0.33102,1.15207 0,0.63364 -0.0778,1.14516 -0.17281,1.13671 -0.0951,-0.008 -13.09755,-3.45603 -28.89445,-7.66129 z m 29.71143,0.84018 c -0.0431,-0.97308 -0.1738,-1.57185 -0.35615,-1.6321 -0.21227,-0.0701 -0.28802,0.3341 -0.28802,1.53694 0,1.31859 0.0684,1.6321 0.35615,1.6321 0.29247,0 0.34397,-0.27481 0.28802,-1.53694 z m 0.0471,-6.06675 c 0,-1.28008 -0.0713,-1.6129 -0.34562,-1.6129 -0.2743,0 -0.34562,0.33282 -0.34562,1.6129 0,1.28009 0.0713,1.61291 0.34562,1.61291 0.27431,0 0.34562,-0.33282 0.34562,-1.61291 z m 0,-5.99078 c 0,-1.28008 -0.0713,-1.6129 -0.34562,-1.6129 -0.2743,0 -0.34562,0.33282 -0.34562,1.6129 0,1.28008 0.0713,1.6129 0.34562,1.6129 0.27431,0 0.34562,-0.33282 0.34562,-1.6129 z m -16.82027,-3.80184 c 0,-0.27431 -0.33282,-0.34563 -1.61291,-0.34563 -2.00093,0 -2.13671,0.40909 -0.17281,0.52065 0.79205,0.045 1.51786,0.10178 1.61291,0.1262 0.095,0.0244 0.17281,-0.11113 0.17281,-0.30122 z m 6.16443,-0.0576 c 0.0701,-0.21226 -0.33411,-0.28802 -1.53694,-0.28802 -1.31859,0 -1.6321,0.0684 -1.6321,0.35615 0,0.29247 0.2748,0.34397 1.53693,0.28802 0.97309,-0.0431 1.57185,-0.1738 1.63211,-0.35615 z m 6.04755,0.0576 c 0,-0.27431 -0.33282,-0.34563 -1.6129,-0.34563 -1.28009,0 -1.61291,0.0713 -1.61291,0.34563 0,0.2743 0.33282,0.34562 1.61291,0.34562 1.28008,0 1.6129,-0.0713 1.6129,-0.34562 z m 4.32173,0.0576 c -0.14759,-0.44961 -1.55675,-0.51497 -1.55675,-0.0722 0,0.25966 0.23047,0.36022 0.82565,0.36022 0.55734,0 0.79493,-0.0936 0.7311,-0.28802 z m -46.71804,-0.28802 c 0,-0.2743 -0.33282,-0.34562 -1.61291,-0.34562 -1.48521,0 -1.85916,0.13777 -1.45929,0.53763 0.0845,0.0845 0.81029,0.15361 1.6129,0.15361 1.14354,0 1.4593,-0.0748 1.4593,-0.34562 z m 5.99078,0 c 0,-0.2743 -0.33282,-0.34562 -1.6129,-0.34562 -1.28009,0 -1.61291,0.0713 -1.61291,0.34562 0,0.2743 0.33282,0.34562 1.61291,0.34562 1.28008,0 1.6129,-0.0713 1.6129,-0.34562 z m 6.16443,0.0576 c -0.0602,-0.18235 -0.65902,-0.31301 -1.6321,-0.35615 -1.26214,-0.0559 -1.53694,-0.004 -1.53694,0.28802 0,0.28774 0.31351,0.35615 1.6321,0.35615 1.20284,0 1.60708,-0.0757 1.53694,-0.28802 z m 6.04755,0.0576 c 0,-0.12673 -0.49251,-0.23183 -1.09447,-0.23356 -0.60196,-0.002 -1.32776,-0.0657 -1.6129,-0.14208 -0.38114,-0.10215 -0.51844,-0.0403 -0.51844,0.23356 0,0.30757 0.28111,0.37249 1.61291,0.37249 0.92166,0 1.6129,-0.0987 1.6129,-0.23041 z m 5.99078,0 c 0,-0.13167 -0.69124,-0.23042 -1.6129,-0.23042 -0.92166,0 -1.6129,0.0987 -1.6129,0.23042 0,0.13166 0.69124,0.23041 1.6129,0.23041 0.92166,0 1.6129,-0.0987 1.6129,-0.23041 z M 327.90645,165.752 c 0,-0.13166 -0.69125,-0.23041 -1.6129,-0.23041 -0.92166,0 -1.61291,0.0987 -1.61291,0.23041 0,0.13167 0.69125,0.23042 1.61291,0.23042 0.92165,0 1.6129,-0.0987 1.6129,-0.23042 z m 5.99078,0 c 0,-0.13166 -0.69124,-0.23041 -1.6129,-0.23041 -0.92166,0 -1.6129,0.0987 -1.6129,0.23041 0,0.13167 0.69124,0.23042 1.6129,0.23042 0.92166,0 1.6129,-0.0987 1.6129,-0.23042 z m 93.08756,-55.41474 c 0,-0.27431 -0.33282,-0.34563 -1.6129,-0.34563 -1.28009,0 -1.61291,0.0713 -1.61291,0.34563 0,0.2743 0.33282,0.34562 1.61291,0.34562 1.28008,0 1.6129,-0.0713 1.6129,-0.34562 z m 5.99078,0 c 0,-0.27431 -0.33282,-0.34563 -1.6129,-0.34563 -1.28008,0 -1.6129,0.0713 -1.6129,0.34563 0,0.2743 0.33282,0.34562 1.6129,0.34562 1.28008,0 1.6129,-0.0713 1.6129,-0.34562 z m 5.99079,-0.0105 c 0,-0.29247 -0.27481,-0.34397 -1.53694,-0.28802 -0.97308,0.0431 -1.57185,0.1738 -1.6321,0.35615 -0.0701,0.21226 0.3341,0.28802 1.53693,0.28802 1.31859,0 1.63211,-0.0684 1.63211,-0.35615 z m -36.17512,-0.21989 c 0,-0.2743 -0.33282,-0.34562 -1.6129,-0.34562 -1.28008,0 -1.61291,0.0713 -1.61291,0.34562 0,0.27431 0.33283,0.34562 1.61291,0.34562 1.28008,0 1.6129,-0.0713 1.6129,-0.34562 z m 5.99078,0.14497 c 0,-0.24094 -2.67389,-0.57408 -2.99834,-0.37356 -0.59079,0.36513 -0.0863,0.57421 1.38544,0.57421 0.8871,0 1.6129,-0.0903 1.6129,-0.20065 z m 5.99079,-0.0298 c 0,-0.13167 -0.69125,-0.23042 -1.61291,-0.23042 -0.92165,0 -1.6129,0.0987 -1.6129,0.23042 0,0.13167 0.69125,0.23041 1.6129,0.23041 0.92166,0 1.61291,-0.0987 1.61291,-0.23041 z m 6.2212,0 c 0,-0.13167 -0.69125,-0.23042 -1.61291,-0.23042 -0.92166,0 -1.6129,0.0987 -1.6129,0.23042 0,0.13167 0.69124,0.23041 1.6129,0.23041 0.92166,0 1.61291,-0.0987 1.61291,-0.23041 z m 24.13678,-23.214286 c 0.0701,-0.212264 -0.33411,-0.288019 -1.53694,-0.288019 -1.31859,0 -1.6321,0.06841 -1.6321,0.35615 0,0.29247 0.2748,0.343968 1.53693,0.288019 0.97309,-0.04314 1.57185,-0.173797 1.63211,-0.35615 z m 6.04755,0.0576 c 0,-0.274303 -0.33282,-0.345622 -1.61291,-0.345622 -1.28008,0 -1.6129,0.07132 -1.6129,0.345622 0,0.274304 0.33282,0.345623 1.6129,0.345623 1.28009,0 1.61291,-0.07132 1.61291,-0.345623 z m 5.99078,0 c 0,-0.274303 -0.33282,-0.345622 -1.6129,-0.345622 -1.28008,0 -1.6129,0.07132 -1.6129,0.345622 0,0.274304 0.33282,0.345623 1.6129,0.345623 1.28008,0 1.6129,-0.07132 1.6129,-0.345623 z"
       id="path1082"
       inkscape:connector-curvature="0"
       transform="scale(0.26458333)" />
    <path
       style="fill:none;stroke:#000000;stroke-width:0.26458332px;stroke-linecap:butt;stroke-linejoin:miter;stroke-opacity:1"
       d="M 27.676808,83.070448 52.742599,126.58744 77.634319,83.418584"
       id="path815"
       inkscape:connector-curvature="0" />
    <path
       style="fill:none;stroke:#000000;stroke-width:0.26458332px;stroke-linecap:butt;stroke-linejoin:miter;stroke-opacity:1"
       d="M 52.742599,126.58744 102.00384,72.452301"
       id="path840"
       inkscape:connector-curvature="0" />
    <path
       style="fill:none;stroke:#000000;stroke-width:0.26458332px;stroke-linecap:butt;stroke-linejoin:miter;stroke-opacity:1"
       d="M 77.634319,83.418584 126.89557,29.283441"
       id="path840-6"
       inkscape:connector-curvature="0" />
    <path
       style="fill:none;stroke:#000000;stroke-width:0.26458332;stroke-linecap:butt;stroke-linejoin:miter;stroke-opacity:1;stroke-miterlimit:4;stroke-dasharray:2.11666654,2.11666654;stroke-dashoffset:0"
       d="M 27.67681,83.070448 76.93805,28.935307"
       id="path840-0"
       inkscape:connector-curvature="0" />
    <path
       style="fill:none;stroke:#000000;stroke-width:0.1;stroke-linecap:butt;stroke-linejoin:miter;stroke-opacity:1;stroke-miterlimit:4;stroke-dasharray:0.8,0.8;stroke-dashoffset:0"
       d="m 76.938053,28.935307 49.957507,0.348136"
       id="path863-2"
       inkscape:connector-curvature="0" />
    <path
       style="fill:none;stroke:#000000;stroke-width:0.26458332px;stroke-linecap:butt;stroke-linejoin:miter;stroke-opacity:1"
       d="M 27.676811,83.070448 V 76.881365"
       id="path886"
       inkscape:connector-curvature="0" />
    <path
       style="fill:none;stroke:#000000;stroke-width:0.26458332px;stroke-linecap:butt;stroke-linejoin:miter;stroke-opacity:1"
       d="M 27.676811,76.881365 V 70.692282"
       id="path886-1"
       inkscape:connector-curvature="0" />
    <path
       style="fill:none;stroke:#000000;stroke-width:0.1;stroke-linecap:butt;stroke-linejoin:miter;stroke-opacity:1;stroke-miterlimit:4;stroke-dasharray:0.8,0.8;stroke-dashoffset:0"
       d="M 76.93805,22.746224 V 16.55714"
       id="path886-4"
       inkscape:connector-curvature="0" />
    <path
       style="fill:none;stroke:#000000;stroke-width:0.1;stroke-linecap:butt;stroke-linejoin:miter;stroke-opacity:1;stroke-miterlimit:4;stroke-dasharray:0.8,0.8;stroke-dashoffset:0"
       d="M 76.93805,28.935307 V 22.746224"
       id="path886-18"
       inkscape:connector-curvature="0" />
    <path
       style="fill:#000000;stroke:#000000;stroke-width:0.26458332;stroke-linecap:butt;stroke-linejoin:miter;stroke-opacity:1;stroke-miterlimit:4;stroke-dasharray:2.11666654,2.11666654;stroke-dashoffset:0"
       d="M 52.307443,55.990458 V 49.801375"
       id="path886-2"
       inkscape:connector-curvature="0" />
    <path
       style="fill:none;stroke:#000000;stroke-width:0.26458332px;stroke-linecap:butt;stroke-linejoin:miter;stroke-opacity:1"
       d="M 102.26496,56.338594 V 50.149511"
       id="path886-5"
       inkscape:connector-curvature="0" />
    <path
       style="fill:none;stroke:#000000;stroke-width:0.26458332px;stroke-linecap:butt;stroke-linejoin:miter;stroke-opacity:1"
       d="M 126.89556,29.283443 V 23.09436"
       id="path886-17"
       inkscape:connector-curvature="0" />
    <path
       style="fill:none;stroke:#000000;stroke-width:0.1;stroke-linecap:butt;stroke-linejoin:miter;stroke-opacity:1;stroke-miterlimit:4;stroke-dasharray:0.8,0.8;stroke-dashoffset:0"
       d="M 52.307443,49.801375 V 43.612292"
       id="path886-52"
       inkscape:connector-curvature="0" />
    <path
       style="fill:none;stroke:#000000;stroke-width:0.1;stroke-linecap:butt;stroke-linejoin:miter;stroke-opacity:1;stroke-miterlimit:4;stroke-dasharray:0.8,0.8;stroke-dashoffset:0"
       d="M 102.26496,50.149511 V 43.960428"
       id="path886-28"
       inkscape:connector-curvature="0" />
    <path
       style="fill:none;stroke:#000000;stroke-width:0.26458332px;stroke-linecap:butt;stroke-linejoin:miter;stroke-opacity:1"
       d="M 126.89556,23.09436 V 16.905277"
       id="path886-57"
       inkscape:connector-curvature="0" />
    <path
       style="fill:none;stroke:#000000;stroke-width:0.1;stroke-linecap:butt;stroke-linejoin:miter;stroke-miterlimit:4;stroke-dasharray:0.8,0.8;stroke-dashoffset:0;stroke-opacity:1"
       d="m 76.93805,22.746224 49.95751,0.348136"
       id="path863-2-5"
       inkscape:connector-curvature="0" />
    <path
       style="fill:none;stroke:#000000;stroke-width:0.1;stroke-linecap:butt;stroke-linejoin:miter;stroke-miterlimit:4;stroke-dasharray:0.8,0.8;stroke-dashoffset:0;stroke-opacity:1"
       d="m 76.93805,16.55714 49.95751,0.348136"
       id="path863-2-2"
       inkscape:connector-curvature="0" />
    <path
       style="fill:none;stroke:#000000;stroke-width:0.1;stroke-linecap:butt;stroke-linejoin:miter;stroke-miterlimit:4;stroke-dasharray:0.8,0.8;stroke-dashoffset:0;stroke-opacity:1"
       d="m 52.307451,43.612292 49.957509,0.348136"
       id="path863-2-1"
       inkscape:connector-curvature="0" />
    <path
       style="fill:none;stroke:#000000;stroke-width:0.26458332px;stroke-linecap:butt;stroke-linejoin:miter;stroke-opacity:1"
       d="M 27.676811,70.692282 126.89556,16.905276"
       id="path1014"
       inkscape:connector-curvature="0" />
    <path
       style="fill:none;stroke:#000000;stroke-width:0.26458332px;stroke-linecap:butt;stroke-linejoin:miter;stroke-opacity:1"
       d="M 77.634319,83.418584 126.89556,16.905277"
       id="path1018"
       inkscape:connector-curvature="0" />
    <path
       style="fill:none;stroke:#000000;stroke-width:0.26458332px;stroke-linecap:butt;stroke-linejoin:miter;stroke-opacity:1"
       d="M 27.676811,70.692282 77.634319,83.418584"
       id="path1020"
       inkscape:connector-curvature="0" />
    <path
       style="fill:none;stroke:#000000;stroke-width:0.26458332px;stroke-linecap:butt;stroke-linejoin:miter;stroke-opacity:1"
       d="m 52.30745,49.801375 25.29986,-6.208345 24.65765,6.556481"
       id="path1022"
       inkscape:connector-curvature="0" />
    <path
       style="fill:none;stroke:#000000;stroke-width:0.26458332px;stroke-linecap:butt;stroke-linejoin:miter;stroke-opacity:1"
       d="M 27.676811,70.692282 76.938049,28.935307"
       id="path1024"
       inkscape:connector-curvature="0" />
    <path
       style="fill:none;stroke:#000000;stroke-width:0.26458332px;stroke-linecap:butt;stroke-linejoin:miter;stroke-opacity:1"
       d="M 126.89556,16.905277 76.938052,28.935307"
       id="path1026"
       inkscape:connector-curvature="0" />
    <path
       style="fill:none;stroke:#000000;stroke-width:0.26458332;stroke-linecap:butt;stroke-linejoin:miter;stroke-opacity:1;stroke-miterlimit:4;stroke-dasharray:2.11666654,2.11666654;stroke-dashoffset:0"
       d="M 52.307442,55.990458 77.373233,99.507449"
       id="path1028"
       inkscape:connector-curvature="0" />
    <path
       style="fill:none;stroke:#000000;stroke-width:0.26458332px;stroke-linecap:butt;stroke-linejoin:miter;stroke-opacity:1"
       d="M 77.373233,99.507449 102.26496,56.338594"
       id="path1030"
       inkscape:connector-curvature="0" />
    <path
       style="fill:none;stroke:#000000;stroke-width:0.26458332;stroke-linecap:butt;stroke-linejoin:miter;stroke-opacity:1;stroke-miterlimit:4;stroke-dasharray:1.5874999, 1.58749990000000007;stroke-dashoffset:0"
       d="M 76.938052,28.935307 102.00384,72.452301"
       id="path1032"
       inkscape:connector-curvature="0" />
    <path
       style="fill:none;stroke:#000000;stroke-width:0.26458332px;stroke-linecap:butt;stroke-linejoin:miter;stroke-opacity:1"
       d="M 102.00384,72.452301 126.89556,29.283443"
       id="path1034"
       inkscape:connector-curvature="0" />
    <path
       style="fill:#e6e6e6;fill-opacity:1;stroke:#e6e6e6;stroke-width:0.43103445;stroke-miterlimit:4;stroke-dasharray:none;stroke-dashoffset:0;stroke-opacity:1"
       d="m 358.13066,224.86741 c -2.87841,-4.552 -6.65962,-11.7965 -6.27965,-12.03133 0.26537,-0.16401 0.12547,-0.37071 -0.33692,-0.49775 -0.48611,-0.13357 -3.19851,-4.41655 -7.04074,-11.11763 -3.4375,-5.99519 -6.31466,-11.06441 -6.39368,-11.26494 -0.079,-0.20053 0.3574,-0.36459 0.96983,-0.36459 0.61242,0 1.1135,-0.19397 1.1135,-0.43104 0,-0.23707 -0.64353,-0.43103 -1.43007,-0.43103 -1.39101,0 -1.53267,-0.17823 -5.18565,-6.52412 -2.06557,-3.58827 -3.66917,-6.61053 -3.56356,-6.71614 0.10561,-0.10561 11.7693,2.87873 25.9193,6.63188 15.90806,4.21945 25.21695,6.87545 24.39018,6.95896 -0.7354,0.0743 -1.33709,0.31675 -1.33709,0.5388 0,0.56105 3.34109,0.50973 3.52907,-0.0542 0.10762,-0.32284 0.51001,-0.32205 1.36406,0.003 0.66628,0.25332 1.14716,0.61853 1.06862,0.81159 -0.0785,0.19303 -3.73115,5.22743 -8.11693,11.18753 -6.26039,8.50763 -8.18256,10.84013 -8.94396,10.85323 -1.00773,0.0173 -1.33675,0.68462 -0.47862,0.97066 0.27017,0.0901 -1.55648,2.93635 -4.05922,6.3251 -4.48068,6.06691 -4.56021,6.1459 -5.18847,5.15235 z m -0.0797,-12.00038 c 0.16089,-0.26031 -0.42656,-0.43103 -1.48318,-0.43103 -0.96227,0 -1.74958,0.19396 -1.74958,0.43103 0,0.23707 0.66744,0.43103 1.48319,0.43103 0.81575,0 1.60306,-0.19396 1.74957,-0.43103 z m 6.25,0 c 0,-0.23707 -0.77586,-0.43103 -1.72414,-0.43103 -0.94827,0 -1.72413,0.19396 -1.72413,0.43103 0,0.23707 0.77586,0.43103 1.72413,0.43103 0.94828,0 1.72414,-0.19396 1.72414,-0.43103 z m 5.81897,-23.27586 c 0.16322,-0.26409 -0.45297,-0.4144 -1.59094,-0.38807 -1.56955,0.0363 -1.69037,0.0964 -0.77975,0.38807 1.53437,0.49139 2.06699,0.49139 2.37069,0 z m 6.25,0 c 0,-0.23707 -0.77586,-0.43104 -1.72414,-0.43104 -0.94828,0 -1.72414,0.19397 -1.72414,0.43104 0,0.23707 0.77586,0.43103 1.72414,0.43103 0.94828,0 1.72414,-0.19396 1.72414,-0.43103 z m -30.17242,-0.43104 c 0,-0.23707 -0.77586,-0.43103 -1.72413,-0.43103 -0.94828,0 -1.72414,0.19396 -1.72414,0.43103 0,0.23707 0.77586,0.43104 1.72414,0.43104 0.94827,0 1.72413,-0.19397 1.72413,-0.43104 z m 5.81897,0 c -0.14652,-0.23707 -0.93383,-0.43103 -1.74958,-0.43103 -0.81575,0 -1.48318,0.19396 -1.48318,0.43103 0,0.23707 0.78731,0.43104 1.74958,0.43104 1.05662,0 1.64406,-0.17072 1.48318,-0.43104 z m 5.60345,0 c -1.20205,-0.51654 -2.80173,-0.51654 -2.80173,0 0,0.23707 0.82436,0.41741 1.8319,0.40074 1.41877,-0.0235 1.63748,-0.11384 0.96983,-0.40074 z m 5.92672,0.12684 c -0.5334,-0.10274 -1.40625,-0.10274 -1.93965,0 -0.53341,0.10274 -0.097,0.1868 0.96982,0.1868 1.06682,0 1.50324,-0.0841 0.96983,-0.1868 z"
       id="path1056"
       inkscape:connector-curvature="0"
       transform="scale(0.26458333)" />
    <path
       style="fill:#e6e6e6;fill-opacity:1;stroke:#e6e6e6;stroke-width:0.43103445;stroke-miterlimit:4;stroke-dasharray:none;stroke-dashoffset:0;stroke-opacity:1"
       d="m 363.63383,234.50588 c -0.48443,-0.87766 -1.60305,-2.88184 -2.48583,-4.45374 l -1.60505,-2.85799 5.40567,-7.27132 c 2.97311,-3.99922 8.84431,-11.91837 13.04709,-17.5981 l 7.64143,-10.32679 0.11596,10.10854 c 0.0755,6.58395 -0.0372,10.15958 -0.32328,10.25494 -0.24158,0.0805 -0.43923,0.39226 -0.43923,0.69274 0,0.40756 -11.13887,12.95216 -20.19606,22.74482 -0.15395,0.16646 -0.67627,-0.41544 -1.1607,-1.2931 z m 12.73607,-21.63885 c 0,-0.23707 -0.77586,-0.43103 -1.72414,-0.43103 -0.94828,0 -1.72414,0.19396 -1.72414,0.43103 0,0.23707 0.77586,0.43103 1.72414,0.43103 0.94828,0 1.72414,-0.19396 1.72414,-0.43103 z m 6.03448,0 c 0,-0.23707 -0.77586,-0.43103 -1.72414,-0.43103 -0.94827,0 -1.72413,0.19396 -1.72413,0.43103 0,0.23707 0.77586,0.43103 1.72413,0.43103 0.94828,0 1.72414,-0.19396 1.72414,-0.43103 z"
       id="path1058"
       inkscape:connector-curvature="0"
       transform="scale(0.26458333)" />
    <path
       style="fill:#e6e6e6;fill-opacity:1;stroke:#e6e6e6;stroke-width:0.43103445;stroke-miterlimit:4;stroke-dasharray:none;stroke-dashoffset:0;stroke-opacity:1"
       d="m 366.94488,240.20629 c -0.78425,-1.31118 -1.31839,-2.6642 -1.18696,-3.00669 0.28884,-0.75271 15.46008,-17.47298 15.66672,-17.26634 0.14592,0.14593 -12.18688,21.7539 -12.75221,22.3428 -0.1659,0.17282 -0.94329,-0.75858 -1.72755,-2.06977 z"
       id="path1064"
       inkscape:connector-curvature="0"
       transform="scale(0.26458333)" />
    <path
       style="fill:#e6e6e6;fill-opacity:1;stroke:#e6e6e6;stroke-width:0.26525196;stroke-miterlimit:4;stroke-dasharray:none;stroke-dashoffset:0;stroke-opacity:1"
       d="m 199.34602,213.16544 -0.72184,-1.32626 h 1.07756 c 0.59266,0 1.07757,-0.11936 1.07757,-0.26525 0,-0.14589 -0.53842,-0.26526 -1.19648,-0.26526 h -1.19649 l 0.0692,-11.33952 0.0692,-11.33952 1.05756,-0.0861 c 0.58166,-0.0473 1.1188,-0.17498 1.19364,-0.28363 0.0748,-0.10865 4.9106,-1.35902 10.74614,-2.7786 5.83555,-1.41957 10.84787,-2.65199 11.13851,-2.73872 0.47713,-0.14237 0.49097,-0.11255 0.14264,0.30717 -0.34207,0.41216 -0.32815,0.50699 0.12282,0.83675 0.46145,0.33742 0.62038,0.26411 1.71412,-0.79073 l 1.20552,-1.16263 31.11793,-7.62049 c 17.11487,-4.19126 31.16312,-7.5753 31.21834,-7.52008 0.0552,0.0552 -8.75889,4.90162 -19.58691,10.76978 -19.39717,10.51213 -19.70968,10.66937 -21.20507,10.66937 -1.64087,0 -2.10212,0.44603 -0.60064,0.58081 0.80249,0.072 -1.66734,1.48299 -19.76135,11.28922 -19.4001,10.51407 -20.76046,11.20689 -22.00466,11.20689 -1.00199,0 -1.32618,0.0973 -1.32618,0.39788 0,0.23447 0.24512,0.3997 0.59682,0.40231 0.38334,0.003 -0.19547,0.4298 -1.61819,1.19364 -1.21826,0.65406 -2.3034,1.1892 -2.41143,1.1892 -0.10803,0 -0.52124,-0.59682 -0.91826,-1.32626 z m 5.38052,-8.26587 c 2.08908,-2.3101 2.61283,-3.03882 2.38308,-3.31565 -0.16196,-0.19515 -0.42906,-0.34425 -0.59356,-0.33134 -0.1645,0.0129 -1.4761,1.32759 -2.91468,2.9215 -2.18312,2.41884 -2.56151,2.96319 -2.28848,3.29217 0.17992,0.21678 0.41914,0.39415 0.53161,0.39415 0.11247,0 1.40938,-1.33238 2.88203,-2.96083 z m 10.26192,-11.30206 c 3.41546,-3.777 3.19823,-3.45667 2.68925,-3.96565 -0.24208,-0.24208 -0.47738,-0.38757 -0.52288,-0.32331 -0.0455,0.0643 -1.25531,1.3985 -2.68848,2.96498 -1.70397,1.86248 -2.55248,2.98699 -2.45181,3.24934 0.29465,0.76784 0.88291,0.38699 2.97392,-1.92536 z m -2.07227,-5.29945 c 0.0791,-0.24085 -0.33255,-0.33156 -1.5047,-0.33156 -0.88749,0 -1.61361,0.11106 -1.61361,0.2468 0,0.55963 2.93609,0.63944 3.11831,0.0848 z m 6.10024,0.13263 c -0.12589,-0.38131 -3.38301,-0.62759 -3.38301,-0.2558 0,0.46962 0.38549,0.58737 1.92308,0.58737 1.13707,0 1.53925,-0.0913 1.45993,-0.33157 z m 5.90081,0.0714 c 0,-0.62982 -2.91318,-0.69649 -3.11839,-0.0714 -0.0791,0.24084 0.33266,0.33157 1.50477,0.33157 0.88749,0 1.61362,-0.11709 1.61362,-0.2602 z m 6.10079,-0.005 c 0,-0.14736 -0.70734,-0.26525 -1.59151,-0.26525 -0.88417,0 -1.59151,0.11789 -1.59151,0.26525 0,0.14737 0.70734,0.26526 1.59151,0.26526 0.88417,0 1.59151,-0.11789 1.59151,-0.26526 z m 6.1008,0 c 0,-0.14736 -0.70734,-0.26525 -1.59151,-0.26525 -0.88417,0 -1.59151,0.11789 -1.59151,0.26525 0,0.14737 0.70734,0.26526 1.59151,0.26526 0.88417,0 1.59151,-0.11789 1.59151,-0.26526 z m 6.1008,0 c 0,-0.14736 -0.70734,-0.26525 -1.59152,-0.26525 -0.88417,0 -1.59151,0.11789 -1.59151,0.26525 0,0.14737 0.70734,0.26526 1.59151,0.26526 0.88418,0 1.59152,-0.11789 1.59152,-0.26526 z m -36.33953,-0.26525 c 0,-0.14736 -0.70734,-0.26525 -1.59151,-0.26525 -0.88417,0 -1.59151,0.11789 -1.59151,0.26525 0,0.14736 0.70734,0.26525 1.59151,0.26525 0.88417,0 1.59151,-0.11789 1.59151,-0.26525 z"
       id="path1068"
       inkscape:connector-curvature="0"
       transform="scale(0.26458333)" />
    <path
       style="fill:none;stroke:#000000;stroke-width:0.1;stroke-linecap:butt;stroke-linejoin:miter;stroke-opacity:1;stroke-miterlimit:4;stroke-dasharray:0.8,0.8;stroke-dashoffset:0"
       d="m 52.307453,55.990458 49.957507,0.348136"
       id="path863-4"
       inkscape:connector-curvature="0" />
    <path
       style="fill:none;stroke:#000000;stroke-width:0.1;stroke-linecap:butt;stroke-linejoin:miter;stroke-miterlimit:4;stroke-dasharray:0.8,0.8;stroke-dashoffset:0;stroke-opacity:1"
       d="m 52.307451,49.801375 49.957509,0.348136"
       id="path863-2-28"
       inkscape:connector-curvature="0" />
    <path
       style="fill:none;stroke:#000000;stroke-width:0.1;stroke-linecap:butt;stroke-linejoin:miter;stroke-miterlimit:4;stroke-dasharray:0.8,0.8;stroke-dashoffset:0;stroke-opacity:1"
       d="M 27.676811,70.692282 77.63432,71.040418"
       id="path863-2-9"
       inkscape:connector-curvature="0" />
    <path
       style="fill:none;stroke:#000000;stroke-width:0.1;stroke-linecap:butt;stroke-linejoin:miter;stroke-miterlimit:4;stroke-dasharray:0.8,0.8;stroke-dashoffset:0;stroke-opacity:1"
       d="M 27.676811,76.881365 77.63432,77.229501"
       id="path863-2-7"
       inkscape:connector-curvature="0" />
    <path
       style="fill:none;stroke:#000000;stroke-width:0.1;stroke-linecap:butt;stroke-linejoin:miter;stroke-opacity:1;stroke-miterlimit:4;stroke-dasharray:0.8,0.8;stroke-dashoffset:0"
       d="M 77.634319,77.229501 V 71.040418"
       id="path886-9"
       inkscape:connector-curvature="0" />
    <path
       style="fill:none;stroke:#000000;stroke-width:0.1;stroke-linecap:butt;stroke-linejoin:miter;stroke-opacity:1;stroke-miterlimit:4;stroke-dasharray:0.8,0.8;stroke-dashoffset:0"
       d="M 77.634319,83.418584 V 77.229501"
       id="path886-8"
       inkscape:connector-curvature="0" />
    <path
       style="fill:#aaeeff;stroke:#000000;stroke-width:0.1;stroke-linecap:butt;stroke-linejoin:miter;stroke-opacity:1;stroke-miterlimit:4;stroke-dasharray:0.8, 0.80000000000000004;stroke-dashoffset:0"
       d="m 27.676811,83.070448 49.957508,0.348136"
       id="path863"
       inkscape:connector-curvature="0" />
    <circle
       style="fill:#808080;fill-opacity:1;stroke:#808080;stroke-width:0.115;stroke-miterlimit:4;stroke-dasharray:none;stroke-dashoffset:0;stroke-opacity:1"
       id="path1096"
       cx="60.285698"
       cy="69.402191"
       r="0.56589979" />
    <circle
       style="fill:#808080;fill-opacity:1;stroke:#808080;stroke-width:0.1153212;stroke-miterlimit:4;stroke-dasharray:none;stroke-dashoffset:0;stroke-opacity:1"
       id="path1096-4"
       cx="94.674515"
       cy="69.753098"
       r="0.56589979" />
    <circle
       style="fill:#808080;fill-opacity:1;stroke:#808080;stroke-width:0.1153212;stroke-miterlimit:4;stroke-dasharray:none;stroke-dashoffset:0;stroke-opacity:1"
       id="path1096-8"
       cx="77.760834"
       cy="43.78603"
       r="0.56589979" />
    <text
       xml:space="preserve"
       style="font-style:normal;font-weight:normal;font-size:1.76388884px;line-height:1.25;font-family:sans-serif;letter-spacing:0px;word-spacing:0px;fill:#000000;fill-opacity:1;stroke:none;stroke-width:0.26458332"
       x="69.795258"
       y="63.208691"
       id="text1121"><tspan
         sodipodi:role="line"
         id="tspan1119"
         x="69.795258"
         y="63.208691"
         style="stroke-width:0.26458332">$K_\eps\cap V$</tspan></text>
    <text
       xml:space="preserve"
       style="font-style:normal;font-weight:normal;font-size:1.76388884px;line-height:1.25;font-family:sans-serif;letter-spacing:0px;word-spacing:0px;fill:#000000;fill-opacity:1;stroke:none;stroke-width:0.26458332"
       x="74.927261"
       y="40.741917"
       id="text1125"><tspan
         sodipodi:role="line"
         id="tspan1123"
         x="74.927261"
         y="40.741917"
         style="stroke-width:0.26458332">$q_3$</tspan></text>
    <path
       style="fill:none;stroke:#000000;stroke-width:0.26499999;stroke-linecap:butt;stroke-linejoin:miter;stroke-miterlimit:4;stroke-dasharray:none;stroke-opacity:1;marker-start:url(#Arrow1Lstart)"
       d="M 22.53858,52.505401 V 114.97647"
       id="path875"
       inkscape:connector-curvature="0" />
    <path
       style="fill:none;stroke:#000000;stroke-width:0.26458332px;stroke-linecap:butt;stroke-linejoin:miter;stroke-opacity:1"
       d="M 24.382157,70.761293 H 20.224631"
       id="path1717"
       inkscape:connector-curvature="0" />
    <path
       style="fill:none;stroke:#000000;stroke-width:0.26458332px;stroke-linecap:butt;stroke-linejoin:miter;stroke-opacity:1"
       d="M 24.33885,76.69443 H 20.181324"
       id="path1717-2"
       inkscape:connector-curvature="0" />
    <path
       style="fill:none;stroke:#000000;stroke-width:0.26458332px;stroke-linecap:butt;stroke-linejoin:miter;stroke-opacity:1"
       d="M 24.425465,82.714182 H 20.267939"
       id="path1717-7"
       inkscape:connector-curvature="0" />
    <text
       xml:space="preserve"
       style="font-style:normal;font-weight:normal;font-size:1.76388884px;line-height:1.25;font-family:sans-serif;letter-spacing:0px;word-spacing:0px;fill:#000000;fill-opacity:1;stroke:none;stroke-width:0.26458332"
       x="11.377747"
       y="71.324287"
       id="text1742"><tspan
         sodipodi:role="line"
         x="11.377747"
         y="71.324287"
         style="stroke-width:0.26458332"
         id="tspan1744">$\tfrac{\sqrt{3}}{2}$</tspan></text>
    <text
       xml:space="preserve"
       style="font-style:normal;font-weight:normal;font-size:1.76388884px;line-height:1.25;font-family:sans-serif;letter-spacing:0px;word-spacing:0px;fill:#000000;fill-opacity:1;stroke:none;stroke-width:0.26458332"
       x="6.1659617"
       y="77.300735"
       id="text1750"><tspan
         sodipodi:role="line"
         id="tspan1748"
         x="6.1659617"
         y="77.300735"
         style="stroke-width:0.26458332">$\tfrac{\sqrt{3}}{2}-\tfrac{\eps}{2}$</tspan></text>
    <text
       xml:space="preserve"
       style="font-style:normal;font-weight:normal;font-size:1.76388884px;line-height:1.25;font-family:sans-serif;letter-spacing:0px;word-spacing:0px;fill:#000000;fill-opacity:1;stroke:none;stroke-width:0.26458332"
       x="6.3540716"
       y="82.974037"
       id="text1754"><tspan
         sodipodi:role="line"
         id="tspan1752"
         x="6.3540716"
         y="82.974037"
         style="stroke-width:0.26458332">$\tfrac{\sqrt{3}}{2}-\eps$</tspan></text>
    <path
       style="fill:none;stroke:#808080;stroke-width:0.26458332px;stroke-linecap:butt;stroke-linejoin:miter;stroke-opacity:1"
       d="M 77.60731,43.59303 94.463969,69.542551 H 60.285698 Z"
       id="path1094"
       inkscape:connector-curvature="0" />
  </g>
</svg>
