<?xml version="1.0" encoding="UTF-8" standalone="no"?>
<!-- Created with Inkscape (http://www.inkscape.org/) -->

<svg
   xmlns:dc="http://purl.org/dc/elements/1.1/"
   xmlns:cc="http://creativecommons.org/ns#"
   xmlns:rdf="http://www.w3.org/1999/02/22-rdf-syntax-ns#"
   xmlns:svg="http://www.w3.org/2000/svg"
   xmlns="http://www.w3.org/2000/svg"
   xmlns:sodipodi="http://sodipodi.sourceforge.net/DTD/sodipodi-0.dtd"
   xmlns:inkscape="http://www.inkscape.org/namespaces/inkscape"
   width="210mm"
   height="297mm"
   viewBox="0 0 210 297"
   version="1.1"
   id="svg8"
   inkscape:version="0.92.4 (5da689c313, 2019-01-14)"
   sodipodi:docname="DefA.svg">
  <defs
     id="defs2" />
  <sodipodi:namedview
     id="base"
     pagecolor="#ffffff"
     bordercolor="#666666"
     borderopacity="1.0"
     inkscape:pageopacity="0.0"
     inkscape:pageshadow="2"
     inkscape:zoom="1.4"
     inkscape:cx="439.4419"
     inkscape:cy="879.55298"
     inkscape:document-units="mm"
     inkscape:current-layer="layer1"
     showgrid="false"
     showguides="true"
     inkscape:guide-bbox="true"
     inkscape:window-width="1016"
     inkscape:window-height="703"
     inkscape:window-x="8"
     inkscape:window-y="0"
     inkscape:window-maximized="0" />
  <metadata
     id="metadata5">
    <rdf:RDF>
      <cc:Work
         rdf:about="">
        <dc:format>image/svg+xml</dc:format>
        <dc:type
           rdf:resource="http://purl.org/dc/dcmitype/StillImage" />
        <dc:title></dc:title>
      </cc:Work>
    </rdf:RDF>
  </metadata>
  <g
     inkscape:label="Ebene 1"
     inkscape:groupmode="layer"
     id="layer1">
    <path
       style="fill:#cccccc;fill-opacity:1;stroke:#cccccc;stroke-width:0.04732142;stroke-miterlimit:4;stroke-dasharray:none;stroke-dashoffset:0;stroke-opacity:1"
       d="m 119.22818,62.025629 c 0.0767,-0.201729 0.37783,-0.783931 0.74991,-1.44989 2.39547,-4.287433 5.96948,-7.726646 10.30972,-9.920877 2.72702,-1.37866 5.35897,-2.162075 8.52809,-2.538429 1.02252,-0.12143 4.13066,-0.121208 5.14992,2.65e-4 2.9672,0.35393 5.47974,1.069829 7.99371,2.27765 0.85018,0.408458 2.094,1.089845 2.09288,1.146503 -2.7e-4,0.01815 -7.81916,2.40167 -17.3751,5.296683 -9.55594,2.895012 -17.40141,5.273373 -17.43437,5.285247 -0.0455,0.0164 -0.0491,-0.007 -0.0148,-0.09726 z"
       id="path932"
       inkscape:connector-curvature="0" />
    <path
       style="fill:#ececec;fill-opacity:1;stroke:#e6e6e6;stroke-width:0.35770527;stroke-miterlimit:4;stroke-dasharray:none;stroke-dashoffset:0;stroke-opacity:1"
       d="m 358.8793,193.41628 c -5.55779,-3.83524 -15.51744,-8.73529 -22.36248,-11.00211 -5.74824,-1.90361 -13.74665,-3.65938 -19.60181,-4.3029 -7.14707,-0.78552 -18.84298,-0.44052 -25.82304,0.7617 -1.23839,0.2133 -2.32531,0.31412 -2.41539,0.22404 -0.0901,-0.0901 28.71711,-12.3186 64.01597,-27.17451 35.29885,-14.85591 64.2467,-26.94377 64.32855,-26.86192 0.17765,0.17764 -53.40935,71.06088 -53.77896,71.13714 -0.14063,0.029 -2.10392,-1.22262 -4.36284,-2.78144 z"
       id="path837"
       inkscape:connector-curvature="0"
       transform="scale(0.26458333)" />
    <path
       style="fill:#ececec;fill-opacity:1;stroke:#e6e6e6;stroke-width:0.35770527;stroke-miterlimit:4;stroke-dasharray:none;stroke-dashoffset:0;stroke-opacity:1"
       d="m 400.58466,265.60925 c -0.11505,-0.49107 -0.39221,-2.73195 -0.61591,-4.97974 -2.02633,-20.36154 -11.6488,-40.24934 -26.79526,-55.38071 -2.85288,-2.85004 -6.01297,-5.8025 -7.02243,-6.56104 l -1.83538,-1.37914 6.12109,-8.0858 c 3.36661,-4.44719 15.52288,-20.51318 27.01395,-35.70221 11.49108,-15.18902 20.93916,-27.39076 20.99574,-27.11499 0.0769,0.37474 -16.93041,135.52574 -17.53975,139.3822 -0.0967,0.61208 -0.14279,0.58653 -0.32205,-0.17857 z"
       id="path839"
       inkscape:connector-curvature="0"
       transform="scale(0.26458333)" />
    <path
       style="fill:#cccccc;fill-opacity:1;stroke:#cccccc;stroke-width:0.35770527;stroke-miterlimit:4;stroke-dasharray:none;stroke-dashoffset:0;stroke-opacity:1"
       d="m 367.14416,259.17126 c -17.15969,-13.09972 -31.22219,-23.90875 -31.25,-24.02007 -0.0656,-0.26256 27.38164,-36.64414 27.66278,-36.66726 0.4223,-0.0347 5.92679,4.85442 9.21768,8.18721 7.0833,7.17351 12.33656,14.61981 17.01397,24.11668 4.92776,10.00518 8.01864,20.77838 9.11946,31.78572 0.46465,4.64616 0.28106,18.99941 -0.2545,19.8963 -0.24174,0.40484 -7.17748,-4.72357 -31.50939,-23.29858 z"
       id="path843"
       inkscape:connector-curvature="0"
       transform="scale(0.26458333)" />
    <path
       style="fill:#cccccc;fill-opacity:1;stroke:#cccccc;stroke-width:0.35770527;stroke-miterlimit:4;stroke-dasharray:none;stroke-dashoffset:0;stroke-opacity:1"
       d="m 303.77607,210.80275 c -16.85141,-12.85783 -31.02605,-23.68238 -31.4992,-24.05455 l -0.86026,-0.67668 3.73355,-1.49205 c 10.61955,-4.24391 25.77904,-6.39655 38.16155,-5.41892 13.77347,1.08745 26.59729,4.84489 37.80324,11.07655 3.52354,1.95945 8.58969,5.19202 10.5204,6.71278 l 0.79176,0.62366 -13.82748,18.29248 c -7.60511,10.06087 -13.90783,18.29747 -14.00605,18.30355 -0.0982,0.006 -13.96609,-10.50898 -30.81751,-23.36682 z"
       id="path841"
       inkscape:connector-curvature="0"
       transform="scale(0.26458333)" />
    <circle
       style="fill:none;fill-opacity:1;stroke:#000000;stroke-width:0.26499999;stroke-miterlimit:4;stroke-dasharray:none;stroke-dashoffset:0;stroke-opacity:1"
       id="path815"
       cx="81.170387"
       cy="71.820679"
       r="24.662947" />
    <circle
       style="fill:#000000;fill-opacity:1;stroke:#000000;stroke-width:0.1215528;stroke-miterlimit:4;stroke-dasharray:none;stroke-dashoffset:0;stroke-opacity:1"
       id="path817"
       cx="111.01835"
       cy="32.652203"
       r="0.65015197" />
    <path
       style="fill:none;stroke:#000000;stroke-width:0.26458332px;stroke-linecap:butt;stroke-linejoin:miter;stroke-opacity:1"
       d="m 111.05049,32.536802 -5.42977,42.732914"
       id="path819"
       inkscape:connector-curvature="0" />
    <path
       style="fill:none;stroke:#000000;stroke-width:0.26458332px;stroke-linecap:butt;stroke-linejoin:miter;stroke-opacity:1"
       d="M 111.05049,32.536802 71.458036,49.20019"
       id="path821"
       inkscape:connector-curvature="0" />
    <circle
       style="fill:#000000;fill-opacity:1;stroke:#000000;stroke-width:0.19058022;stroke-miterlimit:4;stroke-dasharray:none;stroke-dashoffset:0;stroke-opacity:1"
       id="path823"
       cx="81.120766"
       cy="72.037354"
       r="0.50968015" />
    <path
       style="fill:none;stroke:#000000;stroke-width:0.26458332px;stroke-linecap:butt;stroke-linejoin:miter;stroke-opacity:1"
       d="M 111.05049,32.536802 81.116301,72.092692"
       id="path829"
       inkscape:connector-curvature="0" />
    <path
       style="fill:none;stroke:#000000;stroke-width:0.26458332px;stroke-linecap:butt;stroke-linejoin:miter;stroke-opacity:1"
       d="m 71.458036,49.200188 9.658265,22.892504"
       id="path831"
       inkscape:connector-curvature="0" />
    <path
       style="fill:none;stroke:#000000;stroke-width:0.26458332px;stroke-linecap:butt;stroke-linejoin:miter;stroke-opacity:1"
       d="m 81.116301,72.092692 24.504419,3.177024"
       id="path833"
       inkscape:connector-curvature="0" />
    <path
       style="fill:none;stroke:#000000;stroke-width:0.26458332px;stroke-linecap:butt;stroke-linejoin:miter;stroke-opacity:1"
       d="M 71.458036,49.200188 105.62072,75.269716"
       id="path835"
       inkscape:connector-curvature="0" />
    <text
       xml:space="preserve"
       style="font-style:normal;font-weight:normal;font-size:1.76388884px;line-height:1.25;font-family:sans-serif;letter-spacing:0px;word-spacing:0px;fill:#000000;fill-opacity:1;stroke:none;stroke-width:0.26458332"
       x="112.90149"
       y="33.078121"
       id="text847"><tspan
         sodipodi:role="line"
         id="tspan845"
         x="112.90149"
         y="33.078121"
         style="stroke-width:0.26458332">$p$</tspan></text>
    <text
       xml:space="preserve"
       style="font-style:normal;font-weight:normal;font-size:1.76388884px;line-height:1.25;font-family:sans-serif;letter-spacing:0px;word-spacing:0px;fill:#000000;fill-opacity:1;stroke:none;stroke-width:0.26458332"
       x="90.619789"
       y="76.356392"
       id="text851"><tspan
         sodipodi:role="line"
         id="tspan849"
         x="90.619789"
         y="76.356392"
         style="stroke-width:0.26458332">$r$</tspan></text>
    <text
       xml:space="preserve"
       style="font-style:normal;font-weight:normal;font-size:1.76388884px;line-height:1.25;font-family:sans-serif;letter-spacing:0px;word-spacing:0px;fill:#000000;fill-opacity:1;stroke:none;stroke-width:0.26458332"
       x="73.79985"
       y="62.84375"
       id="text855"><tspan
         sodipodi:role="line"
         id="tspan853"
         x="73.79985"
         y="62.84375"
         style="stroke-width:0.26458332">$r$</tspan></text>
    <text
       xml:space="preserve"
       style="font-style:normal;font-weight:normal;font-size:1.76388884px;line-height:1.25;font-family:sans-serif;letter-spacing:0px;word-spacing:0px;fill:#000000;fill-opacity:1;stroke:none;stroke-width:0.26458332"
       x="84.987946"
       y="46.250599"
       id="text859"><tspan
         sodipodi:role="line"
         id="tspan857"
         x="84.987946"
         y="46.250599"
         style="stroke-width:0.26458332">$A(n,r,R)$</tspan></text>
    <circle
       style="fill:none;fill-opacity:1;stroke:#000000;stroke-width:0.26499999;stroke-miterlimit:4;stroke-dasharray:none;stroke-dashoffset:0;stroke-opacity:1"
       id="path815-9"
       cx="141.38559"
       cy="72.493599"
       r="24.662947" />
    <circle
       style="fill:none;fill-opacity:1;stroke:#000000;stroke-width:0.26499999;stroke-miterlimit:4;stroke-dasharray:none;stroke-dashoffset:0;stroke-opacity:1"
       id="path815-9-8"
       cx="141.48819"
       cy="72.454445"
       r="16.156025" />
    <circle
       style="fill:#000000;fill-opacity:1;stroke:#000000;stroke-width:0.19058022;stroke-miterlimit:4;stroke-dasharray:none;stroke-dashoffset:0;stroke-opacity:1"
       id="path823-8"
       cx="141.41899"
       cy="72.426781"
       r="0.50968015" />
    <path
       style="fill:none;stroke:#000000;stroke-width:0.26458332px;stroke-linecap:butt;stroke-linejoin:miter;stroke-opacity:1"
       d="m 141.39878,72.493589 h 24.56845"
       id="path916"
       inkscape:connector-curvature="0" />
    <path
       style="fill:none;stroke:#000000;stroke-width:0.26458332px;stroke-linecap:butt;stroke-linejoin:miter;stroke-opacity:1"
       d="m 141.39878,72.493589 10.7444,-12.027123"
       id="path920"
       inkscape:connector-curvature="0" />
    <text
       xml:space="preserve"
       style="font-style:normal;font-weight:normal;font-size:1.76388884px;line-height:1.25;font-family:sans-serif;letter-spacing:0px;word-spacing:0px;fill:#000000;fill-opacity:1;stroke:none;stroke-width:0.26458332"
       x="148.66869"
       y="67.883202"
       id="text924"><tspan
         sodipodi:role="line"
         id="tspan922"
         x="148.66869"
         y="67.883202"
         style="stroke-width:0.26458332">$r$</tspan></text>
    <text
       xml:space="preserve"
       style="font-style:normal;font-weight:normal;font-size:1.76388884px;line-height:1.25;font-family:sans-serif;letter-spacing:0px;word-spacing:0px;fill:#000000;fill-opacity:1;stroke:none;stroke-width:0.26458332"
       x="150.94048"
       y="76.280701"
       id="text928"><tspan
         sodipodi:role="line"
         id="tspan926"
         x="150.94048"
         y="76.280701"
         style="stroke-width:0.26458332">$R$</tspan></text>
    <path
       style="fill:none;stroke:#000000;stroke-width:0.26458332px;stroke-linecap:butt;stroke-linejoin:miter;stroke-opacity:1"
       d="M 154.5486,51.579755 118.95644,62.369887"
       id="path930"
       inkscape:connector-curvature="0" />
    <text
       xml:space="preserve"
       style="font-style:normal;font-weight:normal;font-size:1.76388884px;line-height:1.25;font-family:sans-serif;letter-spacing:0px;word-spacing:0px;fill:#000000;fill-opacity:1;stroke:none;stroke-width:0.26458332"
       x="129.81381"
       y="53.430748"
       id="text936"><tspan
         sodipodi:role="line"
         id="tspan934"
         x="129.81381"
         y="53.430748"
         style="stroke-width:0.26458332">$B(n,r,R)$</tspan></text>
  </g>
</svg>
