<?xml version="1.0" encoding="UTF-8" standalone="no"?>
<!-- Created with Inkscape (http://www.inkscape.org/) -->

<svg
   xmlns:dc="http://purl.org/dc/elements/1.1/"
   xmlns:cc="http://creativecommons.org/ns#"
   xmlns:rdf="http://www.w3.org/1999/02/22-rdf-syntax-ns#"
   xmlns:svg="http://www.w3.org/2000/svg"
   xmlns="http://www.w3.org/2000/svg"
   xmlns:sodipodi="http://sodipodi.sourceforge.net/DTD/sodipodi-0.dtd"
   xmlns:inkscape="http://www.inkscape.org/namespaces/inkscape"
   width="210mm"
   height="297mm"
   viewBox="0 0 210 297"
   version="1.1"
   id="svg8"
   inkscape:version="0.92.4 (5da689c313, 2019-01-14)"
   sodipodi:docname="ExampleF.svg">
  <defs
     id="defs2">
    <marker
       inkscape:isstock="true"
       style="overflow:visible;"
       id="marker2117"
       refX="0.0"
       refY="0.0"
       orient="auto"
       inkscape:stockid="Arrow1Mend">
      <path
         transform="scale(0.4) rotate(180) translate(10,0)"
         style="fill-rule:evenodd;stroke:#000000;stroke-width:1pt;stroke-opacity:1;fill:#000000;fill-opacity:1"
         d="M 0.0,0.0 L 5.0,-5.0 L -12.5,0.0 L 5.0,5.0 L 0.0,0.0 z "
         id="path2115" />
    </marker>
    <marker
       inkscape:stockid="Arrow1Mend"
       orient="auto"
       refY="0.0"
       refX="0.0"
       id="marker2027"
       style="overflow:visible;"
       inkscape:isstock="true"
       inkscape:collect="always">
      <path
         id="path2025"
         d="M 0.0,0.0 L 5.0,-5.0 L -12.5,0.0 L 5.0,5.0 L 0.0,0.0 z "
         style="fill-rule:evenodd;stroke:#000000;stroke-width:1pt;stroke-opacity:1;fill:#000000;fill-opacity:1"
         transform="scale(0.4) rotate(180) translate(10,0)" />
    </marker>
    <marker
       inkscape:isstock="true"
       style="overflow:visible;"
       id="marker1298"
       refX="0.0"
       refY="0.0"
       orient="auto"
       inkscape:stockid="Arrow1Mend"
       inkscape:collect="always">
      <path
         transform="scale(0.4) rotate(180) translate(10,0)"
         style="fill-rule:evenodd;stroke:#000000;stroke-width:1pt;stroke-opacity:1;fill:#000000;fill-opacity:1"
         d="M 0.0,0.0 L 5.0,-5.0 L -12.5,0.0 L 5.0,5.0 L 0.0,0.0 z "
         id="path1296" />
    </marker>
    <marker
       inkscape:stockid="Arrow1Mend"
       orient="auto"
       refY="0.0"
       refX="0.0"
       id="marker1208"
       style="overflow:visible;"
       inkscape:isstock="true"
       inkscape:collect="always">
      <path
         id="path1206"
         d="M 0.0,0.0 L 5.0,-5.0 L -12.5,0.0 L 5.0,5.0 L 0.0,0.0 z "
         style="fill-rule:evenodd;stroke:#000000;stroke-width:1pt;stroke-opacity:1;fill:#000000;fill-opacity:1"
         transform="scale(0.4) rotate(180) translate(10,0)" />
    </marker>
    <marker
       inkscape:isstock="true"
       style="overflow:visible;"
       id="marker976"
       refX="0.0"
       refY="0.0"
       orient="auto"
       inkscape:stockid="Arrow1Mend"
       inkscape:collect="always">
      <path
         transform="scale(0.4) rotate(180) translate(10,0)"
         style="fill-rule:evenodd;stroke:#000000;stroke-width:1pt;stroke-opacity:1;fill:#000000;fill-opacity:1"
         d="M 0.0,0.0 L 5.0,-5.0 L -12.5,0.0 L 5.0,5.0 L 0.0,0.0 z "
         id="path974" />
    </marker>
    <marker
       inkscape:stockid="Arrow1Mend"
       orient="auto"
       refY="0.0"
       refX="0.0"
       id="Arrow1Mend"
       style="overflow:visible;"
       inkscape:isstock="true"
       inkscape:collect="always">
      <path
         id="path840"
         d="M 0.0,0.0 L 5.0,-5.0 L -12.5,0.0 L 5.0,5.0 L 0.0,0.0 z "
         style="fill-rule:evenodd;stroke:#000000;stroke-width:1pt;stroke-opacity:1;fill:#000000;fill-opacity:1"
         transform="scale(0.4) rotate(180) translate(10,0)" />
    </marker>
    <marker
       inkscape:stockid="Arrow1Lend"
       orient="auto"
       refY="0.0"
       refX="0.0"
       id="Arrow1Lend"
       style="overflow:visible;"
       inkscape:isstock="true">
      <path
         id="path834"
         d="M 0.0,0.0 L 5.0,-5.0 L -12.5,0.0 L 5.0,5.0 L 0.0,0.0 z "
         style="fill-rule:evenodd;stroke:#000000;stroke-width:1pt;stroke-opacity:1;fill:#000000;fill-opacity:1"
         transform="scale(0.8) rotate(180) translate(12.5,0)" />
    </marker>
    <marker
       inkscape:stockid="Arrow1Mend"
       orient="auto"
       refY="0"
       refX="0"
       id="Arrow1Mend-0"
       style="overflow:visible"
       inkscape:isstock="true">
      <path
         inkscape:connector-curvature="0"
         id="path840-9"
         d="M 0,0 5,-5 -12.5,0 5,5 Z"
         style="fill:#000000;fill-opacity:1;fill-rule:evenodd;stroke:#000000;stroke-width:1.00000003pt;stroke-opacity:1"
         transform="matrix(-0.4,0,0,-0.4,-4,0)" />
    </marker>
    <marker
       inkscape:stockid="Arrow1Mend"
       orient="auto"
       refY="0"
       refX="0"
       id="Arrow1Mend-1"
       style="overflow:visible"
       inkscape:isstock="true">
      <path
         inkscape:connector-curvature="0"
         id="path840-5"
         d="M 0,0 5,-5 -12.5,0 5,5 Z"
         style="fill:#000000;fill-opacity:1;fill-rule:evenodd;stroke:#000000;stroke-width:1.00000003pt;stroke-opacity:1"
         transform="matrix(-0.4,0,0,-0.4,-4,0)" />
    </marker>
    <marker
       inkscape:stockid="Arrow1Mend"
       orient="auto"
       refY="0"
       refX="0"
       id="Arrow1Mend-7"
       style="overflow:visible"
       inkscape:isstock="true">
      <path
         inkscape:connector-curvature="0"
         id="path840-0"
         d="M 0,0 5,-5 -12.5,0 5,5 Z"
         style="fill:#000000;fill-opacity:1;fill-rule:evenodd;stroke:#000000;stroke-width:1.00000003pt;stroke-opacity:1"
         transform="matrix(-0.4,0,0,-0.4,-4,0)" />
    </marker>
    <marker
       inkscape:stockid="Arrow1Mend"
       orient="auto"
       refY="0"
       refX="0"
       id="Arrow1Mend-79"
       style="overflow:visible"
       inkscape:isstock="true">
      <path
         inkscape:connector-curvature="0"
         id="path840-52"
         d="M 0,0 5,-5 -12.5,0 5,5 Z"
         style="fill:#000000;fill-opacity:1;fill-rule:evenodd;stroke:#000000;stroke-width:1.00000003pt;stroke-opacity:1"
         transform="matrix(-0.4,0,0,-0.4,-4,0)" />
    </marker>
    <marker
       inkscape:stockid="Arrow1Mend"
       orient="auto"
       refY="0"
       refX="0"
       id="Arrow1Mend-79-4"
       style="overflow:visible"
       inkscape:isstock="true">
      <path
         inkscape:connector-curvature="0"
         id="path840-52-7"
         d="M 0,0 5,-5 -12.5,0 5,5 Z"
         style="fill:#000000;fill-opacity:1;fill-rule:evenodd;stroke:#000000;stroke-width:1.00000003pt;stroke-opacity:1"
         transform="matrix(-0.4,0,0,-0.4,-4,0)" />
    </marker>
    <marker
       inkscape:stockid="Arrow1Mend"
       orient="auto"
       refY="0"
       refX="0"
       id="Arrow1Mend-79-4-6"
       style="overflow:visible"
       inkscape:isstock="true">
      <path
         inkscape:connector-curvature="0"
         id="path840-52-7-0"
         d="M 0,0 5,-5 -12.5,0 5,5 Z"
         style="fill:#000000;fill-opacity:1;fill-rule:evenodd;stroke:#000000;stroke-width:1.00000003pt;stroke-opacity:1"
         transform="matrix(-0.4,0,0,-0.4,-4,0)" />
    </marker>
    <marker
       inkscape:stockid="Arrow1Mend"
       orient="auto"
       refY="0"
       refX="0"
       id="Arrow1Mend-79-6"
       style="overflow:visible"
       inkscape:isstock="true">
      <path
         inkscape:connector-curvature="0"
         id="path840-52-2"
         d="M 0,0 5,-5 -12.5,0 5,5 Z"
         style="fill:#000000;fill-opacity:1;fill-rule:evenodd;stroke:#000000;stroke-width:1.00000003pt;stroke-opacity:1"
         transform="matrix(-0.4,0,0,-0.4,-4,0)" />
    </marker>
  </defs>
  <sodipodi:namedview
     id="base"
     pagecolor="#ffffff"
     bordercolor="#666666"
     borderopacity="1.0"
     inkscape:pageopacity="0.0"
     inkscape:pageshadow="2"
     inkscape:zoom="2.8284271"
     inkscape:cx="447.5028"
     inkscape:cy="981.3577"
     inkscape:document-units="mm"
     inkscape:current-layer="layer1"
     showgrid="false"
     showguides="true"
     inkscape:guide-bbox="true"
     inkscape:window-width="1024"
     inkscape:window-height="703"
     inkscape:window-x="0"
     inkscape:window-y="0"
     inkscape:window-maximized="1" />
  <metadata
     id="metadata5">
    <rdf:RDF>
      <cc:Work
         rdf:about="">
        <dc:format>image/svg+xml</dc:format>
        <dc:type
           rdf:resource="http://purl.org/dc/dcmitype/StillImage" />
        <dc:title></dc:title>
      </cc:Work>
    </rdf:RDF>
  </metadata>
  <g
     inkscape:label="Ebene 1"
     inkscape:groupmode="layer"
     id="layer1">
    <path
       style="fill:#e6e6e6;fill-opacity:1;stroke:#e6e6e6;stroke-width:0.0125;stroke-miterlimit:4;stroke-dasharray:none;stroke-dashoffset:0;stroke-opacity:1"
       d="m 106.2292,22.339233 c -1.45179,-2.502725 -2.63497,-4.555048 -2.6293,-4.560718 0.006,-0.0057 2.39848,-0.02125 5.31735,-0.03464 l 5.30704,-0.02434 -0.0505,0.07945 c -0.0278,0.04369 -1.22321,2.107226 -2.6565,4.585628 -1.43329,2.478402 -2.61554,4.505923 -2.62722,4.5056 -0.0117,-2.64e-4 -1.20906,-2.048264 -2.66085,-4.550989 z"
       id="path2413"
       inkscape:connector-curvature="0" />
    <path
       style="fill:#e6e6e6;fill-opacity:1;stroke:#000000;stroke-width:0.01670434;stroke-miterlimit:4;stroke-dasharray:0.01670434, 0.01670434000000000;stroke-dashoffset:0;stroke-opacity:1"
       d="m 81.102816,36.905747 c 0,-0.03467 0.411128,-0.276635 3.508676,-2.065007 1.92977,-1.114157 3.510695,-2.022951 3.513164,-2.019543 0.0024,0.0034 0.0013,0.932661 -0.0027,2.065007 l -0.0072,2.05881 h -3.506002 -3.505999 z"
       id="path2215"
       inkscape:connector-curvature="0" />
    <path
       style="fill:#f9f9f9;fill-opacity:1;stroke:none;stroke-width:0.01785714;stroke-miterlimit:4;stroke-dasharray:none;stroke-dashoffset:0;stroke-opacity:1"
       d="m 74.855707,58.005127 c 0,-0.484997 0.01442,-0.559115 0.309216,-1.588539 0.170069,-0.593895 0.297145,-1.09188 0.282395,-1.106631 -0.01476,-0.01476 -0.132639,0.0774 -0.261969,0.204788 l -0.235146,0.231611 v -0.764395 -0.764392 l 5.823193,-0.01341 5.823196,-0.01341 0.205997,0.105881 c 0.208452,0.107148 0.290097,0.104833 0.290097,-0.0082 0,-0.03418 -2.647014,-1.590178 -5.882254,-3.457787 l -5.882253,-3.395649 v -0.227801 c 0,-0.125291 -0.02305,-0.270854 -0.0512,-0.323474 -0.04405,-0.08232 0.143827,-0.437094 1.345774,-2.541225 l 1.396976,-2.445554 0.689925,-0.672262 c 0.37946,-0.369747 0.679558,-0.682633 0.666885,-0.695303 -0.01267,-0.01267 -0.1353,0.01029 -0.272511,0.05105 -0.137207,0.04075 -0.275949,0.07408 -0.308313,0.07408 -0.03237,0 0.335759,-0.690989 0.818052,-1.535528 0.841211,-1.473036 0.882597,-1.535528 1.016878,-1.535528 0.07699,0 0.198692,-0.04181 0.270449,-0.0929 l 0.130466,-0.0929 3.585718,2.072468 c 2.33647,1.350428 3.602181,2.056575 3.632965,2.026849 0.03123,-0.03015 0.01921,-0.06634 -0.03544,-0.106709 -0.07652,-0.05654 -0.08268,-0.212913 -0.08268,-2.09931 v -2.038226 h 0.482507 0.482505 l -0.231608,0.235146 c -0.127387,0.129331 -0.22079,0.24597 -0.207561,0.259196 0.01323,0.01323 0.431007,-0.09258 0.928397,-0.235146 l 0.904343,-0.259196 h 1.939012 1.939012 v 10.63058 10.63058 h -9.75651 -9.75651 z"
       id="path2233"
       inkscape:connector-curvature="0" />
    <path
       style="fill:#f9f9f9;fill-opacity:1;stroke:none;stroke-width:0.01785714;stroke-miterlimit:4;stroke-dasharray:none;stroke-dashoffset:0;stroke-opacity:1"
       d="m 88.13212,34.868384 c 0,-2.040099 5.29e-4,-2.053931 0.09957,-2.106869 0.06638,-0.03552 0.08382,-0.06903 0.05232,-0.100534 -0.05932,-0.05932 0.336674,-0.278976 -3.73538,2.072032 L 81.083255,36.733755 80.94242,36.61525 c -0.131887,-0.110976 -0.236043,-0.142179 -0.424828,-0.127267 -0.05626,0.0044 -0.435184,-0.609004 -1.331786,-2.156063 l -1.253153,-2.162278 -0.217091,-0.872069 c -0.246065,-0.98846 -0.25355,-1.013651 -0.290309,-0.976895 -0.01474,0.01474 -0.06242,0.167891 -0.105934,0.34031 l -0.07912,0.313491 -1.02134,-1.76277 -1.021339,-1.762768 0.08895,-0.125413 c 0.05015,-0.0707 0.08895,-0.20511 0.08895,-0.308117 v -0.182708 l 5.856737,-3.37715 c 4.211577,-2.428507 5.857269,-3.400374 5.858632,-3.459831 0.0026,-0.11204 -0.106487,-0.103938 -0.317963,0.02362 l -0.176239,0.106306 -5.823196,-0.012 -5.823193,-0.012 V 19.312067 18.52248 l 0.259858,0.25663 c 0.142922,0.141147 0.259857,0.235724 0.259857,0.210172 0,-0.02555 -0.138197,-0.529057 -0.307104,-1.118898 l -0.307107,-1.07244 v -0.71031 -0.710309 h 9.75651 9.75651 v 10.772322 10.772322 h -1.915387 -1.91539 L 89.631294,36.662111 C 89.132637,36.519188 88.703673,36.40225 88.67804,36.40225 c -0.02564,0 0.06888,0.116938 0.210029,0.259861 l 0.25663,0.259858 h -0.506291 -0.506293 z"
       id="path2231"
       inkscape:connector-curvature="0" />
    <path
       style="fill:none;stroke:#000000;stroke-width:0.26499999;stroke-linecap:butt;stroke-linejoin:miter;stroke-miterlimit:4;stroke-dasharray:none;stroke-opacity:1;marker-end:url(#Arrow1Mend)"
       d="M 74.787117,27.05777 V 17.168804"
       id="path829"
       inkscape:connector-curvature="0" />
    <path
       style="fill:none;stroke:#000000;stroke-width:0.26499999;stroke-linecap:butt;stroke-linejoin:miter;stroke-miterlimit:4;stroke-dasharray:none;stroke-opacity:1;marker-end:url(#Arrow1Mend-0)"
       d="m 74.787118,47.236621 v 9.888966"
       id="path829-6"
       inkscape:connector-curvature="0" />
    <path
       style="fill:none;stroke:#000000;stroke-width:0.26499999;stroke-linecap:butt;stroke-linejoin:miter;stroke-miterlimit:4;stroke-dasharray:none;stroke-opacity:1;marker-end:url(#Arrow1Mend-1)"
       d="m 80.593975,37.080379 h 9.888967"
       id="path829-4"
       inkscape:connector-curvature="0" />
    <path
       style="fill:none;stroke:#000000;stroke-width:0.1;stroke-linecap:butt;stroke-linejoin:miter;stroke-miterlimit:4;stroke-dasharray:none;stroke-opacity:1"
       d="M 74.787117,15.236088 V 59.111294"
       id="path1472"
       inkscape:connector-curvature="0" />
    <path
       style="fill:none;stroke:#000000;stroke-width:0.15000001;stroke-linecap:butt;stroke-linejoin:miter;stroke-miterlimit:4;stroke-dasharray:none;stroke-opacity:1"
       d="M 74.787117,27.05777 87.062254,19.970718"
       id="path1476"
       inkscape:connector-curvature="0" />
    <path
       style="fill:none;stroke:#000000;stroke-width:0.15000001;stroke-linecap:butt;stroke-linejoin:miter;stroke-miterlimit:4;stroke-dasharray:none;stroke-opacity:1"
       d="m 74.787118,47.236621 12.275137,7.087053"
       id="path1478"
       inkscape:connector-curvature="0" />
    <path
       style="fill:none;stroke:#000000;stroke-width:0.09273395;stroke-linecap:butt;stroke-linejoin:miter;stroke-miterlimit:4;stroke-dasharray:none;stroke-opacity:1"
       d="m 80.579658,37.105176 7.69,-4.439825"
       id="path1480"
       inkscape:connector-curvature="0" />
    <path
       style="fill:none;stroke:#000000;stroke-width:0.09359807;stroke-linecap:butt;stroke-linejoin:miter;stroke-miterlimit:4;stroke-dasharray:none;stroke-opacity:1"
       d="m 80.579875,37.055956 7.659521,4.422228"
       id="path1482"
       inkscape:connector-curvature="0" />
    <path
       style="fill:none;stroke:#000000;stroke-width:0.26458332px;stroke-linecap:butt;stroke-linejoin:miter;stroke-opacity:1"
       d="M 74.787117,27.05777 V 36.913341 47.23662"
       id="path1484"
       inkscape:connector-curvature="0"
       sodipodi:nodetypes="ccc" />
    <circle
       style="fill:#000000;fill-opacity:1;stroke:#000000;stroke-width:0.14999999;stroke-miterlimit:4;stroke-dasharray:none;stroke-dashoffset:0;stroke-opacity:1"
       id="path1486"
       cx="74.829842"
       cy="26.983257"
       r="0.47247022" />
    <circle
       style="fill:#000000;fill-opacity:1;stroke:#000000;stroke-width:0.14999999;stroke-miterlimit:4;stroke-dasharray:none;stroke-dashoffset:0;stroke-opacity:1"
       id="path1486-2"
       cx="74.782593"
       cy="47.157734"
       r="0.47247022" />
    <circle
       style="fill:#000000;fill-opacity:1;stroke:#000000;stroke-width:0.14999999;stroke-miterlimit:4;stroke-dasharray:none;stroke-dashoffset:0;stroke-opacity:1"
       id="path1486-2-4"
       cx="108.88089"
       cy="47.222507"
       r="0.47247022" />
    <circle
       style="fill:#000000;fill-opacity:1;stroke:#000000;stroke-width:0.14999999;stroke-miterlimit:4;stroke-dasharray:none;stroke-dashoffset:0;stroke-opacity:1"
       id="path1486-2-0"
       cx="108.91742"
       cy="27.119268"
       r="0.47247022" />
    <path
       style="fill:none;stroke:#000000;stroke-width:0.26458332;stroke-linecap:butt;stroke-linejoin:miter;stroke-miterlimit:4;stroke-dasharray:0.26458332, 0.26458332;stroke-dashoffset:0;stroke-opacity:1"
       d="m 108.89145,27.057771 -10.022601,10.02261 10.022601,10.15624 10.0226,-10.15624 z"
       id="path1532"
       inkscape:connector-curvature="0" />
    <path
       style="fill:none;stroke:#000000;stroke-width:0.26499999;stroke-linecap:butt;stroke-linejoin:miter;stroke-miterlimit:4;stroke-dasharray:none;stroke-opacity:1;marker-end:url(#Arrow1Mend-7)"
       d="M 108.89145,27.057771 V 17.168804"
       id="path829-61"
       inkscape:connector-curvature="0" />
    <path
       style="fill:none;stroke:#000000;stroke-width:0.26499999;stroke-linecap:butt;stroke-linejoin:miter;stroke-miterlimit:4;stroke-dasharray:none;stroke-opacity:1;marker-end:url(#Arrow1Mend-79)"
       d="m 108.89145,47.236621 -4.94449,8.564098"
       id="path829-69"
       inkscape:connector-curvature="0" />
    <path
       style="fill:none;stroke:#000000;stroke-width:0.26458332px;stroke-linecap:butt;stroke-linejoin:miter;stroke-opacity:1;marker-mid:url(#marker1208)"
       d="m 108.89145,27.05777 v 5.31165 14.8672"
       id="path1995"
       inkscape:connector-curvature="0"
       sodipodi:nodetypes="ccc" />
    <path
       style="fill:none;stroke:#000000;stroke-width:0.26499999;stroke-linecap:butt;stroke-linejoin:miter;stroke-miterlimit:4;stroke-dasharray:none;stroke-opacity:1;marker-end:url(#Arrow1Mend-79-4)"
       d="m 108.89145,47.23662 4.94448,8.564094"
       id="path829-69-3"
       inkscape:connector-curvature="0" />
    <text
       xml:space="preserve"
       style="font-style:normal;font-weight:normal;font-size:1.76388884px;line-height:1.25;font-family:sans-serif;letter-spacing:0px;word-spacing:0px;fill:#000000;fill-opacity:1;stroke:none;stroke-width:0.26458332"
       x="78.974403"
       y="19.246496"
       id="text2384"><tspan
         sodipodi:role="line"
         id="tspan2382"
         x="78.974403"
         y="19.246496"
         style="stroke-width:0.26458332">$N_K(q_2)$</tspan></text>
    <text
       xml:space="preserve"
       style="font-style:normal;font-weight:normal;font-size:1.76388884px;line-height:1.25;font-family:sans-serif;letter-spacing:0px;word-spacing:0px;fill:#000000;fill-opacity:1;stroke:none;stroke-width:0.26458332"
       x="79.030106"
       y="56.385555"
       id="text2392"><tspan
         sodipodi:role="line"
         id="tspan2390"
         x="79.030106"
         y="56.385555"
         style="stroke-width:0.26458332">$N_K(q_1)$</tspan></text>
    <text
       xml:space="preserve"
       style="font-style:normal;font-weight:normal;font-size:1.76388884px;line-height:1.25;font-family:sans-serif;letter-spacing:0px;word-spacing:0px;fill:#000000;fill-opacity:1;stroke:none;stroke-width:0.26458332"
       x="58.276741"
       y="31.093126"
       id="text2396"><tspan
         sodipodi:role="line"
         id="tspan2394"
         x="58.276741"
         y="31.093126"
         style="stroke-width:0.26458332">$K$</tspan></text>
    <text
       xml:space="preserve"
       style="font-style:normal;font-weight:normal;font-size:1.76388884px;line-height:1.25;font-family:sans-serif;letter-spacing:0px;word-spacing:0px;fill:#000000;fill-opacity:1;stroke:none;stroke-width:0.26458332"
       x="110.72813"
       y="26.528603"
       id="text2404"><tspan
         sodipodi:role="line"
         id="tspan2402"
         x="110.72813"
         y="26.528603"
         style="stroke-width:0.26458332">$p_1$</tspan></text>
    <text
       xml:space="preserve"
       style="font-style:normal;font-weight:normal;font-size:1.76388884px;line-height:1.25;font-family:sans-serif;letter-spacing:0px;word-spacing:0px;fill:#000000;fill-opacity:1;stroke:none;stroke-width:0.26458332"
       x="111.1729"
       y="48.500778"
       id="text2408"><tspan
         sodipodi:role="line"
         id="tspan2406"
         x="111.1729"
         y="48.500778"
         style="font-size:1.05833328px;stroke-width:0.26458332">$p_2=p_3$</tspan></text>
    <text
       xml:space="preserve"
       style="font-style:normal;font-weight:normal;font-size:1.76388884px;line-height:1.25;font-family:sans-serif;letter-spacing:0px;word-spacing:0px;fill:#000000;fill-opacity:1;stroke:none;stroke-width:0.26458332"
       x="89.94416"
       y="17.787392"
       id="text2412"><tspan
         sodipodi:role="line"
         id="tspan2410"
         x="89.94416"
         y="17.787392"
         style="stroke-width:0.26458332">$U$</tspan></text>
    <circle
       style="fill:#000000;fill-opacity:1;stroke:#000000;stroke-width:0.14999999;stroke-miterlimit:4;stroke-dasharray:none;stroke-dashoffset:0;stroke-opacity:1"
       id="path1486-2-5"
       cx="80.561554"
       cy="37.036839"
       r="0.47247022" />
    <text
       xml:space="preserve"
       style="font-style:normal;font-weight:normal;font-size:1.76388884px;line-height:1.25;font-family:sans-serif;letter-spacing:0px;word-spacing:0px;fill:#000000;fill-opacity:1;stroke:none;stroke-width:0.26458332"
       x="67.89003"
       y="20.086098"
       id="text2431"><tspan
         sodipodi:role="line"
         id="tspan2429"
         x="67.89003"
         y="20.086098"
         style="stroke-width:0.26458332">$n_K(q_2)$</tspan></text>
    <text
       xml:space="preserve"
       style="font-style:normal;font-weight:normal;font-size:1.76388884px;line-height:1.25;font-family:sans-serif;letter-spacing:0px;word-spacing:0px;fill:#000000;fill-opacity:1;stroke:none;stroke-width:0.26458332"
       x="84.761162"
       y="51.693451"
       id="text2439"><tspan
         sodipodi:role="line"
         id="tspan2437"
         x="84.761162"
         y="53.3027"
         style="stroke-width:0.26458332" /></text>
    <path
       style="fill:none;stroke:#000000;stroke-width:0.26499999;stroke-linecap:butt;stroke-linejoin:miter;stroke-miterlimit:4;stroke-dasharray:none;stroke-opacity:1;marker-mid:url(#marker976)"
       d="M 74.787117,47.23662 V 37.147202 27.05777"
       id="path966"
       inkscape:connector-curvature="0"
       sodipodi:nodetypes="ccc" />
    <path
       style="fill:none;stroke:#000000;stroke-width:0.26458332px;stroke-linecap:butt;stroke-linejoin:miter;stroke-opacity:1;marker-mid:url(#marker1298)"
       d="M 108.89145,47.23662 V 40.968378 27.05777"
       id="path1288"
       inkscape:connector-curvature="0"
       sodipodi:nodetypes="ccc" />
    <text
       xml:space="preserve"
       style="font-style:normal;font-weight:normal;font-size:1.76388884px;line-height:1.25;font-family:sans-serif;letter-spacing:0px;word-spacing:0px;fill:#000000;fill-opacity:1;stroke:none;stroke-width:0.26458332"
       x="104.16119"
       y="37.807076"
       id="text2400-6"><tspan
         sodipodi:role="line"
         id="tspan2398-7"
         x="104.16119"
         y="37.807076"
         style="stroke-width:0.26458332">$T$</tspan></text>
    <text
       xml:space="preserve"
       style="font-style:normal;font-weight:normal;font-size:1.76388884px;line-height:1.25;font-family:sans-serif;letter-spacing:0px;word-spacing:0px;fill:#000000;fill-opacity:1;stroke:none;stroke-width:0.26458332"
       x="109.43173"
       y="16.722162"
       id="text2443-5"><tspan
         sodipodi:role="line"
         id="tspan2441-3"
         x="109.43173"
         y="16.722162"
         style="stroke-width:0.26458332">$n_T(p_1)$</tspan></text>
    <text
       xml:space="preserve"
       style="font-style:normal;font-weight:normal;font-size:1.76388884px;line-height:1.25;font-family:sans-serif;letter-spacing:0px;word-spacing:0px;fill:#000000;fill-opacity:1;stroke:none;stroke-width:0.26458332"
       x="112.95969"
       y="53.224499"
       id="text2443-56"><tspan
         sodipodi:role="line"
         id="tspan2441-2"
         x="112.95969"
         y="53.224499"
         style="font-size:1.05833328px;stroke-width:0.26458332">$n_T(p_2)$</tspan></text>
    <path
       style="fill:none;stroke:#000000;stroke-width:0.26458332px;stroke-linecap:butt;stroke-linejoin:miter;stroke-opacity:1"
       d="m 108.89145,47.23662 c 6.96019,-2.681502 8.58092,-7.37057 10.0226,-10.15624"
       id="path1370"
       inkscape:connector-curvature="0"
       sodipodi:nodetypes="cc" />
    <path
       style="fill:none;stroke:#000000;stroke-width:0.26458332px;stroke-linecap:butt;stroke-linejoin:miter;stroke-opacity:1"
       d="m 118.91405,37.08038 c -2.6815,-6.96019 -7.37057,-8.58092 -10.15625,-10.022602"
       id="path1370-2"
       inkscape:connector-curvature="0"
       sodipodi:nodetypes="cc" />
    <path
       style="fill:none;stroke:#000000;stroke-width:0.26458332px;stroke-linecap:butt;stroke-linejoin:miter;stroke-opacity:1"
       d="m 108.7578,27.057778 c -6.96019,2.681502 -8.58092,7.37057 -10.022591,10.15624"
       id="path1370-7"
       inkscape:connector-curvature="0"
       sodipodi:nodetypes="cc" />
    <path
       style="fill:none;stroke:#000000;stroke-width:0.26458332px;stroke-linecap:butt;stroke-linejoin:miter;stroke-opacity:1"
       d="m 98.743559,37.101264 c 2.681491,6.96019 7.370561,8.58092 10.156231,10.0226"
       id="path1370-7-0"
       inkscape:connector-curvature="0"
       sodipodi:nodetypes="cc" />
    <path
       style="fill:none;stroke:#000000;stroke-width:0.26582974px;stroke-linecap:butt;stroke-linejoin:miter;stroke-opacity:1"
       d="m 54.832533,26.985321 0.04725,20.369417"
       id="path1423"
       inkscape:connector-curvature="0" />
    <path
       style="fill:none;stroke:#000000;stroke-width:0.26458332px;stroke-linecap:butt;stroke-linejoin:miter;stroke-opacity:1"
       d="m 54.832533,26.985319 19.954584,0.07245 5.806858,10.02261 -5.806858,10.15624 -20.08451,0.133631"
       id="path1715"
       inkscape:connector-curvature="0" />
    <path
       style="fill:none;stroke:#000000;stroke-width:0.26458332px;stroke-linecap:butt;stroke-linejoin:miter;stroke-opacity:1;marker-mid:url(#marker2027)"
       d="m 80.593975,37.080377 -2.684885,4.695885 -3.121973,5.460356"
       id="path2017"
       inkscape:connector-curvature="0"
       sodipodi:nodetypes="ccc" />
    <path
       style="fill:none;stroke:#000000;stroke-width:0.26458332px;stroke-linecap:butt;stroke-linejoin:miter;stroke-opacity:1;marker-mid:url(#marker2117)"
       d="m 74.787117,27.05777 2.989469,5.159809 2.817389,4.862798"
       id="path2107"
       inkscape:connector-curvature="0"
       sodipodi:nodetypes="ccc" />
    <path
       style="fill:#e6e6e6;fill-opacity:1;stroke:#000000;stroke-width:0.02362351;stroke-miterlimit:4;stroke-dasharray:0.02362351, 0.02362351000000000;stroke-dashoffset:0;stroke-opacity:1"
       d="m 75.213561,26.584907 c -0.04353,-0.04355 -0.125915,-0.09704 -0.183084,-0.118872 l -0.103944,-0.0397 v -3.15053 -3.150529 l 5.840913,3.97e-4 c 5.743791,3.97e-4 5.839735,0.0011 5.770043,0.0452 -0.05413,0.03422 -10.704626,6.184845 -11.150298,6.439262 l -0.09449,0.05394 z"
       id="path2205"
       inkscape:connector-curvature="0" />
    <path
       style="fill:#e6e6e6;fill-opacity:1;stroke:#000000;stroke-width:0.02362351;stroke-miterlimit:4;stroke-dasharray:0.02362351, 0.02362351000000000;stroke-dashoffset:0;stroke-opacity:1"
       d="m 74.92307,50.934469 c 0,-3.17172 7.93e-4,-3.235111 0.04546,-3.249258 0.025,-0.0079 0.08183,-0.03911 0.126283,-0.06928 l 0.08082,-0.05485 5.69868,3.290125 c 3.134275,1.80957 5.704975,3.296417 5.712664,3.304106 0.0077,0.0077 -2.613546,0.01397 -5.824966,0.01397 h -5.838944 z"
       id="path2209"
       inkscape:connector-curvature="0" />
    <path
       style="fill:#e6e6e6;fill-opacity:1;stroke:#000000;stroke-width:0.01670434;stroke-miterlimit:4;stroke-dasharray:0.01670434, 0.01670434000000000;stroke-dashoffset:0;stroke-opacity:1"
       d="m 84.585671,39.305851 c -1.929352,-1.114496 -3.507914,-2.035841 -3.507914,-2.047433 0,-0.01688 0.699643,-0.02191 3.519186,-0.02529 l 3.519186,-0.0042 -0.0093,2.050497 c -0.0051,1.127773 -0.01021,2.051016 -0.01127,2.051651 -0.0011,5.29e-4 -1.580493,-0.910709 -3.509843,-2.025206 z"
       id="path2217"
       inkscape:connector-curvature="0" />
    <text
       xml:space="preserve"
       style="font-style:normal;font-weight:normal;font-size:1.76388884px;line-height:1.25;font-family:sans-serif;letter-spacing:0px;word-spacing:0px;fill:#000000;fill-opacity:1;stroke:none;stroke-width:0.26458332"
       x="85.824478"
       y="43.429062"
       id="text2388"><tspan
         sodipodi:role="line"
         id="tspan2386"
         x="85.824478"
         y="43.429062"
         style="stroke-width:0.26458332">$N_K(q_3)$</tspan></text>
    <path
       style="fill:#e6e6e6;fill-opacity:1;stroke:none;stroke-width:0.00892857;stroke-miterlimit:4;stroke-dasharray:none;stroke-dashoffset:0;stroke-opacity:1"
       d="m 74.934362,42.549635 v -4.08056 l 0.254339,0.25355 c 0.139885,0.139451 0.260681,0.25355 0.26843,0.25355 0.0078,0 -0.106727,-0.422545 -0.254397,-0.93899 l -0.268486,-0.938991 0.006,-4.737989 0.006,-4.737988 1.011684,1.745824 c 0.556427,0.960202 1.006547,1.750959 1.000271,1.757235 -0.0063,0.0063 -0.157036,-0.02723 -0.335024,-0.07445 -0.177985,-0.04723 -0.328115,-0.08136 -0.333621,-0.07585 -0.0055,0.0055 0.301258,0.310877 0.681694,0.678605 l 0.6917,0.668597 1.224182,2.104483 c 0.673301,1.157467 1.235136,2.127012 1.248524,2.154544 0.01963,0.04038 0.01167,0.06919 -0.04118,0.149069 -0.118962,0.179763 -0.109699,0.438865 0.02273,0.635643 l 0.07835,0.116427 -0.878898,1.538156 -0.878901,1.538157 -0.08997,-0.336486 c -0.04948,-0.185068 -0.0976,-0.345289 -0.106939,-0.356045 -0.0093,-0.01077 -0.120118,0.403837 -0.246187,0.921317 l -0.229219,0.940874 -1.39778,2.4506 c -0.768782,1.347829 -1.405755,2.45075 -1.415503,2.450938 -0.0097,1.88e-4 -0.01773,-1.835909 -0.01773,-4.080216 z"
       id="path2225"
       inkscape:connector-curvature="0" />
    <path
       style="fill:#f9f9f9;fill-opacity:1;stroke:none;stroke-width:0.00315673;stroke-miterlimit:4;stroke-dasharray:none;stroke-dashoffset:0;stroke-opacity:1"
       d="m 88.135586,35.977983 c -2.65e-4,-0.51794 -0.0013,-1.326012 -0.0021,-1.795716 -7.93e-4,-0.469707 0.0013,-0.854012 0.0049,-0.854012 0.0034,0 0.0063,-0.05356 0.0064,-0.119017 2.24e-4,-0.202473 0.01905,-0.369904 0.04607,-0.409636 0.0056,-0.0083 0.02733,-0.02588 0.04828,-0.03915 0.02096,-0.01328 0.04448,-0.03392 0.0523,-0.04585 0.01347,-0.02056 0.01339,-0.02326 -0.0016,-0.05155 -0.0087,-0.01643 -0.02032,-0.03166 -0.02588,-0.03387 -0.01201,-0.0048 -0.06925,0.01294 -0.06925,0.02143 0,0.0033 -0.0071,0.0065 -0.01574,0.0071 -0.04024,0.003 -0.38935,0.201139 -2.443974,1.386877 -0.624745,0.360542 -1.138717,0.657159 -1.142162,0.659146 -0.0034,0.0021 -0.0063,-0.633669 -0.0063,-1.412574 v -1.416185 h 4.890195 4.890199 v 2.522355 2.522358 h -1.912813 -1.912816 l -0.611629,-0.174824 c -0.869903,-0.248647 -1.212205,-0.343011 -1.244264,-0.343011 -0.0081,0 -0.01466,0.0034 -0.01466,0.0075 0,0.0213 0.09919,0.13391 0.27474,0.311946 l 0.195594,0.198363 H 88.63864 88.136201 Z"
       id="path2235"
       inkscape:connector-curvature="0" />
    <path
       style="fill:#b3b3b3;fill-opacity:1;stroke:none;stroke-width:0.00078918;stroke-miterlimit:4;stroke-dasharray:none;stroke-dashoffset:0;stroke-opacity:1"
       d="m 88.173114,41.384862 c -0.06717,-0.03895 -0.07604,-0.04468 -0.07256,-0.04685 0.0051,-0.0032 0.005,-0.0077 -2.19e-4,-0.01336 -0.0024,-0.0024 -0.0042,-0.0062 -0.0042,-0.0083 0,-0.0024 0.0016,-0.0038 0.0042,-0.0038 0.0035,0 0.0042,-0.0013 0.0042,-0.0094 0,-0.008 -5.29e-4,-0.0094 -0.0042,-0.0094 -0.0034,0 -0.0042,-0.0013 -0.0042,-0.0073 0,-0.0057 7.94e-4,-0.0073 0.0039,-0.0073 0.0029,0 0.0042,-0.0021 0.0051,-0.0076 0.0016,-0.009 5.3e-4,-0.01117 -0.005,-0.01117 -0.0032,0 -0.004,-0.0016 -0.004,-0.0073 0,-0.0064 5.29e-4,-0.0073 0.0052,-0.0073 0.0048,0 0.0052,-7.93e-4 0.0052,-0.0094 0,-0.008 -5.29e-4,-0.0094 -0.0042,-0.0094 -0.0034,0 -0.0042,-0.0013 -0.0042,-0.0073 0,-0.0059 7.94e-4,-0.0073 0.0042,-0.0073 0.0035,0 0.0042,-0.0013 0.0042,-0.0094 0,-0.008 -5.29e-4,-0.0094 -0.0042,-0.0094 -0.0034,0 -0.0042,-0.0013 -0.0042,-0.0073 0,-0.0059 7.94e-4,-0.0073 0.0042,-0.0073 0.0035,0 0.0042,-0.0013 0.0042,-0.0094 0,-0.008 -5.29e-4,-0.0094 -0.0042,-0.0094 -0.0034,0 -0.0042,-0.0013 -0.0042,-0.0073 0,-0.0059 7.94e-4,-0.0073 0.0042,-0.0073 0.0035,0 0.0042,-0.0013 0.0042,-0.0094 0,-0.008 -5.29e-4,-0.0094 -0.0042,-0.0094 -0.0034,0 -0.0042,-0.0013 -0.0042,-0.0073 0,-0.0059 7.94e-4,-0.0073 0.0042,-0.0073 0.0035,0 0.0042,-0.0013 0.0042,-0.0094 0,-0.008 -5.29e-4,-0.0094 -0.0042,-0.0094 -0.0034,0 -0.0042,-0.0013 -0.0042,-0.0073 0,-0.0059 7.94e-4,-0.0073 0.0042,-0.0073 0.0035,0 0.0042,-0.0013 0.0042,-0.0094 0,-0.008 -5.29e-4,-0.0094 -0.0042,-0.0094 -0.0034,0 -0.0042,-0.0013 -0.0042,-0.0073 0,-0.0059 7.94e-4,-0.0073 0.0042,-0.0073 0.0035,0 0.0042,-0.0013 0.0042,-0.0094 0,-0.008 -5.29e-4,-0.0094 -0.0042,-0.0094 -0.0034,0 -0.0042,-0.0013 -0.0042,-0.0073 0,-0.0059 7.94e-4,-0.0073 0.0042,-0.0073 0.0035,0 0.0042,-0.0013 0.0042,-0.0094 0,-0.008 -5.29e-4,-0.0094 -0.0042,-0.0094 -0.0034,0 -0.0042,-0.0013 -0.0042,-0.0073 0,-0.0059 7.94e-4,-0.0073 0.0042,-0.0073 0.0035,0 0.0042,-0.0013 0.0042,-0.0094 0,-0.008 -5.29e-4,-0.0094 -0.0042,-0.0094 -0.0034,0 -0.0042,-0.0013 -0.0042,-0.0072 0,-0.0058 7.94e-4,-0.0073 0.0047,-0.0078 0.004,-5.29e-4 0.0047,-0.0019 0.0047,-0.009 0,-0.0071 -7.94e-4,-0.0085 -0.0047,-0.009 -0.0038,-5.29e-4 -0.0047,-0.0021 -0.0047,-0.0078 0,-0.0062 7.94e-4,-0.0072 0.0052,-0.0072 0.0048,0 0.0052,-7.93e-4 0.0052,-0.0094 0,-0.008 -5.29e-4,-0.0094 -0.0042,-0.0094 -0.0034,0 -0.0042,-0.0013 -0.0042,-0.0073 0,-0.0059 7.94e-4,-0.0073 0.0042,-0.0073 0.0035,0 0.0042,-0.0013 0.0042,-0.0094 0,-0.008 -5.29e-4,-0.0094 -0.0042,-0.0094 -0.0034,0 -0.0042,-0.0013 -0.0042,-0.0073 0,-0.0059 7.94e-4,-0.0073 0.0042,-0.0073 0.0035,0 0.0042,-0.0013 0.0042,-0.0094 0,-0.008 -5.29e-4,-0.0094 -0.0042,-0.0094 -0.0034,0 -0.0042,-0.0013 -0.0042,-0.0073 0,-0.0059 7.94e-4,-0.0073 0.0042,-0.0073 0.0035,0 0.0042,-0.0013 0.0042,-0.0094 0,-0.008 -5.29e-4,-0.0094 -0.0042,-0.0094 -0.0034,0 -0.0042,-0.0013 -0.0042,-0.0073 0,-0.0059 7.94e-4,-0.0073 0.0042,-0.0073 0.0035,0 0.0042,-0.0013 0.0042,-0.0094 0,-0.008 -5.29e-4,-0.0094 -0.0042,-0.0094 -0.0034,0 -0.0042,-0.0013 -0.0042,-0.0073 0,-0.0059 7.94e-4,-0.0073 0.0042,-0.0073 0.0035,0 0.0042,-0.0013 0.0042,-0.0094 0,-0.008 -5.29e-4,-0.0094 -0.0042,-0.0094 -0.0034,0 -0.0042,-0.0013 -0.0042,-0.0073 0,-0.0059 7.94e-4,-0.0073 0.0042,-0.0073 0.0035,0 0.0042,-0.0013 0.0042,-0.0094 0,-0.008 -5.29e-4,-0.0094 -0.0042,-0.0094 -0.0034,0 -0.0042,-0.0013 -0.0042,-0.0073 0,-0.0059 7.94e-4,-0.0073 0.0042,-0.0073 0.0035,0 0.0042,-0.0013 0.0042,-0.0094 0,-0.008 -5.29e-4,-0.0094 -0.0042,-0.0094 -0.0034,0 -0.0042,-0.0013 -0.0042,-0.0073 0,-0.0059 7.94e-4,-0.0073 0.0042,-0.0073 0.0035,0 0.0042,-0.0013 0.0042,-0.0094 0,-0.008 -5.29e-4,-0.0094 -0.0042,-0.0094 -0.0034,0 -0.0042,-0.0013 -0.0042,-0.0073 0,-0.0059 7.94e-4,-0.0073 0.0042,-0.0073 0.0035,0 0.0042,-0.0013 0.0042,-0.0094 0,-0.008 -5.29e-4,-0.0094 -0.0042,-0.0094 -0.0034,0 -0.0042,-0.0013 -0.0042,-0.0073 0,-0.0059 7.94e-4,-0.0073 0.0041,-0.0073 0.0081,0 0.0086,-0.01728 5.29e-4,-0.01842 -0.0038,-5.29e-4 -0.0047,-0.0021 -0.0047,-0.0078 0,-0.0062 7.93e-4,-0.0072 0.0052,-0.0072 0.0048,0 0.0052,-7.94e-4 0.0052,-0.0094 0,-0.0087 -5.29e-4,-0.0094 -0.0053,-0.0094 -0.0048,0 -0.0053,-7.94e-4 -0.0047,-0.0068 5.29e-4,-0.0052 0.0019,-0.0069 0.0053,-0.0075 0.0041,-5.29e-4 0.0047,-0.0019 0.0047,-0.0099 0,-0.0079 -5.29e-4,-0.0093 -0.0042,-0.0093 -0.0034,0 -0.0042,-0.0013 -0.0042,-0.0073 0,-0.0059 7.94e-4,-0.0073 0.0042,-0.0073 0.0035,0 0.0042,-0.0013 0.0042,-0.0094 0,-0.008 -5.29e-4,-0.0094 -0.0042,-0.0094 -0.0034,0 -0.0042,-0.0013 -0.0042,-0.0073 0,-0.0059 7.94e-4,-0.0073 0.0042,-0.0073 0.0035,0 0.0042,-0.0013 0.0042,-0.0094 0,-0.008 -5.29e-4,-0.0094 -0.0042,-0.0094 -0.0034,0 -0.0042,-0.0013 -0.0042,-0.0073 0,-0.0059 7.94e-4,-0.0073 0.0042,-0.0073 0.0035,0 0.0042,-0.0013 0.0042,-0.0094 0,-0.008 -5.29e-4,-0.0094 -0.0042,-0.0094 -0.0034,0 -0.0042,-0.0013 -0.0042,-0.0073 0,-0.0059 7.94e-4,-0.0073 0.0042,-0.0073 0.0035,0 0.0042,-0.0013 0.0042,-0.0094 0,-0.008 -5.29e-4,-0.0094 -0.0042,-0.0094 -0.0034,0 -0.0042,-0.0013 -0.0042,-0.0073 0,-0.0059 7.94e-4,-0.0073 0.0042,-0.0073 0.0035,0 0.0042,-0.0013 0.0042,-0.0094 0,-0.008 -5.29e-4,-0.0094 -0.0042,-0.0094 -0.0034,0 -0.0042,-0.0013 -0.0042,-0.0073 0,-0.0059 7.94e-4,-0.0073 0.0042,-0.0073 0.0035,0 0.0042,-0.0013 0.0042,-0.0094 0,-0.008 -5.29e-4,-0.0094 -0.0042,-0.0094 -0.0034,0 -0.0042,-0.0013 -0.0042,-0.0073 0,-0.0059 7.94e-4,-0.0073 0.0042,-0.0073 0.0035,0 0.0042,-0.0013 0.0042,-0.0094 0,-0.008 -5.29e-4,-0.0094 -0.0042,-0.0094 -0.0034,0 -0.0042,-0.0013 -0.0042,-0.0073 0,-0.0059 7.94e-4,-0.0073 0.0042,-0.0073 0.0035,0 0.0042,-0.0013 0.0042,-0.0094 0,-0.008 -5.29e-4,-0.0094 -0.0042,-0.0094 -0.0034,0 -0.0042,-0.0013 -0.0042,-0.0073 0,-0.0059 7.94e-4,-0.0073 0.0042,-0.0073 0.0035,0 0.0042,-0.0013 0.0042,-0.0094 0,-0.008 -5.29e-4,-0.0094 -0.0042,-0.0094 -0.0034,0 -0.0042,-0.0013 -0.0042,-0.0073 0,-0.0059 7.94e-4,-0.0073 0.0041,-0.0073 0.003,0 0.0044,-0.0019 0.0054,-0.0072 0.0016,-0.0084 1.01e-4,-0.01162 -0.0055,-0.01162 -0.0032,0 -0.004,-0.0016 -0.004,-0.0073 0,-0.0064 5.29e-4,-0.0073 0.0052,-0.0073 0.0048,0 0.0052,-7.94e-4 0.0052,-0.0094 0,-0.0087 -5.29e-4,-0.0094 -0.0053,-0.0094 -0.0048,0 -0.0053,-7.93e-4 -0.0047,-0.0068 5.29e-4,-0.0052 0.0019,-0.0069 0.0053,-0.0075 0.0041,-5.29e-4 0.0047,-0.0019 0.0047,-0.0099 0,-0.0079 -5.29e-4,-0.0093 -0.0042,-0.0093 -0.0034,0 -0.0042,-0.0013 -0.0042,-0.0073 0,-0.0059 7.93e-4,-0.0073 0.0042,-0.0073 0.0035,0 0.0042,-0.0013 0.0042,-0.0094 0,-0.008 -5.29e-4,-0.0094 -0.0042,-0.0094 -0.0034,0 -0.0042,-0.0013 -0.0042,-0.0073 0,-0.0059 7.93e-4,-0.0073 0.0042,-0.0073 0.0035,0 0.0042,-0.0013 0.0042,-0.0094 0,-0.008 -5.29e-4,-0.0094 -0.0042,-0.0094 -0.0034,0 -0.0042,-0.0013 -0.0042,-0.0073 0,-0.0059 7.93e-4,-0.0073 0.0042,-0.0073 0.0035,0 0.0042,-0.0013 0.0042,-0.0094 0,-0.008 -5.29e-4,-0.0094 -0.0042,-0.0094 -0.0034,0 -0.0042,-0.0013 -0.0042,-0.0073 0,-0.0059 7.93e-4,-0.0073 0.0042,-0.0073 0.0035,0 0.0042,-0.0013 0.0042,-0.0094 0,-0.008 -5.29e-4,-0.0094 -0.0042,-0.0094 -0.0034,0 -0.0042,-0.0013 -0.0042,-0.0073 0,-0.0059 7.93e-4,-0.0073 0.0042,-0.0073 0.0035,0 0.0042,-0.0013 0.0042,-0.0094 0,-0.008 -5.29e-4,-0.0094 -0.0042,-0.0094 -0.0034,0 -0.0042,-0.0013 -0.0042,-0.0073 0,-0.0059 7.93e-4,-0.0073 0.0042,-0.0073 0.0035,0 0.0042,-0.0013 0.0042,-0.0094 0,-0.008 -5.29e-4,-0.0094 -0.0042,-0.0094 -0.0034,0 -0.0042,-0.0013 -0.0042,-0.0073 0,-0.0059 7.93e-4,-0.0073 0.0042,-0.0073 0.0035,0 0.0042,-0.0013 0.0042,-0.0094 0,-0.008 -5.29e-4,-0.0094 -0.0042,-0.0094 -0.0034,0 -0.0042,-0.0013 -0.0042,-0.0073 0,-0.0059 7.93e-4,-0.0073 0.0042,-0.0073 0.0035,0 0.0042,-0.0013 0.0042,-0.0094 0,-0.008 -5.29e-4,-0.0094 -0.0042,-0.0094 -0.0034,0 -0.0042,-0.0013 -0.0042,-0.0073 0,-0.0059 7.93e-4,-0.0073 0.0042,-0.0073 0.0035,0 0.0042,-0.0013 0.0042,-0.0094 0,-0.008 -5.29e-4,-0.0094 -0.0042,-0.0094 -0.0034,0 -0.0042,-0.0013 -0.0042,-0.0073 0,-0.0059 7.93e-4,-0.0073 0.0042,-0.0073 0.0035,0 0.0042,-0.0013 0.0042,-0.0094 0,-0.008 -5.29e-4,-0.0094 -0.0042,-0.0094 -0.0034,0 -0.0042,-0.0013 -0.0042,-0.0072 0,-0.0058 7.93e-4,-0.0073 0.0047,-0.0078 0.004,-5.29e-4 0.0047,-0.0019 0.0047,-0.0096 v -0.0089 l 0.0089,3e-6 0.0089,3e-6 4e-5,0.21037 c 4.7e-5,0.256543 0.0033,0.711002 0.0062,0.862883 0.0066,0.350075 0.0186,0.495104 0.04571,0.553926 0.0084,0.01826 0.01662,0.02861 0.03309,0.04175 0.02215,0.01767 0.04066,0.03744 0.03451,0.03685 -7.94e-4,-8.2e-5 -0.036,-0.02011 -0.07808,-0.04453 z"
       id="path2237"
       inkscape:connector-curvature="0" />
    <path
       style="fill:#f9f9f9;stroke:#e6e6e6;stroke-width:0.00986954;stroke-linecap:butt;stroke-linejoin:miter;stroke-miterlimit:4;stroke-dasharray:none;stroke-opacity:1"
       d="m 90.536725,36.921969 h 3.731479 l 0.101754,-0.0044 -0.01222,0.346614 -0.08954,-0.01146 h -3.7775 l 0.494813,-0.176474 z"
       id="path2239"
       inkscape:connector-curvature="0" />
    <text
       xml:space="preserve"
       style="font-style:normal;font-weight:normal;font-size:1.76388884px;line-height:1.25;font-family:sans-serif;letter-spacing:0px;word-spacing:0px;fill:#000000;fill-opacity:1;stroke:none;stroke-width:0.26458332"
       x="90.360413"
       y="36.292397"
       id="text2443"><tspan
         sodipodi:role="line"
         id="tspan2441"
         x="90.360413"
         y="36.292397"
         style="stroke-width:0.26458332">$n_K(q_3)$</tspan></text>
    <path
       style="fill:none;stroke:#000000;stroke-width:0.26499999;stroke-linecap:butt;stroke-linejoin:miter;stroke-miterlimit:4;stroke-dasharray:0.26499999, 0.26499999;stroke-dashoffset:0;stroke-opacity:1"
       d="m 55.124526,47.038909 19.259997,-0.163005 0.02339,-19.503993 -19.22336,-0.09354 z"
       id="path2241"
       inkscape:connector-curvature="0" />
    <text
       xml:space="preserve"
       style="font-style:normal;font-weight:normal;font-size:1.76388884px;line-height:1.25;font-family:sans-serif;letter-spacing:0px;word-spacing:0px;fill:#000000;fill-opacity:1;stroke:none;stroke-width:0.26458332"
       x="72.311607"
       y="48.965725"
       id="text2372"><tspan
         sodipodi:role="line"
         id="tspan2370"
         x="72.311607"
         y="48.965725"
         style="stroke-width:0.26458332">$q_1$</tspan></text>
    <text
       xml:space="preserve"
       style="font-style:normal;font-weight:normal;font-size:1.76388884px;line-height:1.25;font-family:sans-serif;letter-spacing:0px;word-spacing:0px;fill:#000000;fill-opacity:1;stroke:none;stroke-width:0.26458332"
       x="71.904587"
       y="25.802176"
       id="text2376"><tspan
         sodipodi:role="line"
         id="tspan2374"
         x="71.904587"
         y="25.802176"
         style="stroke-width:0.26458332">$q_2$</tspan></text>
    <text
       xml:space="preserve"
       style="font-style:normal;font-weight:normal;font-size:1.76388884px;line-height:1.25;font-family:sans-serif;letter-spacing:0px;word-spacing:0px;fill:#000000;fill-opacity:1;stroke:none;stroke-width:0.26458332"
       x="79.89032"
       y="35.183483"
       id="text2380"><tspan
         sodipodi:role="line"
         id="tspan2378"
         x="79.89032"
         y="35.183483"
         style="stroke-width:0.26458332">$q_3$</tspan></text>
    <path
       style="fill:none;stroke:#000000;stroke-width:0.1;stroke-linecap:butt;stroke-linejoin:miter;stroke-miterlimit:4;stroke-dasharray:none;stroke-opacity:1"
       d="m 108.89145,47.23662 -5.48138,9.473896"
       id="path2249"
       inkscape:connector-curvature="0" />
    <path
       style="fill:none;stroke:#000000;stroke-width:0.1;stroke-linecap:butt;stroke-linejoin:miter;stroke-miterlimit:4;stroke-dasharray:none;stroke-opacity:1"
       d="m 108.89145,47.23662 5.48332,9.447985"
       id="path2251"
       inkscape:connector-curvature="0" />
    <path
       style="fill:#e6e6e6;fill-opacity:1;stroke:#e6e6e6;stroke-width:0.00441942;stroke-miterlimit:4;stroke-dasharray:none;stroke-dashoffset:0;stroke-opacity:1"
       d="m 103.51619,56.638951 c 0.006,-0.01124 0.0718,-0.12497 0.14584,-0.252703 l 0.13463,-0.232241 0.82218,-0.7952 c 0.45219,-0.437359 0.8242,-0.800679 0.82669,-0.807378 0.003,-0.007 -0.004,-0.0091 -0.0145,-0.0049 -0.053,0.02035 -0.68865,0.184568 -0.69394,0.179284 -0.003,-0.0034 0.89742,-1.571159 2.00179,-3.483938 l 2.00795,-3.477784 0.10103,0.0057 c 0.0556,0.0031 0.11944,7.94e-4 0.14195,-0.0055 l 0.0409,-0.01119 2.0112,3.483718 c 1.10616,1.916047 2.01266,3.487606 2.01444,3.492352 0.002,0.0047 -0.1587,-0.03477 -0.35663,-0.0878 -0.19794,-0.05304 -0.36198,-0.09434 -0.36454,-0.09178 -0.003,0.0026 0.017,0.02447 0.0434,0.04871 0.0264,0.02424 0.40738,0.392369 0.84656,0.818084 l 0.79852,0.774028 0.13154,0.22661 c 0.0724,0.124637 0.13155,0.230161 0.13155,0.234498 0,0.0043 -2.42591,0.0079 -5.3909,0.0079 -5.13067,0 -5.39037,-0.0011 -5.3797,-0.02045 z"
       id="path2253"
       inkscape:connector-curvature="0" />
    <text
       xml:space="preserve"
       style="font-style:normal;font-weight:normal;font-size:1.76388884px;line-height:1.25;font-family:sans-serif;letter-spacing:0px;word-spacing:0px;fill:#000000;fill-opacity:1;stroke:none;stroke-width:0.26458332"
       x="98.459808"
       y="53.159996"
       id="text2443-9"><tspan
         sodipodi:role="line"
         id="tspan2441-1"
         x="98.459808"
         y="53.159996"
         style="fill:#000000;stroke-width:0.26458332">$n_T(p_3)$</tspan></text>
    <text
       xml:space="preserve"
       style="font-style:normal;font-weight:normal;font-size:1.76388884px;line-height:1.25;font-family:sans-serif;letter-spacing:0px;word-spacing:0px;fill:#000000;fill-opacity:1;stroke:none;stroke-width:0.26458332"
       x="102.08817"
       y="58.877247"
       id="text2443-9-9"><tspan
         sodipodi:role="line"
         id="tspan2441-1-3"
         x="102.08817"
         y="58.877247"
         style="font-size:1.05833328px;fill:#000000;stroke-width:0.26458332">$N_T(p_2)=N_T(p_3)$</tspan></text>
    <path
       style="fill:none;stroke:#000000;stroke-width:0.1;stroke-linecap:butt;stroke-linejoin:miter;stroke-miterlimit:4;stroke-dasharray:none;stroke-opacity:1"
       d="m 108.89145,27.057771 5.48138,-9.473896"
       id="path2249-7"
       inkscape:connector-curvature="0" />
    <path
       style="fill:none;stroke:#000000;stroke-width:0.1;stroke-linecap:butt;stroke-linejoin:miter;stroke-miterlimit:4;stroke-dasharray:none;stroke-opacity:1"
       d="m 108.89145,27.057771 -5.48332,-9.447985"
       id="path2251-9"
       inkscape:connector-curvature="0" />
    <text
       xml:space="preserve"
       style="font-style:normal;font-weight:normal;font-size:1.76388884px;line-height:1.25;font-family:sans-serif;letter-spacing:0px;word-spacing:0px;fill:#000000;fill-opacity:1;stroke:none;stroke-width:0.26458332"
       x="98.747162"
       y="23.04977"
       id="text2443-5-0"><tspan
         sodipodi:role="line"
         id="tspan2441-3-2"
         x="98.747162"
         y="23.04977"
         style="stroke-width:0.26458332">$N_T(p_1)$</tspan></text>
    <text
       xml:space="preserve"
       style="font-style:normal;font-weight:normal;font-size:1.76388884px;line-height:1.25;font-family:sans-serif;letter-spacing:0px;word-spacing:0px;fill:#000000;fill-opacity:1;stroke:none;stroke-width:0.26458332"
       x="68.11203"
       y="54.89307"
       id="text2435"><tspan
         sodipodi:role="line"
         id="tspan2433"
         x="68.11203"
         y="54.89307"
         style="stroke-width:0.26458332">$n_K(q_1)$</tspan></text>
  </g>
</svg>
