<?xml version="1.0" encoding="UTF-8" standalone="no"?>
<!-- Created with Inkscape (http://www.inkscape.org/) -->

<svg
   xmlns:dc="http://purl.org/dc/elements/1.1/"
   xmlns:cc="http://creativecommons.org/ns#"
   xmlns:rdf="http://www.w3.org/1999/02/22-rdf-syntax-ns#"
   xmlns:svg="http://www.w3.org/2000/svg"
   xmlns="http://www.w3.org/2000/svg"
   xmlns:sodipodi="http://sodipodi.sourceforge.net/DTD/sodipodi-0.dtd"
   xmlns:inkscape="http://www.inkscape.org/namespaces/inkscape"
   width="210mm"
   height="297mm"
   viewBox="0 0 744.09448819 1052.3622047"
   id="svg2"
   version="1.1"
   inkscape:version="0.92.4 (5da689c313, 2019-01-14)"
   sodipodi:docname="mahleridea_grey.svg">
  <defs
     id="defs4" />
  <sodipodi:namedview
     id="base"
     pagecolor="#ffffff"
     bordercolor="#666666"
     borderopacity="1.0"
     inkscape:pageopacity="0.0"
     inkscape:pageshadow="2"
     inkscape:zoom="1.2638713"
     inkscape:cx="259.8991"
     inkscape:cy="771.83578"
     inkscape:document-units="px"
     inkscape:current-layer="layer1"
     showgrid="false"
     showguides="true"
     inkscape:window-width="1024"
     inkscape:window-height="703"
     inkscape:window-x="0"
     inkscape:window-y="0"
     inkscape:window-maximized="1"
     inkscape:guide-bbox="true">
    <inkscape:grid
       type="xygrid"
       id="grid4216" />
  </sodipodi:namedview>
  <metadata
     id="metadata7">
    <rdf:RDF>
      <cc:Work
         rdf:about="">
        <dc:format>image/svg+xml</dc:format>
        <dc:type
           rdf:resource="http://purl.org/dc/dcmitype/StillImage" />
        <dc:title></dc:title>
      </cc:Work>
    </rdf:RDF>
  </metadata>
  <g
     inkscape:label="Layer 1"
     inkscape:groupmode="layer"
     id="layer1">
    <circle
       style="fill:none;stroke:#000000;stroke-width:0.9375;stroke-miterlimit:4;stroke-dasharray:none;stroke-opacity:1"
       id="path3340"
       cx="218.6778"
       cy="261.5257"
       r="190.62128" />
    <circle
       style="fill:none;stroke:#000000;stroke-width:1.40625;stroke-miterlimit:4;stroke-dasharray:none;stroke-opacity:1"
       id="path3340-5"
       cx="218.6778"
       cy="261.52573"
       r="133.14227" />
    <circle
       style="fill:none;stroke:#000000;stroke-width:0.9375;stroke-miterlimit:4;stroke-dasharray:none;stroke-opacity:1"
       id="path3340-5-3"
       cx="218.22711"
       cy="261.83932"
       r="89.164093" />
    <circle
       style="fill:none;stroke:#000000;stroke-width:0.9375;stroke-miterlimit:4;stroke-dasharray:none;stroke-opacity:1"
       id="path3340-5-3-0"
       cx="218.55389"
       cy="260.85892"
       r="111.31606" />
    <circle
       style="fill:none;stroke:#000000;stroke-width:0.9375;stroke-miterlimit:4;stroke-dasharray:none;stroke-opacity:1"
       id="path3340-5-3-0-5"
       cx="219.86108"
       cy="262.8197"
       r="160.83223" />
    <path
       style="fill:none;fill-rule:evenodd;stroke:#000000;stroke-width:1px;stroke-linecap:butt;stroke-linejoin:miter;stroke-opacity:1"
       d="M 58.55007,156.87357 159.65962,113.75332"
       id="path4284"
       inkscape:connector-curvature="0" />
    <path
       style="opacity:0.48699999;fill:#ffff00;stroke:#00f600;stroke-width:0.3717263;stroke-opacity:1"
       d=""
       id="path4290"
       inkscape:connector-curvature="0" />
    <path
       style="opacity:0.48699999;fill:#ffff00;stroke:#00f600;stroke-width:0.3717263;stroke-opacity:1"
       d=""
       id="path4292"
       inkscape:connector-curvature="0" />
    <path
       style="opacity:0.48699999;fill:#ffff00;stroke:#00f600;stroke-width:0.17331022;stroke-opacity:1"
       d=""
       id="path4294"
       inkscape:connector-curvature="0" />
    <path
       style="fill:none;fill-rule:evenodd;stroke:#000000;stroke-width:1px;stroke-linecap:butt;stroke-linejoin:miter;stroke-opacity:1"
       d="m 324.11639,102.72025 43.96491,98.18829"
       id="path4298"
       inkscape:connector-curvature="0" />
    <path
       style="fill:none;fill-rule:evenodd;stroke:#000000;stroke-width:1px;stroke-linecap:butt;stroke-linejoin:miter;stroke-opacity:1"
       d="m 379.80527,363.09019 -95.25729,47.3844"
       id="path4304"
       inkscape:connector-curvature="0" />
    <path
       style="fill:none;fill-rule:evenodd;stroke:#000000;stroke-width:1px;stroke-linecap:butt;stroke-linejoin:miter;stroke-opacity:1"
       d="M 118.45833,422.19856 72.05093,327.42977"
       id="path4310"
       inkscape:connector-curvature="0" />
    <path
       style="fill:none;fill-rule:evenodd;stroke:#000000;stroke-width:1px;stroke-linecap:butt;stroke-linejoin:miter;stroke-opacity:1"
       d="m 297.76255,220.74584 31.71574,41.67302 -30.97817,39.0915"
       id="path4320"
       inkscape:connector-curvature="0" />
    <path
       style="fill:none;fill-rule:evenodd;stroke:#000000;stroke-width:1px;stroke-linecap:butt;stroke-linejoin:miter;stroke-opacity:1"
       d="m 267.15317,336.17641 -44.62332,35.03483 -43.14817,-29.13423"
       id="path4322"
       inkscape:connector-curvature="0" />
    <path
       style="fill:none;stroke:#000000;stroke-width:0.9375px;stroke-linecap:butt;stroke-linejoin:miter;stroke-opacity:1"
       d="m 106.7305,263.52522 44.38113,-70.59514 68.46792,-42.99148 69.26702,48.07187 40.63172,64.40839 -44.30089,68.5284 -62.64755,40.26398 -68.31354,-37.44154 -47.48581,-70.24448"
       id="path878"
       inkscape:connector-curvature="0" />
    <path
       style="fill:none;stroke:#000000;stroke-width:0.9375px;stroke-linecap:butt;stroke-linejoin:miter;stroke-opacity:1"
       d="m 146.8325,208.15384 -40.102,55.37138 38.90454,50.80328"
       id="path880"
       inkscape:connector-curvature="0" />
    <path
       style="fill:none;stroke:#000000;stroke-width:0.9375px;stroke-linecap:butt;stroke-linejoin:miter;stroke-opacity:1"
       d="M 167.1893,188.39576 219.57955,149.9386 266.37879,186.4"
       id="path882"
       inkscape:connector-curvature="0" />
    <path
       style="fill:none;fill-rule:evenodd;stroke:#000000;stroke-width:1px;stroke-linecap:butt;stroke-linejoin:miter;stroke-opacity:1"
       d="m 58.75,362.3622 v -205 l 55,-55 h 210 l 55,55 v 205 l -55,60 h -205 z"
       id="path4218"
       inkscape:connector-curvature="0" />
    <path
       style="fill:#808080;fill-opacity:1;stroke:#808080;stroke-width:0.28224373;stroke-miterlimit:4;stroke-dasharray:none;stroke-dashoffset:0;stroke-opacity:1"
       d="m 59.41108,201.04292 c -0.012,-34.85375 0.0554,-43.27574 0.34944,-43.66262 0.32382,-0.42609 76.3812,-33.0675 76.5821,-32.8666 0.0446,0.0446 -1.34634,0.98056 -3.09109,2.07978 -10.25109,6.45844 -19.54605,14.04081 -28.85755,23.5406 -12.14821,12.39385 -21.0177,24.86288 -28.88459,40.60694 -7.79883,15.60785 -12.81367,31.54708 -15.41362,48.99095 l -0.66987,4.49424 z"
       id="path886"
       inkscape:connector-curvature="0" />
    <path
       style="fill:#808080;fill-opacity:1;stroke:#808080;stroke-width:0.09978823;stroke-miterlimit:4;stroke-dasharray:none;stroke-dashoffset:0;stroke-opacity:1"
       d="m 356.29641,176.69095 c -3.65784,-5.83818 -8.20284,-12.05454 -12.93097,-17.68622 -20.58111,-24.51407 -48.17707,-42.42981 -78.92452,-51.23901 -7.23199,-2.07199 -13.73964,-3.47397 -21.70394,-4.67583 -0.8325,-0.12562 4.03151,-0.14446 39.92803,-0.15459 32.59471,-0.009 40.89515,0.0137 40.97051,0.11319 0.16559,0.21854 33.48655,74.72191 33.43968,74.76879 -0.0248,0.0247 -0.37517,-0.48213 -0.77879,-1.12633 z"
       id="path888"
       inkscape:connector-curvature="0" />
    <path
       style="fill:#808080;fill-opacity:1;stroke:#808080;stroke-width:0.28224373;stroke-miterlimit:4;stroke-dasharray:none;stroke-dashoffset:0;stroke-opacity:1"
       d="m 309.8053,396.94658 c 0.0647,-0.0633 1.74432,-1.27005 3.73252,-2.68177 20.74717,-14.73149 37.87031,-34.46728 49.61045,-57.17999 6.75413,-13.06671 11.2447,-25.61701 14.7443,-41.20759 0.0697,-0.31046 0.14144,14.49214 0.15945,32.89467 l 0.0327,33.45916 -1.05841,1.03303 c -0.79829,0.77914 -9.15985,5.05929 -34.02194,17.41528 -18.12994,9.01022 -33.04299,16.38224 -33.14012,16.38224 -0.0971,0 -0.12366,-0.0517 -0.059,-0.11503 z"
       id="path890"
       inkscape:connector-curvature="0" />
    <path
       style="fill:#808080;fill-opacity:1;stroke:#808080;stroke-width:0.28224373;stroke-miterlimit:4;stroke-dasharray:none;stroke-dashoffset:0;stroke-opacity:1"
       d="M 101.56045,386.27798 C 92.05456,366.8497 84.31652,350.91433 84.36481,350.86604 c 0.0483,-0.0483 0.83833,1.02249 1.75563,2.37953 9.11453,13.4838 21.62944,26.85547 34.52007,36.88327 19.42866,15.11383 41.51224,25.3774 65.94188,30.64718 l 3.66917,0.79149 -35.70382,0.0173 -35.70384,0.0172 z"
       id="path892"
       inkscape:connector-curvature="0" />
    <path
       style="fill:#808080;fill-opacity:1;stroke:#808080;stroke-width:0.3991529;stroke-miterlimit:4;stroke-dasharray:none;stroke-dashoffset:0;stroke-opacity:1"
       d="m 123.09794,283.80217 c -8.20618,-10.70264 -14.92664,-19.81858 -14.93434,-20.25764 -0.0119,-0.68155 28.50706,-40.66545 28.79778,-40.37473 0.0571,0.0572 -0.58768,1.71064 -1.43293,3.67446 -4.75721,11.05274 -6.99621,22.48611 -6.9525,35.50281 0.0453,13.48764 2.66541,25.38001 8.25903,37.48666 0.80145,1.73464 1.39556,3.21551 1.32024,3.29083 -0.0753,0.0753 -6.85109,-8.61976 -15.05728,-19.32239 z"
       id="path894"
       inkscape:connector-curvature="0" />
    <path
       style="fill:#808080;fill-opacity:1;stroke:#808080;stroke-width:0.3991529;stroke-miterlimit:4;stroke-dasharray:none;stroke-dashoffset:0;stroke-opacity:1"
       d="m 257.23321,180.91688 c -2.44101,-1.4027 -11.56939,-4.71114 -16.44984,-5.96199 -8.21806,-2.10625 -13.68493,-2.7734 -22.66715,-2.76616 -12.90892,0.0104 -23.73915,2.18252 -35.04751,7.02915 -2.0427,0.87548 -3.77821,1.52677 -3.85667,1.44731 -0.10616,-0.1075 34.92032,-26.01791 39.65288,-29.33272 0.68144,-0.4773 2.59758,0.91026 20.25897,14.67036 10.72849,8.35863 19.58119,15.26912 19.67267,15.35665 0.39528,0.3782 -0.64993,0.0823 -1.56335,-0.4426 z"
       id="path896"
       inkscape:connector-curvature="0" />
    <path
       style="fill:#808080;fill-opacity:1;stroke:#808080;stroke-width:0.3991529;stroke-miterlimit:4;stroke-dasharray:none;stroke-dashoffset:0;stroke-opacity:1"
       d="m 301.30339,296.27506 c 5.35694,-14.71827 6.93025,-23.78152 6.51066,-37.50548 -0.31114,-10.17725 -2.03752,-19.27937 -5.31782,-28.03745 -0.77921,-2.08044 -1.34949,-3.84986 -1.26728,-3.93206 0.13512,-0.13513 3.06736,3.67021 21.72261,28.1907 l 5.64583,7.42089 -13.57079,17.13127 c -7.46395,9.42221 -13.67047,17.22109 -13.79229,17.33086 -0.12181,0.10977 -0.0908,-0.15966 0.0691,-0.59873 z"
       id="path898"
       inkscape:connector-curvature="0" />
    <path
       style="fill:#808080;fill-opacity:1;stroke:#808080;stroke-width:0.3991529;stroke-miterlimit:4;stroke-dasharray:none;stroke-dashoffset:0;stroke-opacity:1"
       d="m 204.85255,358.44646 c -9.60013,-6.50536 -17.3805,-11.90221 -17.28971,-11.993 0.0908,-0.0908 1.21522,0.19837 2.49875,0.64257 9.32165,3.22594 19.96385,4.70734 31.23698,4.3482 10.99927,-0.35043 20.94321,-2.43364 30.92217,-6.47809 2.40221,-0.97361 4.41701,-1.72082 4.47733,-1.66048 0.11567,0.11567 -33.70617,26.75645 -34.13913,26.89071 -0.13839,0.0429 -8.10627,-5.24454 -17.70639,-11.74991 z"
       id="path900"
       inkscape:connector-curvature="0" />
    <path
       style="fill:#cccccc;fill-opacity:1;stroke:#cccccc;stroke-width:0.59872937;stroke-miterlimit:4;stroke-dasharray:none;stroke-dashoffset:0;stroke-opacity:1"
       d="m 88.58687,128.40304 25.54344,-25.54579 41.11392,0.0326 41.11393,0.0326 -5.18899,0.97889 c -13.34302,2.51712 -24.35663,5.98305 -38.99051,12.27013 -26.86642,11.54246 -88.55095,37.77738 -88.82362,37.77738 -0.17138,0 11.18293,-11.49561 25.23183,-25.54579 z"
       id="path922"
       inkscape:connector-curvature="0" />
    <path
       style="fill:#cccccc;fill-opacity:1;stroke:#cccccc;stroke-width:0.59872937;stroke-miterlimit:4;stroke-dasharray:none;stroke-dashoffset:0;stroke-opacity:1"
       d="m 377.07935,226.09447 c -2.02893,-9.28891 -6.27168,-21.52926 -10.96417,-31.63163 -5.02616,-10.82075 -39.44494,-87.73578 -39.31783,-87.86288 0.0683,-0.0683 11.65563,11.41639 25.74958,25.52158 l 25.62536,25.64581 v 36.20984 c 0,19.91541 -0.0449,36.20928 -0.0998,36.20859 -0.0548,-8e-4 -0.50181,-1.84177 -0.99316,-4.09131 z"
       id="path924"
       inkscape:connector-curvature="0" />
    <path
       style="fill:#cccccc;fill-opacity:1;stroke:#cccccc;stroke-width:0.59872937;stroke-miterlimit:4;stroke-dasharray:none;stroke-dashoffset:0;stroke-opacity:1"
       d="m 250.04422,421.49996 c 6.98792,-1.20263 22.42496,-5.76253 30.15152,-8.90636 2.14967,-0.87467 4.11875,-1.59031 4.37573,-1.59031 0.25698,0 20.18355,-9.80058 44.28126,-21.77905 24.09773,-11.97848 43.87167,-21.72143 43.94208,-21.65101 0.0704,0.0704 -9.9828,11.17324 -22.3405,24.67291 -19.85469,21.68945 -22.88106,24.83299 -26.0145,27.02164 l -3.54595,2.47678 -35.92377,-0.0365 c -19.75806,-0.0201 -35.47471,-0.1137 -34.92587,-0.20816 z"
       id="path926"
       inkscape:connector-curvature="0" />
    <path
       style="fill:#cccccc;fill-opacity:1;stroke:#cccccc;stroke-width:0.59872937;stroke-miterlimit:4;stroke-dasharray:none;stroke-dashoffset:0;stroke-opacity:1"
       d="m 87.07288,389.53166 -27.82374,-27.82588 0.0598,-40.31338 c 0.0329,-22.17235 0.12922,-39.77452 0.21407,-39.11592 1.75052,13.58855 5.76938,29.09783 10.64764,41.09053 0.79872,1.96357 1.45222,3.84263 1.45222,4.17567 0,0.33304 9.79887,20.61535 21.77527,45.0718 11.97639,24.45646 21.71298,44.52856 21.63688,44.60468 -0.0761,0.0761 -12.65907,-12.38327 -27.96214,-27.6875 z"
       id="path928"
       inkscape:connector-curvature="0" />
    <path
       style="fill:#cccccc;fill-opacity:1;stroke:#cccccc;stroke-width:0.21168278;stroke-miterlimit:4;stroke-dasharray:none;stroke-dashoffset:0;stroke-opacity:1"
       d="m 117.1594,247.99807 c 0.0287,-0.0845 7.76802,-12.42316 17.19846,-27.41943 l 17.14626,-27.26593 27.07899,-17.00337 c 14.89345,-9.35185 27.10276,-16.9796 27.13179,-16.95057 0.0291,0.0291 -8.71007,6.48502 -19.42025,14.34661 -10.71018,7.8616 -19.44447,14.34008 -19.40953,14.39661 0.035,0.0565 -0.99828,0.89783 -2.29605,1.86955 -6.34676,4.75219 -11.67104,9.90189 -16.41837,15.88002 -0.7853,0.98892 -1.57335,1.92504 -1.75121,2.08027 -0.17786,0.15524 -6.75157,9.17292 -14.60824,20.0393 -7.85668,10.86639 -14.37918,19.85233 -14.49446,19.96875 -0.11527,0.11642 -0.1861,0.14261 -0.15739,0.0582 z"
       id="path930"
       inkscape:connector-curvature="0" />
    <path
       style="fill:#cccccc;fill-opacity:1;stroke:#cccccc;stroke-width:0.42336556;stroke-miterlimit:4;stroke-dasharray:none;stroke-dashoffset:0;stroke-opacity:1"
       d="m 308.64065,233.9284 c -5.65038,-7.44595 -10.40043,-13.54512 -10.55566,-13.5537 -0.15523,-0.008 -0.69452,-0.80894 -1.1984,-1.77857 -5.70865,-10.98527 -16.59032,-23.06384 -27.44934,-30.46857 -1.16426,-0.7939 -2.43435,-1.77246 -2.82244,-2.17458 -0.38808,-0.40212 -6.07653,-4.9071 -12.64098,-10.01107 -6.56446,-5.10398 -11.88046,-9.33487 -11.81333,-9.40199 0.0671,-0.0671 10.51072,7.09358 23.20801,15.91267 l 23.08595,16.03471 15.36037,24.35905 c 8.44819,13.39747 15.3016,24.41779 15.22979,24.48961 -0.0718,0.0718 -4.7536,-5.96159 -10.40397,-13.40756 z"
       id="path932"
       inkscape:connector-curvature="0" />
    <path
       style="fill:#cccccc;fill-opacity:1;stroke:#cccccc;stroke-width:0.42336556;stroke-miterlimit:4;stroke-dasharray:none;stroke-dashoffset:0;stroke-opacity:1"
       d="m 181.23608,347.91145 c -14.43676,-7.91888 -26.45396,-14.61406 -26.70488,-14.87817 -0.81502,-0.85786 -32.20526,-47.50553 -32.06315,-47.64765 0.0759,-0.0758 5.19701,6.4733 11.38045,14.55357 6.18343,8.08027 11.37362,14.6977 11.53374,14.70538 0.16013,0.007 1.07663,1.05554 2.03667,2.32852 7.02165,9.31049 17.05939,17.77071 28.59566,24.10161 2.2746,1.24825 10.17324,6.3517 17.78136,11.48885 13.76269,9.29283 14.45226,9.77485 13.95696,9.75604 -0.14748,-0.006 -12.08004,-6.48926 -26.51681,-14.40815 z"
       id="path934"
       inkscape:connector-curvature="0" />
    <path
       style="fill:#cccccc;fill-opacity:1;stroke:#cccccc;stroke-width:0.42336556;stroke-miterlimit:4;stroke-dasharray:none;stroke-dashoffset:0;stroke-opacity:1"
       d="m 236.14257,361.37693 c 1.3966,-1.31242 30.11763,-23.6272 32.50285,-25.25308 11.64345,-7.93667 21.87673,-19.21772 28.33004,-31.23066 0.75052,-1.39711 1.69268,-2.85772 2.09369,-3.24581 0.401,-0.38808 5.28178,-6.45742 10.84617,-13.48742 5.56438,-7.03 10.16653,-12.73235 10.227,-12.67188 0.0605,0.0605 -7.88118,12.46739 -17.64809,27.57095 l -17.75801,27.46104 -24.30199,15.62261 c -13.3661,8.59244 -24.39266,15.62261 -24.50347,15.62261 -0.11081,0 -0.0155,-0.17476 0.21181,-0.38836 z"
       id="path936"
       inkscape:connector-curvature="0" />
    <path
       style="fill:none;stroke:#000000;stroke-width:0.9375px;stroke-linecap:butt;stroke-linejoin:miter;stroke-opacity:1"
       d="m 444.44238,262.76755 v -90.242"
       id="path859"
       inkscape:connector-curvature="0" />
    <path
       style="fill:none;stroke:#000000;stroke-width:0.9375px;stroke-linecap:butt;stroke-linejoin:miter;stroke-opacity:1"
       d="M 466.64036,262.76755 V 149.36241"
       id="path861"
       inkscape:connector-curvature="0" />
    <path
       style="fill:none;stroke:#000000;stroke-width:0.9375px;stroke-linecap:butt;stroke-linejoin:miter;stroke-opacity:1"
       d="M 487.87323,262.76755 V 128.25019"
       id="path863"
       inkscape:connector-curvature="0" />
    <path
       style="fill:none;stroke:#000000;stroke-width:0.9375px;stroke-linecap:butt;stroke-linejoin:miter;stroke-opacity:1"
       d="M 514.89686,262.76755 V 102.31232"
       id="path865"
       inkscape:connector-curvature="0" />
    <path
       style="fill:none;stroke:#000000;stroke-width:0.9375px;stroke-linecap:butt;stroke-linejoin:miter;stroke-opacity:1"
       d="M 538.54255,262.76755 V 70.824947"
       id="path867"
       inkscape:connector-curvature="0" />
    <text
       xml:space="preserve"
       style="font-style:normal;font-weight:normal;font-size:6.25px;line-height:1.25;font-family:sans-serif;letter-spacing:0px;word-spacing:0px;fill:#000000;fill-opacity:1;stroke:none;stroke-width:0.9375"
       x="421.3782"
       y="186.93903"
       id="text871"><tspan
         sodipodi:role="line"
         x="421.3782"
         y="186.93903"
         style="font-size:1.25px;stroke-width:0.9375"
         id="tspan873">$\frac{1}{\sqrt{2}}$</tspan></text>
    <text
       xml:space="preserve"
       style="font-style:normal;font-weight:normal;font-size:6.25000048px;line-height:1.25;font-family:sans-serif;letter-spacing:0px;word-spacing:0px;fill:#000000;fill-opacity:1;stroke:none;stroke-width:0.9375"
       x="437.8028"
       y="163.41182"
       id="text871-3"><tspan
         sodipodi:role="line"
         x="437.8028"
         y="163.41182"
         style="font-size:1.25px;stroke-width:0.9375"
         id="tspan873-6">$\frac{1}{\alpha(T)}$</tspan></text>
    <text
       xml:space="preserve"
       style="font-style:normal;font-weight:normal;font-size:6.25000048px;line-height:1.25;font-family:sans-serif;letter-spacing:0px;word-spacing:0px;fill:#000000;fill-opacity:1;stroke:none;stroke-width:0.9375"
       x="474.5148"
       y="143.9411"
       id="text871-7"><tspan
         sodipodi:role="line"
         x="474.5148"
         y="143.9411"
         style="font-size:1.25px;stroke-width:0.9375"
         id="tspan873-5">$1$</tspan></text>
    <text
       xml:space="preserve"
       style="font-style:normal;font-weight:normal;font-size:6.25000048px;line-height:1.25;font-family:sans-serif;letter-spacing:0px;word-spacing:0px;fill:#000000;fill-opacity:1;stroke:none;stroke-width:0.9375"
       x="479.22662"
       y="118.62402"
       id="text871-35"><tspan
         sodipodi:role="line"
         x="479.22662"
         y="118.62402"
         style="font-size:1.25px;stroke-width:0.9375"
         id="tspan873-62">$\alpha(T)$</tspan></text>
    <text
       xml:space="preserve"
       style="font-style:normal;font-weight:normal;font-size:6.25000048px;line-height:1.25;font-family:sans-serif;letter-spacing:0px;word-spacing:0px;fill:#000000;fill-opacity:1;stroke:none;stroke-width:0.9375"
       x="513.53217"
       y="87.973381"
       id="text871-9"><tspan
         sodipodi:role="line"
         x="513.53217"
         y="87.973381"
         style="font-size:1.25px;stroke-width:0.9375"
         id="tspan873-1">$\sqrt{2}$</tspan></text>
    <circle
       style="fill:#000000;fill-opacity:1;stroke:#000000;stroke-width:0.3858172;stroke-miterlimit:4;stroke-dasharray:none;stroke-dashoffset:0;stroke-opacity:1"
       id="path942"
       cx="219.49297"
       cy="263.29404"
       r="2.2290025" />
    <path
       style="fill:none;stroke:#000000;stroke-width:0.09375;stroke-linecap:butt;stroke-linejoin:miter;stroke-opacity:1;stroke-miterlimit:4;stroke-dasharray:0.09375,0.56250001;stroke-dashoffset:0"
       d="M 444.44238,172.52555 H 218.35937"
       id="path944"
       inkscape:connector-curvature="0" />
    <path
       style="fill:none;stroke:#000000;stroke-width:0.09375;stroke-linecap:butt;stroke-linejoin:miter;stroke-opacity:1;stroke-miterlimit:4;stroke-dasharray:0.09375,0.56250001;stroke-dashoffset:0"
       d="M 466.64036,149.36241 H 219.63633"
       id="path946"
       inkscape:connector-curvature="0" />
    <path
       style="fill:none;stroke:#000000;stroke-width:0.09375;stroke-linecap:butt;stroke-linejoin:miter;stroke-opacity:1;stroke-miterlimit:4;stroke-dasharray:0.09375,0.56250001;stroke-dashoffset:0"
       d="M 487.87323,128.25019 H 219.21067"
       id="path950"
       inkscape:connector-curvature="0" />
    <path
       style="fill:none;stroke:#000000;stroke-width:0.09375;stroke-linecap:butt;stroke-linejoin:miter;stroke-opacity:1;stroke-miterlimit:4;stroke-dasharray:0.09375,0.56250001;stroke-dashoffset:0"
       d="M 514.89686,102.31232 H 219.21067"
       id="path952"
       inkscape:connector-curvature="0" />
    <path
       style="fill:none;stroke:#000000;stroke-width:0.09375;stroke-linecap:butt;stroke-linejoin:miter;stroke-opacity:1;stroke-miterlimit:4;stroke-dasharray:0.09375,0.56250001;stroke-dashoffset:0"
       d="M 538.54255,70.824947 H 219.21067"
       id="path954"
       inkscape:connector-curvature="0" />
    <path
       style="fill:none;stroke:#000000;stroke-width:0.09375;stroke-linecap:butt;stroke-linejoin:miter;stroke-opacity:1;stroke-miterlimit:4;stroke-dasharray:0.09375,0.5625;stroke-dashoffset:0"
       d="M 538.54255,262.76755 H 219.50724"
       id="path871"
       inkscape:connector-curvature="0" />
  </g>
</svg>
