<?xml version="1.0" encoding="UTF-8" standalone="no"?>
<!-- Created with Inkscape (http://www.inkscape.org/) -->

<svg
   xmlns:dc="http://purl.org/dc/elements/1.1/"
   xmlns:cc="http://creativecommons.org/ns#"
   xmlns:rdf="http://www.w3.org/1999/02/22-rdf-syntax-ns#"
   xmlns:svg="http://www.w3.org/2000/svg"
   xmlns="http://www.w3.org/2000/svg"
   xmlns:sodipodi="http://sodipodi.sourceforge.net/DTD/sodipodi-0.dtd"
   xmlns:inkscape="http://www.inkscape.org/namespaces/inkscape"
   width="210mm"
   height="297mm"
   viewBox="0 0 210 297"
   version="1.1"
   id="svg8"
   inkscape:version="0.92.4 (5da689c313, 2019-01-14)"
   sodipodi:docname="nomotioninboth.svg">
  <defs
     id="defs2" />
  <sodipodi:namedview
     id="base"
     pagecolor="#ffffff"
     bordercolor="#666666"
     borderopacity="1.0"
     inkscape:pageopacity="0.0"
     inkscape:pageshadow="2"
     inkscape:zoom="0.70000001"
     inkscape:cx="537.11408"
     inkscape:cy="919.85544"
     inkscape:document-units="mm"
     inkscape:current-layer="layer1"
     showgrid="false"
     showguides="true"
     inkscape:guide-bbox="true"
     inkscape:window-width="973"
     inkscape:window-height="703"
     inkscape:window-x="23"
     inkscape:window-y="0"
     inkscape:window-maximized="0" />
  <metadata
     id="metadata5">
    <rdf:RDF>
      <cc:Work
         rdf:about="">
        <dc:format>image/svg+xml</dc:format>
        <dc:type
           rdf:resource="http://purl.org/dc/dcmitype/StillImage" />
        <dc:title></dc:title>
      </cc:Work>
    </rdf:RDF>
  </metadata>
  <g
     inkscape:label="Ebene 1"
     inkscape:groupmode="layer"
     id="layer1">
    <path
       style="fill:none;stroke:#000000;stroke-width:0.26458332px;stroke-linecap:butt;stroke-linejoin:miter;stroke-opacity:1"
       d="M 50.081843,46.96874 V 84.577369 H 86.178571 V 46.96874 H 50.081843"
       id="path823"
       inkscape:connector-curvature="0" />
    <path
       style="fill:none;stroke:#000000;stroke-width:0.26458332px;stroke-linecap:butt;stroke-linejoin:miter;stroke-opacity:1"
       d="M 86.178571,46.96874 96.761905,29.392856"
       id="path825"
       inkscape:connector-curvature="0" />
    <path
       style="fill:none;stroke:#000000;stroke-width:0.26458332px;stroke-linecap:butt;stroke-linejoin:miter;stroke-opacity:1"
       d="M 86.178572,84.577371 96.761908,67.001487"
       id="path825-1"
       inkscape:connector-curvature="0" />
    <path
       style="fill:none;stroke:#000000;stroke-width:0.26458332px;stroke-linecap:butt;stroke-linejoin:miter;stroke-opacity:1"
       d="M 50.081844,46.968741 60.665178,29.392857"
       id="path825-9"
       inkscape:connector-curvature="0" />
    <path
       style="fill:none;stroke:#000000;stroke-width:0.26458332;stroke-linecap:butt;stroke-linejoin:miter;stroke-opacity:1;stroke-miterlimit:4;stroke-dasharray:0.26458332,0.26458332;stroke-dashoffset:0"
       d="M 50.081844,84.577371 60.665177,67.001486"
       id="path825-7"
       inkscape:connector-curvature="0" />
    <path
       style="fill:none;stroke:#000000;stroke-width:0.26458332px;stroke-linecap:butt;stroke-linejoin:miter;stroke-opacity:1"
       d="M 60.665177,29.392856 H 96.761905"
       id="path854"
       inkscape:connector-curvature="0" />
    <path
       style="fill:none;stroke:#000000;stroke-width:0.26458332;stroke-linecap:butt;stroke-linejoin:miter;stroke-opacity:1;stroke-miterlimit:4;stroke-dasharray:0.26458332,0.26458332;stroke-dashoffset:0"
       d="m 60.665177,67.001484 36.09673,3e-6"
       id="path856"
       inkscape:connector-curvature="0" />
    <path
       style="fill:none;stroke:#000000;stroke-width:0.26499999;stroke-linecap:butt;stroke-linejoin:miter;stroke-opacity:1;stroke-miterlimit:4;stroke-dasharray:0.26499999,0.26499999;stroke-dashoffset:0"
       d="M 60.665177,29.392856 V 67.001484"
       id="path858"
       inkscape:connector-curvature="0" />
    <path
       style="fill:none;stroke:#000000;stroke-width:0.26458332px;stroke-linecap:butt;stroke-linejoin:miter;stroke-opacity:1"
       d="M 96.761905,29.392856 V 67.001487"
       id="path860"
       inkscape:connector-curvature="0" />
    <path
       style="fill:none;stroke:#000000;stroke-width:1;stroke-linecap:butt;stroke-linejoin:miter;stroke-miterlimit:4;stroke-dasharray:none;stroke-opacity:1"
       d="M 50.124368,55.663969 V 74.105564"
       id="path862"
       inkscape:connector-curvature="0" />
    <path
       style="fill:none;stroke:#000000;stroke-width:0.26458332px;stroke-linecap:butt;stroke-linejoin:miter;stroke-opacity:1"
       d="M 49.98735,65.017112 H 33.261905"
       id="path864"
       inkscape:connector-curvature="0" />
    <path
       style="fill:none;stroke:#000000;stroke-width:0.265;stroke-linecap:butt;stroke-linejoin:miter;stroke-opacity:1;stroke-miterlimit:4;stroke-dasharray:none"
       d="M 41.629582,78.921928 50.01093,65.002913"
       id="path825-1-7"
       inkscape:connector-curvature="0" />
    <path
       style="fill:#e6e6e6;fill-opacity:1;stroke:#e6e6e6;stroke-width:0.35770527;stroke-miterlimit:4;stroke-dasharray:none;stroke-dashoffset:0;stroke-opacity:1"
       d="m 95.488225,297.44874 c 0,-0.10897 6.869005,-11.60094 15.264465,-25.5377 l 15.26446,-25.33956 h 30.6284 c 19.47718,0 30.62839,0.1257 30.62839,0.34525 0,0.18988 -6.80233,11.64078 -15.11628,25.44643 l -15.11628,25.10118 -30.77658,0.0913 c -16.92712,0.0502 -30.776575,0.002 -30.776575,-0.10687 z"
       id="path898"
       inkscape:connector-curvature="0"
       transform="scale(0.26458333)" />
    <circle
       style="fill:none;fill-opacity:1;stroke:#000000;stroke-width:0.30808195;stroke-miterlimit:4;stroke-dasharray:none;stroke-dashoffset:0;stroke-opacity:1"
       id="path902"
       cx="142.96948"
       cy="53.67783"
       r="32.956882" />
    <path
       style="fill:none;fill-opacity:1;stroke:#000000;stroke-width:0.265;stroke-miterlimit:4;stroke-dasharray:0.265,0.265;stroke-dashoffset:0;stroke-opacity:1"
       id="path904"
       sodipodi:type="arc"
       sodipodi:cx="143.064"
       sodipodi:cy="53.659927"
       sodipodi:rx="32.840382"
       sodipodi:ry="6.6186104"
       sodipodi:start="3.0979594"
       sodipodi:end="0"
       d="m 110.25487,53.948627 a 32.840382,6.6186104 0 0 1 15.56869,-5.921909 32.840382,6.6186104 0 0 1 33.24525,-0.146199 32.840382,6.6186104 0 0 1 16.83557,5.779408"
       sodipodi:open="true" />
    <path
       style="fill:none;fill-opacity:1;stroke:#000000;stroke-width:0.265;stroke-miterlimit:4;stroke-dasharray:none;stroke-dashoffset:0;stroke-opacity:1"
       id="path904-3"
       sodipodi:type="arc"
       sodipodi:cx="142.96948"
       sodipodi:cy="53.772324"
       sodipodi:rx="32.882797"
       sodipodi:ry="8.902277"
       sodipodi:start="0"
       sodipodi:end="3.117158"
       d="m 175.85228,53.772324 a 32.882797,8.902277 0 0 1 -32.48107,8.901612 32.882797,8.902277 0 0 1 -33.27471,-8.68411"
       sodipodi:open="true" />
    <path
       style="fill:none;stroke:#000000;stroke-width:0.26458332px;stroke-linecap:butt;stroke-linejoin:miter;stroke-opacity:1"
       d="m 102.6315,42.425776 h 79.51268"
       id="path921"
       inkscape:connector-curvature="0" />
    <path
       style="fill:none;stroke:#000000;stroke-width:0.265;stroke-linecap:butt;stroke-linejoin:miter;stroke-opacity:1;stroke-miterlimit:4;stroke-dasharray:none"
       d="m 182.17498,42.405495 11.36418,-17.25986"
       id="path938"
       inkscape:connector-curvature="0" />
    <path
       style="fill:none;fill-opacity:1;stroke:#000000;stroke-width:0.265;stroke-miterlimit:4;stroke-dasharray:none;stroke-dashoffset:0;stroke-opacity:1"
       id="path904-3-9"
       sodipodi:type="arc"
       sodipodi:cx="142.96423"
       sodipodi:cy="33.450218"
       sodipodi:rx="25.969786"
       sodipodi:ry="5.9136992"
       sodipodi:start="0"
       sodipodi:end="3.117158"
       d="M 168.93402,33.450218 A 25.969786,5.9136992 0 0 1 143.28151,39.363476 25.969786,5.9136992 0 0 1 117.0022,33.594703"
       sodipodi:open="true" />
    <path
       style="fill:none;fill-opacity:1;stroke:#000000;stroke-width:0.26499999;stroke-miterlimit:4;stroke-dasharray:0.26499999,0.26499999;stroke-dashoffset:0;stroke-opacity:1"
       id="path904-7"
       sodipodi:type="arc"
       sodipodi:cx="142.98152"
       sodipodi:cy="32.925152"
       sodipodi:rx="25.462847"
       sodipodi:ry="3.9648535"
       sodipodi:start="3.0979594"
       sodipodi:end="0"
       d="m 117.54291,33.098096 a 25.462847,3.9648535 0 0 1 12.07121,-3.547497 25.462847,3.9648535 0 0 1 25.77676,-0.08758 25.462847,3.9648535 0 0 1 13.05349,3.462133"
       sodipodi:open="true" />
    <path
       style="fill:none;stroke:#000000;stroke-width:0.26499999;stroke-linecap:butt;stroke-linejoin:miter;stroke-miterlimit:4;stroke-dasharray:none;stroke-opacity:1"
       d="M 102.6315,42.425776 113.99568,25.165915"
       id="path938-5"
       inkscape:connector-curvature="0" />
    <path
       style="fill:none;stroke:#000000;stroke-width:0.26766759px;stroke-linecap:butt;stroke-linejoin:miter;stroke-opacity:1"
       d="m 113.99568,25.165915 h 12.3722"
       id="path993"
       inkscape:connector-curvature="0" />
    <path
       style="fill:none;stroke:#000000;stroke-width:0.26559907px;stroke-linecap:butt;stroke-linejoin:miter;stroke-opacity:1"
       d="M 193.53916,25.145635 H 159.5005"
       id="path995"
       inkscape:connector-curvature="0" />
    <path
       style="fill:none;stroke:#000000;stroke-width:0.26458332;stroke-linecap:butt;stroke-linejoin:miter;stroke-opacity:1;stroke-miterlimit:4;stroke-dasharray:0.26458332,0.26458332;stroke-dashoffset:0"
       d="m 126.36788,25.165915 33.13262,-0.02028"
       id="path997"
       inkscape:connector-curvature="0" />
    <path
       style="fill:#e6e6e6;fill-opacity:1;stroke:none;stroke-width:0.3552756;stroke-miterlimit:4;stroke-dasharray:none;stroke-dashoffset:0;stroke-opacity:1"
       d="m 389.54657,159.21868 c 0.13793,-0.24553 9.57888,-14.62946 20.97989,-31.96428 l 20.7291,-31.517859 h 21.93656 21.93657 l -4.05609,2.72757 c -7.69401,5.173929 -12.89323,9.457859 -19.42156,16.002489 -7.3352,7.35351 -13.38408,15.04054 -18.5639,23.59137 -2.78524,4.59786 -7.88033,14.87423 -9.33873,18.83541 l -1.01762,2.76399 -16.7175,0.004 c -13.27056,0.003 -16.6658,-0.0882 -16.46672,-0.44256 z"
       id="path1003"
       inkscape:connector-curvature="0"
       transform="scale(0.26458333)" />
    <path
       style="fill:#e6e6e6;fill-opacity:1;stroke:none;stroke-width:0.12688415;stroke-miterlimit:4;stroke-dasharray:none;stroke-dashoffset:0;stroke-opacity:1"
       d="m 424.33794,159.52807 c 0,-0.23498 2.73806,-6.69185 4.05814,-9.56989 2.56271,-5.58719 7.64406,-14.12132 11.94697,-20.06493 l 1.25689,-1.73615 0.58613,1.13346 c 2.47406,4.7843 10.71771,9.06619 24.11615,12.52633 44.07619,11.38264 123.27572,9.82625 158.21429,-3.10915 6.65661,-2.4645 12.2892,-6.17922 13.76967,-9.08118 0.39002,-0.76451 0.7655,-1.39002 0.83439,-1.39002 0.2598,0 6.6242,9.60822 8.59773,12.97985 2.33058,3.98161 5.59294,10.68961 7.45252,15.32372 l 1.254,3.125 H 540.38138 c -63.82389,0 -116.04344,-0.0617 -116.04344,-0.13704 z"
       id="path1005"
       inkscape:connector-curvature="0"
       transform="scale(0.26458333)" />
    <path
       style="fill:#e6e6e6;fill-opacity:1;stroke:none;stroke-width:0.12688415;stroke-miterlimit:4;stroke-dasharray:none;stroke-dashoffset:0;stroke-opacity:1"
       d="m 656.50218,155.82583 c -9.36125,-23.17914 -26.48177,-44.08761 -47.09411,-57.51378 l -3.67986,-2.396938 31.09058,-0.09125 c 17.09981,-0.05019 45.08198,-0.05019 62.18259,0 l 31.09202,0.09125 -20.98528,31.874998 -20.98528,31.875 h -15.03506 -15.03505 z"
       id="path1007"
       inkscape:connector-curvature="0"
       transform="scale(0.26458333)" />
    <path
       style="fill:#e6e6e6;fill-opacity:1;stroke:none;stroke-width:0.17885263;stroke-miterlimit:4;stroke-dasharray:none;stroke-dashoffset:0;stroke-opacity:1"
       d="m 450.98641,117.12432 c 7.13611,-7.48455 16.08189,-14.67683 24.93894,-20.050541 l 2.2501,-1.365172 h 62.21673 62.21673 l 3.34398,2.098214 c 5.59668,3.511699 10.81882,7.366529 15.75507,11.629929 2.0122,1.73792 9.59966,9.14543 9.48502,9.26007 -0.041,0.041 -0.82518,-0.2064 -1.74259,-0.54983 -10.69929,-4.00523 -32.32667,-7.13442 -58.81086,-8.50914 -16.74039,-0.86894 -40.08729,-0.93992 -56.875,-0.17292 -28.19308,1.28809 -51.90429,4.58796 -62.41071,8.68564 -0.88393,0.34475 -1.72768,0.67386 -1.875,0.73136 -0.14732,0.0575 0.5311,-0.73343 1.50759,-1.75761 z"
       id="path1009"
       inkscape:connector-curvature="0"
       transform="scale(0.26458333)" />
    <path
       style="fill:#f2f2f2;fill-opacity:1;stroke:none;stroke-width:0.17885263;stroke-miterlimit:4;stroke-dasharray:none;stroke-dashoffset:0;stroke-opacity:1"
       d="m 530.81811,148.08743 c -45.96901,-1.06076 -82.90912,-9.33928 -87.50733,-19.61097 -0.65686,-1.46732 -0.67084,-1.74668 -0.12372,-2.47273 0.2685,-0.35631 0.72926,-0.71373 1.0239,-0.79427 0.42762,-0.11688 0.54668,-0.2571 0.59006,-0.69489 0.0357,-0.36023 0.42252,-0.98585 1.12712,-1.82292 0.97749,-1.16125 1.25025,-1.36107 3.07066,-2.24946 9.52237,-4.64712 32.51315,-8.19768 62.98002,-9.72627 16.69321,-0.83754 39.68949,-0.83849 56.78571,-0.002 30.45578,1.48952 54.17713,5.18311 63.26388,9.85065 1.74659,0.89716 1.76261,0.91151 3.81737,3.41524 1.96952,2.39989 2.05929,2.54506 1.97277,3.19012 -0.53593,3.99561 -7.37948,8.41328 -18.3705,11.85856 -20.1309,6.31031 -54.68764,9.84252 -88.62994,9.05929 z"
       id="path1011"
       inkscape:connector-curvature="0"
       transform="scale(0.26458333)" />
    <path
       style="fill:none;fill-opacity:1;stroke:#000000;stroke-width:1;stroke-miterlimit:4;stroke-dasharray:none;stroke-dashoffset:0;stroke-opacity:1"
       id="path904-3-9-5"
       sodipodi:type="arc"
       sodipodi:cx="143.19276"
       sodipodi:cy="33.360859"
       sodipodi:rx="25.969786"
       sodipodi:ry="5.9136992"
       sodipodi:start="0.71558499"
       sodipodi:end="1.2461651"
       d="m 162.79241,37.240595 a 25.969786,5.9136992 0 0 1 -11.31634,1.725081"
       sodipodi:open="true" />
    <path
       style="fill:none;stroke:#000000;stroke-width:0.265;stroke-linecap:butt;stroke-linejoin:miter;stroke-opacity:1;stroke-miterlimit:4;stroke-dasharray:none"
       d="M 158.03963,38.207211 169.566,17.215464"
       id="path1043"
       inkscape:connector-curvature="0" />
    <path
       style="fill:none;stroke:#000000;stroke-width:0.26458332px;stroke-linecap:butt;stroke-linejoin:miter;stroke-opacity:1"
       d="M 180.20015,34.968005 V 6.8087792"
       id="path1045"
       inkscape:connector-curvature="0" />
    <path
       style="fill:none;stroke:#000000;stroke-width:0.1;stroke-linecap:butt;stroke-linejoin:miter;stroke-miterlimit:4;stroke-dasharray:none;stroke-opacity:1"
       d="m 176.3369,34.91908 h 8.19145"
       id="path1047"
       inkscape:connector-curvature="0" />
    <path
       style="fill:none;stroke:#000000;stroke-width:0.1;stroke-linecap:butt;stroke-linejoin:miter;stroke-miterlimit:4;stroke-dasharray:none;stroke-opacity:1"
       d="m 178.56101,37.344958 3.3153,-5.035269"
       id="path938-8"
       inkscape:connector-curvature="0" />
    <text
       xml:space="preserve"
       style="font-style:normal;font-weight:normal;font-size:1.76388884px;line-height:1.25;font-family:sans-serif;letter-spacing:0px;word-spacing:0px;fill:#000000;fill-opacity:1;stroke:none;stroke-width:0.26458332"
       x="181.75941"
       y="10.620701"
       id="text1066"><tspan
         sodipodi:role="line"
         id="tspan1064"
         x="181.75941"
         y="10.620701"
         style="stroke-width:0.26458332;font-size:0.70555556px">$T_{n-j}^{\perp,\R^n_p}$</tspan></text>
    <text
       xml:space="preserve"
       style="font-style:normal;font-weight:normal;font-size:1.76388884px;line-height:1.25;font-family:sans-serif;letter-spacing:0px;word-spacing:0px;fill:#000000;fill-opacity:1;stroke:none;stroke-width:0.26458332"
       x="154.52483"
       y="14.672723"
       id="text1070"><tspan
         sodipodi:role="line"
         id="tspan1068"
         x="154.52483"
         y="14.672723"
         style="stroke-width:0.26458332">$N_T(x_p(t_0))$</tspan></text>
    <text
       xml:space="preserve"
       style="font-style:normal;font-weight:normal;font-size:1.76388884px;line-height:1.25;font-family:sans-serif;letter-spacing:0px;word-spacing:0px;fill:#000000;fill-opacity:1;stroke:none;stroke-width:0.26458332"
       x="180.81859"
       y="29.447084"
       id="text1074"><tspan
         sodipodi:role="line"
         id="tspan1072"
         x="180.81859"
         y="29.447084"
         style="stroke-width:0.26458332">$T_{n-j}$</tspan></text>
    <text
       xml:space="preserve"
       style="font-style:normal;font-weight:normal;font-size:1.76388884px;line-height:1.25;font-family:sans-serif;letter-spacing:0px;word-spacing:0px;fill:#000000;fill-opacity:1;stroke:none;stroke-width:0.26458332"
       x="22.68634"
       y="84.135277"
       id="text1078"><tspan
         sodipodi:role="line"
         id="tspan1076"
         x="22.68634"
         y="84.135277"
         style="stroke-width:0.26458332">$N_K(x_q(t_0))$</tspan></text>
    <text
       xml:space="preserve"
       style="font-style:normal;font-weight:normal;font-size:1.76388884px;line-height:1.25;font-family:sans-serif;letter-spacing:0px;word-spacing:0px;fill:#000000;fill-opacity:1;stroke:none;stroke-width:0.26458332"
       x="27.252071"
       y="58.09864"
       id="text1082"><tspan
         sodipodi:role="line"
         id="tspan1080"
         x="27.252071"
         y="58.09864"
         style="stroke-width:0.26458332">$x_q([a',b'])$</tspan></text>
    <text
       xml:space="preserve"
       style="font-style:normal;font-weight:normal;font-size:1.76388884px;line-height:1.25;font-family:sans-serif;letter-spacing:0px;word-spacing:0px;fill:#000000;fill-opacity:1;stroke:none;stroke-width:0.26458332"
       x="134.98273"
       y="35.744034"
       id="text1086"><tspan
         sodipodi:role="line"
         id="tspan1084"
         x="134.98273"
         y="35.744034"
         style="stroke-width:0.26458332">$x_p([a',b'])$</tspan></text>
    <text
       xml:space="preserve"
       style="font-style:normal;font-weight:normal;font-size:1.76388884px;line-height:1.25;font-family:sans-serif;letter-spacing:0px;word-spacing:0px;fill:#000000;fill-opacity:1;stroke:none;stroke-width:0.26458332"
       x="77.909065"
       y="53.784729"
       id="text1090"><tspan
         sodipodi:role="line"
         id="tspan1088"
         x="77.909065"
         y="53.784729"
         style="stroke-width:0.26458332">$K$</tspan></text>
    <text
       xml:space="preserve"
       style="font-style:normal;font-weight:normal;font-size:1.76388884px;line-height:1.25;font-family:sans-serif;letter-spacing:0px;word-spacing:0px;fill:#000000;fill-opacity:1;stroke:none;stroke-width:0.26458332"
       x="125.61668"
       y="75.032661"
       id="text1094"><tspan
         sodipodi:role="line"
         id="tspan1092"
         x="125.61668"
         y="75.032661"
         style="stroke-width:0.26458332">$T$</tspan></text>
  </g>
</svg>
