<?xml version="1.0" encoding="UTF-8" standalone="no"?>
<!-- Created with Inkscape (http://www.inkscape.org/) -->

<svg
   xmlns:dc="http://purl.org/dc/elements/1.1/"
   xmlns:cc="http://creativecommons.org/ns#"
   xmlns:rdf="http://www.w3.org/1999/02/22-rdf-syntax-ns#"
   xmlns:svg="http://www.w3.org/2000/svg"
   xmlns="http://www.w3.org/2000/svg"
   xmlns:sodipodi="http://sodipodi.sourceforge.net/DTD/sodipodi-0.dtd"
   xmlns:inkscape="http://www.inkscape.org/namespaces/inkscape"
   width="210mm"
   height="297mm"
   viewBox="0 0 210 297"
   version="1.1"
   id="svg24303"
   inkscape:version="0.92.4 (5da689c313, 2019-01-14)"
   sodipodi:docname="Prop11.svg">
  <defs
     id="defs24297" />
  <sodipodi:namedview
     id="base"
     pagecolor="#ffffff"
     bordercolor="#666666"
     borderopacity="1.0"
     inkscape:pageopacity="0.0"
     inkscape:pageshadow="2"
     inkscape:zoom="1.6376703"
     inkscape:cx="387.94854"
     inkscape:cy="823.8979"
     inkscape:document-units="mm"
     inkscape:current-layer="layer1"
     showgrid="false"
     inkscape:window-width="1024"
     inkscape:window-height="703"
     inkscape:window-x="0"
     inkscape:window-y="0"
     inkscape:window-maximized="1" />
  <metadata
     id="metadata24300">
    <rdf:RDF>
      <cc:Work
         rdf:about="">
        <dc:format>image/svg+xml</dc:format>
        <dc:type
           rdf:resource="http://purl.org/dc/dcmitype/StillImage" />
        <dc:title></dc:title>
      </cc:Work>
    </rdf:RDF>
  </metadata>
  <g
     inkscape:label="Ebene 1"
     inkscape:groupmode="layer"
     id="layer1">
    <path
       style="fill:none;stroke:#000000;stroke-width:0.26458332;stroke-linecap:butt;stroke-linejoin:miter;stroke-opacity:1;stroke-miterlimit:4;stroke-dasharray:0.26458332,0.26458332;stroke-dashoffset:0"
       d="M 93.92709,119.54018 123.08183,51.467363"
       id="path853"
       inkscape:connector-curvature="0" />
    <path
       style="fill:#e6e6e6;fill-opacity:1;stroke:#e6e6e6;stroke-width:0.12626906;stroke-miterlimit:4;stroke-dasharray:none;stroke-dashoffset:0;stroke-opacity:1"
       d="m 371.16246,347.01721 c -0.0418,-0.19098 -0.12918,-0.51505 -0.19419,-0.72015 -0.0944,-0.29766 -0.0731,-0.4147 0.10514,-0.57993 1.45203,-1.34576 8.38376,-7.44405 8.46141,-7.44405 0.0569,0 0.30969,0.554 0.56165,1.23112 0.25195,0.67712 1.02542,2.72268 1.71881,4.54569 l 1.26071,3.31456 h -5.91877 -5.91878 z"
       id="path25209"
       inkscape:connector-curvature="0"
       transform="scale(0.26458333)" />
    <path
       style="fill:#e6e6e6;fill-opacity:1;stroke:#e6e6e6;stroke-width:0.12626906;stroke-miterlimit:4;stroke-dasharray:none;stroke-dashoffset:0;stroke-opacity:1"
       d="m 414.80097,347.18962 c 0.10169,-0.0962 10.35586,-9.22899 22.78705,-20.29519 19.1917,-17.08437 22.6498,-20.11286 22.91784,-20.07072 0.17362,0.0273 0.75129,0.0546 1.28371,0.0606 0.8833,0.01 1.01578,-0.0226 1.51336,-0.37256 0.60971,-0.42879 1.10019,-1.082 1.20533,-1.60524 l 0.0698,-0.34724 h 20.15219 c 19.70958,0 20.14672,0.005 19.90316,0.23678 -0.13697,0.13023 -10.39159,9.2585 -22.78806,20.28503 -12.39646,11.02654 -22.68511,20.18271 -22.86366,20.34704 l -0.32462,0.29878 -0.53001,-0.50418 c -1.74738,-1.66224 -4.56402,-0.72186 -4.99677,1.66825 l -0.0857,0.47351 h -19.21423 c -16.37252,0 -19.18689,-0.0259 -19.02934,-0.17483 z"
       id="path25213"
       inkscape:connector-curvature="0"
       transform="scale(0.26458333)" />
    <path
       style="fill:#e6e6e6;fill-opacity:1;stroke:#e6e6e6;stroke-width:0.12626906;stroke-miterlimit:4;stroke-dasharray:none;stroke-dashoffset:0;stroke-opacity:1"
       d="m 397.26531,381.57842 -5.31901,-14.01568 0.52057,-0.47113 c 0.28632,-0.25912 5.12929,-4.57568 10.76217,-9.59237 l 10.24159,-9.12124 19.91895,-0.002 c 12.09482,-10e-4 19.91894,0.0441 19.91894,0.1149 0,0.0641 0.19261,0.36893 0.42802,0.67734 l 0.42803,0.56074 -25.50143,22.71401 c -14.02579,12.4927 -25.63135,22.81229 -25.79013,22.93241 l -0.2887,0.21841 z"
       id="path25199"
       inkscape:connector-curvature="0"
       transform="scale(0.26458333)" />
    <path
       style="fill:#e6e6e6;fill-opacity:1;stroke:#e6e6e6;stroke-width:0.12626906;stroke-miterlimit:4;stroke-dasharray:none;stroke-dashoffset:0;stroke-opacity:1"
       d="m 314.91762,396.12338 c 0,-0.0594 0.12785,-0.29076 0.28411,-0.51415 0.15626,-0.22338 11.76134,-10.62118 25.78908,-23.10622 l 25.50498,-22.70006 0.50645,0.23007 c 1.25406,0.56971 2.89698,0.0961 3.65277,-1.05292 l 0.38921,-0.59173 6.20968,-0.007 6.20968,-0.007 0.24908,0.66292 c 0.13699,0.3646 1.73206,4.56887 3.54461,9.34281 1.81254,4.77395 3.29552,8.72804 3.29552,8.78687 0,0.0588 -6.91193,6.26158 -15.35986,13.78388 -10.56195,9.4047 -15.40638,13.64126 -15.50877,13.56276 -1.12263,-0.86069 -2.03427,-1.17422 -2.88299,-0.9915 -1.18154,0.25437 -2.12682,1.16363 -2.35606,2.2663 l -0.0788,0.37881 -19.72437,0.032 c -10.86461,0.0176 -19.72437,-0.0165 -19.72437,-0.076 z"
       id="path25195"
       inkscape:connector-curvature="0"
       transform="scale(0.26458333)" />
    <path
       style="fill:none;stroke:#000000;stroke-width:0.26458332px;stroke-linecap:butt;stroke-linejoin:miter;stroke-opacity:1"
       d="M 66.334824,144.10863 H 121.33036"
       id="path24305"
       inkscape:connector-curvature="0" />
    <path
       style="fill:none;stroke:#000000;stroke-width:0.26458332px;stroke-linecap:butt;stroke-linejoin:miter;stroke-opacity:1"
       d="m 121.33036,144.10863 27.59226,-24.56845"
       id="path24888"
       inkscape:connector-curvature="0" />
    <path
       style="fill:none;stroke:#000000;stroke-width:0.26458332;stroke-linecap:butt;stroke-linejoin:miter;stroke-opacity:1;stroke-miterlimit:4;stroke-dasharray:0.26458332,0.26458332;stroke-dashoffset:0"
       d="m 66.334824,144.10863 27.59226,-24.56845"
       id="path24888-9"
       inkscape:connector-curvature="0" />
    <path
       style="fill:none;stroke:#000000;stroke-width:0.26458332px;stroke-linecap:butt;stroke-linejoin:miter;stroke-opacity:1"
       d="M 95.489567,76.035814 123.08183,51.467363"
       id="path24888-3"
       inkscape:connector-curvature="0" />
    <path
       style="fill:none;stroke:#000000;stroke-width:0.26499999;stroke-linecap:butt;stroke-linejoin:miter;stroke-opacity:1;stroke-miterlimit:4;stroke-dasharray:0.26499999,0.26499999;stroke-dashoffset:0"
       d="m 93.92709,119.54018 h 54.99553"
       id="path24305-1"
       inkscape:connector-curvature="0" />
    <path
       style="fill:none;stroke:#000000;stroke-width:0.26458332px;stroke-linecap:butt;stroke-linejoin:miter;stroke-opacity:1"
       d="M 148.92262,119.54018 123.08183,51.467363"
       id="path24941"
       inkscape:connector-curvature="0" />
    <circle
       style="fill:#000000;fill-opacity:1;stroke:#000000;stroke-width:0.16119245;stroke-miterlimit:4;stroke-dasharray:none;stroke-dashoffset:0;stroke-opacity:1"
       id="path24992-7"
       cx="122.15718"
       cy="80.44326"
       r="0.68973857" />
    <circle
       style="fill:#000000;fill-opacity:1;stroke:#000000;stroke-width:0.16119245;stroke-miterlimit:4;stroke-dasharray:none;stroke-dashoffset:0;stroke-opacity:1"
       id="path24992-7-8"
       cx="120.6689"
       cy="91.900665"
       r="0.68973857" />
    <circle
       style="fill:#000000;fill-opacity:1;stroke:#000000;stroke-width:0.16119245;stroke-miterlimit:4;stroke-dasharray:none;stroke-dashoffset:0;stroke-opacity:1"
       id="path24992-7-5"
       cx="94.541298"
       cy="104.8936"
       r="0.68973857" />
    <circle
       style="fill:#000000;fill-opacity:1;stroke:#000000;stroke-width:0.16119245;stroke-miterlimit:4;stroke-dasharray:none;stroke-dashoffset:0;stroke-opacity:1"
       id="path24992-7-5-0"
       cx="97.423363"
       cy="91.900673"
       r="0.68973857" />
    <text
       xml:space="preserve"
       style="font-style:normal;font-weight:normal;font-size:1.76388884px;line-height:1.25;font-family:sans-serif;letter-spacing:0px;word-spacing:0px;fill:#000000;fill-opacity:1;stroke:none;stroke-width:0.26458332"
       x="91.919197"
       y="109.1871"
       id="text25101"><tspan
         sodipodi:role="line"
         id="tspan25099"
         x="91.919197"
         y="109.1871"
         style="stroke-width:0.26458332">$q_1$</tspan></text>
    <text
       xml:space="preserve"
       style="font-style:normal;font-weight:normal;font-size:1.76388884px;line-height:1.25;font-family:sans-serif;letter-spacing:0px;word-spacing:0px;fill:#000000;fill-opacity:1;stroke:none;stroke-width:0.26458332"
       x="123.21716"
       y="95.17823"
       id="text25101-5"><tspan
         sodipodi:role="line"
         id="tspan25099-3"
         x="123.21716"
         y="95.17823"
         style="stroke-width:0.26458332">$\widetilde{q}_2$</tspan></text>
    <text
       xml:space="preserve"
       style="font-style:normal;font-weight:normal;font-size:1.76388884px;line-height:1.25;font-family:sans-serif;letter-spacing:0px;word-spacing:0px;fill:#000000;fill-opacity:1;stroke:none;stroke-width:0.26458332"
       x="120.54446"
       y="77.538445"
       id="text25101-57"><tspan
         sodipodi:role="line"
         id="tspan25099-4"
         x="120.54446"
         y="77.538445"
         style="stroke-width:0.26458332">$q_2$</tspan></text>
    <text
       xml:space="preserve"
       style="font-style:normal;font-weight:normal;font-size:1.76388884px;line-height:1.25;font-family:sans-serif;letter-spacing:0px;word-spacing:0px;fill:#000000;fill-opacity:1;stroke:none;stroke-width:0.26458332"
       x="92.521072"
       y="90.4795"
       id="text25101-3"><tspan
         sodipodi:role="line"
         id="tspan25099-7"
         x="92.521072"
         y="90.4795"
         style="fill:#000000;stroke-width:0.26458332">$\widetilde{q}_1$</tspan></text>
    <text
       xml:space="preserve"
       style="font-style:normal;font-weight:normal;font-size:1.76388884px;line-height:1.25;font-family:sans-serif;letter-spacing:0px;word-spacing:0px;fill:#000000;fill-opacity:1;stroke:none;stroke-width:0.26458332"
       x="112.84194"
       y="102.99107"
       id="text25101-5-1"><tspan
         sodipodi:role="line"
         id="tspan25099-3-0"
         x="112.84194"
         y="102.99107"
         style="stroke-width:0.26458332">$K\cap V$</tspan></text>
    <path
       style="fill:none;stroke:#000000;stroke-width:0.26458332px;stroke-linecap:butt;stroke-linejoin:miter;stroke-opacity:1"
       d="M 106.4003,104.98809 133.99256,80.419643"
       id="path24888-1"
       inkscape:connector-curvature="0" />
    <path
       style="fill:#e6e6e6;fill-opacity:0.99958987;stroke:#e6e6e6;stroke-width:0.43245597;stroke-miterlimit:4;stroke-dasharray:none;stroke-dashoffset:0;stroke-opacity:1"
       d="m 382.64323,342.64609 c -0.96749,-2.50479 -1.74775,-4.78781 -1.73391,-5.07337 0.0139,-0.28556 8.28896,-7.854 18.38914,-16.81875 l 18.36396,-16.29955 h 20.47071 c 11.25888,0 20.4707,0.0813 20.4707,0.18058 0,0.0993 0.10659,0.45833 0.23686,0.79781 0.15881,0.41386 -7.37631,7.39635 -22.86965,21.19234 l -23.1065,20.5751 h -14.23111 -14.23111 z"
       id="path847"
       inkscape:connector-curvature="0"
       transform="scale(0.26458333)" />
    <path
       style="fill:#e6e6e6;fill-opacity:0.99958987;stroke:#e6e6e6;stroke-width:0.43245597;stroke-miterlimit:4;stroke-dasharray:none;stroke-dashoffset:0;stroke-opacity:1"
       d="m 388.13604,357.1311 -3.2725,-8.63552 h 13.2206 13.22059 l -1.06962,1.03412 c -2.60782,2.52127 -18.25839,16.23692 -18.52752,16.23692 -0.16448,0 -1.77168,-3.88599 -3.57155,-8.63552 z"
       id="path849"
       inkscape:connector-curvature="0"
       transform="scale(0.26458333)" />
    <path
       style="fill:#e6e6e6;fill-opacity:0.99958987;stroke:#e6e6e6;stroke-width:0.43245597;stroke-miterlimit:4;stroke-dasharray:none;stroke-dashoffset:0;stroke-opacity:1"
       d="m 360.59068,395.82583 c 0,-0.28332 30.28442,-27.12105 30.43014,-26.96686 0.1988,0.21036 10.1568,26.55256 10.1568,26.8681 0,0.14513 -9.13206,0.26387 -20.29347,0.26387 -11.16141,0 -20.29347,-0.0743 -20.29347,-0.16511 z"
       id="path851"
       inkscape:connector-curvature="0"
       transform="scale(0.26458333)" />
    <text
       xml:space="preserve"
       style="font-style:normal;font-weight:normal;font-size:1.76388884px;line-height:1.25;font-family:sans-serif;letter-spacing:0px;word-spacing:0px;fill:#000000;fill-opacity:1;stroke:none;stroke-width:0.26458332"
       x="131.01994"
       y="114.24448"
       id="text25101-5-1-3"><tspan
         sodipodi:role="line"
         id="tspan25099-3-0-6"
         x="131.01994"
         y="114.24448"
         style="stroke-width:0.26458332">$K$</tspan></text>
    <path
       style="fill:none;stroke:#000000;stroke-width:0.26458332px;stroke-linecap:butt;stroke-linejoin:miter;stroke-opacity:1"
       d="M 94.730284,105.03534 122.32254,80.466892"
       id="path24888-1-7"
       inkscape:connector-curvature="0" />
    <path
       style="fill:none;stroke:#000000;stroke-width:0.26458332px;stroke-linecap:butt;stroke-linejoin:miter;stroke-opacity:1"
       d="M 66.33482,144.10863 95.489567,76.035814 121.33036,144.10863"
       id="path24307"
       inkscape:connector-curvature="0" />
    <path
       style="fill:none;stroke:#000000;stroke-width:0.26458332px;stroke-linecap:butt;stroke-linejoin:miter;stroke-opacity:1"
       d="M 97.234373,92.04241 H 120.85788"
       id="path24945-14"
       inkscape:connector-curvature="0" />
    <path
       style="fill:none;stroke:#000000;stroke-width:0.26458332;stroke-linecap:butt;stroke-linejoin:miter;stroke-opacity:1;stroke-miterlimit:4;stroke-dasharray:none;stroke-dashoffset:0"
       d="m 110.36904,80.419643 h 23.62352"
       id="path24945-1"
       inkscape:connector-curvature="0" />
    <path
       style="fill:none;stroke:#000000;stroke-width:0.26458332px;stroke-linecap:butt;stroke-linejoin:miter;stroke-opacity:1"
       d="M 82.776784,104.98809 H 106.4003"
       id="path24945"
       inkscape:connector-curvature="0" />
    <path
       style="fill:none;stroke:#000000;stroke-width:0.26458332;stroke-linecap:butt;stroke-linejoin:miter;stroke-opacity:1;stroke-miterlimit:4;stroke-dasharray:none;stroke-dashoffset:0"
       d="M 82.776779,104.98809 110.36904,80.419643"
       id="path24888-1-5"
       inkscape:connector-curvature="0" />
  </g>
</svg>
