<?xml version="1.0" encoding="UTF-8" standalone="no"?>
<!-- Created with Inkscape (http://www.inkscape.org/) -->

<svg
   xmlns:dc="http://purl.org/dc/elements/1.1/"
   xmlns:cc="http://creativecommons.org/ns#"
   xmlns:rdf="http://www.w3.org/1999/02/22-rdf-syntax-ns#"
   xmlns:svg="http://www.w3.org/2000/svg"
   xmlns="http://www.w3.org/2000/svg"
   xmlns:sodipodi="http://sodipodi.sourceforge.net/DTD/sodipodi-0.dtd"
   xmlns:inkscape="http://www.inkscape.org/namespaces/inkscape"
   width="210mm"
   height="297mm"
   viewBox="0 0 210 297"
   version="1.1"
   id="svg28954"
   inkscape:version="0.92.4 (5da689c313, 2019-01-14)"
   sodipodi:docname="Prop2.svg">
  <defs
     id="defs28948" />
  <sodipodi:namedview
     id="base"
     pagecolor="#ffffff"
     bordercolor="#666666"
     borderopacity="1.0"
     inkscape:pageopacity="0.0"
     inkscape:pageshadow="2"
     inkscape:zoom="3.2753407"
     inkscape:cx="364.54266"
     inkscape:cy="854.74997"
     inkscape:document-units="mm"
     inkscape:current-layer="layer1"
     showgrid="false"
     inkscape:window-width="1024"
     inkscape:window-height="703"
     inkscape:window-x="0"
     inkscape:window-y="0"
     inkscape:window-maximized="1" />
  <metadata
     id="metadata28951">
    <rdf:RDF>
      <cc:Work
         rdf:about="">
        <dc:format>image/svg+xml</dc:format>
        <dc:type
           rdf:resource="http://purl.org/dc/dcmitype/StillImage" />
        <dc:title></dc:title>
      </cc:Work>
    </rdf:RDF>
  </metadata>
  <g
     inkscape:label="Ebene 1"
     inkscape:groupmode="layer"
     id="layer1">
    <path
       style="fill:none;stroke:#000000;stroke-width:0.26499999;stroke-linecap:butt;stroke-linejoin:miter;stroke-opacity:1;stroke-miterlimit:4;stroke-dasharray:0.26499999,0.26499999;stroke-dashoffset:0"
       d="M 103.37649,52.449404 61.232142,103.85416"
       id="path863"
       inkscape:connector-curvature="0" />
    <path
       style="fill:#e6e6e6;fill-opacity:1;stroke:#e6e6e6;stroke-width:0.12646791;stroke-miterlimit:4;stroke-dasharray:none;stroke-dashoffset:0;stroke-opacity:1"
       d="m 386.98419,292.88978 c -0.19033,-0.27515 -0.30201,-0.50028 -0.2482,-0.50028 0.0538,0 0.20422,-0.18008 0.33424,-0.40019 l 0.2364,-0.40018 -0.36701,-0.29367 c -0.20186,-0.16152 -0.40576,-0.29395 -0.45311,-0.29429 -0.11846,-8.7e-4 -0.60838,0.70068 -0.60838,0.87118 0,0.19006 -0.24711,0.17492 -0.31806,-0.0195 -0.0317,-0.0868 -0.0157,-12.76666 0.0355,-28.17744 l 0.0931,-28.0196 21.27425,-5.03353 c 11.70084,-2.76843 21.35238,-5.00354 21.44786,-4.9669 0.14224,0.0546 0.13509,0.12538 -0.0396,0.39196 -0.11724,0.17893 -0.19442,0.33881 -0.17151,0.35527 0.43873,0.31528 0.85374,0.5795 0.91022,0.5795 0.0396,0 0.15803,-0.16642 0.26321,-0.36982 0.17247,-0.33352 0.24783,-0.36761 0.76776,-0.34724 l 0.57651,0.0226 15.91499,33.33504 c 8.75325,18.33427 15.94464,33.43447 15.98087,33.556 0.0626,0.21011 -1.78596,0.22074 -37.60861,0.21618 l -37.67447,-0.005 z m 1.17805,-2.60543 0.25086,-0.39621 -0.38808,-0.27634 c -0.45767,-0.32588 -0.61845,-0.28621 -0.91563,0.22592 l -0.22083,0.38058 0.41023,0.26259 c 0.49619,0.31761 0.54494,0.30651 0.86345,-0.19654 z m 1.06043,-1.63322 c 0.24312,-0.45145 0.24309,-0.45697 -0.003,-0.6406 -0.58745,-0.43859 -0.6578,-0.43808 -0.93276,0.007 -0.14429,0.23347 -0.26234,0.45481 -0.26234,0.49188 0,0.0715 0.77481,0.59154 0.88673,0.59515 0.0363,0.001 0.17635,-0.20279 0.31123,-0.45325 z m 1.07346,-1.62576 c 0.14944,-0.2418 0.2357,-0.4979 0.19169,-0.56911 -0.0874,-0.14143 -0.82649,-0.55033 -0.87522,-0.48423 -0.26625,0.36116 -0.45147,0.69519 -0.45147,0.81419 0,0.11052 0.68494,0.66095 0.84202,0.67666 0.0117,0.001 0.14353,-0.19571 0.29298,-0.43751 z m 1.15358,-1.79753 0.2564,-0.40628 -0.42017,-0.25617 c -0.2311,-0.14089 -0.45722,-0.25638 -0.50248,-0.25664 -0.0453,-2.5e-4 -0.20115,0.1842 -0.3464,0.4099 l -0.26409,0.41038 0.34639,0.28541 c 0.43498,0.35839 0.60835,0.32362 0.93035,-0.1866 z m 1.21669,-2.03036 c -0.0181,-0.0901 -0.21173,-0.27664 -0.43034,-0.4146 l -0.39746,-0.25082 -0.26545,0.42951 c -0.146,0.23622 -0.26545,0.46624 -0.26545,0.51115 0,0.0449 0.18467,0.19523 0.41038,0.33404 l 0.41037,0.25238 0.28541,-0.34894 c 0.15698,-0.19192 0.27062,-0.42264 0.25254,-0.51272 z m 1.16668,-1.71326 c 0,-0.0825 -0.88913,-0.62479 -0.93141,-0.56804 -0.30212,0.40551 -0.60129,0.88848 -0.56602,0.91374 0.0249,0.0179 0.24164,0.15272 0.48156,0.29968 l 0.43622,0.26719 0.28983,-0.42652 c 0.1594,-0.23458 0.28982,-0.4533 0.28982,-0.48605 z m 0.86384,-1.27407 0.25744,-0.43632 -0.41771,-0.25816 c -0.22973,-0.14198 -0.44974,-0.25815 -0.4889,-0.25815 -0.0392,0 -0.19877,0.17915 -0.35469,0.39812 l -0.28349,0.39812 0.36959,0.29573 c 0.4924,0.39399 0.61398,0.37553 0.91776,-0.13934 z m 1.0216,-1.5719 c 0.34413,-0.48329 0.33403,-0.53104 -0.18319,-0.86609 l -0.4412,-0.28581 -0.25124,0.41207 c -0.31972,0.52437 -0.31901,0.53056 0.0951,0.83949 0.45028,0.33595 0.47241,0.33312 0.78058,-0.0997 z m 1.12249,-1.73029 c 0.16122,-0.24881 0.27487,-0.46538 0.25254,-0.48126 -0.55525,-0.39495 -0.88271,-0.59681 -0.90952,-0.56066 -0.52647,0.71003 -0.61241,0.90299 -0.44501,0.99926 0.0976,0.0562 0.29114,0.1894 0.43004,0.29612 0.34006,0.26128 0.33788,0.2621 0.67195,-0.25346 z m 1.06859,-1.67897 c 0.27923,-0.47269 0.28403,-0.45197 -0.18149,-0.78345 l -0.39813,-0.28349 -0.29573,0.36959 c -0.37895,0.47361 -0.37261,0.57988 0.0503,0.84206 0.47628,0.2953 0.57545,0.2779 0.82509,-0.14471 z m 1.11178,-1.73843 0.25086,-0.3962 -0.38808,-0.27634 c -0.45767,-0.32589 -0.61845,-0.28622 -0.91563,0.22592 l -0.22084,0.38057 0.41024,0.26259 c 0.49619,0.31761 0.54494,0.30651 0.86345,-0.19654 z m 1.0458,-1.56319 c 0.27374,-0.4634 0.22687,-0.61868 -0.27459,-0.90968 l -0.38212,-0.22175 -0.26331,0.42605 c -0.14482,0.23433 -0.26331,0.45638 -0.26331,0.49345 0,0.0721 0.7753,0.59159 0.88822,0.59515 0.0371,0.001 0.16991,-0.17128 0.29511,-0.38322 z m 1.08809,-1.69579 c 0.14944,-0.2418 0.2357,-0.4979 0.19169,-0.56911 -0.0863,-0.13966 -0.82788,-0.55166 -0.87157,-0.48422 -0.30569,0.47186 -0.45512,0.74923 -0.45512,0.84478 0,0.0887 0.70905,0.63276 0.84202,0.64606 0.0117,0.001 0.14353,-0.19571 0.29298,-0.43751 z m 1.1246,-1.7385 0.26409,-0.41038 -0.34639,-0.28347 c -0.46123,-0.37745 -0.58908,-0.35963 -0.90137,0.12564 l -0.26409,0.41037 0.34639,0.28348 c 0.46122,0.37745 0.58908,0.35963 0.90137,-0.12564 z m 1.24567,-2.08938 c -0.0181,-0.0901 -0.21173,-0.27665 -0.43034,-0.4146 l -0.39746,-0.25082 -0.26545,0.4295 c -0.146,0.23623 -0.26545,0.46625 -0.26545,0.51116 0,0.0449 0.18467,0.19522 0.41038,0.33403 l 0.41037,0.25238 0.28541,-0.34894 c 0.15698,-0.19191 0.27062,-0.42263 0.25254,-0.51271 z m 0.90167,-1.2324 c 0.14576,-0.24704 0.26501,-0.46969 0.26501,-0.49478 0,-0.0731 -0.89365,-0.60481 -0.93141,-0.55413 -0.30212,0.40551 -0.60129,0.88848 -0.56602,0.91375 0.0909,0.0651 0.92977,0.58012 0.94832,0.58219 0.0105,10e-4 0.13835,-0.19999 0.2841,-0.44703 z m 1.15906,-1.77921 0.25083,-0.39746 -0.44387,-0.27433 c -0.49715,-0.30726 -0.62077,-0.27292 -0.88971,0.24715 -0.17847,0.34512 -0.17131,0.37315 0.15874,0.62114 0.44123,0.33154 0.61397,0.29481 0.92401,-0.1965 z m 0.99139,-1.54763 c 0.34025,-0.47784 0.33111,-0.54764 -0.10558,-0.8056 -0.49433,-0.292 -0.55204,-0.27916 -0.82538,0.18356 l -0.2364,0.40018 0.36701,0.29367 c 0.46451,0.37169 0.48592,0.36977 0.80035,-0.0718 z m 1.12249,-1.73028 c 0.16122,-0.24882 0.27487,-0.46539 0.25254,-0.48127 -0.55525,-0.39495 -0.88271,-0.59681 -0.90952,-0.56065 -0.52648,0.71003 -0.61241,0.90298 -0.44501,0.99926 0.0976,0.0561 0.29114,0.18939 0.43004,0.29611 0.34006,0.26128 0.33788,0.2621 0.67195,-0.25345 z m 1.06859,-1.67897 c 0.27923,-0.4727 0.28403,-0.45198 -0.18149,-0.78346 l -0.39813,-0.28349 -0.29572,0.36959 c -0.37896,0.47361 -0.37262,0.57989 0.0503,0.84207 0.47628,0.29529 0.57545,0.2779 0.82509,-0.14471 z m 1.1019,-1.68515 c 0.13761,-0.22571 0.25042,-0.44007 0.25068,-0.47637 2.5e-4,-0.0363 -0.20445,-0.17634 -0.4549,-0.31122 -0.45145,-0.24312 -0.45697,-0.24309 -0.6406,0.003 -0.43441,0.58185 -0.43498,0.65514 -0.007,0.92908 0.53353,0.3417 0.55828,0.33751 0.85206,-0.14434 z m 1.1125,-1.68664 c 0.16123,-0.24882 0.27487,-0.46553 0.25254,-0.48159 -0.0223,-0.0161 -0.24756,-0.15356 -0.50052,-0.30556 l -0.45991,-0.27636 -0.26613,0.45105 c -0.14638,0.24809 -0.26613,0.47064 -0.26613,0.49458 0,0.0545 0.79807,0.56893 0.88388,0.5697 0.0347,2.5e-4 0.19505,-0.20301 0.35627,-0.45182 z m 1.03127,-1.62562 c 0.30478,-0.49316 0.26973,-0.61685 -0.25115,-0.88621 -0.34898,-0.18046 -0.37278,-0.17366 -0.62334,0.17823 -0.14328,0.20122 -0.26051,0.42252 -0.26051,0.49179 0,0.0941 0.70283,0.63978 0.84201,0.6537 0.0117,10e-4 0.14354,-0.19571 0.29299,-0.43751 z m 1.15412,-1.7997 0.25586,-0.40411 -0.42017,-0.25614 c -0.50789,-0.30961 -0.55368,-0.29843 -0.8784,0.21442 l -0.25586,0.40411 0.42017,0.25614 c 0.50789,0.30961 0.55368,0.29844 0.8784,-0.21442 z m 1.05541,-1.62531 c 0.24312,-0.45144 0.2431,-0.45697 -0.003,-0.64059 -0.58745,-0.4386 -0.6578,-0.43808 -0.93277,0.007 -0.14429,0.23346 -0.26234,0.4548 -0.26234,0.49187 0,0.0715 0.77481,0.59154 0.88674,0.59515 0.0363,0.001 0.17634,-0.20279 0.31122,-0.45325 z m 1.06459,-1.6114 c 0.14456,-0.2339 0.26283,-0.45655 0.26283,-0.49477 0,-0.0922 -0.88522,-0.63708 -0.93909,-0.57801 -0.0231,0.0253 -0.15955,0.24145 -0.30332,0.48037 l -0.26141,0.43439 0.46781,0.28771 c 0.25729,0.15824 0.47737,0.28948 0.48907,0.29165 0.0117,0.002 0.13955,-0.18743 0.28411,-0.42134 z m 1.15688,-1.80309 0.25083,-0.39746 -0.46389,-0.2867 c -0.45463,-0.28097 -0.46751,-0.28186 -0.64483,-0.0445 -0.42082,0.56337 -0.42736,0.65375 -0.0669,0.92461 0.442,0.33209 0.61462,0.29551 0.92476,-0.19597 z m 0.99139,-1.54763 c 0.34025,-0.47784 0.33111,-0.54764 -0.10559,-0.80559 -0.49432,-0.29201 -0.55203,-0.27917 -0.82537,0.18355 l -0.2364,0.40019 0.36701,0.29366 c 0.46451,0.37169 0.48592,0.36977 0.80035,-0.0718 z m 1.12249,-1.73028 c 0.16122,-0.24881 0.27487,-0.46538 0.25254,-0.48127 -0.55525,-0.39495 -0.88271,-0.5968 -0.90952,-0.56065 -0.52648,0.71003 -0.61241,0.90299 -0.44501,0.99926 0.0976,0.0561 0.29114,0.1894 0.43004,0.29611 0.34006,0.26128 0.33788,0.26211 0.67195,-0.25345 z m 1.03407,-1.59635 c 0.32261,-0.52914 0.32212,-0.53205 -0.14697,-0.86607 l -0.39813,-0.28349 -0.29573,0.36959 c -0.16265,0.20328 -0.29526,0.42641 -0.2947,0.49586 7.6e-4,0.0977 0.68205,0.64675 0.85189,0.68663 0.0184,0.004 0.14602,-0.17682 0.28364,-0.40252 z m 1.12644,-1.72413 c 0.34116,-0.47912 0.33149,-0.53933 -0.12871,-0.80126 -0.52093,-0.29649 -0.556,-0.28768 -0.85195,0.21391 l -0.25658,0.43488 0.40195,0.25747 c 0.51619,0.33066 0.52594,0.32944 0.83529,-0.105 z m 1.12248,-1.73028 c 0.16123,-0.24881 0.27487,-0.46553 0.25254,-0.48159 -0.0223,-0.0161 -0.23999,-0.14887 -0.48368,-0.29515 l -0.44309,-0.26596 -0.28296,0.43166 c -0.15563,0.23742 -0.28296,0.4553 -0.28296,0.48417 0,0.0608 0.78968,0.57785 0.88388,0.57869 0.0347,2.6e-4 0.19505,-0.20301 0.35627,-0.45182 z m 1.03127,-1.62562 c 0.30478,-0.49315 0.26973,-0.61685 -0.25115,-0.88621 -0.34898,-0.18046 -0.37278,-0.17365 -0.62334,0.17823 -0.14328,0.20122 -0.26051,0.42253 -0.26051,0.4918 0,0.0941 0.70283,0.63977 0.84201,0.65369 0.0117,10e-4 0.14354,-0.19571 0.29299,-0.43751 z m 1.14911,-1.79178 0.25086,-0.39621 -0.38809,-0.27634 c -0.45961,-0.32727 -0.61818,-0.28661 -0.92182,0.23641 l -0.22703,0.39106 0.41644,0.25386 c 0.5028,0.30652 0.55064,0.29504 0.86964,-0.20878 z m 1.04579,-1.56319 c 0.27374,-0.46341 0.22687,-0.61868 -0.27459,-0.90969 l -0.38211,-0.22174 -0.26331,0.42605 c -0.14483,0.23433 -0.26332,0.45638 -0.26332,0.49345 0,0.0721 0.7753,0.59159 0.88823,0.59515 0.0371,0.001 0.16991,-0.17128 0.2951,-0.38322 z m 1.07922,-1.68143 c 0.14456,-0.23391 0.26283,-0.45656 0.26283,-0.49478 0,-0.0882 -0.88628,-0.63982 -0.92874,-0.57801 -0.24006,0.34951 -0.46022,0.75607 -0.46022,0.84988 0,0.0887 0.70905,0.63276 0.84202,0.64606 0.0117,0.001 0.13955,-0.18925 0.28411,-0.42315 z m 1.15688,-1.80309 0.25083,-0.39747 -0.46389,-0.28669 c -0.45463,-0.28098 -0.46751,-0.28187 -0.64483,-0.0445 -0.42082,0.56337 -0.42736,0.65375 -0.0669,0.9246 0.442,0.33209 0.61461,0.29551 0.92476,-0.19596 z m 0.99139,-1.54763 c 0.34025,-0.47784 0.33111,-0.54764 -0.10559,-0.8056 -0.49432,-0.292 -0.55203,-0.27917 -0.82537,0.18356 l -0.2364,0.40018 0.36701,0.29367 c 0.46451,0.37169 0.48592,0.36977 0.80035,-0.0718 z"
       id="path2417"
       inkscape:connector-curvature="0"
       transform="scale(0.26458333)" />
    <path
       style="fill:none;stroke:#000000;stroke-width:0.26458332px;stroke-linecap:butt;stroke-linejoin:miter;stroke-opacity:1"
       d="m 83.343749,66.623511 -22.111607,37.230649 39.876488,0"
       id="path28956"
       inkscape:connector-curvature="0" />
    <path
       style="fill:none;stroke:#000000;stroke-width:0.26458332px;stroke-linecap:butt;stroke-linejoin:miter;stroke-opacity:1"
       d="M 101.10863,103.85416 143.25298,52.449403"
       id="path28960-6"
       inkscape:connector-curvature="0" />
    <path
       style="fill:none;stroke:#000000;stroke-width:0.26226199;stroke-linecap:butt;stroke-linejoin:miter;stroke-miterlimit:4;stroke-dasharray:none;stroke-opacity:1"
       d="m 113.85191,59.301556 8.81449,18.472887"
       id="path28958-1"
       inkscape:connector-curvature="0" />
    <circle
       style="fill:#000000;fill-opacity:1;stroke:#000000;stroke-width:0.13149568;stroke-miterlimit:4;stroke-dasharray:none;stroke-dashoffset:0;stroke-opacity:1"
       id="path29600"
       cx="113.77083"
       cy="59.252975"
       r="0.53922242" />
    <circle
       style="fill:#000000;fill-opacity:1;stroke:#000000;stroke-width:0.13149568;stroke-miterlimit:4;stroke-dasharray:none;stroke-dashoffset:0;stroke-opacity:1"
       id="path29600-0"
       cx="93.738098"
       cy="59.347469"
       r="0.53922242" />
    <circle
       style="fill:#000000;fill-opacity:1;stroke:#000000;stroke-width:0.13149568;stroke-miterlimit:4;stroke-dasharray:none;stroke-dashoffset:0;stroke-opacity:1"
       id="path29600-09"
       cx="101.89275"
       cy="77.851601"
       r="0.53922242" />
    <circle
       style="fill:#000000;fill-opacity:1;stroke:#000000;stroke-width:0.13149568;stroke-miterlimit:4;stroke-dasharray:none;stroke-dashoffset:0;stroke-opacity:1"
       id="path29600-09-1"
       cx="101.86311"
       cy="59.263752"
       r="0.53922242" />
    <circle
       style="fill:#000000;fill-opacity:1;stroke:#000000;stroke-width:0.13149568;stroke-miterlimit:4;stroke-dasharray:none;stroke-dashoffset:0;stroke-opacity:1"
       id="path29600-0-9"
       cx="95.615677"
       cy="59.313866"
       r="0.53922242" />
    <text
       xml:space="preserve"
       style="font-style:normal;font-weight:normal;font-size:1.76388884px;line-height:1.25;font-family:sans-serif;letter-spacing:0px;word-spacing:0px;fill:#000000;fill-opacity:1;stroke:none;stroke-width:0.26458332"
       x="99.919357"
       y="80.786148"
       id="text29663"><tspan
         sodipodi:role="line"
         id="tspan29661"
         x="99.919357"
         y="80.786148"
         style="stroke-width:0.26458332">$q_1$</tspan></text>
    <text
       xml:space="preserve"
       style="font-style:normal;font-weight:normal;font-size:1.76388884px;line-height:1.25;font-family:sans-serif;letter-spacing:0px;word-spacing:0px;fill:#000000;fill-opacity:1;stroke:none;stroke-width:0.26458332"
       x="89.769348"
       y="57.830814"
       id="text29667"><tspan
         sodipodi:role="line"
         id="tspan29665"
         x="89.769348"
         y="57.830814"
         style="stroke-width:0.26458332">$q_2$</tspan></text>
    <text
       xml:space="preserve"
       style="font-style:normal;font-weight:normal;font-size:1.76388884px;line-height:1.25;font-family:sans-serif;letter-spacing:0px;word-spacing:0px;fill:#000000;fill-opacity:1;stroke:none;stroke-width:0.26458332"
       x="113.06826"
       y="57.035725"
       id="text29671"><tspan
         sodipodi:role="line"
         id="tspan29669"
         x="113.06826"
         y="57.035725"
         style="stroke-width:0.26458332">$q_3$</tspan></text>
    <text
       xml:space="preserve"
       style="font-style:normal;font-weight:normal;font-size:1.76388884px;line-height:1.25;font-family:sans-serif;letter-spacing:0px;word-spacing:0px;fill:#000000;fill-opacity:1;stroke:none;stroke-width:0.26458332"
       x="101.35101"
       y="57.519657"
       id="text29675"><tspan
         sodipodi:role="line"
         id="tspan29673"
         x="101.35101"
         y="57.519657"
         style="stroke-width:0.26458332">$\widetilde{q}_2$</tspan></text>
    <text
       xml:space="preserve"
       style="font-style:normal;font-weight:normal;font-size:1.76388884px;line-height:1.25;font-family:sans-serif;letter-spacing:0px;word-spacing:0px;fill:#000000;fill-opacity:1;stroke:none;stroke-width:0.26458332"
       x="94.05471"
       y="55.921391"
       id="text29679"><tspan
         sodipodi:role="line"
         id="tspan29677"
         x="94.05471"
         y="55.921391"
         style="stroke-width:0.26458332">$\widebar{q}_2^\delta$</tspan></text>
    <path
       style="fill:none;stroke:#000000;stroke-width:0.26458332px;stroke-linecap:butt;stroke-linejoin:miter;stroke-opacity:1"
       d="m 143.25298,52.449401 -39.87649,3e-6"
       id="path29685"
       inkscape:connector-curvature="0" />
    <path
       style="fill:#e6e6e6;fill-opacity:1;stroke:#e6e6e6;stroke-width:0.08942632;stroke-miterlimit:4;stroke-dasharray:none;stroke-dashoffset:0;stroke-opacity:1"
       d="m 385.56626,230.43268 2.1e-4,-4.13548 0.50274,-0.2627 c 0.50537,-0.26408 0.96958,-0.77647 1.07156,-1.18278 l 0.0518,-0.20631 20.05729,0.007 c 11.0315,0.004 20.0171,0.0222 19.968,0.0407 -0.0491,0.0185 -9.37054,2.22679 -20.71429,4.90723 -11.34375,2.68045 -20.69531,4.89473 -20.78125,4.92064 -0.14724,0.0444 -0.15624,-0.19137 -0.15604,-4.08839 z"
       id="path2413"
       inkscape:connector-curvature="0"
       transform="scale(0.26458333)" />
    <text
       xml:space="preserve"
       style="font-style:normal;font-weight:normal;font-size:1.76388884px;line-height:1.25;font-family:sans-serif;letter-spacing:0px;word-spacing:0px;fill:#000000;fill-opacity:1;stroke:none;stroke-width:0.26458332"
       x="107.86355"
       y="74.142899"
       id="text29683"><tspan
         sodipodi:role="line"
         id="tspan29681"
         x="107.86355"
         y="74.142899"
         style="stroke-width:0.26458332">$K\cap V$</tspan></text>
    <path
       style="fill:#e6e6e6;fill-opacity:0.99958987;stroke:#e6e6e6;stroke-width:0.21588799;stroke-miterlimit:4;stroke-dasharray:none;stroke-dashoffset:0;stroke-opacity:1"
       d="m 314.05707,292.74084 c 0.23788,-0.3859 2.80651,-4.70441 5.70807,-9.5967 l 5.27557,-8.89505 4.48858,9.43477 c 2.46872,5.18913 4.52835,9.50764 4.57696,9.5967 0.0486,0.0891 -4.53988,0.16191 -10.19665,0.16191 h -10.28503 z"
       id="path849"
       inkscape:connector-curvature="0"
       transform="scale(0.26458333)" />
    <path
       style="fill:#e6e6e6;fill-opacity:0.99958987;stroke:#e6e6e6;stroke-width:0.21588799;stroke-miterlimit:4;stroke-dasharray:none;stroke-dashoffset:0;stroke-opacity:1"
       d="m 330.72012,283.34971 c -2.64925,-5.55102 -4.81903,-10.19327 -4.82174,-10.3161 -0.007,-0.29617 15.3519,-26.22986 15.80154,-26.68188 0.30927,-0.31091 18.29032,-4.72238 19.2483,-4.72238 0.23052,0 3.63271,7.32281 11.20872,24.12549 5.98275,13.26901 11.06697,24.63022 11.29826,25.24712 l 0.42053,1.12164 -0.51192,0.64749 -0.51192,0.64749 -23.65748,0.0119 -23.65749,0.012 z"
       id="path851"
       inkscape:connector-curvature="0"
       transform="scale(0.26458333)" />
    <path
       style="fill:#e6e6e6;fill-opacity:0.99958987;stroke:#e6e6e6;stroke-width:0.21588799;stroke-miterlimit:4;stroke-dasharray:none;stroke-dashoffset:0;stroke-opacity:1"
       d="m 343.52194,243.09034 c 0.51163,-0.86291 2.85481,-4.82345 5.20706,-8.80118 2.35224,-3.97774 4.38601,-7.34669 4.51947,-7.48656 0.13346,-0.13986 0.49169,-0.20487 0.79606,-0.14444 0.49346,0.0979 0.87936,0.83692 3.56216,6.82123 1.6548,3.69126 3.00874,6.75769 3.00874,6.81428 0,0.0566 -3.83741,1.00862 -8.52758,2.11562 -4.69017,1.107 -8.7455,2.06612 -9.01186,2.13136 -0.44221,0.10832 -0.40346,-0.0177 0.44595,-1.45031 z"
       id="path853"
       inkscape:connector-curvature="0"
       transform="scale(0.26458333)" />
    <path
       style="fill:#e6e6e6;fill-opacity:0.99958987;stroke:#e6e6e6;stroke-width:0.21588799;stroke-miterlimit:4;stroke-dasharray:none;stroke-dashoffset:0;stroke-opacity:1"
       d="m 358.82114,233.24348 -3.08963,-6.87243 0.49897,-0.78134 c 0.47702,-0.74699 0.55356,-0.78175 1.74032,-0.79049 0.92906,-0.007 1.24136,0.0675 1.24136,0.29551 0,0.41678 1.23277,1.42246 1.74366,1.42246 0.22837,0 0.41522,0.0352 0.41522,0.0783 0,0.0431 0.96568,2.90051 2.14597,6.34989 l 2.14597,6.2716 -1.65555,0.36833 c -0.91056,0.20258 -1.75481,0.40484 -1.87612,0.44946 -0.1213,0.0446 -1.61088,-3.01145 -3.31017,-6.79129 z"
       id="path855"
       inkscape:connector-curvature="0"
       transform="scale(0.26458333)" />
    <path
       style="fill:#e6e6e6;fill-opacity:0.99958987;stroke:#e6e6e6;stroke-width:0.21588799;stroke-miterlimit:4;stroke-dasharray:none;stroke-dashoffset:0;stroke-opacity:1"
       d="m 365.14011,233.91135 c -0.92346,-2.70129 -1.89363,-5.49627 -2.15594,-6.21105 l -0.47693,-1.2996 0.69613,-0.80531 0.69614,-0.8053 h 9.39739 9.39739 l 0.36008,0.54955 c 0.19804,0.30225 0.59782,0.65787 0.88838,0.79026 l 0.5283,0.24071 v 4.16684 4.16684 l -0.80958,0.21663 c -1.58057,0.42293 -16.39733,3.90189 -16.618,3.90189 -0.1234,0 -0.97991,-2.21016 -1.90336,-4.91146 z"
       id="path859"
       inkscape:connector-curvature="0"
       transform="scale(0.26458333)" />
    <path
       style="fill:#e6e6e6;fill-opacity:0.99958987;stroke:#e6e6e6;stroke-width:0.21588799;stroke-miterlimit:4;stroke-dasharray:none;stroke-dashoffset:0;stroke-opacity:1"
       d="m 375.90695,265.26909 c -4.65089,-13.53618 -8.4883,-24.74503 -8.52758,-24.90855 -0.0539,-0.2243 2.01864,-0.79377 8.43993,-2.31904 4.68123,-1.11195 8.54331,-1.98976 8.58239,-1.95067 0.0391,0.0391 0.0464,12.1577 0.0162,26.93027 l -0.0548,26.85922 z"
       id="path861"
       inkscape:connector-curvature="0"
       transform="scale(0.26458333)" />
    <text
       xml:space="preserve"
       style="font-style:normal;font-weight:normal;font-size:7.05555534px;line-height:1.25;font-family:sans-serif;letter-spacing:0px;word-spacing:0px;fill:#000000;fill-opacity:1;stroke:none;stroke-width:0.26458332"
       x="90.364418"
       y="99.020798"
       id="text867"><tspan
         sodipodi:role="line"
         id="tspan865"
         x="90.364418"
         y="99.020798"
         style="font-size:1.76388884px;stroke-width:0.26458332">$K$</tspan></text>
    <path
       style="fill:none;stroke:#000000;stroke-width:0.26458332;stroke-linecap:butt;stroke-linejoin:miter;stroke-opacity:1;stroke-miterlimit:4;stroke-dasharray:none;stroke-dashoffset:0"
       d="M 103.37649,52.449404 83.343749,66.623511"
       id="path29567"
       inkscape:connector-curvature="0" />
    <path
       style="fill:none;stroke:#000000;stroke-width:0.26458332px;stroke-linecap:butt;stroke-linejoin:miter;stroke-opacity:1"
       d="M 83.343749,66.623511 101.10863,103.85416"
       id="path28958"
       inkscape:connector-curvature="0" />
    <path
       style="fill:none;stroke:#000000;stroke-width:0.26458332px;stroke-linecap:butt;stroke-linejoin:miter;stroke-opacity:1"
       d="M 122.6664,77.774442 H 82.719917"
       id="path29588"
       inkscape:connector-curvature="0" />
    <path
       style="fill:none;stroke:#000000;stroke-width:0.26458332px;stroke-linecap:butt;stroke-linejoin:miter;stroke-opacity:1"
       d="M 93.677969,59.301557 82.719917,77.774442"
       id="path29590"
       inkscape:connector-curvature="0" />
    <path
       style="fill:none;stroke:#000000;stroke-width:0.26499999;stroke-linecap:butt;stroke-linejoin:miter;stroke-opacity:1;stroke-miterlimit:4;stroke-dasharray:none;stroke-dashoffset:0"
       d="M 113.85191,59.301557 101.95908,77.679314"
       id="path29623"
       inkscape:connector-curvature="0" />
    <path
       style="fill:none;stroke:#000000;stroke-width:0.26458332px;stroke-linecap:butt;stroke-linejoin:miter;stroke-opacity:1"
       d="m 101.86459,77.679314 0.004,-18.482376"
       id="path29642"
       inkscape:connector-curvature="0" />
    <path
       style="fill:#e6e6e6;fill-opacity:0.99958987;stroke:#e6e6e6;stroke-width:0.21588799;stroke-miterlimit:4;stroke-dasharray:none;stroke-dashoffset:0;stroke-opacity:1"
       d="m 370.27248,258.63447 c -4.2908,-9.52244 -7.76236,-17.35261 -7.71459,-17.40039 0.1082,-0.1082 3.43191,-0.88691 3.49903,-0.81979 0.14066,0.14067 12.1677,35.38301 12.09861,35.4521 -0.0449,0.0449 -3.59225,-7.70949 -7.88305,-17.23192 z"
       id="path857"
       inkscape:connector-curvature="0"
       transform="scale(0.26458333)" />
    <path
       style="fill:none;stroke:#000000;stroke-width:0.26458332;stroke-linecap:butt;stroke-linejoin:miter;stroke-opacity:1;stroke-miterlimit:4;stroke-dasharray:none;stroke-dashoffset:0"
       d="m 95.580728,59.394716 6.283862,18.284598"
       id="path29659"
       inkscape:connector-curvature="0" />
    <path
       style="fill:none;stroke:#000000;stroke-width:0.26458332px;stroke-linecap:butt;stroke-linejoin:miter;stroke-opacity:1"
       d="M 83.343749,66.623511 143.25298,52.449401"
       id="path29569"
       inkscape:connector-curvature="0" />
    <path
       style="fill:none;stroke:#000000;stroke-width:0.26458332px;stroke-linecap:butt;stroke-linejoin:miter;stroke-opacity:1"
       d="M 113.85191,59.301557 H 93.677969"
       id="path29586"
       inkscape:connector-curvature="0" />
    <path
       style="fill:none;stroke:#000000;stroke-width:0.26458332;stroke-linecap:butt;stroke-linejoin:miter;stroke-opacity:1;stroke-miterlimit:4;stroke-dasharray:none;stroke-dashoffset:0"
       d="M 101.95908,77.679314 93.677969,59.301557"
       id="path29625"
       inkscape:connector-curvature="0" />
  </g>
</svg>
