<?xml version="1.0" encoding="UTF-8" standalone="no"?>
<!-- Created with Inkscape (http://www.inkscape.org/) -->

<svg
   xmlns:dc="http://purl.org/dc/elements/1.1/"
   xmlns:cc="http://creativecommons.org/ns#"
   xmlns:rdf="http://www.w3.org/1999/02/22-rdf-syntax-ns#"
   xmlns:svg="http://www.w3.org/2000/svg"
   xmlns="http://www.w3.org/2000/svg"
   xmlns:sodipodi="http://sodipodi.sourceforge.net/DTD/sodipodi-0.dtd"
   xmlns:inkscape="http://www.inkscape.org/namespaces/inkscape"
   width="210mm"
   height="297mm"
   viewBox="0 0 210 297"
   version="1.1"
   id="svg1258"
   inkscape:version="0.92.5 (2060ec1f9f, 2020-04-08)"
   sodipodi:docname="RelativelyRegular2.svg">
  <defs
     id="defs1252">
    <marker
       inkscape:isstock="true"
       style="overflow:visible;"
       id="marker1279"
       refX="0.0"
       refY="0.0"
       orient="auto"
       inkscape:stockid="Arrow2Mend">
      <path
         transform="scale(0.6) rotate(180) translate(0,0)"
         d="M 8.7185878,4.0337352 L -2.2072895,0.016013256 L 8.7185884,-4.0017078 C 6.9730900,-1.6296469 6.9831476,1.6157441 8.7185878,4.0337352 z "
         style="fill-rule:evenodd;stroke-width:0.625;stroke-linejoin:round;stroke:#0000ff;stroke-opacity:1;fill:#0000ff;fill-opacity:1"
         id="path1277" />
    </marker>
    <marker
       inkscape:stockid="Arrow1Lend"
       orient="auto"
       refY="0.0"
       refX="0.0"
       id="Arrow1Lend"
       style="overflow:visible;"
       inkscape:isstock="true">
      <path
         id="path868"
         d="M 0.0,0.0 L 5.0,-5.0 L -12.5,0.0 L 5.0,5.0 L 0.0,0.0 z "
         style="fill-rule:evenodd;stroke:#000000;stroke-width:1pt;stroke-opacity:1;fill:#000000;fill-opacity:1"
         transform="scale(0.8) rotate(180) translate(12.5,0)" />
    </marker>
  </defs>
  <sodipodi:namedview
     id="base"
     pagecolor="#ffffff"
     bordercolor="#666666"
     borderopacity="1.0"
     inkscape:pageopacity="0.0"
     inkscape:pageshadow="2"
     inkscape:zoom="1.6376704"
     inkscape:cx="501.50789"
     inkscape:cy="460.98874"
     inkscape:document-units="mm"
     inkscape:current-layer="layer1"
     showgrid="false"
     inkscape:window-width="1920"
     inkscape:window-height="1015"
     inkscape:window-x="0"
     inkscape:window-y="0"
     inkscape:window-maximized="1"
     showguides="true"
     inkscape:guide-bbox="true" />
  <metadata
     id="metadata1255">
    <rdf:RDF>
      <cc:Work
         rdf:about="">
        <dc:format>image/svg+xml</dc:format>
        <dc:type
           rdf:resource="http://purl.org/dc/dcmitype/StillImage" />
        <dc:title></dc:title>
      </cc:Work>
    </rdf:RDF>
  </metadata>
  <g
     inkscape:label="Ebene 1"
     inkscape:groupmode="layer"
     id="layer1">
    <path
       style="fill:none;stroke:#000000;stroke-width:0.26458332px;stroke-linecap:butt;stroke-linejoin:miter;stroke-opacity:1"
       d="M 82.398808,216.49107 H 132.48065"
       id="path958"
       inkscape:connector-curvature="0" />
    <path
       style="fill:none;stroke:#000000;stroke-width:0.26458332px;stroke-linecap:butt;stroke-linejoin:miter;stroke-opacity:1"
       d="m 82.398808,216.49107 25.135412,43.27827"
       id="path960"
       inkscape:connector-curvature="0" />
    <path
       style="fill:none;stroke:#000000;stroke-width:0.26458332px;stroke-linecap:butt;stroke-linejoin:miter;stroke-opacity:1"
       d="m 132.48065,216.49107 -24.94643,43.27827"
       id="path962"
       inkscape:connector-curvature="0" />
    <path
       style="fill:none;stroke:#000000;stroke-width:0.26458332px;stroke-linecap:butt;stroke-linejoin:miter;stroke-opacity:1"
       d="M 107.53422,259.76934 150.8125,214.97917"
       id="path964"
       inkscape:connector-curvature="0" />
    <path
       style="fill:none;stroke:#000000;stroke-width:0.26458332px;stroke-linecap:butt;stroke-linejoin:miter;stroke-opacity:1"
       d="m 150.8125,171.88988 22.86756,3.02381"
       id="path1036"
       inkscape:connector-curvature="0" />
    <path
       style="fill:none;stroke:#000000;stroke-width:0.26458332px;stroke-linecap:butt;stroke-linejoin:miter;stroke-opacity:1"
       d="M 82.398808,216.49107 127.75595,175.48065"
       id="path1042"
       inkscape:connector-curvature="0" />
    <path
       style="fill:none;stroke:#ff0000;stroke-width:0.35;stroke-linecap:butt;stroke-linejoin:miter;stroke-opacity:1;stroke-miterlimit:4;stroke-dasharray:0.35,0.35;stroke-dashoffset:0"
       d="m 107.44235,216.2846 -13.497112,20.31248 26.726952,0.26727 z"
       id="path1048"
       inkscape:connector-curvature="0" />
    <path
       style="fill:none;stroke:#ff0000;stroke-width:0.35;stroke-linecap:butt;stroke-linejoin:miter;stroke-opacity:1;stroke-miterlimit:4;stroke-dasharray:none;stroke-dashoffset:0"
       d="m 150.8125,171.88988 -13.49711,20.31248 26.72695,0.26727 z"
       id="path1048-3"
       inkscape:connector-curvature="0" />
    <path
       style="fill:none;stroke:#000000;stroke-width:0.2;stroke-linecap:butt;stroke-linejoin:miter;stroke-opacity:1;stroke-miterlimit:4;stroke-dasharray:none"
       d="m 114.6595,171.78423 h 70.11458"
       id="path958-9"
       inkscape:connector-curvature="0" />
    <text
       xml:space="preserve"
       style="font-style:normal;font-weight:normal;font-size:1.76388884px;line-height:1.25;font-family:sans-serif;letter-spacing:0px;word-spacing:0px;fill:#000000;fill-opacity:1;stroke:none;stroke-width:0.26458332"
       x="174.46017"
       y="170.31425"
       id="text1356"><tspan
         sodipodi:role="line"
         id="tspan1354"
         x="174.46017"
         y="170.31425"
         style="stroke-width:0.26458332">$H_3\cap V^2$</tspan></text>
    <text
       xml:space="preserve"
       style="font-style:normal;font-weight:normal;font-size:1.76388884px;line-height:1.25;font-family:sans-serif;letter-spacing:0px;word-spacing:0px;fill:#000000;fill-opacity:1;stroke:none;stroke-width:0.26458332"
       x="152.42215"
       y="169.25084"
       id="text1364"><tspan
         sodipodi:role="line"
         id="tspan1362"
         x="152.42215"
         y="169.25084"
         style="stroke-width:0.26458332">$q_3^2$</tspan></text>
    <text
       xml:space="preserve"
       style="font-style:normal;font-weight:normal;font-size:1.76388884px;line-height:1.25;font-family:sans-serif;letter-spacing:0px;word-spacing:0px;fill:#000000;fill-opacity:1;stroke:none;stroke-width:0.26458332"
       x="165.23462"
       y="194.293"
       id="text1372"><tspan
         sodipodi:role="line"
         id="tspan1370"
         x="165.23462"
         y="194.293"
         style="stroke-width:0.26458332">$q_{2}^2$</tspan></text>
    <circle
       style="fill:#000000;fill-opacity:1;stroke:#000000;stroke-width:0.26458332;stroke-miterlimit:4;stroke-dasharray:none;stroke-dashoffset:0;stroke-opacity:1"
       id="path2067-2-7-4"
       cx="93.945236"
       cy="236.49687"
       r="0.51971728" />
    <circle
       style="fill:#000000;fill-opacity:1;stroke:#000000;stroke-width:0.26458332;stroke-miterlimit:4;stroke-dasharray:none;stroke-dashoffset:0;stroke-opacity:1"
       id="path2067-2-7-46"
       cx="107.37553"
       cy="216.51846"
       r="0.51971728" />
    <circle
       style="fill:#000000;fill-opacity:1;stroke:#000000;stroke-width:0.26458332;stroke-miterlimit:4;stroke-dasharray:none;stroke-dashoffset:0;stroke-opacity:1"
       id="path2067-2-7-9"
       cx="150.70358"
       cy="171.74345"
       r="0.51971728" />
    <circle
       style="fill:#000000;fill-opacity:1;stroke:#000000;stroke-width:0.26458332;stroke-miterlimit:4;stroke-dasharray:none;stroke-dashoffset:0;stroke-opacity:1"
       id="path2067-2-7-3"
       cx="120.63878"
       cy="236.83095"
       r="0.51971728" />
    <circle
       style="fill:#000000;fill-opacity:1;stroke:#000000;stroke-width:0.26458332;stroke-miterlimit:4;stroke-dasharray:none;stroke-dashoffset:0;stroke-opacity:1"
       id="path2067-2-7-8-8"
       cx="137.44159"
       cy="191.99348"
       r="0.51971728" />
    <path
       style="fill:#cccccc;fill-opacity:1;stroke:#cccccc;stroke-width:0.05905512;stroke-miterlimit:4;stroke-dasharray:none;stroke-dashoffset:0;stroke-opacity:1"
       d=""
       id="path2618"
       inkscape:connector-curvature="0"
       transform="scale(0.26458333)" />
    <circle
       style="fill:#000000;fill-opacity:1;stroke:#000000;stroke-width:0.26458332;stroke-miterlimit:4;stroke-dasharray:none;stroke-dashoffset:0;stroke-opacity:1"
       id="path2067-2-7-2"
       cx="163.80544"
       cy="192.20612"
       r="0.51971728" />
    <path
       style="fill:none;stroke:#ff0000;stroke-width:0.26458332;stroke-linecap:butt;stroke-linejoin:miter;stroke-opacity:1;stroke-miterlimit:4;stroke-dasharray:0.26458332, 0.26458332000000001;stroke-dashoffset:0"
       d="M 137.31539,192.20236 93.945238,236.59708"
       id="path944"
       inkscape:connector-curvature="0" />
    <path
       style="fill:none;stroke:#ff0000;stroke-width:0.34999999;stroke-linecap:butt;stroke-linejoin:miter;stroke-miterlimit:4;stroke-dasharray:0.35, 0.35;stroke-dashoffset:0;stroke-opacity:1"
       d="m 129.35926,193.6375 -13.49711,20.31248 26.72695,0.26727 z"
       id="path1048-9"
       inkscape:connector-curvature="0" />
    <circle
       style="fill:#000000;fill-opacity:1;stroke:#000000;stroke-width:0.26458332;stroke-miterlimit:4;stroke-dasharray:none;stroke-dashoffset:0;stroke-opacity:1"
       id="path2067-2-7-3-4"
       cx="142.65511"
       cy="214.14644"
       r="0.51971728" />
    <circle
       style="fill:#000000;fill-opacity:1;stroke:#000000;stroke-width:0.26458332;stroke-miterlimit:4;stroke-dasharray:none;stroke-dashoffset:0;stroke-opacity:1"
       id="path2067-2-7-3-7"
       cx="116.0618"
       cy="213.87918"
       r="0.51971728" />
    <circle
       style="fill:#000000;fill-opacity:1;stroke:#000000;stroke-width:0.26458332;stroke-miterlimit:4;stroke-dasharray:none;stroke-dashoffset:0;stroke-opacity:1"
       id="path2067-2-7-3-9"
       cx="129.35844"
       cy="193.63351"
       r="0.51971728" />
    <path
       style="fill:#cccccc;fill-opacity:1;stroke:#cccccc;stroke-width:0.06749156;stroke-miterlimit:4;stroke-dasharray:none;stroke-dashoffset:0;stroke-opacity:1"
       d="m 492.8717,678.60345 c -4.77565,-8.23126 -8.6668,-14.98212 -8.64702,-15.0019 0.0519,-0.0519 83.02578,-12.97337 83.13865,-12.94716 0.086,0.02 -65.51265,42.83077 -65.71937,42.88959 -0.0491,0.014 -3.99662,-6.70927 -8.77226,-14.94053 z"
       id="path1032"
       inkscape:connector-curvature="0"
       transform="scale(0.26458333)" />
    <path
       style="fill:#cccccc;fill-opacity:1;stroke:#cccccc;stroke-width:0.06749156;stroke-miterlimit:4;stroke-dasharray:none;stroke-dashoffset:0;stroke-opacity:1"
       d="m 515.03513,716.74774 c -2.05333,-3.53571 -3.73319,-6.48884 -3.73301,-6.5625 1.8e-4,-0.0737 -0.0616,-0.17952 -0.13718,-0.23524 -0.0756,-0.0557 -2.13234,-3.53117 -4.57047,-7.72321 -3.25508,-5.59669 -4.40682,-7.64878 -4.33459,-7.72304 0.0799,-0.0821 61.584,-40.18647 62.01087,-40.43477 0.0922,-0.0536 0.11242,-0.0363 0.0742,0.0633 -0.0335,0.0874 0.0838,0.27089 0.32345,0.50613 l 0.37604,0.36906 0.33102,-0.33899 c 0.18207,-0.18645 0.33103,-0.37579 0.33103,-0.42076 0,-0.045 -0.14242,-0.2276 -0.31647,-0.40585 l -0.31647,-0.32409 0.37107,-0.24557 0.37108,-0.24556 0.28457,0.27582 c 0.23039,0.2233 0.30712,0.25455 0.40298,0.16411 0.0949,-0.0895 0.11163,-0.0892 0.0843,0.002 -0.0188,0.0624 -10.44008,15.77423 -23.15848,34.91513 l -23.12437,34.80163 -0.76811,-0.004 -0.76811,-0.004 -3.73333,-6.42857 z m -2.65881,-7.65144 c 0.16194,-0.15696 0.29443,-0.32961 0.29443,-0.38367 0,-0.0541 -0.16414,-0.25711 -0.36476,-0.45123 l -0.36476,-0.35294 -0.34745,0.40014 -0.34745,0.40015 0.32854,0.33646 c 0.1807,0.18505 0.36871,0.33646 0.41779,0.33646 0.0491,0 0.22173,-0.12842 0.38366,-0.28537 z m 1.41193,-1.50181 0.35017,-0.3586 -0.37669,-0.37669 -0.37669,-0.37669 -0.37669,0.37669 -0.37669,0.37669 0.35016,0.3586 c 0.1926,0.19724 0.37404,0.35861 0.40322,0.35861 0.0292,0 0.21062,-0.16137 0.40321,-0.35861 z m 1.42406,-1.42395 0.34566,-0.35399 -0.3945,-0.35337 -0.3945,-0.35338 -0.37945,0.3688 -0.37945,0.36879 0.3306,0.33857 c 0.18184,0.18621 0.37457,0.33857 0.4283,0.33857 0.0537,0 0.25323,-0.1593 0.44334,-0.35399 z m 1.3438,-1.43319 0.35016,-0.3586 -0.37669,-0.37669 -0.37669,-0.37669 -0.37669,0.37669 -0.37669,0.37669 0.35017,0.3586 c 0.19259,0.19723 0.37404,0.35861 0.40321,0.35861 0.0292,0 0.21062,-0.16138 0.40322,-0.35861 z m 1.42857,-1.42857 0.35017,-0.3586 -0.37669,-0.37669 -0.37669,-0.37669 -0.37669,0.37669 -0.3767,0.37669 0.35017,0.3586 c 0.19259,0.19723 0.37404,0.3586 0.40322,0.3586 0.0292,0 0.21062,-0.16137 0.40321,-0.3586 z m 1.4358,-1.47717 0.29905,-0.36256 -0.40841,-0.34139 -0.40841,-0.34139 -0.36767,0.36767 -0.36767,0.36767 0.35268,0.36117 c 0.19398,0.19865 0.40864,0.34998 0.47703,0.33628 0.0684,-0.0137 0.25893,-0.18804 0.4234,-0.38745 z m 1.33205,-1.37997 0.35017,-0.35861 -0.37669,-0.37669 -0.37669,-0.37669 -0.37669,0.37669 -0.37669,0.37669 0.35017,0.35861 c 0.19259,0.19723 0.37404,0.3586 0.40321,0.3586 0.0292,0 0.21062,-0.16137 0.40321,-0.3586 z m 1.42715,-1.42711 0.34874,-0.35715 -0.34874,-0.35714 c -0.19181,-0.19643 -0.39413,-0.35714 -0.44961,-0.35714 -0.0555,0 -0.23284,0.16423 -0.39415,0.36496 l -0.29329,0.36496 0.34111,0.34932 c 0.18761,0.19213 0.36498,0.34933 0.39415,0.34933 0.0292,0 0.20998,-0.16071 0.40179,-0.35714 z m 1.3132,-1.40205 c 0.18622,-0.18184 0.33859,-0.37601 0.33859,-0.43149 0,-0.0555 -0.16491,-0.23338 -0.36646,-0.39536 l -0.36646,-0.29449 -0.36738,0.36738 -0.36737,0.36737 0.35017,0.3586 c 0.19259,0.19724 0.37045,0.35861 0.39524,0.35861 0.0248,0 0.19745,-0.14878 0.38367,-0.33062 z m 1.45608,-1.45656 0.35017,-0.3586 -0.37669,-0.37669 -0.37669,-0.37669 -0.37669,0.37669 -0.37669,0.37669 0.35017,0.3586 c 0.19259,0.19724 0.37404,0.35861 0.40321,0.35861 0.0292,0 0.21062,-0.16137 0.40321,-0.35861 z m 1.40901,-2.15997 c -0.18183,-0.18621 -0.37098,-0.33857 -0.42033,-0.33857 -0.0493,0 -0.24227,0.14896 -0.42871,0.33103 l -0.339,0.33102 0.37631,0.38344 0.37632,0.38344 0.38301,-0.3759 0.38301,-0.37589 z m 1.35127,-0.68941 c 0.3913,-0.40073 0.38115,-0.50644 -0.0826,-0.86017 l -0.32483,-0.24776 -0.37079,0.37078 -0.37078,0.37079 0.35017,0.3586 c 0.19259,0.19723 0.37403,0.3586 0.40321,0.3586 0.0292,0 0.20721,-0.15787 0.39563,-0.35084 z m 1.43292,-1.44463 0.33148,-0.36691 -0.33921,-0.34738 c -0.18656,-0.19106 -0.37936,-0.34738 -0.42844,-0.34738 -0.11831,0 -0.6781,0.54574 -0.6781,0.66107 0,0.10102 0.62699,0.7675 0.72202,0.7675 0.0334,0 0.20994,-0.1651 0.39225,-0.3669 z m 1.36715,-2.19668 -0.37608,-0.3832 -0.3832,0.37608 -0.3832,0.37609 0.37608,0.38319 0.37608,0.3832 0.3832,-0.37608 0.3832,-0.37608 z m 1.37643,-0.62418 c 0.18622,-0.18184 0.33858,-0.3796 0.33858,-0.43947 0,-0.14317 -0.73359,-0.76936 -0.79853,-0.68163 -0.0276,0.0373 -0.18866,0.2186 -0.35792,0.40292 l -0.30775,0.33514 0.34843,0.35683 c 0.19164,0.19626 0.36873,0.35683 0.39352,0.35683 0.0248,0 0.19744,-0.14878 0.38367,-0.33062 z m 1.39142,-2.23296 -0.37608,-0.3832 -0.3832,0.37608 -0.3832,0.37608 0.37609,0.3832 0.37608,0.3832 0.3832,-0.37608 0.3832,-0.37608 z m 1.71502,-1.04453 c 0,-0.0493 -0.14896,-0.24227 -0.33102,-0.42872 l -0.33103,-0.33899 -0.38343,0.37631 -0.38344,0.37632 0.37589,0.38301 0.37589,0.383 0.33857,-0.3306 c 0.18621,-0.18183 0.33857,-0.37098 0.33857,-0.42033 z m 1.42476,-1.49311 c 0.002,-0.0311 -0.1613,-0.20574 -0.36309,-0.38805 l -0.36691,-0.33148 -0.34738,0.33921 c -0.19106,0.18657 -0.34738,0.38665 -0.34738,0.44463 0,0.058 0.1658,0.25521 0.36844,0.43828 l 0.36844,0.33286 0.34204,-0.38944 c 0.18812,-0.21419 0.34375,-0.41489 0.34584,-0.44601 z m 1.05665,-1.74808 -0.37608,-0.38319 -0.3832,0.37608 -0.3832,0.37608 0.37608,0.3832 0.37609,0.3832 0.3832,-0.37608 0.38319,-0.37609 z m 1.71502,-1.05249 c 0,-0.0537 -0.16407,-0.25651 -0.3646,-0.45062 l -0.3646,-0.35295 -0.35316,0.39487 -0.35317,0.39486 0.3792,0.38637 0.37919,0.38637 0.33857,-0.3306 c 0.18621,-0.18184 0.33857,-0.37457 0.33857,-0.4283 z m 1.1175,-1.11753 0.35016,-0.3586 -0.37523,-0.37523 -0.37522,-0.37523 -0.35861,0.35017 c -0.19723,0.19259 -0.3586,0.39812 -0.3586,0.45672 0,0.11151 0.58126,0.66078 0.69927,0.66078 0.0374,0 0.22563,-0.16138 0.41823,-0.35861 z m 1.40147,-1.40099 0.33899,-0.33102 -0.37631,-0.38344 -0.37632,-0.38344 -0.38301,0.37589 -0.383,0.3759 0.3306,0.33857 c 0.18183,0.18621 0.37098,0.33856 0.42033,0.33856 0.0493,0 0.24227,-0.14896 0.42872,-0.33102 z m 1.36638,-1.45615 0.35017,-0.3586 -0.37669,-0.3767 -0.37669,-0.37669 -0.37669,0.37669 -0.37669,0.3767 0.35017,0.3586 c 0.19259,0.19723 0.37404,0.3586 0.40321,0.3586 0.0292,0 0.21062,-0.16137 0.40321,-0.3586 z m 1.42857,-1.42857 0.35017,-0.35861 -0.37523,-0.37522 -0.37523,-0.37523 -0.3586,0.35016 c -0.19723,0.1926 -0.3586,0.39936 -0.3586,0.45948 0,0.10229 0.60513,0.65802 0.71651,0.65802 0.028,0 0.20839,-0.16137 0.40098,-0.3586 z m 1.38848,-1.43465 0.28883,-0.36468 -0.37062,-0.37061 -0.37061,-0.37062 -0.37669,0.37669 -0.37669,0.37669 0.35017,0.35861 c 0.19259,0.19723 0.3989,0.3586 0.45847,0.3586 0.0596,0 0.23828,-0.16411 0.39714,-0.36468 z m 1.37938,-1.4225 0.35017,-0.3586 -0.37669,-0.37669 -0.37669,-0.37669 -0.37669,0.37669 -0.37669,0.37669 0.35017,0.3586 c 0.19259,0.19724 0.37403,0.35861 0.40321,0.35861 0.0292,0 0.21062,-0.16137 0.40321,-0.35861 z m 1.42715,-1.42711 0.34874,-0.35714 -0.34874,-0.35714 c -0.19181,-0.19643 -0.39602,-0.35714 -0.4538,-0.35714 -0.0578,0 -0.24958,0.17637 -0.42622,0.39194 l -0.32117,0.39195 0.37738,0.31833 c 0.20756,0.17508 0.39936,0.32013 0.42622,0.32233 0.0269,0.002 0.20578,-0.1567 0.39759,-0.35313 z m 1.34071,-1.43003 0.35017,-0.3586 -0.37669,-0.37669 -0.37669,-0.37669 -0.37669,0.37669 -0.37669,0.37669 0.35016,0.3586 c 0.1926,0.19723 0.37404,0.35861 0.40322,0.35861 0.0292,0 0.21062,-0.16138 0.40321,-0.35861 z m 1.42857,-1.42857 0.35017,-0.3586 -0.37669,-0.37669 -0.37669,-0.37669 -0.37669,0.37669 -0.37669,0.37669 0.35017,0.3586 c 0.19259,0.19723 0.37403,0.3586 0.40321,0.3586 0.0292,0 0.21062,-0.16137 0.40321,-0.3586 z m 1.40901,-2.15997 c -0.18183,-0.18621 -0.37456,-0.33857 -0.42829,-0.33857 -0.0537,0 -0.25565,0.16176 -0.4487,0.35947 l -0.35101,0.35947 0.39985,0.34773 0.39986,0.34772 0.37944,-0.36862 0.37945,-0.36863 z m 1.35885,-0.69717 0.35017,-0.35861 -0.37669,-0.37669 -0.37669,-0.37669 -0.37669,0.37669 -0.3767,0.37669 0.35017,0.35861 c 0.19259,0.19723 0.37404,0.3586 0.40322,0.3586 0.0292,0 0.21062,-0.16137 0.40321,-0.3586 z m 1.42132,-1.44451 0.32059,-0.37454 -0.33175,-0.33974 c -0.18247,-0.18687 -0.37191,-0.33975 -0.42099,-0.33975 -0.11831,0 -0.6781,0.54574 -0.6781,0.66107 0,0.10315 0.62795,0.7675 0.72545,0.7675 0.0353,0 0.20847,-0.16854 0.3848,-0.37454 z m 1.41626,-2.14403 c -0.18183,-0.18622 -0.37457,-0.33857 -0.42829,-0.33857 -0.0537,0 -0.25324,0.15929 -0.44335,0.35398 l -0.34566,0.35399 0.3945,0.35338 0.39451,0.35337 0.37944,-0.36879 0.37945,-0.36879 z m 1.35892,-0.69725 0.35023,-0.35867 -0.40147,-0.40147 -0.40148,-0.40148 -0.34318,0.41055 -0.34318,0.41055 0.34138,0.3496 c 0.18775,0.19228 0.36524,0.3496 0.39441,0.3496 0.0292,0 0.21065,-0.16141 0.40329,-0.35868 z m 1.36384,-2.2049 -0.37608,-0.3832 -0.3832,0.37608 -0.3832,0.37608 0.37608,0.3832 0.37608,0.3832 0.3832,-0.37608 0.3832,-0.37609 z m 1.71502,-1.05249 c 0,-0.0537 -0.15236,-0.24646 -0.33857,-0.4283 l -0.33857,-0.3306 -0.38377,0.39103 -0.38377,0.39104 0.38752,0.3628 0.38751,0.36281 0.33483,-0.32555 c 0.18415,-0.17905 0.33482,-0.36951 0.33482,-0.42323 z m 1.10326,-1.08674 0.33342,-0.37246 -0.38352,-0.35908 -0.38352,-0.35908 -0.33482,0.32555 c -0.18415,0.17905 -0.33482,0.36592 -0.33482,0.41527 0,0.10987 0.6423,0.77822 0.71656,0.74563 0.0293,-0.0129 0.20331,-0.19098 0.3867,-0.39583 z m 1.37815,-2.14649 -0.37608,-0.3832 -0.3832,0.37608 -0.3832,0.37609 0.37608,0.38319 0.37608,0.3832 0.3832,-0.37608 0.3832,-0.37608 z"
       id="path1035"
       inkscape:connector-curvature="0"
       transform="scale(0.26458333)" />
    <path
       style="fill:#cccccc;fill-opacity:1;stroke:#cccccc;stroke-width:0.06749156;stroke-miterlimit:4;stroke-dasharray:none;stroke-dashoffset:0;stroke-opacity:1"
       d="m 526.82254,725.80861 c -2.65179,-0.0283 -4.82625,-0.0596 -4.83214,-0.0696 -0.006,-0.01 -0.0313,-0.2008 -0.0565,-0.4241 -0.0252,-0.22329 -0.14871,-0.60441 -0.27453,-0.84693 l -0.22877,-0.44094 19.57095,-29.46265 19.57096,-29.46265 1.23723,-0.003 c 1.14101,-0.003 1.23283,0.009 1.18068,0.15334 -0.0311,0.0859 -5.64915,13.76674 -12.48455,30.40178 l -12.42802,30.24554 -3.21696,-0.0197 c -1.76932,-0.0109 -5.3866,-0.0429 -8.03838,-0.0712 z"
       id="path1037"
       inkscape:connector-curvature="0"
       transform="scale(0.26458333)" />
    <path
       style="fill:#cccccc;fill-opacity:1;stroke:#cccccc;stroke-width:0.06749156;stroke-miterlimit:4;stroke-dasharray:none;stroke-dashoffset:0;stroke-opacity:1"
       d="m 530.37485,743.15901 c -0.19686,-0.33423 -2.33716,-4.01653 -4.75622,-8.18287 -3.80335,-6.55052 -4.38111,-7.59236 -4.27127,-7.7022 0.10933,-0.10933 1.23907,-0.11422 8.10745,-0.0352 4.38923,0.0505 7.99022,0.10169 8.0022,0.11367 0.012,0.012 -0.055,0.20224 -0.14885,0.42281 -0.0939,0.22058 -1.61171,3.90888 -3.37301,8.19624 l -3.20237,7.79521 z"
       id="path1039"
       inkscape:connector-curvature="0"
       transform="scale(0.26458333)" />
    <path
       style="fill:#cccccc;fill-opacity:1;stroke:#cccccc;stroke-width:0.06749156;stroke-miterlimit:4;stroke-dasharray:none;stroke-dashoffset:0;stroke-opacity:1"
       d="m 546.48391,770.88934 c -0.1568,-0.24663 -14.8047,-25.47519 -14.95639,-25.75987 -0.087,-0.16332 0.40032,-1.40919 3.50373,-8.95736 1.98265,-4.82221 3.62418,-8.78703 3.64786,-8.81071 0.0237,-0.0237 3.73394,-0.002 8.24503,0.0486 4.51108,0.0504 15.0725,0.15471 23.46983,0.23171 8.39732,0.077 16.11951,0.16851 17.16044,0.20335 l 1.89258,0.0634 -18.66046,18.83928 c -10.26326,10.36161 -19.89948,20.08024 -21.41383,21.59696 -2.74358,2.74787 -2.75384,2.75691 -2.88879,2.54464 z"
       id="path1041"
       inkscape:connector-curvature="0"
       transform="scale(0.26458333)" />
    <path
       style="fill:#cccccc;fill-opacity:1;stroke:#cccccc;stroke-width:0.06749156;stroke-miterlimit:4;stroke-dasharray:none;stroke-dashoffset:0;stroke-opacity:1"
       d="m 569.93006,811.239 c -0.12134,-0.15382 -11.43856,-19.65509 -11.50115,-19.81822 -0.0271,-0.0707 0.071,-0.24073 0.22282,-0.38621 l 0.27128,-0.25991 -0.37589,-0.383 -0.37589,-0.38301 -0.19065,0.1791 -0.19064,0.17909 -5.29069,-9.11229 -5.2907,-9.1123 1.45878,-1.51147 c 0.80233,-0.8313 10.65967,-10.79642 21.90521,-22.1447 l 20.44643,-20.63324 5.40178,0.0539 c 2.97098,0.0297 8.87657,0.0926 13.12352,0.13997 l 7.72174,0.086 0.22469,0.22583 0.22469,0.22582 -0.3039,0.55488 c -0.16715,0.30518 -0.52876,0.76222 -0.80357,1.01564 -0.45542,0.41997 -0.48964,0.47741 -0.38646,0.64867 0.093,0.15441 0.0896,0.23141 -0.0191,0.43208 -0.28361,0.52363 -0.28804,0.52608 -0.5339,0.29511 l -0.22594,-0.21226 -0.35203,0.39317 -0.35203,0.39317 0.30173,0.3125 0.30173,0.3125 -22.41302,38.88393 c -12.32717,21.38616 -22.52421,39.07687 -22.6601,39.31269 -0.18867,0.32742 -0.26875,0.40128 -0.33878,0.3125 z m -9.94113,-21.59879 0.29449,-0.36646 -0.36883,-0.36883 -0.36884,-0.36884 -0.37669,0.37669 -0.37669,0.37669 0.35017,0.35861 c 0.19259,0.19723 0.39555,0.3586 0.45103,0.3586 0.0555,0 0.23339,-0.16491 0.39536,-0.36646 z m 1.3886,-1.42072 0.35017,-0.3586 -0.37523,-0.37523 -0.37523,-0.37523 -0.3586,0.35017 c -0.19723,0.19259 -0.3586,0.39032 -0.3586,0.4394 0,0.12283 0.54784,0.6781 0.66903,0.6781 0.0541,0 0.25587,-0.16137 0.44846,-0.35861 z m 1.40148,-1.40098 0.33899,-0.33103 -0.37631,-0.38344 -0.37632,-0.38344 -0.38301,0.3759 -0.383,0.37589 0.3306,0.33857 c 0.18183,0.18621 0.37098,0.33857 0.42033,0.33857 0.0493,0 0.24227,-0.14896 0.42872,-0.33102 z m 1.36638,-1.45616 0.35017,-0.3586 -0.37669,-0.37669 -0.37669,-0.37669 -0.37669,0.37669 -0.37669,0.37669 0.35017,0.3586 c 0.19259,0.19723 0.37403,0.35861 0.40321,0.35861 0.0292,0 0.21062,-0.16138 0.40321,-0.35861 z m 1.42857,-1.42857 0.35017,-0.3586 -0.37523,-0.37523 -0.37523,-0.37523 -0.3586,0.35017 c -0.19723,0.19259 -0.3586,0.39812 -0.3586,0.45672 0,0.11151 0.58126,0.66077 0.69927,0.66077 0.0374,0 0.22563,-0.16137 0.41822,-0.3586 z m 1.40901,-1.40854 0.33061,-0.33857 -0.40745,-0.39803 -0.40745,-0.39804 -0.34588,0.40178 -0.34589,0.40179 0.32504,0.33482 c 0.17877,0.18415 0.369,0.33482 0.42273,0.33482 0.0537,0 0.24646,-0.15235 0.42829,-0.33857 z m 1.35885,-1.4486 0.35017,-0.35861 -0.37669,-0.37669 -0.37669,-0.37669 -0.37669,0.37669 -0.37669,0.37669 0.35017,0.35861 c 0.19259,0.19723 0.37403,0.3586 0.40321,0.3586 0.0292,0 0.21062,-0.16137 0.40321,-0.3586 z m 1.42857,-1.42857 0.35017,-0.35861 -0.37523,-0.37523 -0.37523,-0.37523 -0.3586,0.35017 c -0.19723,0.19259 -0.35861,0.39936 -0.35861,0.45948 0,0.10228 0.60514,0.65802 0.71651,0.65802 0.0279,0 0.2084,-0.16137 0.40099,-0.3586 z m 1.4132,-1.45242 0.27321,-0.3378 -0.37517,-0.37517 -0.37516,-0.37517 -0.37669,0.37669 -0.3767,0.37669 0.35269,0.36118 c 0.19397,0.19865 0.40936,0.34997 0.47864,0.33628 0.0693,-0.0137 0.24892,-0.17691 0.39918,-0.3627 z m 1.35466,-1.40473 0.35017,-0.3586 -0.37669,-0.37669 -0.37669,-0.37669 -0.37669,0.37669 -0.37669,0.37669 0.35016,0.3586 c 0.1926,0.19724 0.37404,0.35861 0.40322,0.35861 0.0292,0 0.21062,-0.16137 0.40321,-0.35861 z m 1.42857,-1.42857 0.35017,-0.3586 -0.37547,-0.37547 -0.37547,-0.37547 -0.40721,0.39925 -0.40721,0.39925 0.38367,0.33216 c 0.21102,0.18269 0.40564,0.33336 0.43251,0.33482 0.0269,10e-4 0.20642,-0.15871 0.39901,-0.35594 z m 1.33929,-1.42857 0.35016,-0.3586 -0.37669,-0.37669 -0.37669,-0.37669 -0.37669,0.37669 -0.37669,0.37669 0.35017,0.3586 c 0.19259,0.19723 0.37404,0.3586 0.40321,0.3586 0.0292,0 0.21062,-0.16137 0.40322,-0.3586 z m 1.42857,-1.42857 0.35017,-0.3586 -0.37669,-0.37669 -0.37669,-0.3767 -0.37669,0.3767 -0.3767,0.37669 0.35017,0.3586 c 0.19259,0.19723 0.37404,0.3586 0.40322,0.3586 0.0292,0 0.21062,-0.16137 0.40321,-0.3586 z m 1.42714,-1.42711 0.34874,-0.35714 -0.34874,-0.35715 c -0.1918,-0.19643 -0.38535,-0.35714 -0.43009,-0.35714 -0.0448,0 -0.23433,0.17076 -0.4213,0.37946 l -0.33993,0.37947 0.37245,0.33101 c 0.20484,0.18206 0.39442,0.33273 0.42129,0.33482 0.0269,0.002 0.20578,-0.1569 0.39758,-0.35333 z m 1.34071,-1.43003 0.35017,-0.35861 -0.37669,-0.37669 -0.37669,-0.37669 -0.37669,0.37669 -0.37669,0.37669 0.35017,0.35861 c 0.19259,0.19723 0.37404,0.3586 0.40321,0.3586 0.0292,0 0.21062,-0.16137 0.40321,-0.3586 z m 1.42858,-1.42858 0.35016,-0.3586 -0.37669,-0.37669 -0.37669,-0.37669 -0.37669,0.37669 -0.37669,0.37669 0.35017,0.3586 c 0.19259,0.19724 0.37404,0.35861 0.40321,0.35861 0.0292,0 0.21062,-0.16137 0.40322,-0.35861 z m 1.42534,-1.43687 0.33148,-0.3669 -0.33921,-0.34738 c -0.18657,-0.19106 -0.38665,-0.34738 -0.44463,-0.34738 -0.058,0 -0.25296,0.16331 -0.43329,0.36291 l -0.32787,0.36291 0.38445,0.34771 c 0.21144,0.19124 0.4099,0.34936 0.44102,0.35138 0.0311,0.002 0.20574,-0.16145 0.38805,-0.36325 z m 1.34251,-1.42027 0.35017,-0.3586 -0.37669,-0.37669 -0.37669,-0.37669 -0.37669,0.37669 -0.37669,0.37669 0.35017,0.3586 c 0.19259,0.19723 0.37404,0.35861 0.40321,0.35861 0.0292,0 0.21062,-0.16138 0.40321,-0.35861 z m 1.42857,-1.42857 0.35017,-0.3586 -0.37669,-0.37669 -0.37669,-0.37669 -0.37669,0.37669 -0.37669,0.37669 0.35017,0.3586 c 0.19259,0.19723 0.37404,0.3586 0.40321,0.3586 0.0292,0 0.21062,-0.16137 0.40321,-0.3586 z m 1.40235,-1.45939 0.32551,-0.38942 -0.33269,-0.32486 c -0.18298,-0.17868 -0.36948,-0.32487 -0.41445,-0.32487 -0.045,0 -0.2343,0.14896 -0.42075,0.33102 l -0.339,0.33103 0.37614,0.38326 c 0.20688,0.21079 0.39945,0.38326 0.42794,0.38326 0.0285,0 0.19827,-0.17524 0.3773,-0.38942 z m 1.36551,-1.39775 0.35017,-0.35861 -0.37669,-0.37669 -0.37669,-0.37669 -0.37669,0.37669 -0.37669,0.37669 0.35017,0.35861 c 0.19259,0.19723 0.37403,0.3586 0.40321,0.3586 0.0292,0 0.21062,-0.16137 0.40321,-0.3586 z m 1.42857,-1.42857 0.35017,-0.35861 -0.37669,-0.37669 -0.37669,-0.37669 -0.37669,0.37669 -0.37669,0.37669 0.35017,0.35861 c 0.19259,0.19723 0.37404,0.3586 0.40321,0.3586 0.0292,0 0.21062,-0.16137 0.40321,-0.3586 z m 1.40901,-2.15997 c -0.18183,-0.18622 -0.37098,-0.33857 -0.42033,-0.33857 -0.0493,0 -0.24227,0.14896 -0.42871,0.33102 l -0.339,0.33102 0.37631,0.38344 0.37632,0.38344 0.38301,-0.37589 0.38301,-0.37589 z m 1.33134,-0.66919 c 0.18622,-0.18184 0.33786,-0.37269 0.33697,-0.42411 -8.9e-4,-0.0514 -0.1655,-0.22962 -0.36582,-0.39599 l -0.36421,-0.30251 -0.36801,0.36801 -0.36801,0.36801 0.35017,0.3586 c 0.19259,0.19724 0.37045,0.35861 0.39524,0.35861 0.0248,0 0.19745,-0.14878 0.38367,-0.33062 z m 1.45608,-1.45656 0.35017,-0.3586 -0.36841,-0.36841 c -0.41917,-0.41917 -0.52259,-0.41251 -0.88049,0.0567 l -0.24656,0.32325 0.34452,0.35282 c 0.18948,0.19405 0.36838,0.35282 0.39756,0.35282 0.0292,0 0.21062,-0.16138 0.40321,-0.35861 z m 1.40901,-2.15997 c -0.18183,-0.18621 -0.37098,-0.33857 -0.42033,-0.33857 -0.0493,0 -0.24227,0.14896 -0.42872,0.33103 l -0.33899,0.33102 0.37631,0.38344 0.37632,0.38344 0.38301,-0.3759 0.383,-0.37589 z m 1.33134,-0.66919 c 0.18622,-0.18184 0.33858,-0.37601 0.33858,-0.43148 0,-0.0555 -0.1649,-0.23339 -0.36646,-0.39536 l -0.36645,-0.29449 -0.36738,0.36737 -0.36737,0.36738 0.35016,0.3586 c 0.1926,0.19723 0.37046,0.3586 0.39525,0.3586 0.0248,0 0.19744,-0.14878 0.38367,-0.33062 z m 1.44319,-1.47741 0.31584,-0.37947 -0.37165,-0.37945 -0.37166,-0.37944 -0.33857,0.3306 c -0.18621,0.18183 -0.33857,0.37098 -0.33857,0.42033 0,0.10244 0.62816,0.76689 0.725,0.76689 0.0351,0 0.20589,-0.17076 0.37961,-0.37946 z m 1.37681,-2.18412 -0.37609,-0.3832 -0.38319,0.37608 -0.3832,0.37608 0.37608,0.3832 0.37608,0.3832 0.3832,-0.37608 0.3832,-0.37608 z m 1.37643,-0.62418 c 0.18622,-0.18184 0.33858,-0.37936 0.33858,-0.43893 0,-0.0596 -0.1641,-0.23828 -0.36468,-0.39713 l -0.36468,-0.28884 -0.36915,0.36916 -0.36916,0.36915 0.35017,0.3586 c 0.19259,0.19724 0.37046,0.35861 0.39525,0.35861 0.0248,0 0.19744,-0.14878 0.38367,-0.33062 z m 1.39161,-2.23277 -0.37589,-0.38301 -0.33857,0.33061 c -0.18621,0.18183 -0.33857,0.37098 -0.33857,0.42032 0,0.0494 0.14896,0.24227 0.33102,0.42872 l 0.33103,0.339 0.38343,-0.37632 0.38344,-0.37631 z m 1.42838,-1.42876 -0.37608,-0.3832 -0.3832,0.37608 -0.3832,0.37608 0.37609,0.3832 0.37608,0.3832 0.3832,-0.37608 0.3832,-0.37608 z m 1.37643,-0.62419 c 0.18623,-0.18184 0.33859,-0.37521 0.33859,-0.42972 0,-0.0545 -0.11049,-0.19903 -0.24554,-0.32117 -0.52585,-0.47558 -0.50494,-0.47489 -0.87032,-0.029 l -0.33575,0.40974 0.34214,0.35038 c 0.18818,0.19271 0.36242,0.35038 0.38722,0.35038 0.0248,0 0.19744,-0.14877 0.38366,-0.33062 z m 1.39143,-2.23296 -0.37608,-0.3832 -0.3832,0.37609 -0.3832,0.37608 0.37608,0.3832 0.37608,0.38319 0.3832,-0.37608 0.3832,-0.37608 z m 1.42857,-1.42857 -0.37608,-0.3832 -0.3832,0.37608 -0.3832,0.37609 0.37608,0.38319 0.37609,0.3832 0.3832,-0.37608 0.38319,-0.37608 z m 1.39213,-0.65096 c 0.17759,-0.19657 0.32289,-0.39279 0.32289,-0.43604 0,-0.0432 -0.16511,-0.2278 -0.36691,-0.41012 l -0.3669,-0.33147 -0.34738,0.33921 c -0.19106,0.18656 -0.34738,0.37958 -0.34738,0.42893 0,0.10059 0.62731,0.76689 0.72201,0.76689 0.0334,0 0.20608,-0.16083 0.38367,-0.3574 z m 1.37573,-2.20618 -0.37608,-0.3832 -0.3832,0.37608 -0.3832,0.37608 0.37608,0.3832 0.37608,0.3832 0.3832,-0.37608 0.3832,-0.37608 z m 1.71502,-1.04453 c 0,-0.0493 -0.14896,-0.24227 -0.33103,-0.42872 l -0.33102,-0.33899 -0.38344,0.37631 -0.38344,0.37632 0.37589,0.38301 0.3759,0.383 0.33857,-0.3306 c 0.18621,-0.18183 0.33857,-0.37098 0.33857,-0.42033 z m 1.42491,-1.48538 c 0.002,-0.0269 -0.15706,-0.20577 -0.35349,-0.39758 l -0.35714,-0.34874 -0.35714,0.34874 c -0.19643,0.19181 -0.35714,0.39618 -0.35714,0.45416 0,0.058 0.16331,0.25296 0.36291,0.43329 l 0.36291,0.32787 0.34771,-0.38445 c 0.19124,-0.21144 0.34936,-0.40642 0.35138,-0.43329 z m 1.0565,-1.75581 -0.37608,-0.38319 -0.3832,0.37608 -0.3832,0.37608 0.37608,0.3832 0.37608,0.3832 0.3832,-0.37608 0.3832,-0.37609 z"
       id="path1043"
       inkscape:connector-curvature="0"
       transform="scale(0.26458333)" />
    <path
       style="fill:#cccccc;fill-opacity:1;stroke:#cccccc;stroke-width:0.06749156;stroke-miterlimit:4;stroke-dasharray:none;stroke-dashoffset:0;stroke-opacity:1"
       d="m 562.29512,726.17349 c -12.60616,-0.1301 -22.94206,-0.25832 -22.96868,-0.28494 -0.0266,-0.0266 6.55584,-16.11652 14.62769,-35.75532 l 14.67609,-35.70692 1.78331,-0.0241 1.78331,-0.0241 17.70347,27.53928 c 9.7369,15.1466 17.70849,27.56111 17.71463,27.5878 0.006,0.0267 -3.74553,3.84616 -8.33705,8.48771 l -8.34821,8.4392 -2.85714,-0.011 c -1.57143,-0.006 -13.17127,-0.11746 -25.77742,-0.24755 z"
       id="path1045"
       inkscape:connector-curvature="0"
       transform="scale(0.26458333)" />
    <path
       style="fill:#cccccc;fill-opacity:1;stroke:#cccccc;stroke-width:0.06749156;stroke-miterlimit:4;stroke-dasharray:none;stroke-dashoffset:0;stroke-opacity:1"
       d="m 602.26897,726.56397 c -5.35268,-0.0608 -9.75128,-0.11465 -9.77466,-0.11964 -0.0432,-0.009 0.66097,-0.72288 10.32128,-10.46027 l 5.45233,-5.49582 4.53379,7.05331 c 3.68825,5.73787 4.51525,7.07921 4.43436,7.19225 -0.30369,0.42434 -0.56891,1.06994 -0.61231,1.49049 l -0.0494,0.47881 -2.28662,-0.0143 c -1.25764,-0.008 -6.66608,-0.064 -12.01875,-0.12485 z"
       id="path1047"
       inkscape:connector-curvature="0"
       transform="scale(0.26458333)" />
    <path
       style="fill:#cccccc;fill-opacity:1;stroke:#cccccc;stroke-width:0.06749156;stroke-miterlimit:4;stroke-dasharray:none;stroke-dashoffset:0;stroke-opacity:1"
       d="m 619.76536,724.05717 c -0.22098,-0.0706 -0.57174,-0.11881 -0.77945,-0.10725 l -0.37767,0.021 -4.64512,-7.22628 c -2.55481,-3.97446 -4.63322,-7.26197 -4.61868,-7.30559 0.0396,-0.11878 46.25625,-46.75185 46.29548,-46.71261 0.0429,0.0429 -35.36701,61.47971 -35.42776,61.4678 -0.0248,-0.005 -0.22582,-0.0666 -0.4468,-0.1371 z"
       id="path1049"
       inkscape:connector-curvature="0"
       transform="scale(0.26458333)" />
    <path
       style="fill:#cccccc;fill-opacity:1;stroke:#cccccc;stroke-width:0.06749156;stroke-miterlimit:4;stroke-dasharray:none;stroke-dashoffset:0;stroke-opacity:1"
       d="m 590.14256,679.69369 c -10.17869,-15.83523 -18.52537,-28.8422 -18.54816,-28.90436 -0.14875,-0.40563 -1.5423,-0.57731 41.39731,5.1002 22.70542,3.00213 41.50802,5.48811 41.78356,5.52439 l 0.50097,0.066 -20.21318,20.40179 c -11.11725,11.22098 -21.60831,21.79714 -23.31348,23.50257 l -3.10029,3.10078 z"
       id="path1053"
       inkscape:connector-curvature="0"
       transform="scale(0.26458333)" />
    <path
       style="fill:#cccccc;fill-opacity:1;stroke:#cccccc;stroke-width:0.01687289;stroke-miterlimit:4;stroke-dasharray:none;stroke-dashoffset:0;stroke-opacity:1"
       d="m 563.03741,665.17959 c -0.0263,-0.10068 -0.0714,-0.10457 -1.2965,-0.11181 -0.63614,-0.004 -1.15344,-0.015 -1.14955,-0.0251 0.0191,-0.0494 6.5927,-9.92732 6.59781,-9.91436 0.004,0.0105 -3.90039,9.54023 -4.12039,10.05656 -0.0179,0.0419 -0.0191,0.0417 -0.0314,-0.005 z"
       id="path1055"
       inkscape:connector-curvature="0"
       transform="scale(0.26458333)" />
    <path
       style="fill:#cccccc;fill-opacity:1;stroke:#cccccc;stroke-width:0.01687289;stroke-miterlimit:4;stroke-dasharray:none;stroke-dashoffset:0;stroke-opacity:1"
       d="m 568.62774,654.35738 c 0.01,-0.0363 0.97073,-2.38182 1.09343,-2.66929 0.0424,-0.0992 0.0505,-0.10578 0.14854,-0.11914 0.057,-0.008 0.18836,-0.0336 0.29181,-0.0573 0.10346,-0.0238 0.19585,-0.0354 0.20531,-0.0259 0.009,0.009 0.42396,0.64999 0.9211,1.42334 0.59101,0.91938 0.89468,1.41103 0.87728,1.42037 -0.0146,0.008 -0.72471,0.0207 -1.57794,0.0285 -0.85324,0.008 -1.64577,0.0203 -1.76118,0.0278 -0.19796,0.0129 -0.20919,0.0113 -0.19835,-0.0283 z"
       id="path1057"
       inkscape:connector-curvature="0"
       transform="scale(0.26458333)" />
    <path
       style="fill:#cccccc;fill-opacity:1;stroke:#cccccc;stroke-width:0.01687289;stroke-miterlimit:4;stroke-dasharray:none;stroke-dashoffset:0;stroke-opacity:1"
       d="m 566.91616,652.60599 c -0.15308,-0.14696 -0.18638,-0.18993 -0.16347,-0.2109 0.0158,-0.0145 0.20324,-0.13936 0.41647,-0.27752 l 0.3877,-0.25119 0.0522,0.0526 0.0522,0.0526 -0.26162,0.39458 c -0.14389,0.21703 -0.2683,0.40128 -0.27647,0.40945 -0.008,0.008 -0.10136,-0.0682 -0.2071,-0.16971 z"
       id="path1059"
       inkscape:connector-curvature="0"
       transform="scale(0.26458333)" />
    <text
       xml:space="preserve"
       style="font-style:normal;font-weight:normal;font-size:1.76388884px;line-height:1.25;font-family:sans-serif;letter-spacing:0px;word-spacing:0px;fill:#000000;fill-opacity:1;stroke:none;stroke-width:0.26458332"
       x="156.50963"
       y="178.93069"
       id="text1430-3"><tspan
         sodipodi:role="line"
         id="tspan1428-1"
         x="156.50963"
         y="178.93069"
         style="stroke-width:0.26458332">$K_\eps\cap V^2$</tspan></text>
    <text
       xml:space="preserve"
       style="font-style:normal;font-weight:normal;font-size:1.76388884px;line-height:1.25;font-family:sans-serif;letter-spacing:0px;word-spacing:0px;fill:#000000;fill-opacity:1;stroke:none;stroke-width:0.26458332"
       x="135.27693"
       y="196.74844"
       id="text1368"><tspan
         sodipodi:role="line"
         id="tspan1366"
         x="135.27693"
         y="196.74844"
         style="stroke-width:0.26458332">$q_{1}^2$</tspan></text>
    <path
       style="fill:none;stroke:#ff0000;stroke-width:0.26458332;stroke-linecap:butt;stroke-linejoin:miter;stroke-opacity:1;stroke-miterlimit:4;stroke-dasharray:0.26458332, 0.26458332000000001;stroke-dashoffset:0"
       d="M 150.68941,171.86871 107.44235,216.2846"
       id="path942"
       inkscape:connector-curvature="0" />
    <path
       style="fill:none;stroke:#ff0000;stroke-width:0.26458332;stroke-linecap:butt;stroke-linejoin:miter;stroke-opacity:1;stroke-miterlimit:4;stroke-dasharray:0.26458332, 0.26458332000000001;stroke-dashoffset:0"
       d="m 164.04234,192.46963 -43.37015,44.39472"
       id="path940"
       inkscape:connector-curvature="0" />
    <path
       style="fill:none;stroke:#000000;stroke-width:0.26458332px;stroke-linecap:butt;stroke-linejoin:miter;stroke-opacity:1"
       d="M 150.8125,171.88988 82.398808,216.49107"
       id="path1038"
       inkscape:connector-curvature="0" />
    <path
       style="fill:none;stroke:#000000;stroke-width:0.26458332px;stroke-linecap:butt;stroke-linejoin:miter;stroke-opacity:1"
       d="m 132.48065,216.49107 41.19941,-41.57738"
       id="path1044"
       inkscape:connector-curvature="0" />
    <path
       style="fill:none;stroke:#000000;stroke-width:0.26458332px;stroke-linecap:butt;stroke-linejoin:miter;stroke-opacity:1"
       d="m 150.8125,171.88988 -18.33185,44.60119"
       id="path1040"
       inkscape:connector-curvature="0" />
    <path
       style="fill:none;stroke:#000000;stroke-width:0.265;stroke-linecap:butt;stroke-linejoin:miter;stroke-opacity:1;stroke-miterlimit:4;stroke-dasharray:none"
       d="m 173.87689,174.95598 -23.073,40.02814"
       id="path962-4"
       inkscape:connector-curvature="0" />
    <path
       style="fill:none;stroke:#000000;stroke-width:0.26499999;stroke-linecap:butt;stroke-linejoin:miter;stroke-miterlimit:4;stroke-dasharray:none;stroke-dashoffset:0;stroke-opacity:1"
       d="m 127.88768,175.49567 22.93484,39.48931"
       id="path960-7"
       inkscape:connector-curvature="0" />
    <path
       style="fill:none;stroke:#000000;stroke-width:0.26458332px;stroke-linecap:butt;stroke-linejoin:miter;stroke-opacity:1"
       d="m 150.8125,171.88988 -23.05655,3.59077"
       id="path1034"
       inkscape:connector-curvature="0" />
    <path
       style="fill:none;stroke:#000000;stroke-width:0.2;stroke-linecap:butt;stroke-linejoin:miter;stroke-opacity:1;stroke-miterlimit:4;stroke-dasharray:0.2,0.2;stroke-dashoffset:0"
       d="m 173.68006,174.91369 v -3.06265"
       id="path1061"
       inkscape:connector-curvature="0" />
    <path
       style="fill:none;stroke:#000000;stroke-width:0.2;stroke-linecap:butt;stroke-linejoin:miter;stroke-miterlimit:4;stroke-dasharray:0.2,0.2;stroke-dashoffset:0;stroke-opacity:1"
       d="m 127.88768,175.49567 v -3.59719"
       id="path1061-9"
       inkscape:connector-curvature="0" />
    <text
       xml:space="preserve"
       style="font-style:normal;font-weight:normal;font-size:1.76388884px;line-height:1.25;font-family:sans-serif;letter-spacing:0px;word-spacing:0px;fill:#000000;fill-opacity:1;stroke:none;stroke-width:0.26458332"
       x="174.72746"
       y="174.18964"
       id="text1080"><tspan
         sodipodi:role="line"
         id="tspan1078"
         x="174.72746"
         y="174.18964"
         style="stroke-width:0.26458332">$\eps$</tspan></text>
    <text
       xml:space="preserve"
       style="font-style:normal;font-weight:normal;font-size:1.76388884px;line-height:1.25;font-family:sans-serif;letter-spacing:0px;word-spacing:0px;fill:#000000;fill-opacity:1;stroke:none;stroke-width:0.26458332"
       x="125.35902"
       y="174.35684"
       id="text1080-7"><tspan
         sodipodi:role="line"
         id="tspan1078-1"
         x="125.35902"
         y="174.35684"
         style="stroke-width:0.26458332">$\eps$</tspan></text>
  </g>
</svg>
