<?xml version="1.0" encoding="UTF-8" standalone="no"?>
<!-- Created with Inkscape (http://www.inkscape.org/) -->

<svg
   xmlns:dc="http://purl.org/dc/elements/1.1/"
   xmlns:cc="http://creativecommons.org/ns#"
   xmlns:rdf="http://www.w3.org/1999/02/22-rdf-syntax-ns#"
   xmlns:svg="http://www.w3.org/2000/svg"
   xmlns="http://www.w3.org/2000/svg"
   xmlns:sodipodi="http://sodipodi.sourceforge.net/DTD/sodipodi-0.dtd"
   xmlns:inkscape="http://www.inkscape.org/namespaces/inkscape"
   width="210mm"
   height="297mm"
   viewBox="0 0 210 297"
   version="1.1"
   id="svg8"
   inkscape:version="0.92.5 (2060ec1f9f, 2020-04-08)"
   sodipodi:docname="volumecalculationtriangle.svg">
  <defs
     id="defs2" />
  <sodipodi:namedview
     id="base"
     pagecolor="#ffffff"
     bordercolor="#666666"
     borderopacity="1.0"
     inkscape:pageopacity="0.0"
     inkscape:pageshadow="2"
     inkscape:zoom="9.2640625"
     inkscape:cx="408.54892"
     inkscape:cy="991.25872"
     inkscape:document-units="mm"
     inkscape:current-layer="layer1"
     showgrid="false"
     inkscape:window-width="1920"
     inkscape:window-height="1015"
     inkscape:window-x="0"
     inkscape:window-y="0"
     inkscape:window-maximized="1" />
  <metadata
     id="metadata5">
    <rdf:RDF>
      <cc:Work
         rdf:about="">
        <dc:format>image/svg+xml</dc:format>
        <dc:type
           rdf:resource="http://purl.org/dc/dcmitype/StillImage" />
        <dc:title></dc:title>
      </cc:Work>
    </rdf:RDF>
  </metadata>
  <g
     inkscape:label="Ebene 1"
     inkscape:groupmode="layer"
     id="layer1">
    <path
       style="fill:#999999;fill-opacity:1;stroke:#999999;stroke-width:0.00721209;stroke-miterlimit:4;stroke-dasharray:none;stroke-dashoffset:0;stroke-opacity:1"
       d="m 441.75195,142.08004 -19.74303,-16.00005 28.9755,-0.01 c 15.93653,-0.005 28.98323,-0.002 28.99267,0.008 0.019,0.019 -18.43244,32.00007 -18.46304,32.00129 -0.0105,4.2e-4 -8.90344,-7.19926 -19.7621,-15.99928 z"
       id="path1122"
       inkscape:connector-curvature="0"
       transform="scale(0.26458333)" />
    <path
       style="fill:#999999;fill-opacity:1;stroke:#999999;stroke-width:0.02039887;stroke-miterlimit:4;stroke-dasharray:none;stroke-dashoffset:0;stroke-opacity:1"
       d="m 403.28967,110.86761 c -9.55844,-7.75145 -17.52471,-14.209685 -17.70281,-14.351632 l -0.32384,-0.258086 0.32384,0.02083 c 0.1781,0.01146 0.43464,0.09064 0.57007,0.175967 0.13543,0.08532 0.27245,0.12893 0.30448,0.0969 0.032,-0.03203 0.1849,0.0075 0.33971,0.0878 0.15481,0.08032 0.32002,0.122211 0.36712,0.0931 0.0471,-0.02911 0.20998,0.02853 0.36193,0.128091 0.15195,0.09956 0.30521,0.152094 0.34056,0.116735 0.0354,-0.03536 0.20837,0.01022 0.38447,0.101281 0.1761,0.09106 0.34633,0.139417 0.3783,0.10745 0.032,-0.03197 0.1597,0.01303 0.28385,0.09999 0.12415,0.08696 0.33349,0.158105 0.46519,0.158105 0.13171,0 0.27211,0.05281 0.312,0.117348 0.0399,0.06454 0.16194,0.09397 0.27121,0.06539 0.10928,-0.02858 0.28596,0.01422 0.39261,0.09511 0.10666,0.08089 0.30035,0.14861 0.43042,0.150498 0.13008,0.0019 0.26653,0.05201 0.30322,0.111377 0.0367,0.05937 0.2067,0.107944 0.3778,0.107944 0.1711,0 0.34112,0.04857 0.37781,0.107944 0.0367,0.05937 0.20957,0.107944 0.38417,0.107944 0.17461,0 0.31746,0.04857 0.31746,0.107944 0,0.05937 0.14286,0.107944 0.31747,0.107944 0.1746,0 0.34748,0.04857 0.38417,0.107944 0.0367,0.05937 0.20957,0.107944 0.38418,0.107944 0.1746,0 0.31746,0.04857 0.31746,0.107944 0,0.05937 0.16596,0.107944 0.36881,0.107944 0.20284,0 0.38567,0.0506 0.40629,0.112453 0.0206,0.06185 0.15824,0.123827 0.30584,0.137729 0.1476,0.0139 0.37865,0.08698 0.51346,0.162399 0.13481,0.07542 0.29811,0.104366 0.36289,0.06433 0.0648,-0.04004 0.15307,-0.01569 0.19621,0.05411 0.0431,0.06979 0.19557,0.137996 0.33875,0.151558 0.14317,0.01356 0.37062,0.08636 0.50542,0.161782 0.13481,0.07542 0.29131,0.10857 0.34777,0.07367 0.0565,-0.0349 0.21983,0.01331 0.36302,0.107138 0.14319,0.09382 0.30243,0.158381 0.35386,0.143471 0.0514,-0.0149 0.20336,0.0338 0.33762,0.10821 0.13425,0.0744 0.30426,0.12313 0.3778,0.10823 0.0735,-0.0149 0.24716,0.0356 0.38583,0.11223 0.13866,0.0766 0.28051,0.11095 0.31521,0.0762 0.0347,-0.0347 0.18019,0.0136 0.32331,0.1074 0.14312,0.0938 0.31904,0.14793 0.39094,0.12034 0.0719,-0.0276 0.22299,0.0173 0.33575,0.0997 0.11275,0.0824 0.31429,0.14991 0.44787,0.14991 0.13357,0 0.27287,0.0486 0.30957,0.10794 0.0367,0.0594 0.2067,0.10794 0.3778,0.10794 0.1711,0 0.34111,0.0486 0.37781,0.10795 0.0367,0.0594 0.18241,0.10794 0.32383,0.10794 0.14141,0 0.28714,0.0486 0.32383,0.10795 0.0367,0.0594 0.20957,0.10794 0.38417,0.10794 0.17461,0 0.31747,0.0486 0.31747,0.10794 0,0.0594 0.17001,0.10795 0.3778,0.10795 0.20779,0 0.3778,0.0486 0.3778,0.10794 0,0.0594 0.14286,0.10795 0.31746,0.10795 0.17461,0 0.34749,0.0486 0.38418,0.10794 0.0367,0.0594 0.20552,0.10794 0.37518,0.10794 0.16965,0 0.32538,0.0507 0.34604,0.11274 0.0207,0.062 0.1583,0.12092 0.30585,0.13092 0.14754,0.01 0.38621,0.0782 0.53038,0.15159 0.14416,0.0734 0.30066,0.1096 0.34777,0.0805 0.0471,-0.0291 0.2028,0.0238 0.346,0.11766 0.14319,0.0938 0.30243,0.15838 0.35386,0.14346 0.0514,-0.0149 0.20382,0.034 0.33862,0.10875 0.13481,0.0747 0.29131,0.10732 0.34777,0.0724 0.0565,-0.0349 0.22699,0.018 0.37894,0.11758 0.15196,0.0996 0.30732,0.14998 0.34526,0.11205 0.0379,-0.0379 0.18606,0.008 0.32918,0.10152 0.14312,0.0938 0.31904,0.14793 0.39094,0.12033 0.0719,-0.0276 0.22299,0.0173 0.33574,0.0998 0.11276,0.0824 0.3143,0.1499 0.44787,0.1499 0.13358,0 0.2755,0.0528 0.31539,0.11735 0.0399,0.0645 0.16193,0.094 0.27121,0.0654 0.10928,-0.0286 0.28595,0.0142 0.39261,0.0951 0.10665,0.0809 0.30034,0.14861 0.43042,0.1505 0.13008,0.002 0.26653,0.052 0.30322,0.11137 0.0367,0.0594 0.2067,0.10795 0.3778,0.10795 0.1711,0 0.34111,0.0486 0.37781,0.10794 0.0367,0.0594 0.20957,0.10795 0.38417,0.10795 0.1746,0 0.31746,0.0486 0.31746,0.10794 0,0.0594 0.14286,0.10794 0.31746,0.10794 0.17461,0 0.34749,0.0486 0.38418,0.10795 0.0367,0.0594 0.20552,0.10794 0.37518,0.10794 0.16965,0 0.32668,0.0547 0.34894,0.12144 0.0223,0.0668 0.18418,0.12112 0.35982,0.12075 0.17563,-3.8e-4 0.34791,0.0444 0.38284,0.0996 0.0349,0.0551 0.18066,0.11137 0.32383,0.12493 0.14318,0.0136 0.37062,0.0864 0.50543,0.16178 0.13481,0.0754 0.2981,0.10437 0.36289,0.0643 0.0648,-0.04 0.15307,-0.0157 0.1962,0.0541 0.0431,0.0698 0.19558,0.13799 0.33875,0.15155 0.14318,0.0136 0.37062,0.0864 0.50543,0.16179 0.13481,0.0754 0.2913,0.10857 0.34777,0.0737 0.0565,-0.0349 0.22699,0.018 0.37894,0.11757 0.15195,0.0996 0.30673,0.15058 0.34394,0.11337 0.0372,-0.0372 0.13146,-0.0147 0.20946,0.05 0.13503,0.11207 0.69645,0.28345 1.18368,0.36133 0.1244,0.0199 0.3187,0.0851 0.43178,0.14492 0.11307,0.0598 0.42418,0.1668 0.69134,0.23774 0.26716,0.0709 0.57009,0.17283 0.67318,0.22641 0.10309,0.0536 0.30954,0.0974 0.45877,0.0974 0.14922,0 0.27132,0.0486 0.27132,0.10795 0,0.0594 0.14286,0.10794 0.31746,0.10794 0.1746,0 0.34748,0.0486 0.38418,0.10795 0.0367,0.0594 0.20957,0.10794 0.38417,0.10794 0.1746,0 0.31746,0.0486 0.31746,0.10794 0,0.0594 0.17001,0.10795 0.37781,0.10795 0.20779,0 0.3778,0.0486 0.3778,0.10794 0,0.0594 0.11588,0.10795 0.25752,0.10795 0.14164,0 0.39317,0.0704 0.55897,0.15639 0.16579,0.086 0.34679,0.12836 0.40221,0.0941 0.0554,-0.0343 0.13606,-0.005 0.17919,0.0646 0.0431,0.0698 0.19558,0.138 0.33875,0.15156 0.14318,0.0136 0.37062,0.0864 0.50543,0.16178 0.13481,0.0754 0.2913,0.10857 0.34777,0.0737 0.0565,-0.0349 0.21982,0.0133 0.36301,0.10714 0.1432,0.0938 0.30244,0.15838 0.35387,0.14346 0.0514,-0.0149 0.20381,0.034 0.33862,0.10875 0.13481,0.0747 0.2913,0.10732 0.34777,0.0724 0.0565,-0.0349 0.22699,0.018 0.37894,0.11758 0.15195,0.0996 0.30732,0.14998 0.34525,0.11205 0.0379,-0.0379 0.18607,0.008 0.32919,0.10152 0.14311,0.0938 0.31904,0.14793 0.39094,0.12033 0.0719,-0.0276 0.22299,0.0173 0.33574,0.0998 0.11276,0.0824 0.3143,0.1499 0.44787,0.1499 0.13357,0 0.2755,0.0528 0.31538,0.11735 0.0399,0.0645 0.16194,0.094 0.27122,0.0654 0.10928,-0.0286 0.28595,0.0142 0.39261,0.0951 0.10665,0.0809 0.30034,0.14861 0.43042,0.1505 0.13007,0.002 0.26652,0.052 0.30321,0.11137 0.0367,0.0594 0.20671,0.10795 0.37781,0.10795 0.1711,0 0.34111,0.0486 0.3778,0.10794 0.0367,0.0594 0.20957,0.10795 0.38418,0.10795 0.1746,0 0.31746,0.0486 0.31746,0.10794 0,0.0594 0.14286,0.10794 0.31746,0.10794 0.1746,0 0.34748,0.0486 0.38417,0.10795 0.0367,0.0594 0.20553,0.10794 0.37518,0.10794 0.16966,0 0.32668,0.0546 0.34895,0.12144 0.0223,0.0668 0.18418,0.12112 0.35981,0.12075 0.17564,-4.4e-4 0.34792,0.0444 0.38285,0.0996 0.0349,0.0552 0.18065,0.11137 0.32383,0.12493 0.14318,0.0136 0.37062,0.0864 0.50543,0.16178 0.1348,0.0754 0.2981,0.10437 0.36288,0.0643 0.0648,-0.04 0.15308,-0.0157 0.19621,0.0541 0.0431,0.0698 0.19557,0.13799 0.33875,0.15155 0.14318,0.0136 0.37378,0.0881 0.51244,0.16554 0.13867,0.0775 0.27841,0.11459 0.31053,0.0825 0.0321,-0.0321 0.2025,0.0161 0.37859,0.10716 0.1761,0.0911 0.34763,0.13813 0.38118,0.10458 0.0335,-0.0335 0.1248,-0.008 0.20279,0.0567 0.13943,0.11572 0.70978,0.28704 1.21395,0.36465 0.14105,0.0217 0.30863,0.0917 0.37241,0.15544 0.0638,0.0638 0.22481,0.11596 0.35786,0.11596 0.13304,0 0.27192,0.0486 0.30861,0.10794 0.0367,0.0594 0.20671,0.10795 0.37781,0.10795 0.1711,0 0.34111,0.0486 0.3778,0.10794 0.0367,0.0594 0.20957,0.10794 0.38418,0.10794 0.1746,0 0.31746,0.0486 0.31746,0.10795 0,0.0594 0.14285,0.10794 0.31746,0.10794 0.1746,0 0.34748,0.0486 0.38417,0.10795 0.0367,0.0594 0.20957,0.10794 0.38418,0.10794 0.1746,0 0.31746,0.0486 0.31746,0.10794 0,0.0594 0.16596,0.10795 0.36881,0.10795 0.20284,0 0.38567,0.0506 0.40629,0.11245 0.0206,0.0619 0.15825,0.12383 0.30584,0.13773 0.1476,0.0139 0.37866,0.087 0.51346,0.1624 0.13481,0.0754 0.29811,0.10436 0.36289,0.0643 0.0648,-0.04 0.15307,-0.0157 0.19621,0.0541 0.0431,0.0698 0.19557,0.138 0.33875,0.15156 0.14318,0.0136 0.37062,0.0864 0.50543,0.16179 0.1348,0.0754 0.2913,0.10857 0.34776,0.0737 0.0565,-0.0349 0.21983,0.0133 0.36302,0.10714 0.14319,0.0938 0.30243,0.15838 0.35387,0.14347 0.0514,-0.0149 0.20381,0.034 0.33862,0.10874 0.13481,0.0747 0.2913,0.10732 0.34777,0.0724 0.0565,-0.0349 0.22699,0.018 0.37894,0.11758 0.15195,0.0996 0.30731,0.14998 0.34525,0.11205 0.0379,-0.0379 0.18607,0.008 0.32918,0.10152 0.14312,0.0938 0.31904,0.14793 0.39095,0.12033 0.0719,-0.0276 0.22298,0.0173 0.33574,0.0998 0.11275,0.0825 0.3143,0.1499 0.44787,0.1499 0.13357,0 0.27288,0.0486 0.30957,0.10795 0.0367,0.0594 0.2067,0.10794 0.3778,0.10794 0.1711,0 0.34111,0.0486 0.37781,0.10795 0.0367,0.0594 0.18241,0.10794 0.32383,0.10794 0.14141,0 0.28714,0.0486 0.32383,0.10794 0.0367,0.0594 0.20671,0.10795 0.37781,0.10795 0.1711,0 0.34111,0.0486 0.3778,0.10794 0.0367,0.0594 0.20957,0.10795 0.38417,0.10795 0.17461,0 0.31747,0.0486 0.31747,0.10794 0,0.0594 0.14285,0.10794 0.31746,0.10794 0.1746,0 0.34748,0.0486 0.38417,0.10795 0.0367,0.0594 0.20552,0.10794 0.37518,0.10794 0.16966,0 0.32668,0.0546 0.34895,0.12144 0.0223,0.0668 0.18417,0.12112 0.35981,0.12075 0.17563,-4.4e-4 0.34791,0.0444 0.38284,0.0996 0.0349,0.0551 0.18066,0.11137 0.32384,0.12493 0.14317,0.0136 0.37377,0.088 0.51244,0.16553 0.13866,0.0775 0.27568,0.11732 0.30447,0.0885 0.0288,-0.0288 0.17902,0.0134 0.33384,0.0937 0.15481,0.0803 0.32001,0.12221 0.36712,0.0931 0.0471,-0.0291 0.20997,0.0285 0.36193,0.12809 0.15195,0.0996 0.30521,0.15209 0.34056,0.11673 0.0354,-0.0354 0.20837,0.0102 0.38447,0.10128 0.1761,0.0911 0.34633,0.13942 0.3783,0.10745 0.032,-0.032 0.1597,0.013 0.28385,0.1 0.12415,0.087 0.33348,0.1581 0.46519,0.1581 0.13171,0 0.27211,0.0528 0.312,0.11735 0.0399,0.0645 0.16193,0.094 0.27121,0.0654 0.10928,-0.0286 0.28596,0.0142 0.39261,0.0951 0.10666,0.0809 0.30035,0.14861 0.43042,0.1505 0.13008,0.002 0.26653,0.052 0.30322,0.11137 0.0367,0.0594 0.2067,0.10795 0.3778,0.10795 0.1711,0 0.34112,0.0486 0.37781,0.10794 0.0367,0.0594 0.20957,0.10794 0.38417,0.10794 0.17461,0 0.31746,0.0486 0.31746,0.10795 0,0.0594 0.14286,0.10794 0.31746,0.10794 0.17461,0 0.34749,0.0486 0.38418,0.10795 0.0367,0.0594 0.20957,0.10794 0.38417,0.10794 0.17461,0 0.31747,0.0486 0.31747,0.10794 0,0.0594 0.16596,0.10795 0.3688,0.10795 0.20285,0 0.38568,0.0506 0.4063,0.11245 0.0206,0.0618 0.15824,0.12383 0.30584,0.13773 0.1476,0.0139 0.37865,0.087 0.51346,0.1624 0.13481,0.0754 0.29811,0.10436 0.36289,0.0643 0.0648,-0.04 0.15307,-0.0157 0.19621,0.0541 0.0431,0.0698 0.19557,0.138 0.33875,0.15156 0.14317,0.0136 0.37061,0.0864 0.50542,0.16179 0.13481,0.0754 0.29131,0.10857 0.34777,0.0737 0.0565,-0.0349 0.21982,0.0133 0.36302,0.10714 0.14319,0.0938 0.30243,0.15838 0.35386,0.14347 0.0514,-0.0149 0.20382,0.034 0.33862,0.10874 0.13481,0.0747 0.29131,0.10732 0.34777,0.0724 0.0565,-0.0349 0.22699,0.018 0.37895,0.11758 0.15195,0.0996 0.30586,0.15143 0.34202,0.11527 0.0362,-0.0362 0.19252,8.7e-4 0.34745,0.0823 0.15494,0.0814 0.50029,0.2063 0.76745,0.27754 0.26716,0.0712 0.57009,0.17337 0.67319,0.22695 0.10309,0.0536 0.30666,0.0974 0.45239,0.0974 0.14572,0 0.29497,0.0486 0.33166,0.10795 0.0367,0.0594 0.18242,0.10794 0.32384,0.10794 0.14141,0 0.28714,0.0486 0.32383,0.10794 0.0367,0.0594 0.20957,0.10795 0.38417,0.10795 0.17461,0 0.31746,0.0486 0.31746,0.10794 0,0.0594 0.17002,0.10795 0.37781,0.10795 0.20779,0 0.3778,0.0486 0.3778,0.10794 0,0.0594 0.14286,0.10794 0.31746,0.10794 0.17461,0 0.34749,0.0486 0.38418,0.10795 0.0367,0.0594 0.20957,0.10794 0.38417,0.10794 0.17461,0 0.31746,0.045 0.31746,0.10003 0,0.055 0.085,0.12224 0.18891,0.1494 0.10389,0.0272 -12.732,0.053 -28.52421,0.0575 l -28.7131,0.008 -17.37899,-14.09354 z"
       id="path1120"
       inkscape:connector-curvature="0"
       transform="scale(0.26458333)" />
    <path
       style="fill:#e6e6e6;fill-opacity:1;stroke:#e6e6e6;stroke-width:0.00329566;stroke-miterlimit:4;stroke-dasharray:none;stroke-dashoffset:0;stroke-opacity:1"
       d="m 104.8251,45.773019 -12.00657,-3.717702 7.44578,-0.0072 7.44582,-0.0072 4.58935,3.717478 c 2.52415,2.044613 4.5947,3.721833 4.60125,3.727159 0.006,0.0053 -0.006,0.0087 -0.0286,0.0074 -0.0222,-0.0013 -5.44343,-1.675225 -12.04707,-3.719965 z"
       id="path960"
       inkscape:connector-curvature="0" />
    <path
       style="fill:#e6e6e6;fill-opacity:1;stroke:#e6e6e6;stroke-width:0.00329566;stroke-miterlimit:4;stroke-dasharray:none;stroke-dashoffset:0;stroke-opacity:1"
       d="m 92.060426,41.698531 c 0.0192,-0.05722 4.83668,-8.395438 4.85094,-8.396163 0.0115,-5.29e-4 10.340064,8.359577 10.392064,8.411575 0.007,0.0071 -3.42181,0.01294 -7.619807,0.01294 -5.036712,0 -7.629477,-0.0096 -7.623197,-0.02834 z"
       id="path956"
       inkscape:connector-curvature="0" />
    <path
       style="fill:#999999;fill-opacity:1;stroke:#999999;stroke-width:0.00466076;stroke-miterlimit:4;stroke-dasharray:none;stroke-dashoffset:0;stroke-opacity:1"
       d="m 77.08775,32.769802 -5.190617,-4.207299 3.807253,-0.01029 c 2.093988,-0.0057 5.52234,-0.0057 7.618548,0 l 3.811289,0.01029 -2.297928,3.978434 c -1.263871,2.188139 -2.356435,4.081425 -2.427935,4.207301 l -0.12999,0.228865 z"
       id="path984"
       inkscape:connector-curvature="0" />
    <path
       style="fill:#e6e6e6;fill-opacity:1;stroke:#e6e6e6;stroke-width:0.00659132;stroke-miterlimit:4;stroke-dasharray:none;stroke-dashoffset:0;stroke-opacity:1"
       d="m 68.72761,43.451425 c -4.571058,-0.732306 -8.375274,-1.342208 -8.453816,-1.355336 -0.07854,-0.01312 2.941931,-0.02773 6.712157,-0.03243 l 6.854959,-0.0086 1.627409,1.318588 c 1.848158,1.497441 1.764281,1.425583 1.653111,1.416198 -0.0455,-0.0038 -3.822762,-0.606153 -8.39382,-1.338458 z"
       id="path970"
       inkscape:connector-curvature="0" />
    <path
       style="fill:#e6e6e6;fill-opacity:1;stroke:#e6e6e6;stroke-width:0.00659132;stroke-miterlimit:4;stroke-dasharray:none;stroke-dashoffset:0;stroke-opacity:1"
       d="m 58.217461,41.693266 c 0,-0.01894 4.795602,-8.335645 4.8226,-8.363532 0.01553,-0.01606 10.047165,8.099436 10.227032,8.273574 0.110889,0.10736 -0.006,0.109069 -7.468489,0.109069 -4.169627,0 -7.581143,-0.0086 -7.581143,-0.0191 z"
       id="path968"
       inkscape:connector-curvature="0" />
    <path
       style="fill:#e6e6e6;fill-opacity:1;stroke:#e6e6e6;stroke-width:0.00659132;stroke-miterlimit:4;stroke-dasharray:none;stroke-dashoffset:0;stroke-opacity:1"
       d="m 58.023108,40.904623 c -0.05191,-0.564201 -0.614696,-11.984673 -0.594601,-12.066056 0.0098,-0.03972 1.213073,0.898633 2.673927,2.085221 1.474737,1.197867 2.647704,2.190522 2.637229,2.231824 -0.02032,0.08016 -4.566708,7.981675 -4.639392,8.063174 -0.02405,0.02698 -0.05879,-0.114395 -0.07716,-0.314163 z"
       id="path966"
       inkscape:connector-curvature="0" />
    <path
       style="fill:none;stroke:#000000;stroke-width:0.26458332px;stroke-linecap:butt;stroke-linejoin:miter;stroke-opacity:1"
       d="M 101.39681,25.221285 91.775466,41.88593 h 30.184774 z"
       id="path832"
       inkscape:connector-curvature="0" />
    <path
       style="fill:none;stroke:#000000;stroke-width:0.26458332px;stroke-linecap:butt;stroke-linejoin:miter;stroke-opacity:1"
       d="m 117.61907,49.882782 9.62139,-16.664645 H 97.055656 Z"
       id="path832-6"
       inkscape:connector-curvature="0" />
    <path
       style="fill:none;stroke:#000000;stroke-width:0.1;stroke-linecap:butt;stroke-linejoin:miter;stroke-miterlimit:4;stroke-dasharray:0.1, 0.1;stroke-dashoffset:0;stroke-opacity:1"
       d="m 91.775466,41.88593 25.843604,7.996852"
       id="path898"
       inkscape:connector-curvature="0" />
    <path
       style="fill:none;stroke:#000000;stroke-width:0.1;stroke-linecap:butt;stroke-linejoin:miter;stroke-miterlimit:4;stroke-dasharray:0.1, 0.1;stroke-dashoffset:0;stroke-opacity:1"
       d="m 101.39681,25.221285 25.84365,7.99685"
       id="path900"
       inkscape:connector-curvature="0" />
    <path
       style="fill:none;stroke:#000000;stroke-width:0.26458332px;stroke-linecap:butt;stroke-linejoin:miter;stroke-opacity:1"
       d="m 57.908779,41.88593 9.62134,-16.664645"
       id="path886"
       inkscape:connector-curvature="0" />
    <path
       style="fill:none;stroke:#000000;stroke-width:0.26458332px;stroke-linecap:butt;stroke-linejoin:miter;stroke-opacity:1"
       d="M 57.908779,41.88593 H 88.093517"
       id="path888"
       inkscape:connector-curvature="0" />
    <path
       style="fill:none;stroke:#000000;stroke-width:0.26458332px;stroke-linecap:butt;stroke-linejoin:miter;stroke-opacity:1"
       d="M 67.530119,25.221285 88.093517,41.88593"
       id="path890"
       inkscape:connector-curvature="0" />
    <path
       style="fill:none;stroke:#000000;stroke-width:0.26458332px;stroke-linecap:butt;stroke-linejoin:miter;stroke-opacity:1"
       d="M 57.226829,28.385592 H 87.41159"
       id="path892"
       inkscape:connector-curvature="0" />
    <path
       style="fill:none;stroke:#000000;stroke-width:0.26458332px;stroke-linecap:butt;stroke-linejoin:miter;stroke-opacity:1"
       d="M 77.790204,45.050238 57.226829,28.385592"
       id="path894"
       inkscape:connector-curvature="0" />
    <path
       style="fill:none;stroke:#000000;stroke-width:0.26458332px;stroke-linecap:butt;stroke-linejoin:miter;stroke-opacity:1"
       d="M 77.790204,45.050238 87.41159,28.385592"
       id="path896"
       inkscape:connector-curvature="0" />
    <path
       style="fill:none;stroke:#000000;stroke-width:0.1;stroke-linecap:butt;stroke-linejoin:miter;stroke-miterlimit:4;stroke-dasharray:0.1, 0.1;stroke-dashoffset:0;stroke-opacity:1"
       d="M 57.908779,41.88593 57.226829,28.385592 67.530119,25.221285 87.41159,28.385592 88.093517,41.88593 77.790204,45.050238 57.908779,41.88593"
       id="path884"
       inkscape:connector-curvature="0" />
    <path
       style="fill:none;stroke:#000000;stroke-width:0.26458332px;stroke-linecap:butt;stroke-linejoin:miter;stroke-opacity:1"
       d="m 36.33248,38.834244 16.664645,9.621339 V 18.270846 Z"
       id="path988"
       inkscape:connector-curvature="0" />
    <text
       xml:space="preserve"
       style="font-style:normal;font-weight:normal;font-size:10.58333302px;line-height:1.25;font-family:sans-serif;letter-spacing:0px;word-spacing:0px;fill:#000000;fill-opacity:1;stroke:none;stroke-width:0.26458332"
       x="42.893982"
       y="36.83979"
       id="text1030"><tspan
         sodipodi:role="line"
         id="tspan1028"
         x="42.893982"
         y="36.83979"
         style="font-size:1.76388884px;stroke-width:0.26458332">$\Delta$</tspan></text>
    <text
       xml:space="preserve"
       style="font-style:normal;font-weight:normal;font-size:10.58333302px;line-height:1.25;font-family:sans-serif;letter-spacing:0px;word-spacing:0px;fill:#000000;fill-opacity:1;stroke:none;stroke-width:0.26458332"
       x="61.264061"
       y="21.462166"
       id="text1030-6"><tspan
         sodipodi:role="line"
         id="tspan1028-0"
         x="61.264061"
         y="21.462166"
         style="font-size:1.76388884px;stroke-width:0.26458332">$J\Delta$</tspan></text>
    <text
       xml:space="preserve"
       style="font-style:normal;font-weight:normal;font-size:10.58333302px;line-height:1.25;font-family:sans-serif;letter-spacing:0px;word-spacing:0px;fill:#000000;fill-opacity:1;stroke:none;stroke-width:0.26458332"
       x="75.486748"
       y="50.90044"
       id="text1030-62"><tspan
         sodipodi:role="line"
         id="tspan1028-6"
         x="75.486748"
         y="50.90044"
         style="font-size:1.76388884px;stroke-width:0.26458332">$-J\Delta+t'$</tspan></text>
    <path
       style="fill:none;stroke:#000000;stroke-width:0.1;stroke-linecap:butt;stroke-linejoin:miter;stroke-opacity:1;stroke-miterlimit:4;stroke-dasharray:0.1,0.1;stroke-dashoffset:0"
       d="M 67.532413,27.031902 63.978077,22.023517"
       id="path1058"
       inkscape:connector-curvature="0" />
    <path
       style="fill:none;stroke:#000000;stroke-width:0.1;stroke-linecap:butt;stroke-linejoin:miter;stroke-opacity:1;stroke-miterlimit:4;stroke-dasharray:0.1,0.1;stroke-dashoffset:0"
       d="m 76.902941,43.026422 -0.807804,5.977747"
       id="path1060"
       inkscape:connector-curvature="0" />
    <text
       xml:space="preserve"
       style="font-style:normal;font-weight:normal;font-size:10.58333302px;line-height:1.25;font-family:sans-serif;letter-spacing:0px;word-spacing:0px;fill:#000000;fill-opacity:1;stroke:none;stroke-width:0.26458332"
       x="94.35804"
       y="22.963907"
       id="text1030-6-1"><tspan
         sodipodi:role="line"
         id="tspan1028-0-8"
         x="94.35804"
         y="22.963907"
         style="font-size:1.76388884px;stroke-width:0.26458332">$J\Delta$</tspan></text>
    <path
       style="fill:none;stroke:#000000;stroke-width:0.1;stroke-linecap:butt;stroke-linejoin:miter;stroke-miterlimit:4;stroke-dasharray:0.1, 0.1;stroke-dashoffset:0;stroke-opacity:1"
       d="M 100.62639,28.533643 97.072061,23.525258"
       id="path1058-7"
       inkscape:connector-curvature="0" />
    <text
       xml:space="preserve"
       style="font-style:normal;font-weight:normal;font-size:10.58333302px;line-height:1.25;font-family:sans-serif;letter-spacing:0px;word-spacing:0px;fill:#000000;fill-opacity:1;stroke:none;stroke-width:0.26458332"
       x="100.76093"
       y="51.333523"
       id="text1030-62-9"><tspan
         sodipodi:role="line"
         id="tspan1028-6-2"
         x="100.76093"
         y="51.333523"
         style="font-size:1.76388884px;stroke-width:0.26458332">$-J\Delta+t''$</tspan></text>
    <path
       style="fill:none;stroke:#000000;stroke-width:0.1;stroke-linecap:butt;stroke-linejoin:miter;stroke-opacity:1;stroke-miterlimit:4;stroke-dasharray:0.1,0.1;stroke-dashoffset:0"
       d="m 114.58346,45.327654 -9.8247,3.198741"
       id="path1104"
       inkscape:connector-curvature="0" />
    <path
       style="fill:#999999;fill-opacity:1;stroke:#999999;stroke-width:0.00721209;stroke-miterlimit:4;stroke-dasharray:none;stroke-dashoffset:0;stroke-opacity:1"
       d="m 263.37932,101.26421 c -3.7179,-3.015495 -6.74048,-5.489589 -6.71686,-5.497984 0.0236,-0.0084 0.0537,-0.03173 0.0668,-0.05186 0.0351,-0.05368 0.33866,0.0063 0.33866,0.06689 0,0.06739 0.37985,0.122107 0.4181,0.06023 0.0372,-0.06026 0.34518,-0.0094 0.34518,0.05703 0,0.06746 0.34139,0.119825 0.37948,0.0582 0.0365,-0.05912 0.34563,-0.01095 0.34563,0.05386 0,0.07832 0.39981,0.133922 0.42617,0.05927 0.0201,-0.05687 0.33711,-3.16e-4 0.33711,0.06014 0,0.02872 0.0129,0.05297 0.0286,0.05388 0.0158,9.14e-4 0.10073,0.01562 0.18885,0.03268 0.11073,0.02144 0.16539,0.01754 0.17696,-0.01262 0.0242,-0.06293 0.33069,-0.02789 0.33069,0.03781 0,0.02979 0.0604,0.06169 0.14311,0.07565 0.0787,0.01328 0.17317,0.03239 0.2099,0.04246 0.0396,0.01085 0.0668,-0.0026 0.0668,-0.03296 0,-0.0793 0.29775,-0.0393 0.34348,0.04614 0.0422,0.07882 0.3276,0.122084 0.42327,0.06415 0.0771,-0.0467 0.3419,9.05e-4 0.32992,0.05931 -0.0111,0.05432 0.36688,0.11879 0.38536,0.06572 0.0265,-0.07623 0.34984,-0.02225 0.34984,0.05841 0,0.06557 0.3836,0.116285 0.42107,0.05567 0.0372,-0.06026 0.34221,-0.0083 0.34221,0.05831 0,0.0678 0.34391,0.119276 0.38227,0.05721 0.0381,-0.06172 0.34285,-0.01014 0.34285,0.05803 0,0.06739 0.37985,0.122107 0.4181,0.06023 0.0372,-0.06026 0.34517,-0.0094 0.34517,0.05703 0,0.0663 0.32651,0.116302 0.39395,0.06033 0.0639,-0.05307 0.33117,-0.01124 0.33117,0.05184 0,0.07476 0.39748,0.1344 0.42616,0.06395 0.0223,-0.0548 0.33712,-0.0041 0.33712,0.05433 0,0.02928 0.0129,0.05399 0.0286,0.0549 0.0158,9.14e-4 0.10294,0.01602 0.19378,0.03358 0.1158,0.02238 0.1702,0.01875 0.18206,-0.01214 0.0242,-0.06309 0.32066,-0.02942 0.32066,0.03642 0,0.02979 0.0604,0.06169 0.14311,0.07565 0.0787,0.01328 0.17317,0.03239 0.2099,0.04246 0.0411,0.01126 0.0668,-0.0027 0.0668,-0.03637 0,-0.0726 0.28895,-0.02365 0.35485,0.06012 0.0554,0.07046 0.32739,0.106249 0.41189,0.05421 0.0767,-0.04724 0.34198,-5.4e-5 0.32993,0.05869 -0.0111,0.05432 0.36688,0.11879 0.38536,0.06572 0.0265,-0.07623 0.34984,-0.02225 0.34984,0.05841 0,0.06557 0.3836,0.116285 0.42107,0.05567 0.0372,-0.06026 0.34221,-0.0083 0.34221,0.05831 0,0.0678 0.34391,0.119277 0.38226,0.05721 0.0381,-0.06172 0.34285,-0.01015 0.34285,0.05803 0,0.06739 0.37986,0.122107 0.41811,0.06023 0.0372,-0.06026 0.34517,-0.0094 0.34517,0.05703 0,0.0663 0.32651,0.116302 0.39394,0.06033 0.0639,-0.05307 0.33118,-0.01124 0.33118,0.05184 0,0.07476 0.39747,0.1344 0.42616,0.06395 0.0223,-0.0548 0.33712,-0.0041 0.33712,0.05433 0,0.02928 0.0129,0.05399 0.0286,0.0549 0.0157,9.14e-4 0.10294,0.01602 0.19378,0.03358 0.11579,0.02238 0.1702,0.01875 0.18206,-0.01214 0.0245,-0.06388 0.32065,-0.02932 0.32065,0.03742 0,0.05108 0.0376,0.06478 0.29577,0.107742 0.0885,0.01473 0.12404,0.006 0.12404,-0.03052 0,-0.06885 0.2908,-0.01741 0.35485,0.06276 0.0528,0.06617 0.40843,0.123554 0.40843,0.06592 0,-0.04272 0.17548,-0.04563 0.27951,-0.0046 0.0383,0.01509 0.064,0.04354 0.0572,0.06322 -0.007,0.01968 0.0731,0.05013 0.17767,0.06765 0.12718,0.02132 0.1945,0.01846 0.20354,-0.0087 0.0265,-0.07946 0.35062,-0.02914 0.35062,0.05443 0,0.06557 0.3836,0.116285 0.42106,0.05567 0.0373,-0.06026 0.34222,-0.0083 0.34222,0.05831 0,0.0678 0.3439,0.119276 0.38226,0.05721 0.0381,-0.06172 0.34285,-0.01015 0.34285,0.05803 0,0.06739 0.37986,0.122106 0.4181,0.06023 0.0372,-0.06026 0.34518,-0.0094 0.34518,0.05703 0,0.06239 0.32503,0.116418 0.39153,0.06508 0.0699,-0.05398 0.371,-0.01465 0.34794,0.04544 -0.0285,0.07418 0.38171,0.13952 0.41181,0.0656 0.0223,-0.0548 0.33712,-0.0041 0.33712,0.05433 0,0.02928 0.0129,0.05399 0.0286,0.0549 0.0157,9.14e-4 0.10294,0.01602 0.19378,0.03358 0.12228,0.02363 0.16997,0.01934 0.18374,-0.01653 0.0102,-0.02665 0.0475,-0.04279 0.0829,-0.03588 0.22947,0.04483 0.27493,0.06148 0.25514,0.09349 -0.0216,0.03503 0.0221,0.04957 0.27669,0.09194 0.0885,0.01473 0.12404,0.006 0.12404,-0.03052 0,-0.06884 0.2908,-0.01741 0.35484,0.06276 0.0529,0.06617 0.40844,0.123554 0.40844,0.06592 0,-0.02059 0.0386,-0.0372 0.0859,-0.03691 0.14114,8.58e-4 0.25761,0.04342 0.25761,0.09415 0,0.05916 0.35635,0.114769 0.3751,0.05854 0.026,-0.07805 0.35002,-0.026 0.35002,0.05623 0,0.06557 0.3836,0.116285 0.42106,0.05567 0.0372,-0.06026 0.34222,-0.0083 0.34222,0.05831 0,0.06751 0.33108,0.116022 0.40021,0.05865 0.0667,-0.05533 0.3249,-0.0096 0.3249,0.05749 0,0.0666 0.38028,0.12054 0.4181,0.0593 0.0361,-0.0585 0.34518,-0.01 0.34518,0.0546 0,0.0748 0.39744,0.13459 0.42616,0.0641 0.007,-0.0172 0.0845,-0.0241 0.17228,-0.0153 0.11188,0.0112 0.15381,0.0309 0.14032,0.0661 -0.0136,0.0354 0.0406,0.0598 0.18392,0.083 0.15936,0.0258 0.20593,0.0218 0.21604,-0.0185 0.007,-0.0283 0.0385,-0.0416 0.0699,-0.0296 0.0314,0.012 0.10715,0.0219 0.1684,0.0219 0.0729,0 0.11138,0.0195 0.11138,0.0565 0,0.0311 0.0386,0.0644 0.0859,0.074 0.23325,0.0475 0.30286,0.0481 0.32033,0.003 0.0102,-0.0266 0.0475,-0.0427 0.0829,-0.0358 0.22947,0.0448 0.27492,0.0615 0.25514,0.0935 -0.0216,0.035 0.0221,0.0496 0.27669,0.0919 0.0885,0.0147 0.12403,0.006 0.12403,-0.0305 0,-0.0691 0.29113,-0.0172 0.35485,0.0633 0.0552,0.0698 0.40843,0.12899 0.40843,0.0684 0,-0.0223 0.0386,-0.0403 0.0859,-0.04 0.14114,8.5e-4 0.25761,0.0434 0.25761,0.0941 0,0.0592 0.35635,0.11477 0.37509,0.0585 0.026,-0.078 0.35002,-0.026 0.35002,0.0562 0,0.0656 0.38361,0.11629 0.42107,0.0557 0.0372,-0.0603 0.34221,-0.008 0.34221,0.0583 0,0.0675 0.33108,0.11603 0.40022,0.0587 0.0667,-0.0553 0.3249,-0.01 0.3249,0.0575 0,0.0631 0.38001,0.12097 0.41568,0.0633 0.0341,-0.0552 0.3476,-0.009 0.3476,0.0508 0,0.0747 0.39748,0.13435 0.42616,0.0639 0.007,-0.0172 0.0845,-0.0241 0.17228,-0.0153 0.11187,0.0112 0.15381,0.0309 0.14032,0.0661 -0.0136,0.0354 0.0406,0.0598 0.18392,0.083 0.14949,0.0242 0.20627,0.0208 0.21496,-0.013 0.0163,-0.0632 0.27994,-0.021 0.34019,0.0545 0.0616,0.0772 0.39216,0.12939 0.41659,0.0657 0.0238,-0.0621 0.30673,-0.0105 0.36863,0.0671 0.0603,0.0757 0.37026,0.11661 0.37026,0.0489 0,-0.0667 0.29298,-0.0122 0.35485,0.066 0.0552,0.0698 0.40843,0.12899 0.40843,0.0684 0,-0.0223 0.0386,-0.0403 0.0859,-0.04 0.14114,8.6e-4 0.25761,0.0434 0.25761,0.0941 0,0.0592 0.35635,0.11477 0.37509,0.0585 0.026,-0.078 0.35002,-0.026 0.35002,0.0562 0,0.0656 0.3836,0.11628 0.42107,0.0557 0.0372,-0.0602 0.34221,-0.008 0.34221,0.0583 0,0.0665 0.33095,0.11614 0.39884,0.0598 0.07,-0.0581 0.36502,-0.009 0.33989,0.0562 -0.024,0.0626 0.36467,0.12394 0.40207,0.0634 0.0341,-0.0552 0.3476,-0.009 0.3476,0.0508 0,0.0747 0.39748,0.13435 0.42616,0.0639 0.007,-0.0172 0.0868,-0.0239 0.17737,-0.0148 0.11845,0.0118 0.1591,0.0309 0.14486,0.068 -0.0137,0.0356 0.024,0.0586 0.12157,0.0742 0.0778,0.0124 0.17144,0.0286 0.20817,0.036 0.0371,0.007 0.0668,-0.009 0.0668,-0.0379 0,-0.0743 0.26795,-0.0261 0.3545,0.0638 0.0376,0.039 0.11772,0.0709 0.17816,0.0709 0.0604,0 0.13705,0.0104 0.17025,0.0232 0.0382,0.0147 0.0604,0.003 0.0604,-0.033 0,-0.0449 0.0311,-0.0505 0.15448,-0.028 0.085,0.0155 0.17513,0.0541 0.20036,0.0858 0.0541,0.0679 0.37027,0.12508 0.37027,0.067 0,-0.0685 0.26012,-0.0429 0.33245,0.0328 0.0771,0.0806 0.43083,0.14924 0.43083,0.0836 0,-0.0223 0.0386,-0.0403 0.0859,-0.04 0.14114,8.6e-4 0.25761,0.0434 0.25761,0.0941 0,0.0592 0.35634,0.11477 0.37509,0.0585 0.026,-0.078 0.35002,-0.026 0.35002,0.0562 0,0.0656 0.3836,0.11628 0.42107,0.0557 0.0372,-0.0602 0.34221,-0.008 0.34221,0.0583 0,0.0634 0.33051,0.11649 0.39449,0.0634 0.0665,-0.0552 0.36787,-0.009 0.34416,0.0528 -0.024,0.0624 0.36486,0.12356 0.40214,0.0632 0.0341,-0.0552 0.34761,-0.009 0.34761,0.0508 0,0.0768 0.39897,0.13396 0.42616,0.061 0.0186,-0.0499 0.31966,0.0119 0.30903,0.0635 -0.005,0.024 0.0552,0.054 0.13358,0.0665 0.0784,0.0126 0.17263,0.0289 0.20936,0.0362 0.0371,0.007 0.0668,-0.009 0.0668,-0.0379 0,-0.0743 0.26795,-0.0261 0.35451,0.0638 0.0376,0.039 0.11772,0.0709 0.17816,0.0709 0.0604,0 0.13704,0.0104 0.17025,0.0232 0.0382,0.0147 0.0604,0.003 0.0604,-0.033 0,-0.0449 0.0311,-0.0505 0.15449,-0.028 0.085,0.0155 0.17513,0.0541 0.20036,0.0858 0.0541,0.0678 0.37027,0.12507 0.37027,0.067 0,-0.0685 0.26012,-0.0429 0.33245,0.0328 0.0771,0.0806 0.43083,0.14924 0.43083,0.0836 0,-0.0223 0.0386,-0.0403 0.0859,-0.04 0.14114,8.6e-4 0.2576,0.0434 0.2576,0.0942 0,0.0647 0.33862,0.10952 0.40589,0.0537 0.0665,-0.0552 0.31923,-0.009 0.31923,0.0584 0,0.0681 0.38232,0.12108 0.42107,0.0584 0.0376,-0.0608 0.34221,-0.008 0.34221,0.0591 0,0.064 0.37959,0.12254 0.41568,0.0641 0.0367,-0.0593 0.34653,-0.0102 0.32297,0.0513 -0.024,0.0624 0.36486,0.12356 0.40214,0.0632 0.0343,-0.0555 0.3476,-0.009 0.3476,0.0511 0,0.0263 0.0387,0.0581 0.0859,0.0708 0.13195,0.0354 0.33394,0.0283 0.33394,-0.0117 0,-0.0555 0.28044,-3.8e-4 0.33291,0.0654 0.0622,0.0779 0.3922,0.13023 0.3922,0.0621 0,-0.072 0.26999,-0.0215 0.35451,0.0663 0.0376,0.039 0.10624,0.0712 0.15265,0.0714 0.0464,3.1e-4 0.12303,0.0109 0.17025,0.0235 0.0608,0.0163 0.0859,0.006 0.0859,-0.0336 0,-0.0453 0.0307,-0.051 0.15449,-0.0283 0.085,0.0155 0.17513,0.0541 0.20036,0.0858 0.0541,0.0678 0.37027,0.12507 0.37027,0.067 0,-0.0685 0.26012,-0.0429 0.33244,0.0328 0.0771,0.0806 0.43084,0.14925 0.43084,0.0836 0,-0.0223 0.0386,-0.0403 0.0859,-0.04 0.14114,8.6e-4 0.2576,0.0434 0.2576,0.0942 0,0.0641 0.33853,0.1096 0.40499,0.0544 0.0698,-0.0579 0.35999,-0.007 0.33479,0.0586 -0.0247,0.0643 0.36628,0.12236 0.40475,0.0601 0.0355,-0.0575 0.34387,-0.006 0.34387,0.0579 0,0.0626 0.3803,0.11987 0.41568,0.0626 0.0368,-0.0595 0.35663,-0.009 0.33301,0.0526 -0.0239,0.0624 0.35487,0.12211 0.3921,0.0619 0.0343,-0.0555 0.3476,-0.009 0.3476,0.0511 0,0.0263 0.0386,0.0581 0.0859,0.0708 0.13195,0.0354 0.33394,0.0283 0.33394,-0.0117 0,-0.0555 0.28044,-3.9e-4 0.33291,0.0654 0.0622,0.0779 0.3922,0.13024 0.3922,0.0622 0,-0.072 0.26999,-0.0215 0.35451,0.0663 0.0376,0.039 0.10624,0.0712 0.15265,0.0714 0.0464,3e-4 0.12302,0.0109 0.17025,0.0235 0.0608,0.0163 0.0859,0.006 0.0859,-0.0336 0,-0.0453 0.0307,-0.051 0.15449,-0.0283 0.085,0.0155 0.17513,0.0541 0.20036,0.0858 0.0541,0.0678 0.37027,0.12507 0.37027,0.067 0,-0.0685 0.26012,-0.0429 0.33244,0.0328 0.0771,0.0806 0.43084,0.14925 0.43084,0.0836 0,-0.0223 0.0386,-0.0403 0.0859,-0.04 0.14115,8.5e-4 0.25761,0.0434 0.25761,0.0941 0,0.0641 0.33853,0.1096 0.40499,0.0544 0.0698,-0.0579 0.35999,-0.007 0.33479,0.0586 -0.0247,0.0643 0.36628,0.12237 0.40475,0.0601 0.0355,-0.0575 0.34387,-0.006 0.34387,0.0579 0,0.0626 0.3803,0.11987 0.41567,0.0626 0.0363,-0.0587 0.35668,-0.009 0.33339,0.0517 -0.0113,0.0293 0.0266,0.0567 0.0981,0.071 0.16848,0.0337 0.28948,0.0286 0.30409,-0.0127 0.0188,-0.0534 0.33711,-7.7e-4 0.33711,0.0557 0,0.0821 0.39709,0.1387 0.42617,0.0607 0.0184,-0.0493 0.30879,0.006 0.32762,0.0629 0.0127,0.038 -5.60596,0.0469 -27.79932,0.0442 l -27.81517,-0.003 z"
       id="path1114"
       inkscape:connector-curvature="0"
       transform="scale(0.26458333)" />
    <path
       style="fill:#999999;fill-opacity:1;stroke:#999999;stroke-width:0.00721209;stroke-miterlimit:4;stroke-dasharray:none;stroke-dashoffset:0;stroke-opacity:1"
       d="m 322.35343,149.05267 c -5.72842,-4.64112 -10.44527,-8.46709 -10.4819,-8.50216 -0.0629,-0.0603 0.43337,-0.92971 9.06585,-15.88187 9.46327,-16.39116 9.30036,-16.11573 9.30036,-15.72415 0,0.07 0.0234,0.12732 0.0573,0.14031 0.0654,0.0251 0.0831,0.35728 0.0191,0.35728 -0.0646,0 -0.0467,0.38075 0.0191,0.406 0.0654,0.0251 0.0831,0.35728 0.0191,0.35728 -0.0642,0 -0.0464,0.34271 0.0191,0.36784 0.0654,0.0251 0.0831,0.35727 0.0191,0.35727 -0.0646,0 -0.0467,0.38075 0.0191,0.40601 0.0654,0.0251 0.0831,0.35727 0.0191,0.35727 -0.0646,0 -0.0467,0.38075 0.0191,0.406 0.0654,0.0251 0.0831,0.35728 0.0191,0.35728 -0.0646,0 -0.0467,0.38075 0.0191,0.406 0.0654,0.0251 0.0831,0.35728 0.0191,0.35728 -0.0646,0 -0.0467,0.38075 0.0191,0.406 0.0654,0.0251 0.0831,0.35728 0.0191,0.35728 -0.0642,0 -0.0464,0.34271 0.0191,0.36784 0.0654,0.0251 0.0831,0.35728 0.0191,0.35728 -0.0646,0 -0.0467,0.38074 0.0191,0.406 0.0654,0.0251 0.0831,0.35728 0.0191,0.35728 -0.0646,0 -0.0467,0.38074 0.0191,0.406 0.0654,0.0251 0.0831,0.35727 0.0191,0.35727 -0.0646,0 -0.0467,0.38075 0.0191,0.40601 0.0654,0.0251 0.0831,0.35727 0.0191,0.35727 -0.021,0 -0.0382,0.0859 -0.0382,0.19082 0,0.14418 0.014,0.19082 0.0572,0.19082 0.0423,0 0.0573,0.0443 0.0573,0.16949 0,0.0932 -0.0172,0.1801 -0.0382,0.19307 -0.0628,0.0388 -0.0469,0.36159 0.0191,0.38692 0.0654,0.0251 0.0831,0.35728 0.0191,0.35728 -0.0646,0 -0.0467,0.38075 0.0191,0.406 0.0654,0.0251 0.0831,0.35728 0.0191,0.35728 -0.0646,0 -0.0467,0.38075 0.0191,0.406 0.0654,0.0251 0.0831,0.35728 0.0191,0.35728 -0.0646,0 -0.0467,0.38075 0.0191,0.406 0.0654,0.0251 0.0831,0.35728 0.0191,0.35728 -0.0642,0 -0.0464,0.34271 0.0191,0.36784 0.0654,0.0251 0.0831,0.35727 0.0191,0.35727 -0.0646,0 -0.0467,0.38075 0.0191,0.406 0.0654,0.0251 0.0831,0.35728 0.0191,0.35728 -0.0646,0 -0.0467,0.38075 0.0191,0.406 0.0654,0.0251 0.0831,0.35728 0.0191,0.35728 -0.0646,0 -0.0467,0.38075 0.0191,0.406 0.0666,0.0256 0.0825,0.35728 0.0171,0.35728 -0.0245,0 -0.0357,0.0783 -0.0286,0.20036 0.008,0.1353 0.027,0.19726 0.0592,0.19082 0.0584,-0.0117 0.0673,0.31729 0.01,0.35302 -0.0628,0.0388 -0.0469,0.36159 0.0191,0.38692 0.0654,0.0251 0.0831,0.35728 0.0191,0.35728 -0.0646,0 -0.0467,0.38074 0.0191,0.406 0.0654,0.0251 0.0831,0.35727 0.0191,0.35727 -0.0646,0 -0.0467,0.38075 0.0191,0.40601 0.0654,0.0251 0.0831,0.35727 0.0191,0.35727 -0.0646,0 -0.0467,0.38075 0.0191,0.40601 0.0654,0.0251 0.0831,0.35727 0.0191,0.35727 -0.021,0 -0.0382,0.0859 -0.0382,0.19082 0,0.14418 0.014,0.19082 0.0573,0.19082 0.0424,0 0.0572,0.0445 0.0572,0.17174 0,0.0945 -0.0172,0.17174 -0.0382,0.17174 -0.0646,0 -0.0467,0.38075 0.0191,0.406 0.0654,0.0251 0.0831,0.35728 0.0191,0.35728 -0.0646,0 -0.0467,0.38075 0.0191,0.406 0.0654,0.0251 0.0831,0.35728 0.0191,0.35728 -0.0646,0 -0.0467,0.38075 0.0191,0.406 0.0666,0.0256 0.0825,0.35728 0.0171,0.35728 -0.0245,0 -0.0357,0.0783 -0.0286,0.20036 0.008,0.1353 0.027,0.19726 0.0592,0.19082 0.0584,-0.0117 0.0673,0.31729 0.01,0.35301 -0.021,0.013 -0.0382,0.10845 -0.0382,0.21216 0,0.14217 0.0141,0.18857 0.0573,0.18857 0.0424,0 0.0572,0.0445 0.0572,0.17173 0,0.0945 -0.0172,0.17174 -0.0382,0.17174 -0.0646,0 -0.0467,0.38075 0.0191,0.406 0.0654,0.0251 0.0831,0.35728 0.0191,0.35728 -0.0646,0 -0.0467,0.38075 0.0191,0.406 0.0654,0.0251 0.0831,0.35728 0.0191,0.35728 -0.0646,0 -0.0467,0.38075 0.0191,0.406 0.0654,0.0251 0.0831,0.35728 0.0191,0.35728 -0.021,0 -0.0382,0.0859 -0.0382,0.19082 0,0.14417 0.014,0.19082 0.0572,0.19082 0.0424,0 0.0573,0.0445 0.0573,0.17174 0,0.0944 -0.0172,0.17174 -0.0382,0.17174 -0.021,0 -0.0382,0.0944 -0.0382,0.2099 0,0.16113 0.0133,0.2099 0.0573,0.2099 0.0424,0 0.0572,0.0445 0.0572,0.17174 0,0.0944 -0.0172,0.17173 -0.0382,0.17173 -0.0646,0 -0.0467,0.38075 0.0191,0.40601 0.0654,0.0251 0.0831,0.35727 0.0191,0.35727 -0.0646,0 -0.0467,0.38075 0.0191,0.40601 0.0654,0.0251 0.0831,0.35727 0.0191,0.35727 -0.0646,0 -0.0467,0.38075 0.0191,0.40601 0.0654,0.0251 0.0831,0.35727 0.0191,0.35727 -0.021,0 -0.0382,0.0859 -0.0382,0.19082 0,0.14418 0.014,0.19082 0.0572,0.19082 0.0424,0 0.0572,0.0445 0.0572,0.17174 0,0.0945 -0.0172,0.17174 -0.0382,0.17174 -0.021,0 -0.0382,0.0944 -0.0382,0.2099 0,0.16114 0.0133,0.2099 0.0573,0.2099 0.0424,0 0.0572,0.0445 0.0572,0.17174 0,0.0945 -0.0172,0.17174 -0.0382,0.17174 -0.0646,0 -0.0467,0.38075 0.0191,0.406 0.0654,0.0251 0.0831,0.35728 0.0191,0.35728 -0.0646,0 -0.0467,0.38075 0.0191,0.406 0.0654,0.0251 0.0831,0.35728 0.0191,0.35728 -0.021,0 -0.0382,0.0859 -0.0382,0.19082 0,0.14417 0.014,0.19082 0.0573,0.19082 0.0423,0 0.0573,0.0443 0.0573,0.16948 0,0.0932 -0.0172,0.1801 -0.0382,0.19307 -0.021,0.013 -0.0382,0.10845 -0.0382,0.21216 0,0.14217 0.0141,0.18857 0.0572,0.18857 0.0424,0 0.0573,0.0445 0.0573,0.17173 0,0.0945 -0.0172,0.17174 -0.0382,0.17174 -0.0646,0 -0.0467,0.38075 0.0191,0.406 0.0654,0.0251 0.0831,0.35728 0.0191,0.35728 -0.0646,0 -0.0467,0.38075 0.0191,0.406 0.0654,0.0251 0.0831,0.35728 0.0191,0.35728 -0.0646,0 -0.0467,0.38075 0.0191,0.406 0.0654,0.0251 0.0831,0.35728 0.0191,0.35728 -0.021,0 -0.0382,0.0859 -0.0382,0.19082 0,0.14417 0.014,0.19082 0.0573,0.19082 0.0424,0 0.0572,0.0445 0.0572,0.17174 0,0.0944 -0.0172,0.17173 -0.0382,0.17173 -0.021,0 -0.0382,0.0945 -0.0382,0.20991 0,0.16113 0.0133,0.2099 0.0572,0.2099 0.0424,0 0.0572,0.0445 0.0572,0.17174 0,0.0944 -0.0172,0.17173 -0.0382,0.17173 -0.0646,0 -0.0467,0.38075 0.0191,0.40601 0.0654,0.0251 0.0831,0.35727 0.0191,0.35727 -0.0646,0 -0.0467,0.38075 0.0191,0.40601 0.0666,0.0256 0.0825,0.35727 0.0171,0.35727 -0.0245,0 -0.0357,0.0783 -0.0286,0.20036 0.008,0.1353 0.027,0.19727 0.0592,0.19082 0.0584,-0.0117 0.0673,0.31729 0.01,0.35302 -0.021,0.013 -0.0382,0.10844 -0.0382,0.21215 0,0.14218 0.0141,0.18857 0.0573,0.18857 0.0424,0 0.0573,0.0445 0.0573,0.17174 0,0.0945 -0.0172,0.17174 -0.0382,0.17174 -0.021,0 -0.0382,0.0944 -0.0382,0.2099 0,0.16114 0.0133,0.2099 0.0572,0.2099 0.0424,0 0.0573,0.0445 0.0573,0.17174 0,0.0944 -0.0172,0.17174 -0.0382,0.17174 -0.0646,0 -0.0467,0.38075 0.0191,0.406 0.0654,0.0251 0.0831,0.35728 0.0191,0.35728 -0.0646,0 -0.0467,0.38075 0.0191,0.406 0.0654,0.0251 0.0831,0.35728 0.0191,0.35728 -0.021,0 -0.0382,0.0859 -0.0382,0.19082 0,0.14417 0.014,0.19082 0.0573,0.19082 0.0424,0 0.0572,0.0445 0.0572,0.17173 0,0.0945 -0.0172,0.17174 -0.0382,0.17174 -0.021,0 -0.0382,0.0945 -0.0382,0.2099 0,0.16114 0.0133,0.2099 0.0573,0.2099 0.0424,0 0.0572,0.0445 0.0572,0.17174 0,0.0945 -0.0172,0.17174 -0.0382,0.17174 -0.0646,0 -0.0467,0.38075 0.0191,0.406 0.0654,0.0251 0.0831,0.35728 0.0191,0.35728 -0.0646,0 -0.0467,0.38075 0.0191,0.406 0.0654,0.0251 0.0831,0.35728 0.0191,0.35728 -0.0646,0 -0.0467,0.38075 0.0191,0.406 0.0655,0.0251 0.081,0.29993 0.0191,0.3382 -0.021,0.013 -0.0382,0.10844 -0.0382,0.21215 0,0.14217 0.0141,0.18857 0.0573,0.18857 0.0424,0 0.0572,0.0445 0.0572,0.17174 0,0.0944 -0.0172,0.17173 -0.0382,0.17173 -0.021,0 -0.0382,0.0945 -0.0382,0.20991 0,0.16113 0.0133,0.2099 0.0573,0.2099 0.0424,0 0.0573,0.0445 0.0573,0.17174 0,0.0944 -0.0172,0.17173 -0.0382,0.17173 -0.021,0 -0.0382,0.085 -0.0382,0.18893 0,0.1399 0.0172,0.19857 0.0665,0.22612 0.0365,0.0205 0.0565,0.0472 0.0442,0.0594 -0.0122,0.0122 -4.70911,-3.77506 -10.43753,-8.41617 z"
       id="path1116"
       inkscape:connector-curvature="0"
       transform="scale(0.26458333)" />
  </g>
</svg>
